%TF.GenerationSoftware,KiCad,Pcbnew,(6.0.0-rc1-124-g18b4ebcc17)*%
%TF.CreationDate,2021-11-25T20:10:52+05:30*%
%TF.ProjectId,Europa,4575726f-7061-42e6-9b69-6361645f7063,rev?*%
%TF.SameCoordinates,Original*%
%TF.FileFunction,Paste,Top*%
%TF.FilePolarity,Positive*%
%FSLAX46Y46*%
G04 Gerber Fmt 4.6, Leading zero omitted, Abs format (unit mm)*
G04 Created by KiCad (PCBNEW (6.0.0-rc1-124-g18b4ebcc17)) date 2021-11-25 20:10:52*
%MOMM*%
%LPD*%
G01*
G04 APERTURE LIST*
G04 Aperture macros list*
%AMRoundRect*
0 Rectangle with rounded corners*
0 $1 Rounding radius*
0 $2 $3 $4 $5 $6 $7 $8 $9 X,Y pos of 4 corners*
0 Add a 4 corners polygon primitive as box body*
4,1,4,$2,$3,$4,$5,$6,$7,$8,$9,$2,$3,0*
0 Add four circle primitives for the rounded corners*
1,1,$1+$1,$2,$3*
1,1,$1+$1,$4,$5*
1,1,$1+$1,$6,$7*
1,1,$1+$1,$8,$9*
0 Add four rect primitives between the rounded corners*
20,1,$1+$1,$2,$3,$4,$5,0*
20,1,$1+$1,$4,$5,$6,$7,0*
20,1,$1+$1,$6,$7,$8,$9,0*
20,1,$1+$1,$8,$9,$2,$3,0*%
G04 Aperture macros list end*
%ADD10RoundRect,0.225000X-0.250000X0.225000X-0.250000X-0.225000X0.250000X-0.225000X0.250000X0.225000X0*%
%ADD11RoundRect,0.140000X-0.170000X0.140000X-0.170000X-0.140000X0.170000X-0.140000X0.170000X0.140000X0*%
%ADD12R,2.400000X0.740000*%
%ADD13RoundRect,0.135000X-0.185000X0.135000X-0.185000X-0.135000X0.185000X-0.135000X0.185000X0.135000X0*%
%ADD14RoundRect,0.135000X0.135000X0.185000X-0.135000X0.185000X-0.135000X-0.185000X0.135000X-0.185000X0*%
%ADD15RoundRect,0.135000X0.185000X-0.135000X0.185000X0.135000X-0.185000X0.135000X-0.185000X-0.135000X0*%
%ADD16R,0.800000X1.000000*%
%ADD17R,1.500000X0.700000*%
%ADD18RoundRect,0.140000X0.140000X0.170000X-0.140000X0.170000X-0.140000X-0.170000X0.140000X-0.170000X0*%
%ADD19R,1.200000X1.400000*%
%ADD20R,1.500000X2.000000*%
%ADD21R,3.800000X2.000000*%
%ADD22RoundRect,0.249999X-0.325001X-0.650001X0.325001X-0.650001X0.325001X0.650001X-0.325001X0.650001X0*%
%ADD23RoundRect,0.100000X-0.637500X-0.100000X0.637500X-0.100000X0.637500X0.100000X-0.637500X0.100000X0*%
%ADD24RoundRect,0.218750X0.218750X0.256250X-0.218750X0.256250X-0.218750X-0.256250X0.218750X-0.256250X0*%
%ADD25RoundRect,0.135000X-0.135000X-0.185000X0.135000X-0.185000X0.135000X0.185000X-0.135000X0.185000X0*%
%ADD26RoundRect,0.218750X0.256250X-0.218750X0.256250X0.218750X-0.256250X0.218750X-0.256250X-0.218750X0*%
%ADD27R,0.800000X0.900000*%
%ADD28RoundRect,0.250000X0.375000X0.625000X-0.375000X0.625000X-0.375000X-0.625000X0.375000X-0.625000X0*%
%ADD29R,1.000000X0.500000*%
G04 APERTURE END LIST*
D10*
%TO.C,C1*%
X55775000Y-52225000D03*
X55775000Y-53775000D03*
%TD*%
D11*
%TO.C,C2*%
X54500000Y-52520000D03*
X54500000Y-53480000D03*
%TD*%
D10*
%TO.C,C5*%
X44350000Y-53675000D03*
X44350000Y-55225000D03*
%TD*%
D12*
%TO.C,J3*%
X33050000Y-39960000D03*
X36950000Y-39960000D03*
X33050000Y-41230000D03*
X36950000Y-41230000D03*
X33050000Y-42500000D03*
X36950000Y-42500000D03*
X33050000Y-43770000D03*
X36950000Y-43770000D03*
X33050000Y-45040000D03*
X36950000Y-45040000D03*
%TD*%
D13*
%TO.C,R3*%
X68600000Y-43730000D03*
X68600000Y-44750000D03*
%TD*%
%TO.C,R6*%
X67500000Y-43730000D03*
X67500000Y-44750000D03*
%TD*%
D14*
%TO.C,R8*%
X56010000Y-59400000D03*
X54990000Y-59400000D03*
%TD*%
D15*
%TO.C,R12*%
X35250000Y-55750000D03*
X35250000Y-54730000D03*
%TD*%
D16*
%TO.C,SW1*%
X30670000Y-58650000D03*
X32880000Y-51350000D03*
X32880000Y-58650000D03*
X30670000Y-51350000D03*
D17*
X33530000Y-52750000D03*
X33530000Y-55750000D03*
X33530000Y-57250000D03*
%TD*%
D11*
%TO.C,C6*%
X45600000Y-53400000D03*
X45600000Y-54360000D03*
%TD*%
D14*
%TO.C,R2*%
X45310000Y-51375000D03*
X44290000Y-51375000D03*
%TD*%
D18*
%TO.C,C3*%
X41560000Y-48050000D03*
X40600000Y-48050000D03*
%TD*%
D19*
%TO.C,Y1*%
X40600000Y-49600000D03*
X40600000Y-51800000D03*
X42300000Y-51800000D03*
X42300000Y-49600000D03*
%TD*%
D18*
%TO.C,C4*%
X42300000Y-53350000D03*
X41340000Y-53350000D03*
%TD*%
D20*
%TO.C,U2*%
X60100000Y-34700000D03*
D21*
X57800000Y-41000000D03*
D20*
X57800000Y-34700000D03*
X55500000Y-34700000D03*
%TD*%
D22*
%TO.C,C8*%
X57800000Y-31900000D03*
X60750000Y-31900000D03*
%TD*%
%TO.C,C7*%
X52550000Y-31900000D03*
X55500000Y-31900000D03*
%TD*%
D23*
%TO.C,U1*%
X47137500Y-50075000D03*
X47137500Y-50725000D03*
X47137500Y-51375000D03*
X47137500Y-52025000D03*
X47137500Y-52675000D03*
X47137500Y-53325000D03*
X47137500Y-53975000D03*
X47137500Y-54625000D03*
X47137500Y-55275000D03*
X47137500Y-55925000D03*
X52862500Y-55925000D03*
X52862500Y-55275000D03*
X52862500Y-54625000D03*
X52862500Y-53975000D03*
X52862500Y-53325000D03*
X52862500Y-52675000D03*
X52862500Y-52025000D03*
X52862500Y-51375000D03*
X52862500Y-50725000D03*
X52862500Y-50075000D03*
%TD*%
D24*
%TO.C,FB1*%
X52525000Y-34200000D03*
X50950000Y-34200000D03*
%TD*%
D25*
%TO.C,R11*%
X46110000Y-57500000D03*
X47130000Y-57500000D03*
%TD*%
D26*
%TO.C,D4*%
X38750000Y-68037500D03*
X38750000Y-66462500D03*
%TD*%
D14*
%TO.C,R10*%
X56010000Y-57000000D03*
X54990000Y-57000000D03*
%TD*%
%TO.C,R9*%
X56010000Y-58200000D03*
X54990000Y-58200000D03*
%TD*%
D27*
%TO.C,Q1*%
X52850000Y-36200000D03*
X50950000Y-36200000D03*
X51900000Y-38200000D03*
%TD*%
D28*
%TO.C,F1*%
X51900000Y-40300000D03*
X49100000Y-40300000D03*
%TD*%
D26*
%TO.C,D3*%
X38850000Y-34075000D03*
X38850000Y-32500000D03*
%TD*%
D13*
%TO.C,R7*%
X40300000Y-32500000D03*
X40300000Y-33520000D03*
%TD*%
D18*
%TO.C,C12*%
X67650000Y-61150000D03*
X66690000Y-61150000D03*
%TD*%
D29*
%TO.C,D5*%
X65850000Y-60000000D03*
X65850000Y-59000000D03*
X67650000Y-59000000D03*
X67650000Y-60000000D03*
%TD*%
M02*
