%TF.GenerationSoftware,KiCad,Pcbnew,(6.0.0-rc1-124-g18b4ebcc17)*%
%TF.CreationDate,2021-11-25T20:10:52+05:30*%
%TF.ProjectId,Europa,4575726f-7061-42e6-9b69-6361645f7063,rev?*%
%TF.SameCoordinates,Original*%
%TF.FileFunction,AssemblyDrawing,Top*%
%FSLAX46Y46*%
G04 Gerber Fmt 4.6, Leading zero omitted, Abs format (unit mm)*
G04 Created by KiCad (PCBNEW (6.0.0-rc1-124-g18b4ebcc17)) date 2021-11-25 20:10:52*
%MOMM*%
%LPD*%
G01*
G04 APERTURE LIST*
%ADD10C,0.150000*%
%ADD11C,0.060000*%
%ADD12C,0.040000*%
%ADD13C,0.105000*%
%ADD14C,0.120000*%
%ADD15C,0.075000*%
%ADD16C,0.100000*%
G04 APERTURE END LIST*
D10*
%TO.C,C1*%
X57562142Y-53166666D02*
X57609761Y-53214285D01*
X57657380Y-53357142D01*
X57657380Y-53452380D01*
X57609761Y-53595238D01*
X57514523Y-53690476D01*
X57419285Y-53738095D01*
X57228809Y-53785714D01*
X57085952Y-53785714D01*
X56895476Y-53738095D01*
X56800238Y-53690476D01*
X56705000Y-53595238D01*
X56657380Y-53452380D01*
X56657380Y-53357142D01*
X56705000Y-53214285D01*
X56752619Y-53166666D01*
X57657380Y-52214285D02*
X57657380Y-52785714D01*
X57657380Y-52500000D02*
X56657380Y-52500000D01*
X56800238Y-52595238D01*
X56895476Y-52690476D01*
X56943095Y-52785714D01*
X54130714Y-53738095D02*
X54797380Y-53738095D01*
X53749761Y-53976190D02*
X54464047Y-54214285D01*
X54464047Y-53595238D01*
X54130714Y-52785714D02*
X54797380Y-52785714D01*
X54130714Y-53214285D02*
X54654523Y-53214285D01*
X54749761Y-53166666D01*
X54797380Y-53071428D01*
X54797380Y-52928571D01*
X54749761Y-52833333D01*
X54702142Y-52785714D01*
X53797380Y-52404761D02*
X53797380Y-51738095D01*
X54797380Y-52166666D01*
D11*
X55917857Y-53066666D02*
X55936904Y-53085714D01*
X55955952Y-53142857D01*
X55955952Y-53180952D01*
X55936904Y-53238095D01*
X55898809Y-53276190D01*
X55860714Y-53295238D01*
X55784523Y-53314285D01*
X55727380Y-53314285D01*
X55651190Y-53295238D01*
X55613095Y-53276190D01*
X55575000Y-53238095D01*
X55555952Y-53180952D01*
X55555952Y-53142857D01*
X55575000Y-53085714D01*
X55594047Y-53066666D01*
X55955952Y-52685714D02*
X55955952Y-52914285D01*
X55955952Y-52800000D02*
X55555952Y-52800000D01*
X55613095Y-52838095D01*
X55651190Y-52876190D01*
X55670238Y-52914285D01*
D10*
%TO.C,C2*%
X56017142Y-53166666D02*
X56064761Y-53214285D01*
X56112380Y-53357142D01*
X56112380Y-53452380D01*
X56064761Y-53595238D01*
X55969523Y-53690476D01*
X55874285Y-53738095D01*
X55683809Y-53785714D01*
X55540952Y-53785714D01*
X55350476Y-53738095D01*
X55255238Y-53690476D01*
X55160000Y-53595238D01*
X55112380Y-53452380D01*
X55112380Y-53357142D01*
X55160000Y-53214285D01*
X55207619Y-53166666D01*
X55207619Y-52785714D02*
X55160000Y-52738095D01*
X55112380Y-52642857D01*
X55112380Y-52404761D01*
X55160000Y-52309523D01*
X55207619Y-52261904D01*
X55302857Y-52214285D01*
X55398095Y-52214285D01*
X55540952Y-52261904D01*
X56112380Y-52833333D01*
X56112380Y-52214285D01*
X53792380Y-54119047D02*
X53792380Y-54690476D01*
X53792380Y-54404761D02*
X52792380Y-54404761D01*
X52935238Y-54500000D01*
X53030476Y-54595238D01*
X53078095Y-54690476D01*
X52792380Y-53500000D02*
X52792380Y-53404761D01*
X52840000Y-53309523D01*
X52887619Y-53261904D01*
X52982857Y-53214285D01*
X53173333Y-53166666D01*
X53411428Y-53166666D01*
X53601904Y-53214285D01*
X53697142Y-53261904D01*
X53744761Y-53309523D01*
X53792380Y-53404761D01*
X53792380Y-53500000D01*
X53744761Y-53595238D01*
X53697142Y-53642857D01*
X53601904Y-53690476D01*
X53411428Y-53738095D01*
X53173333Y-53738095D01*
X52982857Y-53690476D01*
X52887619Y-53642857D01*
X52840000Y-53595238D01*
X52792380Y-53500000D01*
X52792380Y-52547619D02*
X52792380Y-52452380D01*
X52840000Y-52357142D01*
X52887619Y-52309523D01*
X52982857Y-52261904D01*
X53173333Y-52214285D01*
X53411428Y-52214285D01*
X53601904Y-52261904D01*
X53697142Y-52309523D01*
X53744761Y-52357142D01*
X53792380Y-52452380D01*
X53792380Y-52547619D01*
X53744761Y-52642857D01*
X53697142Y-52690476D01*
X53601904Y-52738095D01*
X53411428Y-52785714D01*
X53173333Y-52785714D01*
X52982857Y-52738095D01*
X52887619Y-52690476D01*
X52840000Y-52642857D01*
X52792380Y-52547619D01*
X53125714Y-51785714D02*
X53792380Y-51785714D01*
X53220952Y-51785714D02*
X53173333Y-51738095D01*
X53125714Y-51642857D01*
X53125714Y-51500000D01*
X53173333Y-51404761D01*
X53268571Y-51357142D01*
X53792380Y-51357142D01*
D12*
X54589285Y-53041666D02*
X54601190Y-53053571D01*
X54613095Y-53089285D01*
X54613095Y-53113095D01*
X54601190Y-53148809D01*
X54577380Y-53172619D01*
X54553571Y-53184523D01*
X54505952Y-53196428D01*
X54470238Y-53196428D01*
X54422619Y-53184523D01*
X54398809Y-53172619D01*
X54375000Y-53148809D01*
X54363095Y-53113095D01*
X54363095Y-53089285D01*
X54375000Y-53053571D01*
X54386904Y-53041666D01*
X54386904Y-52946428D02*
X54375000Y-52934523D01*
X54363095Y-52910714D01*
X54363095Y-52851190D01*
X54375000Y-52827380D01*
X54386904Y-52815476D01*
X54410714Y-52803571D01*
X54434523Y-52803571D01*
X54470238Y-52815476D01*
X54613095Y-52958333D01*
X54613095Y-52803571D01*
D10*
%TO.C,C5*%
X46137142Y-54616666D02*
X46184761Y-54664285D01*
X46232380Y-54807142D01*
X46232380Y-54902380D01*
X46184761Y-55045238D01*
X46089523Y-55140476D01*
X45994285Y-55188095D01*
X45803809Y-55235714D01*
X45660952Y-55235714D01*
X45470476Y-55188095D01*
X45375238Y-55140476D01*
X45280000Y-55045238D01*
X45232380Y-54902380D01*
X45232380Y-54807142D01*
X45280000Y-54664285D01*
X45327619Y-54616666D01*
X45232380Y-53711904D02*
X45232380Y-54188095D01*
X45708571Y-54235714D01*
X45660952Y-54188095D01*
X45613333Y-54092857D01*
X45613333Y-53854761D01*
X45660952Y-53759523D01*
X45708571Y-53711904D01*
X45803809Y-53664285D01*
X46041904Y-53664285D01*
X46137142Y-53711904D01*
X46184761Y-53759523D01*
X46232380Y-53854761D01*
X46232380Y-54092857D01*
X46184761Y-54188095D01*
X46137142Y-54235714D01*
X43372380Y-54616666D02*
X43372380Y-55188095D01*
X43372380Y-54902380D02*
X42372380Y-54902380D01*
X42515238Y-54997619D01*
X42610476Y-55092857D01*
X42658095Y-55188095D01*
X42705714Y-53759523D02*
X43372380Y-53759523D01*
X42705714Y-54188095D02*
X43229523Y-54188095D01*
X43324761Y-54140476D01*
X43372380Y-54045238D01*
X43372380Y-53902380D01*
X43324761Y-53807142D01*
X43277142Y-53759523D01*
D11*
X44492857Y-54516666D02*
X44511904Y-54535714D01*
X44530952Y-54592857D01*
X44530952Y-54630952D01*
X44511904Y-54688095D01*
X44473809Y-54726190D01*
X44435714Y-54745238D01*
X44359523Y-54764285D01*
X44302380Y-54764285D01*
X44226190Y-54745238D01*
X44188095Y-54726190D01*
X44150000Y-54688095D01*
X44130952Y-54630952D01*
X44130952Y-54592857D01*
X44150000Y-54535714D01*
X44169047Y-54516666D01*
X44130952Y-54154761D02*
X44130952Y-54345238D01*
X44321428Y-54364285D01*
X44302380Y-54345238D01*
X44283333Y-54307142D01*
X44283333Y-54211904D01*
X44302380Y-54173809D01*
X44321428Y-54154761D01*
X44359523Y-54135714D01*
X44454761Y-54135714D01*
X44492857Y-54154761D01*
X44511904Y-54173809D01*
X44530952Y-54211904D01*
X44530952Y-54307142D01*
X44511904Y-54345238D01*
X44492857Y-54364285D01*
D10*
%TO.C,H1*%
X33238095Y-30452380D02*
X33238095Y-29452380D01*
X33238095Y-29928571D02*
X33809523Y-29928571D01*
X33809523Y-30452380D02*
X33809523Y-29452380D01*
X34809523Y-30452380D02*
X34238095Y-30452380D01*
X34523809Y-30452380D02*
X34523809Y-29452380D01*
X34428571Y-29595238D01*
X34333333Y-29690476D01*
X34238095Y-29738095D01*
X27428571Y-38452380D02*
X27428571Y-37452380D01*
X27761904Y-38166666D01*
X28095238Y-37452380D01*
X28095238Y-38452380D01*
X28714285Y-38452380D02*
X28619047Y-38404761D01*
X28571428Y-38357142D01*
X28523809Y-38261904D01*
X28523809Y-37976190D01*
X28571428Y-37880952D01*
X28619047Y-37833333D01*
X28714285Y-37785714D01*
X28857142Y-37785714D01*
X28952380Y-37833333D01*
X29000000Y-37880952D01*
X29047619Y-37976190D01*
X29047619Y-38261904D01*
X29000000Y-38357142D01*
X28952380Y-38404761D01*
X28857142Y-38452380D01*
X28714285Y-38452380D01*
X29904761Y-37785714D02*
X29904761Y-38452380D01*
X29476190Y-37785714D02*
X29476190Y-38309523D01*
X29523809Y-38404761D01*
X29619047Y-38452380D01*
X29761904Y-38452380D01*
X29857142Y-38404761D01*
X29904761Y-38357142D01*
X30380952Y-37785714D02*
X30380952Y-38452380D01*
X30380952Y-37880952D02*
X30428571Y-37833333D01*
X30523809Y-37785714D01*
X30666666Y-37785714D01*
X30761904Y-37833333D01*
X30809523Y-37928571D01*
X30809523Y-38452380D01*
X31142857Y-37785714D02*
X31523809Y-37785714D01*
X31285714Y-37452380D02*
X31285714Y-38309523D01*
X31333333Y-38404761D01*
X31428571Y-38452380D01*
X31523809Y-38452380D01*
X31857142Y-38452380D02*
X31857142Y-37785714D01*
X31857142Y-37452380D02*
X31809523Y-37500000D01*
X31857142Y-37547619D01*
X31904761Y-37500000D01*
X31857142Y-37452380D01*
X31857142Y-37547619D01*
X32333333Y-37785714D02*
X32333333Y-38452380D01*
X32333333Y-37880952D02*
X32380952Y-37833333D01*
X32476190Y-37785714D01*
X32619047Y-37785714D01*
X32714285Y-37833333D01*
X32761904Y-37928571D01*
X32761904Y-38452380D01*
X33666666Y-37785714D02*
X33666666Y-38595238D01*
X33619047Y-38690476D01*
X33571428Y-38738095D01*
X33476190Y-38785714D01*
X33333333Y-38785714D01*
X33238095Y-38738095D01*
X33666666Y-38404761D02*
X33571428Y-38452380D01*
X33380952Y-38452380D01*
X33285714Y-38404761D01*
X33238095Y-38357142D01*
X33190476Y-38261904D01*
X33190476Y-37976190D01*
X33238095Y-37880952D01*
X33285714Y-37833333D01*
X33380952Y-37785714D01*
X33571428Y-37785714D01*
X33666666Y-37833333D01*
X34142857Y-38452380D02*
X34142857Y-37452380D01*
X34142857Y-37928571D02*
X34714285Y-37928571D01*
X34714285Y-38452380D02*
X34714285Y-37452380D01*
X35333333Y-38452380D02*
X35238095Y-38404761D01*
X35190476Y-38357142D01*
X35142857Y-38261904D01*
X35142857Y-37976190D01*
X35190476Y-37880952D01*
X35238095Y-37833333D01*
X35333333Y-37785714D01*
X35476190Y-37785714D01*
X35571428Y-37833333D01*
X35619047Y-37880952D01*
X35666666Y-37976190D01*
X35666666Y-38261904D01*
X35619047Y-38357142D01*
X35571428Y-38404761D01*
X35476190Y-38452380D01*
X35333333Y-38452380D01*
X36238095Y-38452380D02*
X36142857Y-38404761D01*
X36095238Y-38309523D01*
X36095238Y-37452380D01*
X37000000Y-38404761D02*
X36904761Y-38452380D01*
X36714285Y-38452380D01*
X36619047Y-38404761D01*
X36571428Y-38309523D01*
X36571428Y-37928571D01*
X36619047Y-37833333D01*
X36714285Y-37785714D01*
X36904761Y-37785714D01*
X37000000Y-37833333D01*
X37047619Y-37928571D01*
X37047619Y-38023809D01*
X36571428Y-38119047D01*
X37238095Y-38547619D02*
X38000000Y-38547619D01*
X38238095Y-38452380D02*
X38238095Y-37452380D01*
X38619047Y-37452380D01*
X38714285Y-37500000D01*
X38761904Y-37547619D01*
X38809523Y-37642857D01*
X38809523Y-37785714D01*
X38761904Y-37880952D01*
X38714285Y-37928571D01*
X38619047Y-37976190D01*
X38238095Y-37976190D01*
X39666666Y-38452380D02*
X39666666Y-37928571D01*
X39619047Y-37833333D01*
X39523809Y-37785714D01*
X39333333Y-37785714D01*
X39238095Y-37833333D01*
X39666666Y-38404761D02*
X39571428Y-38452380D01*
X39333333Y-38452380D01*
X39238095Y-38404761D01*
X39190476Y-38309523D01*
X39190476Y-38214285D01*
X39238095Y-38119047D01*
X39333333Y-38071428D01*
X39571428Y-38071428D01*
X39666666Y-38023809D01*
X40571428Y-38452380D02*
X40571428Y-37452380D01*
X40571428Y-38404761D02*
X40476190Y-38452380D01*
X40285714Y-38452380D01*
X40190476Y-38404761D01*
X40142857Y-38357142D01*
X40095238Y-38261904D01*
X40095238Y-37976190D01*
X40142857Y-37880952D01*
X40190476Y-37833333D01*
X40285714Y-37785714D01*
X40476190Y-37785714D01*
X40571428Y-37833333D01*
X33538095Y-34452380D02*
X33538095Y-33452380D01*
X33538095Y-33928571D02*
X34109523Y-33928571D01*
X34109523Y-34452380D02*
X34109523Y-33452380D01*
X35109523Y-34452380D02*
X34538095Y-34452380D01*
X34823809Y-34452380D02*
X34823809Y-33452380D01*
X34728571Y-33595238D01*
X34633333Y-33690476D01*
X34538095Y-33738095D01*
%TO.C,H2*%
X33238095Y-62452380D02*
X33238095Y-61452380D01*
X33238095Y-61928571D02*
X33809523Y-61928571D01*
X33809523Y-62452380D02*
X33809523Y-61452380D01*
X34238095Y-61547619D02*
X34285714Y-61500000D01*
X34380952Y-61452380D01*
X34619047Y-61452380D01*
X34714285Y-61500000D01*
X34761904Y-61547619D01*
X34809523Y-61642857D01*
X34809523Y-61738095D01*
X34761904Y-61880952D01*
X34190476Y-62452380D01*
X34809523Y-62452380D01*
X27428571Y-70452380D02*
X27428571Y-69452380D01*
X27761904Y-70166666D01*
X28095238Y-69452380D01*
X28095238Y-70452380D01*
X28714285Y-70452380D02*
X28619047Y-70404761D01*
X28571428Y-70357142D01*
X28523809Y-70261904D01*
X28523809Y-69976190D01*
X28571428Y-69880952D01*
X28619047Y-69833333D01*
X28714285Y-69785714D01*
X28857142Y-69785714D01*
X28952380Y-69833333D01*
X29000000Y-69880952D01*
X29047619Y-69976190D01*
X29047619Y-70261904D01*
X29000000Y-70357142D01*
X28952380Y-70404761D01*
X28857142Y-70452380D01*
X28714285Y-70452380D01*
X29904761Y-69785714D02*
X29904761Y-70452380D01*
X29476190Y-69785714D02*
X29476190Y-70309523D01*
X29523809Y-70404761D01*
X29619047Y-70452380D01*
X29761904Y-70452380D01*
X29857142Y-70404761D01*
X29904761Y-70357142D01*
X30380952Y-69785714D02*
X30380952Y-70452380D01*
X30380952Y-69880952D02*
X30428571Y-69833333D01*
X30523809Y-69785714D01*
X30666666Y-69785714D01*
X30761904Y-69833333D01*
X30809523Y-69928571D01*
X30809523Y-70452380D01*
X31142857Y-69785714D02*
X31523809Y-69785714D01*
X31285714Y-69452380D02*
X31285714Y-70309523D01*
X31333333Y-70404761D01*
X31428571Y-70452380D01*
X31523809Y-70452380D01*
X31857142Y-70452380D02*
X31857142Y-69785714D01*
X31857142Y-69452380D02*
X31809523Y-69500000D01*
X31857142Y-69547619D01*
X31904761Y-69500000D01*
X31857142Y-69452380D01*
X31857142Y-69547619D01*
X32333333Y-69785714D02*
X32333333Y-70452380D01*
X32333333Y-69880952D02*
X32380952Y-69833333D01*
X32476190Y-69785714D01*
X32619047Y-69785714D01*
X32714285Y-69833333D01*
X32761904Y-69928571D01*
X32761904Y-70452380D01*
X33666666Y-69785714D02*
X33666666Y-70595238D01*
X33619047Y-70690476D01*
X33571428Y-70738095D01*
X33476190Y-70785714D01*
X33333333Y-70785714D01*
X33238095Y-70738095D01*
X33666666Y-70404761D02*
X33571428Y-70452380D01*
X33380952Y-70452380D01*
X33285714Y-70404761D01*
X33238095Y-70357142D01*
X33190476Y-70261904D01*
X33190476Y-69976190D01*
X33238095Y-69880952D01*
X33285714Y-69833333D01*
X33380952Y-69785714D01*
X33571428Y-69785714D01*
X33666666Y-69833333D01*
X34142857Y-70452380D02*
X34142857Y-69452380D01*
X34142857Y-69928571D02*
X34714285Y-69928571D01*
X34714285Y-70452380D02*
X34714285Y-69452380D01*
X35333333Y-70452380D02*
X35238095Y-70404761D01*
X35190476Y-70357142D01*
X35142857Y-70261904D01*
X35142857Y-69976190D01*
X35190476Y-69880952D01*
X35238095Y-69833333D01*
X35333333Y-69785714D01*
X35476190Y-69785714D01*
X35571428Y-69833333D01*
X35619047Y-69880952D01*
X35666666Y-69976190D01*
X35666666Y-70261904D01*
X35619047Y-70357142D01*
X35571428Y-70404761D01*
X35476190Y-70452380D01*
X35333333Y-70452380D01*
X36238095Y-70452380D02*
X36142857Y-70404761D01*
X36095238Y-70309523D01*
X36095238Y-69452380D01*
X37000000Y-70404761D02*
X36904761Y-70452380D01*
X36714285Y-70452380D01*
X36619047Y-70404761D01*
X36571428Y-70309523D01*
X36571428Y-69928571D01*
X36619047Y-69833333D01*
X36714285Y-69785714D01*
X36904761Y-69785714D01*
X37000000Y-69833333D01*
X37047619Y-69928571D01*
X37047619Y-70023809D01*
X36571428Y-70119047D01*
X37238095Y-70547619D02*
X38000000Y-70547619D01*
X38238095Y-70452380D02*
X38238095Y-69452380D01*
X38619047Y-69452380D01*
X38714285Y-69500000D01*
X38761904Y-69547619D01*
X38809523Y-69642857D01*
X38809523Y-69785714D01*
X38761904Y-69880952D01*
X38714285Y-69928571D01*
X38619047Y-69976190D01*
X38238095Y-69976190D01*
X39666666Y-70452380D02*
X39666666Y-69928571D01*
X39619047Y-69833333D01*
X39523809Y-69785714D01*
X39333333Y-69785714D01*
X39238095Y-69833333D01*
X39666666Y-70404761D02*
X39571428Y-70452380D01*
X39333333Y-70452380D01*
X39238095Y-70404761D01*
X39190476Y-70309523D01*
X39190476Y-70214285D01*
X39238095Y-70119047D01*
X39333333Y-70071428D01*
X39571428Y-70071428D01*
X39666666Y-70023809D01*
X40571428Y-70452380D02*
X40571428Y-69452380D01*
X40571428Y-70404761D02*
X40476190Y-70452380D01*
X40285714Y-70452380D01*
X40190476Y-70404761D01*
X40142857Y-70357142D01*
X40095238Y-70261904D01*
X40095238Y-69976190D01*
X40142857Y-69880952D01*
X40190476Y-69833333D01*
X40285714Y-69785714D01*
X40476190Y-69785714D01*
X40571428Y-69833333D01*
X33538095Y-66452380D02*
X33538095Y-65452380D01*
X33538095Y-65928571D02*
X34109523Y-65928571D01*
X34109523Y-66452380D02*
X34109523Y-65452380D01*
X34538095Y-65547619D02*
X34585714Y-65500000D01*
X34680952Y-65452380D01*
X34919047Y-65452380D01*
X35014285Y-65500000D01*
X35061904Y-65547619D01*
X35109523Y-65642857D01*
X35109523Y-65738095D01*
X35061904Y-65880952D01*
X34490476Y-66452380D01*
X35109523Y-66452380D01*
%TO.C,H3*%
X65238095Y-62452380D02*
X65238095Y-61452380D01*
X65238095Y-61928571D02*
X65809523Y-61928571D01*
X65809523Y-62452380D02*
X65809523Y-61452380D01*
X66190476Y-61452380D02*
X66809523Y-61452380D01*
X66476190Y-61833333D01*
X66619047Y-61833333D01*
X66714285Y-61880952D01*
X66761904Y-61928571D01*
X66809523Y-62023809D01*
X66809523Y-62261904D01*
X66761904Y-62357142D01*
X66714285Y-62404761D01*
X66619047Y-62452380D01*
X66333333Y-62452380D01*
X66238095Y-62404761D01*
X66190476Y-62357142D01*
X59428571Y-70452380D02*
X59428571Y-69452380D01*
X59761904Y-70166666D01*
X60095238Y-69452380D01*
X60095238Y-70452380D01*
X60714285Y-70452380D02*
X60619047Y-70404761D01*
X60571428Y-70357142D01*
X60523809Y-70261904D01*
X60523809Y-69976190D01*
X60571428Y-69880952D01*
X60619047Y-69833333D01*
X60714285Y-69785714D01*
X60857142Y-69785714D01*
X60952380Y-69833333D01*
X60999999Y-69880952D01*
X61047619Y-69976190D01*
X61047619Y-70261904D01*
X60999999Y-70357142D01*
X60952380Y-70404761D01*
X60857142Y-70452380D01*
X60714285Y-70452380D01*
X61904761Y-69785714D02*
X61904761Y-70452380D01*
X61476190Y-69785714D02*
X61476190Y-70309523D01*
X61523809Y-70404761D01*
X61619047Y-70452380D01*
X61761904Y-70452380D01*
X61857142Y-70404761D01*
X61904761Y-70357142D01*
X62380952Y-69785714D02*
X62380952Y-70452380D01*
X62380952Y-69880952D02*
X62428571Y-69833333D01*
X62523809Y-69785714D01*
X62666666Y-69785714D01*
X62761904Y-69833333D01*
X62809523Y-69928571D01*
X62809523Y-70452380D01*
X63142857Y-69785714D02*
X63523809Y-69785714D01*
X63285714Y-69452380D02*
X63285714Y-70309523D01*
X63333333Y-70404761D01*
X63428571Y-70452380D01*
X63523809Y-70452380D01*
X63857142Y-70452380D02*
X63857142Y-69785714D01*
X63857142Y-69452380D02*
X63809523Y-69500000D01*
X63857142Y-69547619D01*
X63904761Y-69500000D01*
X63857142Y-69452380D01*
X63857142Y-69547619D01*
X64333333Y-69785714D02*
X64333333Y-70452380D01*
X64333333Y-69880952D02*
X64380952Y-69833333D01*
X64476190Y-69785714D01*
X64619047Y-69785714D01*
X64714285Y-69833333D01*
X64761904Y-69928571D01*
X64761904Y-70452380D01*
X65666666Y-69785714D02*
X65666666Y-70595238D01*
X65619047Y-70690476D01*
X65571428Y-70738095D01*
X65476190Y-70785714D01*
X65333333Y-70785714D01*
X65238095Y-70738095D01*
X65666666Y-70404761D02*
X65571428Y-70452380D01*
X65380952Y-70452380D01*
X65285714Y-70404761D01*
X65238095Y-70357142D01*
X65190476Y-70261904D01*
X65190476Y-69976190D01*
X65238095Y-69880952D01*
X65285714Y-69833333D01*
X65380952Y-69785714D01*
X65571428Y-69785714D01*
X65666666Y-69833333D01*
X66142857Y-70452380D02*
X66142857Y-69452380D01*
X66142857Y-69928571D02*
X66714285Y-69928571D01*
X66714285Y-70452380D02*
X66714285Y-69452380D01*
X67333333Y-70452380D02*
X67238095Y-70404761D01*
X67190476Y-70357142D01*
X67142857Y-70261904D01*
X67142857Y-69976190D01*
X67190476Y-69880952D01*
X67238095Y-69833333D01*
X67333333Y-69785714D01*
X67476190Y-69785714D01*
X67571428Y-69833333D01*
X67619047Y-69880952D01*
X67666666Y-69976190D01*
X67666666Y-70261904D01*
X67619047Y-70357142D01*
X67571428Y-70404761D01*
X67476190Y-70452380D01*
X67333333Y-70452380D01*
X68238095Y-70452380D02*
X68142857Y-70404761D01*
X68095238Y-70309523D01*
X68095238Y-69452380D01*
X69000000Y-70404761D02*
X68904761Y-70452380D01*
X68714285Y-70452380D01*
X68619047Y-70404761D01*
X68571428Y-70309523D01*
X68571428Y-69928571D01*
X68619047Y-69833333D01*
X68714285Y-69785714D01*
X68904761Y-69785714D01*
X69000000Y-69833333D01*
X69047619Y-69928571D01*
X69047619Y-70023809D01*
X68571428Y-70119047D01*
X69238095Y-70547619D02*
X70000000Y-70547619D01*
X70238095Y-70452380D02*
X70238095Y-69452380D01*
X70619047Y-69452380D01*
X70714285Y-69500000D01*
X70761904Y-69547619D01*
X70809523Y-69642857D01*
X70809523Y-69785714D01*
X70761904Y-69880952D01*
X70714285Y-69928571D01*
X70619047Y-69976190D01*
X70238095Y-69976190D01*
X71666666Y-70452380D02*
X71666666Y-69928571D01*
X71619047Y-69833333D01*
X71523809Y-69785714D01*
X71333333Y-69785714D01*
X71238095Y-69833333D01*
X71666666Y-70404761D02*
X71571428Y-70452380D01*
X71333333Y-70452380D01*
X71238095Y-70404761D01*
X71190476Y-70309523D01*
X71190476Y-70214285D01*
X71238095Y-70119047D01*
X71333333Y-70071428D01*
X71571428Y-70071428D01*
X71666666Y-70023809D01*
X72571428Y-70452380D02*
X72571428Y-69452380D01*
X72571428Y-70404761D02*
X72476190Y-70452380D01*
X72285714Y-70452380D01*
X72190476Y-70404761D01*
X72142857Y-70357142D01*
X72095238Y-70261904D01*
X72095238Y-69976190D01*
X72142857Y-69880952D01*
X72190476Y-69833333D01*
X72285714Y-69785714D01*
X72476190Y-69785714D01*
X72571428Y-69833333D01*
X65538095Y-66452380D02*
X65538095Y-65452380D01*
X65538095Y-65928571D02*
X66109523Y-65928571D01*
X66109523Y-66452380D02*
X66109523Y-65452380D01*
X66490476Y-65452380D02*
X67109523Y-65452380D01*
X66776190Y-65833333D01*
X66919047Y-65833333D01*
X67014285Y-65880952D01*
X67061904Y-65928571D01*
X67109523Y-66023809D01*
X67109523Y-66261904D01*
X67061904Y-66357142D01*
X67014285Y-66404761D01*
X66919047Y-66452380D01*
X66633333Y-66452380D01*
X66538095Y-66404761D01*
X66490476Y-66357142D01*
%TO.C,J3*%
X34666666Y-37717380D02*
X34666666Y-38431666D01*
X34619047Y-38574523D01*
X34523809Y-38669761D01*
X34380952Y-38717380D01*
X34285714Y-38717380D01*
X35047619Y-37717380D02*
X35666666Y-37717380D01*
X35333333Y-38098333D01*
X35476190Y-38098333D01*
X35571428Y-38145952D01*
X35619047Y-38193571D01*
X35666666Y-38288809D01*
X35666666Y-38526904D01*
X35619047Y-38622142D01*
X35571428Y-38669761D01*
X35476190Y-38717380D01*
X35190476Y-38717380D01*
X35095238Y-38669761D01*
X35047619Y-38622142D01*
X33642857Y-47139761D02*
X33785714Y-47187380D01*
X34023809Y-47187380D01*
X34119047Y-47139761D01*
X34166666Y-47092142D01*
X34214285Y-46996904D01*
X34214285Y-46901666D01*
X34166666Y-46806428D01*
X34119047Y-46758809D01*
X34023809Y-46711190D01*
X33833333Y-46663571D01*
X33738095Y-46615952D01*
X33690476Y-46568333D01*
X33642857Y-46473095D01*
X33642857Y-46377857D01*
X33690476Y-46282619D01*
X33738095Y-46235000D01*
X33833333Y-46187380D01*
X34071428Y-46187380D01*
X34214285Y-46235000D01*
X34547619Y-46187380D02*
X34785714Y-47187380D01*
X34976190Y-46473095D01*
X35166666Y-47187380D01*
X35404761Y-46187380D01*
X35785714Y-47187380D02*
X35785714Y-46187380D01*
X36023809Y-46187380D01*
X36166666Y-46235000D01*
X36261904Y-46330238D01*
X36309523Y-46425476D01*
X36357142Y-46615952D01*
X36357142Y-46758809D01*
X36309523Y-46949285D01*
X36261904Y-47044523D01*
X36166666Y-47139761D01*
X36023809Y-47187380D01*
X35785714Y-47187380D01*
X34452380Y-42833333D02*
X35166666Y-42833333D01*
X35309523Y-42880952D01*
X35404761Y-42976190D01*
X35452380Y-43119047D01*
X35452380Y-43214285D01*
X34452380Y-42452380D02*
X34452380Y-41833333D01*
X34833333Y-42166666D01*
X34833333Y-42023809D01*
X34880952Y-41928571D01*
X34928571Y-41880952D01*
X35023809Y-41833333D01*
X35261904Y-41833333D01*
X35357142Y-41880952D01*
X35404761Y-41928571D01*
X35452380Y-42023809D01*
X35452380Y-42309523D01*
X35404761Y-42404761D01*
X35357142Y-42452380D01*
%TO.C,R3*%
X70222380Y-44406666D02*
X69746190Y-44740000D01*
X70222380Y-44978095D02*
X69222380Y-44978095D01*
X69222380Y-44597142D01*
X69270000Y-44501904D01*
X69317619Y-44454285D01*
X69412857Y-44406666D01*
X69555714Y-44406666D01*
X69650952Y-44454285D01*
X69698571Y-44501904D01*
X69746190Y-44597142D01*
X69746190Y-44978095D01*
X69222380Y-44073333D02*
X69222380Y-43454285D01*
X69603333Y-43787619D01*
X69603333Y-43644761D01*
X69650952Y-43549523D01*
X69698571Y-43501904D01*
X69793809Y-43454285D01*
X70031904Y-43454285D01*
X70127142Y-43501904D01*
X70174761Y-43549523D01*
X70222380Y-43644761D01*
X70222380Y-43930476D01*
X70174761Y-44025714D01*
X70127142Y-44073333D01*
X67215714Y-44930476D02*
X67882380Y-44930476D01*
X66834761Y-45168571D02*
X67549047Y-45406666D01*
X67549047Y-44787619D01*
X67882380Y-44406666D02*
X66882380Y-44406666D01*
X67501428Y-44311428D02*
X67882380Y-44025714D01*
X67215714Y-44025714D02*
X67596666Y-44406666D01*
X66882380Y-43692380D02*
X66882380Y-43025714D01*
X67882380Y-43454285D01*
D12*
X68717619Y-44283333D02*
X68593809Y-44370000D01*
X68717619Y-44431904D02*
X68457619Y-44431904D01*
X68457619Y-44332857D01*
X68470000Y-44308095D01*
X68482380Y-44295714D01*
X68507142Y-44283333D01*
X68544285Y-44283333D01*
X68569047Y-44295714D01*
X68581428Y-44308095D01*
X68593809Y-44332857D01*
X68593809Y-44431904D01*
X68457619Y-44196666D02*
X68457619Y-44035714D01*
X68556666Y-44122380D01*
X68556666Y-44085238D01*
X68569047Y-44060476D01*
X68581428Y-44048095D01*
X68606190Y-44035714D01*
X68668095Y-44035714D01*
X68692857Y-44048095D01*
X68705238Y-44060476D01*
X68717619Y-44085238D01*
X68717619Y-44159523D01*
X68705238Y-44184285D01*
X68692857Y-44196666D01*
D10*
%TO.C,R6*%
X69122380Y-44406666D02*
X68646190Y-44740000D01*
X69122380Y-44978095D02*
X68122380Y-44978095D01*
X68122380Y-44597142D01*
X68170000Y-44501904D01*
X68217619Y-44454285D01*
X68312857Y-44406666D01*
X68455714Y-44406666D01*
X68550952Y-44454285D01*
X68598571Y-44501904D01*
X68646190Y-44597142D01*
X68646190Y-44978095D01*
X68122380Y-43549523D02*
X68122380Y-43740000D01*
X68170000Y-43835238D01*
X68217619Y-43882857D01*
X68360476Y-43978095D01*
X68550952Y-44025714D01*
X68931904Y-44025714D01*
X69027142Y-43978095D01*
X69074761Y-43930476D01*
X69122380Y-43835238D01*
X69122380Y-43644761D01*
X69074761Y-43549523D01*
X69027142Y-43501904D01*
X68931904Y-43454285D01*
X68693809Y-43454285D01*
X68598571Y-43501904D01*
X68550952Y-43549523D01*
X68503333Y-43644761D01*
X68503333Y-43835238D01*
X68550952Y-43930476D01*
X68598571Y-43978095D01*
X68693809Y-44025714D01*
X66115714Y-44930476D02*
X66782380Y-44930476D01*
X65734761Y-45168571D02*
X66449047Y-45406666D01*
X66449047Y-44787619D01*
X66782380Y-44406666D02*
X65782380Y-44406666D01*
X66401428Y-44311428D02*
X66782380Y-44025714D01*
X66115714Y-44025714D02*
X66496666Y-44406666D01*
X65782380Y-43692380D02*
X65782380Y-43025714D01*
X66782380Y-43454285D01*
D12*
X67617619Y-44283333D02*
X67493809Y-44370000D01*
X67617619Y-44431904D02*
X67357619Y-44431904D01*
X67357619Y-44332857D01*
X67370000Y-44308095D01*
X67382380Y-44295714D01*
X67407142Y-44283333D01*
X67444285Y-44283333D01*
X67469047Y-44295714D01*
X67481428Y-44308095D01*
X67493809Y-44332857D01*
X67493809Y-44431904D01*
X67357619Y-44060476D02*
X67357619Y-44110000D01*
X67370000Y-44134761D01*
X67382380Y-44147142D01*
X67419523Y-44171904D01*
X67469047Y-44184285D01*
X67568095Y-44184285D01*
X67592857Y-44171904D01*
X67605238Y-44159523D01*
X67617619Y-44134761D01*
X67617619Y-44085238D01*
X67605238Y-44060476D01*
X67592857Y-44048095D01*
X67568095Y-44035714D01*
X67506190Y-44035714D01*
X67481428Y-44048095D01*
X67469047Y-44060476D01*
X67456666Y-44085238D01*
X67456666Y-44134761D01*
X67469047Y-44159523D01*
X67481428Y-44171904D01*
X67506190Y-44184285D01*
D10*
%TO.C,R8*%
X55333333Y-61022380D02*
X55000000Y-60546190D01*
X54761904Y-61022380D02*
X54761904Y-60022380D01*
X55142857Y-60022380D01*
X55238095Y-60070000D01*
X55285714Y-60117619D01*
X55333333Y-60212857D01*
X55333333Y-60355714D01*
X55285714Y-60450952D01*
X55238095Y-60498571D01*
X55142857Y-60546190D01*
X54761904Y-60546190D01*
X55904761Y-60450952D02*
X55809523Y-60403333D01*
X55761904Y-60355714D01*
X55714285Y-60260476D01*
X55714285Y-60212857D01*
X55761904Y-60117619D01*
X55809523Y-60070000D01*
X55904761Y-60022380D01*
X56095238Y-60022380D01*
X56190476Y-60070000D01*
X56238095Y-60117619D01*
X56285714Y-60212857D01*
X56285714Y-60260476D01*
X56238095Y-60355714D01*
X56190476Y-60403333D01*
X56095238Y-60450952D01*
X55904761Y-60450952D01*
X55809523Y-60498571D01*
X55761904Y-60546190D01*
X55714285Y-60641428D01*
X55714285Y-60831904D01*
X55761904Y-60927142D01*
X55809523Y-60974761D01*
X55904761Y-61022380D01*
X56095238Y-61022380D01*
X56190476Y-60974761D01*
X56238095Y-60927142D01*
X56285714Y-60831904D01*
X56285714Y-60641428D01*
X56238095Y-60546190D01*
X56190476Y-60498571D01*
X56095238Y-60450952D01*
X54904761Y-58682380D02*
X54333333Y-58682380D01*
X54619047Y-58682380D02*
X54619047Y-57682380D01*
X54523809Y-57825238D01*
X54428571Y-57920476D01*
X54333333Y-57968095D01*
X55333333Y-58682380D02*
X55333333Y-57682380D01*
X55428571Y-58301428D02*
X55714285Y-58682380D01*
X55714285Y-58015714D02*
X55333333Y-58396666D01*
X56619047Y-57682380D02*
X56142857Y-57682380D01*
X56095238Y-58158571D01*
X56142857Y-58110952D01*
X56238095Y-58063333D01*
X56476190Y-58063333D01*
X56571428Y-58110952D01*
X56619047Y-58158571D01*
X56666666Y-58253809D01*
X56666666Y-58491904D01*
X56619047Y-58587142D01*
X56571428Y-58634761D01*
X56476190Y-58682380D01*
X56238095Y-58682380D01*
X56142857Y-58634761D01*
X56095238Y-58587142D01*
D12*
X55456666Y-59517619D02*
X55370000Y-59393809D01*
X55308095Y-59517619D02*
X55308095Y-59257619D01*
X55407142Y-59257619D01*
X55431904Y-59270000D01*
X55444285Y-59282380D01*
X55456666Y-59307142D01*
X55456666Y-59344285D01*
X55444285Y-59369047D01*
X55431904Y-59381428D01*
X55407142Y-59393809D01*
X55308095Y-59393809D01*
X55605238Y-59369047D02*
X55580476Y-59356666D01*
X55568095Y-59344285D01*
X55555714Y-59319523D01*
X55555714Y-59307142D01*
X55568095Y-59282380D01*
X55580476Y-59270000D01*
X55605238Y-59257619D01*
X55654761Y-59257619D01*
X55679523Y-59270000D01*
X55691904Y-59282380D01*
X55704285Y-59307142D01*
X55704285Y-59319523D01*
X55691904Y-59344285D01*
X55679523Y-59356666D01*
X55654761Y-59369047D01*
X55605238Y-59369047D01*
X55580476Y-59381428D01*
X55568095Y-59393809D01*
X55555714Y-59418571D01*
X55555714Y-59468095D01*
X55568095Y-59492857D01*
X55580476Y-59505238D01*
X55605238Y-59517619D01*
X55654761Y-59517619D01*
X55679523Y-59505238D01*
X55691904Y-59492857D01*
X55704285Y-59468095D01*
X55704285Y-59418571D01*
X55691904Y-59393809D01*
X55679523Y-59381428D01*
X55654761Y-59369047D01*
D10*
%TO.C,R12*%
X34532380Y-55882857D02*
X34056190Y-56216190D01*
X34532380Y-56454285D02*
X33532380Y-56454285D01*
X33532380Y-56073333D01*
X33580000Y-55978095D01*
X33627619Y-55930476D01*
X33722857Y-55882857D01*
X33865714Y-55882857D01*
X33960952Y-55930476D01*
X34008571Y-55978095D01*
X34056190Y-56073333D01*
X34056190Y-56454285D01*
X34532380Y-54930476D02*
X34532380Y-55501904D01*
X34532380Y-55216190D02*
X33532380Y-55216190D01*
X33675238Y-55311428D01*
X33770476Y-55406666D01*
X33818095Y-55501904D01*
X33627619Y-54549523D02*
X33580000Y-54501904D01*
X33532380Y-54406666D01*
X33532380Y-54168571D01*
X33580000Y-54073333D01*
X33627619Y-54025714D01*
X33722857Y-53978095D01*
X33818095Y-53978095D01*
X33960952Y-54025714D01*
X34532380Y-54597142D01*
X34532380Y-53978095D01*
X36872380Y-55835238D02*
X36872380Y-56406666D01*
X36872380Y-56120952D02*
X35872380Y-56120952D01*
X36015238Y-56216190D01*
X36110476Y-56311428D01*
X36158095Y-56406666D01*
X35872380Y-55216190D02*
X35872380Y-55120952D01*
X35920000Y-55025714D01*
X35967619Y-54978095D01*
X36062857Y-54930476D01*
X36253333Y-54882857D01*
X36491428Y-54882857D01*
X36681904Y-54930476D01*
X36777142Y-54978095D01*
X36824761Y-55025714D01*
X36872380Y-55120952D01*
X36872380Y-55216190D01*
X36824761Y-55311428D01*
X36777142Y-55359047D01*
X36681904Y-55406666D01*
X36491428Y-55454285D01*
X36253333Y-55454285D01*
X36062857Y-55406666D01*
X35967619Y-55359047D01*
X35920000Y-55311428D01*
X35872380Y-55216190D01*
X36872380Y-54454285D02*
X35872380Y-54454285D01*
X36491428Y-54359047D02*
X36872380Y-54073333D01*
X36205714Y-54073333D02*
X36586666Y-54454285D01*
D12*
X35367619Y-55407142D02*
X35243809Y-55493809D01*
X35367619Y-55555714D02*
X35107619Y-55555714D01*
X35107619Y-55456666D01*
X35120000Y-55431904D01*
X35132380Y-55419523D01*
X35157142Y-55407142D01*
X35194285Y-55407142D01*
X35219047Y-55419523D01*
X35231428Y-55431904D01*
X35243809Y-55456666D01*
X35243809Y-55555714D01*
X35367619Y-55159523D02*
X35367619Y-55308095D01*
X35367619Y-55233809D02*
X35107619Y-55233809D01*
X35144761Y-55258571D01*
X35169523Y-55283333D01*
X35181904Y-55308095D01*
X35132380Y-55060476D02*
X35120000Y-55048095D01*
X35107619Y-55023333D01*
X35107619Y-54961428D01*
X35120000Y-54936666D01*
X35132380Y-54924285D01*
X35157142Y-54911904D01*
X35181904Y-54911904D01*
X35219047Y-54924285D01*
X35367619Y-55072857D01*
X35367619Y-54911904D01*
D10*
%TO.C,SW1*%
X35704761Y-56333333D02*
X35752380Y-56190476D01*
X35752380Y-55952380D01*
X35704761Y-55857142D01*
X35657142Y-55809523D01*
X35561904Y-55761904D01*
X35466666Y-55761904D01*
X35371428Y-55809523D01*
X35323809Y-55857142D01*
X35276190Y-55952380D01*
X35228571Y-56142857D01*
X35180952Y-56238095D01*
X35133333Y-56285714D01*
X35038095Y-56333333D01*
X34942857Y-56333333D01*
X34847619Y-56285714D01*
X34800000Y-56238095D01*
X34752380Y-56142857D01*
X34752380Y-55904761D01*
X34800000Y-55761904D01*
X34752380Y-55428571D02*
X35752380Y-55190476D01*
X35038095Y-55000000D01*
X35752380Y-54809523D01*
X34752380Y-54571428D01*
X35752380Y-53666666D02*
X35752380Y-54238095D01*
X35752380Y-53952380D02*
X34752380Y-53952380D01*
X34895238Y-54047619D01*
X34990476Y-54142857D01*
X35038095Y-54238095D01*
X27778571Y-56357142D02*
X27826190Y-56214285D01*
X27873809Y-56166666D01*
X27969047Y-56119047D01*
X28111904Y-56119047D01*
X28207142Y-56166666D01*
X28254761Y-56214285D01*
X28302380Y-56309523D01*
X28302380Y-56690476D01*
X27302380Y-56690476D01*
X27302380Y-56357142D01*
X27350000Y-56261904D01*
X27397619Y-56214285D01*
X27492857Y-56166666D01*
X27588095Y-56166666D01*
X27683333Y-56214285D01*
X27730952Y-56261904D01*
X27778571Y-56357142D01*
X27778571Y-56690476D01*
X27302380Y-55500000D02*
X27302380Y-55309523D01*
X27350000Y-55214285D01*
X27445238Y-55119047D01*
X27635714Y-55071428D01*
X27969047Y-55071428D01*
X28159523Y-55119047D01*
X28254761Y-55214285D01*
X28302380Y-55309523D01*
X28302380Y-55500000D01*
X28254761Y-55595238D01*
X28159523Y-55690476D01*
X27969047Y-55738095D01*
X27635714Y-55738095D01*
X27445238Y-55690476D01*
X27350000Y-55595238D01*
X27302380Y-55500000D01*
X27302380Y-54452380D02*
X27302380Y-54261904D01*
X27350000Y-54166666D01*
X27445238Y-54071428D01*
X27635714Y-54023809D01*
X27969047Y-54023809D01*
X28159523Y-54071428D01*
X28254761Y-54166666D01*
X28302380Y-54261904D01*
X28302380Y-54452380D01*
X28254761Y-54547619D01*
X28159523Y-54642857D01*
X27969047Y-54690476D01*
X27635714Y-54690476D01*
X27445238Y-54642857D01*
X27350000Y-54547619D01*
X27302380Y-54452380D01*
X27302380Y-53738095D02*
X27302380Y-53166666D01*
X28302380Y-53452380D02*
X27302380Y-53452380D01*
X35704761Y-56333333D02*
X35752380Y-56190476D01*
X35752380Y-55952380D01*
X35704761Y-55857142D01*
X35657142Y-55809523D01*
X35561904Y-55761904D01*
X35466666Y-55761904D01*
X35371428Y-55809523D01*
X35323809Y-55857142D01*
X35276190Y-55952380D01*
X35228571Y-56142857D01*
X35180952Y-56238095D01*
X35133333Y-56285714D01*
X35038095Y-56333333D01*
X34942857Y-56333333D01*
X34847619Y-56285714D01*
X34800000Y-56238095D01*
X34752380Y-56142857D01*
X34752380Y-55904761D01*
X34800000Y-55761904D01*
X34752380Y-55428571D02*
X35752380Y-55190476D01*
X35038095Y-55000000D01*
X35752380Y-54809523D01*
X34752380Y-54571428D01*
X35752380Y-53666666D02*
X35752380Y-54238095D01*
X35752380Y-53952380D02*
X34752380Y-53952380D01*
X34895238Y-54047619D01*
X34990476Y-54142857D01*
X35038095Y-54238095D01*
%TO.C,C6*%
X47117142Y-54046666D02*
X47164761Y-54094285D01*
X47212380Y-54237142D01*
X47212380Y-54332380D01*
X47164761Y-54475238D01*
X47069523Y-54570476D01*
X46974285Y-54618095D01*
X46783809Y-54665714D01*
X46640952Y-54665714D01*
X46450476Y-54618095D01*
X46355238Y-54570476D01*
X46260000Y-54475238D01*
X46212380Y-54332380D01*
X46212380Y-54237142D01*
X46260000Y-54094285D01*
X46307619Y-54046666D01*
X46212380Y-53189523D02*
X46212380Y-53380000D01*
X46260000Y-53475238D01*
X46307619Y-53522857D01*
X46450476Y-53618095D01*
X46640952Y-53665714D01*
X47021904Y-53665714D01*
X47117142Y-53618095D01*
X47164761Y-53570476D01*
X47212380Y-53475238D01*
X47212380Y-53284761D01*
X47164761Y-53189523D01*
X47117142Y-53141904D01*
X47021904Y-53094285D01*
X46783809Y-53094285D01*
X46688571Y-53141904D01*
X46640952Y-53189523D01*
X46593333Y-53284761D01*
X46593333Y-53475238D01*
X46640952Y-53570476D01*
X46688571Y-53618095D01*
X46783809Y-53665714D01*
X44892380Y-54999047D02*
X44892380Y-55570476D01*
X44892380Y-55284761D02*
X43892380Y-55284761D01*
X44035238Y-55380000D01*
X44130476Y-55475238D01*
X44178095Y-55570476D01*
X43892380Y-54380000D02*
X43892380Y-54284761D01*
X43940000Y-54189523D01*
X43987619Y-54141904D01*
X44082857Y-54094285D01*
X44273333Y-54046666D01*
X44511428Y-54046666D01*
X44701904Y-54094285D01*
X44797142Y-54141904D01*
X44844761Y-54189523D01*
X44892380Y-54284761D01*
X44892380Y-54380000D01*
X44844761Y-54475238D01*
X44797142Y-54522857D01*
X44701904Y-54570476D01*
X44511428Y-54618095D01*
X44273333Y-54618095D01*
X44082857Y-54570476D01*
X43987619Y-54522857D01*
X43940000Y-54475238D01*
X43892380Y-54380000D01*
X43892380Y-53427619D02*
X43892380Y-53332380D01*
X43940000Y-53237142D01*
X43987619Y-53189523D01*
X44082857Y-53141904D01*
X44273333Y-53094285D01*
X44511428Y-53094285D01*
X44701904Y-53141904D01*
X44797142Y-53189523D01*
X44844761Y-53237142D01*
X44892380Y-53332380D01*
X44892380Y-53427619D01*
X44844761Y-53522857D01*
X44797142Y-53570476D01*
X44701904Y-53618095D01*
X44511428Y-53665714D01*
X44273333Y-53665714D01*
X44082857Y-53618095D01*
X43987619Y-53570476D01*
X43940000Y-53522857D01*
X43892380Y-53427619D01*
X44225714Y-52665714D02*
X44892380Y-52665714D01*
X44320952Y-52665714D02*
X44273333Y-52618095D01*
X44225714Y-52522857D01*
X44225714Y-52380000D01*
X44273333Y-52284761D01*
X44368571Y-52237142D01*
X44892380Y-52237142D01*
D12*
X45689285Y-53921666D02*
X45701190Y-53933571D01*
X45713095Y-53969285D01*
X45713095Y-53993095D01*
X45701190Y-54028809D01*
X45677380Y-54052619D01*
X45653571Y-54064523D01*
X45605952Y-54076428D01*
X45570238Y-54076428D01*
X45522619Y-54064523D01*
X45498809Y-54052619D01*
X45475000Y-54028809D01*
X45463095Y-53993095D01*
X45463095Y-53969285D01*
X45475000Y-53933571D01*
X45486904Y-53921666D01*
X45463095Y-53707380D02*
X45463095Y-53755000D01*
X45475000Y-53778809D01*
X45486904Y-53790714D01*
X45522619Y-53814523D01*
X45570238Y-53826428D01*
X45665476Y-53826428D01*
X45689285Y-53814523D01*
X45701190Y-53802619D01*
X45713095Y-53778809D01*
X45713095Y-53731190D01*
X45701190Y-53707380D01*
X45689285Y-53695476D01*
X45665476Y-53683571D01*
X45605952Y-53683571D01*
X45582142Y-53695476D01*
X45570238Y-53707380D01*
X45558333Y-53731190D01*
X45558333Y-53778809D01*
X45570238Y-53802619D01*
X45582142Y-53814523D01*
X45605952Y-53826428D01*
D10*
%TO.C,R2*%
X44633333Y-52997380D02*
X44300000Y-52521190D01*
X44061904Y-52997380D02*
X44061904Y-51997380D01*
X44442857Y-51997380D01*
X44538095Y-52045000D01*
X44585714Y-52092619D01*
X44633333Y-52187857D01*
X44633333Y-52330714D01*
X44585714Y-52425952D01*
X44538095Y-52473571D01*
X44442857Y-52521190D01*
X44061904Y-52521190D01*
X45014285Y-52092619D02*
X45061904Y-52045000D01*
X45157142Y-51997380D01*
X45395238Y-51997380D01*
X45490476Y-52045000D01*
X45538095Y-52092619D01*
X45585714Y-52187857D01*
X45585714Y-52283095D01*
X45538095Y-52425952D01*
X44966666Y-52997380D01*
X45585714Y-52997380D01*
X44752380Y-49657380D02*
X44847619Y-49657380D01*
X44942857Y-49705000D01*
X44990476Y-49752619D01*
X45038095Y-49847857D01*
X45085714Y-50038333D01*
X45085714Y-50276428D01*
X45038095Y-50466904D01*
X44990476Y-50562142D01*
X44942857Y-50609761D01*
X44847619Y-50657380D01*
X44752380Y-50657380D01*
X44657142Y-50609761D01*
X44609523Y-50562142D01*
X44561904Y-50466904D01*
X44514285Y-50276428D01*
X44514285Y-50038333D01*
X44561904Y-49847857D01*
X44609523Y-49752619D01*
X44657142Y-49705000D01*
X44752380Y-49657380D01*
D12*
X44756666Y-51492619D02*
X44670000Y-51368809D01*
X44608095Y-51492619D02*
X44608095Y-51232619D01*
X44707142Y-51232619D01*
X44731904Y-51245000D01*
X44744285Y-51257380D01*
X44756666Y-51282142D01*
X44756666Y-51319285D01*
X44744285Y-51344047D01*
X44731904Y-51356428D01*
X44707142Y-51368809D01*
X44608095Y-51368809D01*
X44855714Y-51257380D02*
X44868095Y-51245000D01*
X44892857Y-51232619D01*
X44954761Y-51232619D01*
X44979523Y-51245000D01*
X44991904Y-51257380D01*
X45004285Y-51282142D01*
X45004285Y-51306904D01*
X44991904Y-51344047D01*
X44843333Y-51492619D01*
X45004285Y-51492619D01*
D10*
%TO.C,C3*%
X40913333Y-49567142D02*
X40865714Y-49614761D01*
X40722857Y-49662380D01*
X40627619Y-49662380D01*
X40484761Y-49614761D01*
X40389523Y-49519523D01*
X40341904Y-49424285D01*
X40294285Y-49233809D01*
X40294285Y-49090952D01*
X40341904Y-48900476D01*
X40389523Y-48805238D01*
X40484761Y-48710000D01*
X40627619Y-48662380D01*
X40722857Y-48662380D01*
X40865714Y-48710000D01*
X40913333Y-48757619D01*
X41246666Y-48662380D02*
X41865714Y-48662380D01*
X41532380Y-49043333D01*
X41675238Y-49043333D01*
X41770476Y-49090952D01*
X41818095Y-49138571D01*
X41865714Y-49233809D01*
X41865714Y-49471904D01*
X41818095Y-49567142D01*
X41770476Y-49614761D01*
X41675238Y-49662380D01*
X41389523Y-49662380D01*
X41294285Y-49614761D01*
X41246666Y-49567142D01*
X40818095Y-46342380D02*
X40627619Y-46342380D01*
X40532380Y-46390000D01*
X40484761Y-46437619D01*
X40389523Y-46580476D01*
X40341904Y-46770952D01*
X40341904Y-47151904D01*
X40389523Y-47247142D01*
X40437142Y-47294761D01*
X40532380Y-47342380D01*
X40722857Y-47342380D01*
X40818095Y-47294761D01*
X40865714Y-47247142D01*
X40913333Y-47151904D01*
X40913333Y-46913809D01*
X40865714Y-46818571D01*
X40818095Y-46770952D01*
X40722857Y-46723333D01*
X40532380Y-46723333D01*
X40437142Y-46770952D01*
X40389523Y-46818571D01*
X40341904Y-46913809D01*
X41341904Y-46675714D02*
X41341904Y-47675714D01*
X41341904Y-46723333D02*
X41437142Y-46675714D01*
X41627619Y-46675714D01*
X41722857Y-46723333D01*
X41770476Y-46770952D01*
X41818095Y-46866190D01*
X41818095Y-47151904D01*
X41770476Y-47247142D01*
X41722857Y-47294761D01*
X41627619Y-47342380D01*
X41437142Y-47342380D01*
X41341904Y-47294761D01*
D12*
X41038333Y-48139285D02*
X41026428Y-48151190D01*
X40990714Y-48163095D01*
X40966904Y-48163095D01*
X40931190Y-48151190D01*
X40907380Y-48127380D01*
X40895476Y-48103571D01*
X40883571Y-48055952D01*
X40883571Y-48020238D01*
X40895476Y-47972619D01*
X40907380Y-47948809D01*
X40931190Y-47925000D01*
X40966904Y-47913095D01*
X40990714Y-47913095D01*
X41026428Y-47925000D01*
X41038333Y-47936904D01*
X41121666Y-47913095D02*
X41276428Y-47913095D01*
X41193095Y-48008333D01*
X41228809Y-48008333D01*
X41252619Y-48020238D01*
X41264523Y-48032142D01*
X41276428Y-48055952D01*
X41276428Y-48115476D01*
X41264523Y-48139285D01*
X41252619Y-48151190D01*
X41228809Y-48163095D01*
X41157380Y-48163095D01*
X41133571Y-48151190D01*
X41121666Y-48139285D01*
D10*
%TO.C,Y1*%
X43876190Y-51176190D02*
X44352380Y-51176190D01*
X43352380Y-51509523D02*
X43876190Y-51176190D01*
X43352380Y-50842857D01*
X44352380Y-49985714D02*
X44352380Y-50557142D01*
X44352380Y-50271428D02*
X43352380Y-50271428D01*
X43495238Y-50366666D01*
X43590476Y-50461904D01*
X43638095Y-50557142D01*
X39452380Y-52390476D02*
X39452380Y-52961904D01*
X39452380Y-52676190D02*
X38452380Y-52676190D01*
X38595238Y-52771428D01*
X38690476Y-52866666D01*
X38738095Y-52961904D01*
X38452380Y-51533333D02*
X38452380Y-51723809D01*
X38500000Y-51819047D01*
X38547619Y-51866666D01*
X38690476Y-51961904D01*
X38880952Y-52009523D01*
X39261904Y-52009523D01*
X39357142Y-51961904D01*
X39404761Y-51914285D01*
X39452380Y-51819047D01*
X39452380Y-51628571D01*
X39404761Y-51533333D01*
X39357142Y-51485714D01*
X39261904Y-51438095D01*
X39023809Y-51438095D01*
X38928571Y-51485714D01*
X38880952Y-51533333D01*
X38833333Y-51628571D01*
X38833333Y-51819047D01*
X38880952Y-51914285D01*
X38928571Y-51961904D01*
X39023809Y-52009523D01*
X39452380Y-51009523D02*
X38452380Y-51009523D01*
X39166666Y-50676190D01*
X38452380Y-50342857D01*
X39452380Y-50342857D01*
X39452380Y-49866666D02*
X38452380Y-49866666D01*
X38928571Y-49866666D02*
X38928571Y-49295238D01*
X39452380Y-49295238D02*
X38452380Y-49295238D01*
X38785714Y-48914285D02*
X38785714Y-48390476D01*
X39452380Y-48914285D01*
X39452380Y-48390476D01*
D13*
X41433333Y-51033333D02*
X41766666Y-51033333D01*
X41066666Y-51266666D02*
X41433333Y-51033333D01*
X41066666Y-50800000D01*
X41766666Y-50200000D02*
X41766666Y-50600000D01*
X41766666Y-50400000D02*
X41066666Y-50400000D01*
X41166666Y-50466666D01*
X41233333Y-50533333D01*
X41266666Y-50600000D01*
D10*
%TO.C,C4*%
X41653333Y-54867142D02*
X41605714Y-54914761D01*
X41462857Y-54962380D01*
X41367619Y-54962380D01*
X41224761Y-54914761D01*
X41129523Y-54819523D01*
X41081904Y-54724285D01*
X41034285Y-54533809D01*
X41034285Y-54390952D01*
X41081904Y-54200476D01*
X41129523Y-54105238D01*
X41224761Y-54010000D01*
X41367619Y-53962380D01*
X41462857Y-53962380D01*
X41605714Y-54010000D01*
X41653333Y-54057619D01*
X42510476Y-54295714D02*
X42510476Y-54962380D01*
X42272380Y-53914761D02*
X42034285Y-54629047D01*
X42653333Y-54629047D01*
X41558095Y-51642380D02*
X41367619Y-51642380D01*
X41272380Y-51690000D01*
X41224761Y-51737619D01*
X41129523Y-51880476D01*
X41081904Y-52070952D01*
X41081904Y-52451904D01*
X41129523Y-52547142D01*
X41177142Y-52594761D01*
X41272380Y-52642380D01*
X41462857Y-52642380D01*
X41558095Y-52594761D01*
X41605714Y-52547142D01*
X41653333Y-52451904D01*
X41653333Y-52213809D01*
X41605714Y-52118571D01*
X41558095Y-52070952D01*
X41462857Y-52023333D01*
X41272380Y-52023333D01*
X41177142Y-52070952D01*
X41129523Y-52118571D01*
X41081904Y-52213809D01*
X42081904Y-51975714D02*
X42081904Y-52975714D01*
X42081904Y-52023333D02*
X42177142Y-51975714D01*
X42367619Y-51975714D01*
X42462857Y-52023333D01*
X42510476Y-52070952D01*
X42558095Y-52166190D01*
X42558095Y-52451904D01*
X42510476Y-52547142D01*
X42462857Y-52594761D01*
X42367619Y-52642380D01*
X42177142Y-52642380D01*
X42081904Y-52594761D01*
D12*
X41778333Y-53439285D02*
X41766428Y-53451190D01*
X41730714Y-53463095D01*
X41706904Y-53463095D01*
X41671190Y-53451190D01*
X41647380Y-53427380D01*
X41635476Y-53403571D01*
X41623571Y-53355952D01*
X41623571Y-53320238D01*
X41635476Y-53272619D01*
X41647380Y-53248809D01*
X41671190Y-53225000D01*
X41706904Y-53213095D01*
X41730714Y-53213095D01*
X41766428Y-53225000D01*
X41778333Y-53236904D01*
X41992619Y-53296428D02*
X41992619Y-53463095D01*
X41933095Y-53201190D02*
X41873571Y-53379761D01*
X42028333Y-53379761D01*
D10*
%TO.C,H4*%
X65238095Y-30452380D02*
X65238095Y-29452380D01*
X65238095Y-29928571D02*
X65809523Y-29928571D01*
X65809523Y-30452380D02*
X65809523Y-29452380D01*
X66714285Y-29785714D02*
X66714285Y-30452380D01*
X66476190Y-29404761D02*
X66238095Y-30119047D01*
X66857142Y-30119047D01*
X59428571Y-38452380D02*
X59428571Y-37452380D01*
X59761904Y-38166666D01*
X60095238Y-37452380D01*
X60095238Y-38452380D01*
X60714285Y-38452380D02*
X60619047Y-38404761D01*
X60571428Y-38357142D01*
X60523809Y-38261904D01*
X60523809Y-37976190D01*
X60571428Y-37880952D01*
X60619047Y-37833333D01*
X60714285Y-37785714D01*
X60857142Y-37785714D01*
X60952380Y-37833333D01*
X60999999Y-37880952D01*
X61047619Y-37976190D01*
X61047619Y-38261904D01*
X60999999Y-38357142D01*
X60952380Y-38404761D01*
X60857142Y-38452380D01*
X60714285Y-38452380D01*
X61904761Y-37785714D02*
X61904761Y-38452380D01*
X61476190Y-37785714D02*
X61476190Y-38309523D01*
X61523809Y-38404761D01*
X61619047Y-38452380D01*
X61761904Y-38452380D01*
X61857142Y-38404761D01*
X61904761Y-38357142D01*
X62380952Y-37785714D02*
X62380952Y-38452380D01*
X62380952Y-37880952D02*
X62428571Y-37833333D01*
X62523809Y-37785714D01*
X62666666Y-37785714D01*
X62761904Y-37833333D01*
X62809523Y-37928571D01*
X62809523Y-38452380D01*
X63142857Y-37785714D02*
X63523809Y-37785714D01*
X63285714Y-37452380D02*
X63285714Y-38309523D01*
X63333333Y-38404761D01*
X63428571Y-38452380D01*
X63523809Y-38452380D01*
X63857142Y-38452380D02*
X63857142Y-37785714D01*
X63857142Y-37452380D02*
X63809523Y-37500000D01*
X63857142Y-37547619D01*
X63904761Y-37500000D01*
X63857142Y-37452380D01*
X63857142Y-37547619D01*
X64333333Y-37785714D02*
X64333333Y-38452380D01*
X64333333Y-37880952D02*
X64380952Y-37833333D01*
X64476190Y-37785714D01*
X64619047Y-37785714D01*
X64714285Y-37833333D01*
X64761904Y-37928571D01*
X64761904Y-38452380D01*
X65666666Y-37785714D02*
X65666666Y-38595238D01*
X65619047Y-38690476D01*
X65571428Y-38738095D01*
X65476190Y-38785714D01*
X65333333Y-38785714D01*
X65238095Y-38738095D01*
X65666666Y-38404761D02*
X65571428Y-38452380D01*
X65380952Y-38452380D01*
X65285714Y-38404761D01*
X65238095Y-38357142D01*
X65190476Y-38261904D01*
X65190476Y-37976190D01*
X65238095Y-37880952D01*
X65285714Y-37833333D01*
X65380952Y-37785714D01*
X65571428Y-37785714D01*
X65666666Y-37833333D01*
X66142857Y-38452380D02*
X66142857Y-37452380D01*
X66142857Y-37928571D02*
X66714285Y-37928571D01*
X66714285Y-38452380D02*
X66714285Y-37452380D01*
X67333333Y-38452380D02*
X67238095Y-38404761D01*
X67190476Y-38357142D01*
X67142857Y-38261904D01*
X67142857Y-37976190D01*
X67190476Y-37880952D01*
X67238095Y-37833333D01*
X67333333Y-37785714D01*
X67476190Y-37785714D01*
X67571428Y-37833333D01*
X67619047Y-37880952D01*
X67666666Y-37976190D01*
X67666666Y-38261904D01*
X67619047Y-38357142D01*
X67571428Y-38404761D01*
X67476190Y-38452380D01*
X67333333Y-38452380D01*
X68238095Y-38452380D02*
X68142857Y-38404761D01*
X68095238Y-38309523D01*
X68095238Y-37452380D01*
X69000000Y-38404761D02*
X68904761Y-38452380D01*
X68714285Y-38452380D01*
X68619047Y-38404761D01*
X68571428Y-38309523D01*
X68571428Y-37928571D01*
X68619047Y-37833333D01*
X68714285Y-37785714D01*
X68904761Y-37785714D01*
X69000000Y-37833333D01*
X69047619Y-37928571D01*
X69047619Y-38023809D01*
X68571428Y-38119047D01*
X69238095Y-38547619D02*
X70000000Y-38547619D01*
X70238095Y-38452380D02*
X70238095Y-37452380D01*
X70619047Y-37452380D01*
X70714285Y-37500000D01*
X70761904Y-37547619D01*
X70809523Y-37642857D01*
X70809523Y-37785714D01*
X70761904Y-37880952D01*
X70714285Y-37928571D01*
X70619047Y-37976190D01*
X70238095Y-37976190D01*
X71666666Y-38452380D02*
X71666666Y-37928571D01*
X71619047Y-37833333D01*
X71523809Y-37785714D01*
X71333333Y-37785714D01*
X71238095Y-37833333D01*
X71666666Y-38404761D02*
X71571428Y-38452380D01*
X71333333Y-38452380D01*
X71238095Y-38404761D01*
X71190476Y-38309523D01*
X71190476Y-38214285D01*
X71238095Y-38119047D01*
X71333333Y-38071428D01*
X71571428Y-38071428D01*
X71666666Y-38023809D01*
X72571428Y-38452380D02*
X72571428Y-37452380D01*
X72571428Y-38404761D02*
X72476190Y-38452380D01*
X72285714Y-38452380D01*
X72190476Y-38404761D01*
X72142857Y-38357142D01*
X72095238Y-38261904D01*
X72095238Y-37976190D01*
X72142857Y-37880952D01*
X72190476Y-37833333D01*
X72285714Y-37785714D01*
X72476190Y-37785714D01*
X72571428Y-37833333D01*
X65538095Y-34452380D02*
X65538095Y-33452380D01*
X65538095Y-33928571D02*
X66109523Y-33928571D01*
X66109523Y-34452380D02*
X66109523Y-33452380D01*
X67014285Y-33785714D02*
X67014285Y-34452380D01*
X66776190Y-33404761D02*
X66538095Y-34119047D01*
X67157142Y-34119047D01*
%TO.C,U2*%
X47502380Y-41511904D02*
X48311904Y-41511904D01*
X48407142Y-41464285D01*
X48454761Y-41416666D01*
X48502380Y-41321428D01*
X48502380Y-41130952D01*
X48454761Y-41035714D01*
X48407142Y-40988095D01*
X48311904Y-40940476D01*
X47502380Y-40940476D01*
X47597619Y-40511904D02*
X47550000Y-40464285D01*
X47502380Y-40369047D01*
X47502380Y-40130952D01*
X47550000Y-40035714D01*
X47597619Y-39988095D01*
X47692857Y-39940476D01*
X47788095Y-39940476D01*
X47930952Y-39988095D01*
X48502380Y-40559523D01*
X48502380Y-39940476D01*
X53466666Y-42850000D02*
X53466666Y-42373809D01*
X53752380Y-42945238D02*
X52752380Y-42611904D01*
X53752380Y-42278571D01*
X53752380Y-41945238D02*
X52752380Y-41945238D01*
X53466666Y-41611904D01*
X52752380Y-41278571D01*
X53752380Y-41278571D01*
X53704761Y-40850000D02*
X53752380Y-40707142D01*
X53752380Y-40469047D01*
X53704761Y-40373809D01*
X53657142Y-40326190D01*
X53561904Y-40278571D01*
X53466666Y-40278571D01*
X53371428Y-40326190D01*
X53323809Y-40373809D01*
X53276190Y-40469047D01*
X53228571Y-40659523D01*
X53180952Y-40754761D01*
X53133333Y-40802380D01*
X53038095Y-40850000D01*
X52942857Y-40850000D01*
X52847619Y-40802380D01*
X52800000Y-40754761D01*
X52752380Y-40659523D01*
X52752380Y-40421428D01*
X52800000Y-40278571D01*
X53752380Y-39326190D02*
X53752380Y-39897619D01*
X53752380Y-39611904D02*
X52752380Y-39611904D01*
X52895238Y-39707142D01*
X52990476Y-39802380D01*
X53038095Y-39897619D01*
X53752380Y-38373809D02*
X53752380Y-38945238D01*
X53752380Y-38659523D02*
X52752380Y-38659523D01*
X52895238Y-38754761D01*
X52990476Y-38850000D01*
X53038095Y-38945238D01*
X53752380Y-37421428D02*
X53752380Y-37992857D01*
X53752380Y-37707142D02*
X52752380Y-37707142D01*
X52895238Y-37802380D01*
X52990476Y-37897619D01*
X53038095Y-37992857D01*
X52752380Y-37088095D02*
X52752380Y-36421428D01*
X53752380Y-36850000D01*
X53371428Y-36040476D02*
X53371428Y-35278571D01*
X52752380Y-34897619D02*
X52752380Y-34278571D01*
X53133333Y-34611904D01*
X53133333Y-34469047D01*
X53180952Y-34373809D01*
X53228571Y-34326190D01*
X53323809Y-34278571D01*
X53561904Y-34278571D01*
X53657142Y-34326190D01*
X53704761Y-34373809D01*
X53752380Y-34469047D01*
X53752380Y-34754761D01*
X53704761Y-34850000D01*
X53657142Y-34897619D01*
X53657142Y-33850000D02*
X53704761Y-33802380D01*
X53752380Y-33850000D01*
X53704761Y-33897619D01*
X53657142Y-33850000D01*
X53752380Y-33850000D01*
X52752380Y-33469047D02*
X52752380Y-32850000D01*
X53133333Y-33183333D01*
X53133333Y-33040476D01*
X53180952Y-32945238D01*
X53228571Y-32897619D01*
X53323809Y-32850000D01*
X53561904Y-32850000D01*
X53657142Y-32897619D01*
X53704761Y-32945238D01*
X53752380Y-33040476D01*
X53752380Y-33326190D01*
X53704761Y-33421428D01*
X53657142Y-33469047D01*
D14*
X57190476Y-37411904D02*
X57190476Y-38059523D01*
X57228571Y-38135714D01*
X57266666Y-38173809D01*
X57342857Y-38211904D01*
X57495238Y-38211904D01*
X57571428Y-38173809D01*
X57609523Y-38135714D01*
X57647619Y-38059523D01*
X57647619Y-37411904D01*
X57990476Y-37488095D02*
X58028571Y-37450000D01*
X58104761Y-37411904D01*
X58295238Y-37411904D01*
X58371428Y-37450000D01*
X58409523Y-37488095D01*
X58447619Y-37564285D01*
X58447619Y-37640476D01*
X58409523Y-37754761D01*
X57952380Y-38211904D01*
X58447619Y-38211904D01*
D10*
%TO.C,C8*%
X59108333Y-30407142D02*
X59060714Y-30454761D01*
X58917857Y-30502380D01*
X58822619Y-30502380D01*
X58679761Y-30454761D01*
X58584523Y-30359523D01*
X58536904Y-30264285D01*
X58489285Y-30073809D01*
X58489285Y-29930952D01*
X58536904Y-29740476D01*
X58584523Y-29645238D01*
X58679761Y-29550000D01*
X58822619Y-29502380D01*
X58917857Y-29502380D01*
X59060714Y-29550000D01*
X59108333Y-29597619D01*
X59679761Y-29930952D02*
X59584523Y-29883333D01*
X59536904Y-29835714D01*
X59489285Y-29740476D01*
X59489285Y-29692857D01*
X59536904Y-29597619D01*
X59584523Y-29550000D01*
X59679761Y-29502380D01*
X59870238Y-29502380D01*
X59965476Y-29550000D01*
X60013095Y-29597619D01*
X60060714Y-29692857D01*
X60060714Y-29740476D01*
X60013095Y-29835714D01*
X59965476Y-29883333D01*
X59870238Y-29930952D01*
X59679761Y-29930952D01*
X59584523Y-29978571D01*
X59536904Y-30026190D01*
X59489285Y-30121428D01*
X59489285Y-30311904D01*
X59536904Y-30407142D01*
X59584523Y-30454761D01*
X59679761Y-30502380D01*
X59870238Y-30502380D01*
X59965476Y-30454761D01*
X60013095Y-30407142D01*
X60060714Y-30311904D01*
X60060714Y-30121428D01*
X60013095Y-30026190D01*
X59965476Y-29978571D01*
X59870238Y-29930952D01*
X58632142Y-34202380D02*
X58060714Y-34202380D01*
X58346428Y-34202380D02*
X58346428Y-33202380D01*
X58251190Y-33345238D01*
X58155952Y-33440476D01*
X58060714Y-33488095D01*
X59251190Y-33202380D02*
X59346428Y-33202380D01*
X59441666Y-33250000D01*
X59489285Y-33297619D01*
X59536904Y-33392857D01*
X59584523Y-33583333D01*
X59584523Y-33821428D01*
X59536904Y-34011904D01*
X59489285Y-34107142D01*
X59441666Y-34154761D01*
X59346428Y-34202380D01*
X59251190Y-34202380D01*
X59155952Y-34154761D01*
X59108333Y-34107142D01*
X59060714Y-34011904D01*
X59013095Y-33821428D01*
X59013095Y-33583333D01*
X59060714Y-33392857D01*
X59108333Y-33297619D01*
X59155952Y-33250000D01*
X59251190Y-33202380D01*
X60441666Y-33535714D02*
X60441666Y-34202380D01*
X60013095Y-33535714D02*
X60013095Y-34059523D01*
X60060714Y-34154761D01*
X60155952Y-34202380D01*
X60298809Y-34202380D01*
X60394047Y-34154761D01*
X60441666Y-34107142D01*
D14*
X59141666Y-32185714D02*
X59103571Y-32223809D01*
X58989285Y-32261904D01*
X58913095Y-32261904D01*
X58798809Y-32223809D01*
X58722619Y-32147619D01*
X58684523Y-32071428D01*
X58646428Y-31919047D01*
X58646428Y-31804761D01*
X58684523Y-31652380D01*
X58722619Y-31576190D01*
X58798809Y-31500000D01*
X58913095Y-31461904D01*
X58989285Y-31461904D01*
X59103571Y-31500000D01*
X59141666Y-31538095D01*
X59598809Y-31804761D02*
X59522619Y-31766666D01*
X59484523Y-31728571D01*
X59446428Y-31652380D01*
X59446428Y-31614285D01*
X59484523Y-31538095D01*
X59522619Y-31500000D01*
X59598809Y-31461904D01*
X59751190Y-31461904D01*
X59827380Y-31500000D01*
X59865476Y-31538095D01*
X59903571Y-31614285D01*
X59903571Y-31652380D01*
X59865476Y-31728571D01*
X59827380Y-31766666D01*
X59751190Y-31804761D01*
X59598809Y-31804761D01*
X59522619Y-31842857D01*
X59484523Y-31880952D01*
X59446428Y-31957142D01*
X59446428Y-32109523D01*
X59484523Y-32185714D01*
X59522619Y-32223809D01*
X59598809Y-32261904D01*
X59751190Y-32261904D01*
X59827380Y-32223809D01*
X59865476Y-32185714D01*
X59903571Y-32109523D01*
X59903571Y-31957142D01*
X59865476Y-31880952D01*
X59827380Y-31842857D01*
X59751190Y-31804761D01*
D10*
%TO.C,C7*%
X53858333Y-30407142D02*
X53810714Y-30454761D01*
X53667857Y-30502380D01*
X53572619Y-30502380D01*
X53429761Y-30454761D01*
X53334523Y-30359523D01*
X53286904Y-30264285D01*
X53239285Y-30073809D01*
X53239285Y-29930952D01*
X53286904Y-29740476D01*
X53334523Y-29645238D01*
X53429761Y-29550000D01*
X53572619Y-29502380D01*
X53667857Y-29502380D01*
X53810714Y-29550000D01*
X53858333Y-29597619D01*
X54191666Y-29502380D02*
X54858333Y-29502380D01*
X54429761Y-30502380D01*
X53382142Y-34202380D02*
X52810714Y-34202380D01*
X53096428Y-34202380D02*
X53096428Y-33202380D01*
X53001190Y-33345238D01*
X52905952Y-33440476D01*
X52810714Y-33488095D01*
X54001190Y-33202380D02*
X54096428Y-33202380D01*
X54191666Y-33250000D01*
X54239285Y-33297619D01*
X54286904Y-33392857D01*
X54334523Y-33583333D01*
X54334523Y-33821428D01*
X54286904Y-34011904D01*
X54239285Y-34107142D01*
X54191666Y-34154761D01*
X54096428Y-34202380D01*
X54001190Y-34202380D01*
X53905952Y-34154761D01*
X53858333Y-34107142D01*
X53810714Y-34011904D01*
X53763095Y-33821428D01*
X53763095Y-33583333D01*
X53810714Y-33392857D01*
X53858333Y-33297619D01*
X53905952Y-33250000D01*
X54001190Y-33202380D01*
X55191666Y-33535714D02*
X55191666Y-34202380D01*
X54763095Y-33535714D02*
X54763095Y-34059523D01*
X54810714Y-34154761D01*
X54905952Y-34202380D01*
X55048809Y-34202380D01*
X55144047Y-34154761D01*
X55191666Y-34107142D01*
D14*
X53891666Y-32185714D02*
X53853571Y-32223809D01*
X53739285Y-32261904D01*
X53663095Y-32261904D01*
X53548809Y-32223809D01*
X53472619Y-32147619D01*
X53434523Y-32071428D01*
X53396428Y-31919047D01*
X53396428Y-31804761D01*
X53434523Y-31652380D01*
X53472619Y-31576190D01*
X53548809Y-31500000D01*
X53663095Y-31461904D01*
X53739285Y-31461904D01*
X53853571Y-31500000D01*
X53891666Y-31538095D01*
X54158333Y-31461904D02*
X54691666Y-31461904D01*
X54348809Y-32261904D01*
D10*
%TO.C,U1*%
X49238095Y-48252380D02*
X49238095Y-49061904D01*
X49285714Y-49157142D01*
X49333333Y-49204761D01*
X49428571Y-49252380D01*
X49619047Y-49252380D01*
X49714285Y-49204761D01*
X49761904Y-49157142D01*
X49809523Y-49061904D01*
X49809523Y-48252380D01*
X50809523Y-49252380D02*
X50238095Y-49252380D01*
X50523809Y-49252380D02*
X50523809Y-48252380D01*
X50428571Y-48395238D01*
X50333333Y-48490476D01*
X50238095Y-48538095D01*
X44142857Y-57604761D02*
X44285714Y-57652380D01*
X44523809Y-57652380D01*
X44619047Y-57604761D01*
X44666666Y-57557142D01*
X44714285Y-57461904D01*
X44714285Y-57366666D01*
X44666666Y-57271428D01*
X44619047Y-57223809D01*
X44523809Y-57176190D01*
X44333333Y-57128571D01*
X44238095Y-57080952D01*
X44190476Y-57033333D01*
X44142857Y-56938095D01*
X44142857Y-56842857D01*
X44190476Y-56747619D01*
X44238095Y-56700000D01*
X44333333Y-56652380D01*
X44571428Y-56652380D01*
X44714285Y-56700000D01*
X45000000Y-56652380D02*
X45571428Y-56652380D01*
X45285714Y-57652380D02*
X45285714Y-56652380D01*
X45904761Y-57652380D02*
X45904761Y-56652380D01*
X46238095Y-57366666D01*
X46571428Y-56652380D01*
X46571428Y-57652380D01*
X46952380Y-56652380D02*
X47571428Y-56652380D01*
X47238095Y-57033333D01*
X47380952Y-57033333D01*
X47476190Y-57080952D01*
X47523809Y-57128571D01*
X47571428Y-57223809D01*
X47571428Y-57461904D01*
X47523809Y-57557142D01*
X47476190Y-57604761D01*
X47380952Y-57652380D01*
X47095238Y-57652380D01*
X47000000Y-57604761D01*
X46952380Y-57557142D01*
X47952380Y-56747619D02*
X48000000Y-56700000D01*
X48095238Y-56652380D01*
X48333333Y-56652380D01*
X48428571Y-56700000D01*
X48476190Y-56747619D01*
X48523809Y-56842857D01*
X48523809Y-56938095D01*
X48476190Y-57080952D01*
X47904761Y-57652380D01*
X48523809Y-57652380D01*
X49285714Y-57128571D02*
X48952380Y-57128571D01*
X48952380Y-57652380D02*
X48952380Y-56652380D01*
X49428571Y-56652380D01*
X50000000Y-56652380D02*
X50095238Y-56652380D01*
X50190476Y-56700000D01*
X50238095Y-56747619D01*
X50285714Y-56842857D01*
X50333333Y-57033333D01*
X50333333Y-57271428D01*
X50285714Y-57461904D01*
X50238095Y-57557142D01*
X50190476Y-57604761D01*
X50095238Y-57652380D01*
X50000000Y-57652380D01*
X49904761Y-57604761D01*
X49857142Y-57557142D01*
X49809523Y-57461904D01*
X49761904Y-57271428D01*
X49761904Y-57033333D01*
X49809523Y-56842857D01*
X49857142Y-56747619D01*
X49904761Y-56700000D01*
X50000000Y-56652380D01*
X50666666Y-56652380D02*
X51285714Y-56652380D01*
X50952380Y-57033333D01*
X51095238Y-57033333D01*
X51190476Y-57080952D01*
X51238095Y-57128571D01*
X51285714Y-57223809D01*
X51285714Y-57461904D01*
X51238095Y-57557142D01*
X51190476Y-57604761D01*
X51095238Y-57652380D01*
X50809523Y-57652380D01*
X50714285Y-57604761D01*
X50666666Y-57557142D01*
X51904761Y-56652380D02*
X52000000Y-56652380D01*
X52095238Y-56700000D01*
X52142857Y-56747619D01*
X52190476Y-56842857D01*
X52238095Y-57033333D01*
X52238095Y-57271428D01*
X52190476Y-57461904D01*
X52142857Y-57557142D01*
X52095238Y-57604761D01*
X52000000Y-57652380D01*
X51904761Y-57652380D01*
X51809523Y-57604761D01*
X51761904Y-57557142D01*
X51714285Y-57461904D01*
X51666666Y-57271428D01*
X51666666Y-57033333D01*
X51714285Y-56842857D01*
X51761904Y-56747619D01*
X51809523Y-56700000D01*
X51904761Y-56652380D01*
X53000000Y-57128571D02*
X52666666Y-57128571D01*
X52666666Y-57652380D02*
X52666666Y-56652380D01*
X53142857Y-56652380D01*
X53952380Y-56985714D02*
X53952380Y-57652380D01*
X53714285Y-56604761D02*
X53476190Y-57319047D01*
X54095238Y-57319047D01*
X54476190Y-57652380D02*
X54476190Y-56652380D01*
X54857142Y-56652380D01*
X54952380Y-56700000D01*
X55000000Y-56747619D01*
X55047619Y-56842857D01*
X55047619Y-56985714D01*
X55000000Y-57080952D01*
X54952380Y-57128571D01*
X54857142Y-57176190D01*
X54476190Y-57176190D01*
X55380952Y-57652380D02*
X55904761Y-56985714D01*
X55380952Y-56985714D02*
X55904761Y-57652380D01*
X49238095Y-52452380D02*
X49238095Y-53261904D01*
X49285714Y-53357142D01*
X49333333Y-53404761D01*
X49428571Y-53452380D01*
X49619047Y-53452380D01*
X49714285Y-53404761D01*
X49761904Y-53357142D01*
X49809523Y-53261904D01*
X49809523Y-52452380D01*
X50809523Y-53452380D02*
X50238095Y-53452380D01*
X50523809Y-53452380D02*
X50523809Y-52452380D01*
X50428571Y-52595238D01*
X50333333Y-52690476D01*
X50238095Y-52738095D01*
%TO.C,FB1*%
X50904166Y-35558571D02*
X50570833Y-35558571D01*
X50570833Y-36082380D02*
X50570833Y-35082380D01*
X51047023Y-35082380D01*
X51761309Y-35558571D02*
X51904166Y-35606190D01*
X51951785Y-35653809D01*
X51999404Y-35749047D01*
X51999404Y-35891904D01*
X51951785Y-35987142D01*
X51904166Y-36034761D01*
X51808928Y-36082380D01*
X51427976Y-36082380D01*
X51427976Y-35082380D01*
X51761309Y-35082380D01*
X51856547Y-35130000D01*
X51904166Y-35177619D01*
X51951785Y-35272857D01*
X51951785Y-35368095D01*
X51904166Y-35463333D01*
X51856547Y-35510952D01*
X51761309Y-35558571D01*
X51427976Y-35558571D01*
X52951785Y-36082380D02*
X52380357Y-36082380D01*
X52666071Y-36082380D02*
X52666071Y-35082380D01*
X52570833Y-35225238D01*
X52475595Y-35320476D01*
X52380357Y-35368095D01*
X47499404Y-33222380D02*
X46927976Y-33222380D01*
X47213690Y-33222380D02*
X47213690Y-32222380D01*
X47118452Y-32365238D01*
X47023214Y-32460476D01*
X46927976Y-32508095D01*
X48118452Y-32222380D02*
X48213690Y-32222380D01*
X48308928Y-32270000D01*
X48356547Y-32317619D01*
X48404166Y-32412857D01*
X48451785Y-32603333D01*
X48451785Y-32841428D01*
X48404166Y-33031904D01*
X48356547Y-33127142D01*
X48308928Y-33174761D01*
X48213690Y-33222380D01*
X48118452Y-33222380D01*
X48023214Y-33174761D01*
X47975595Y-33127142D01*
X47927976Y-33031904D01*
X47880357Y-32841428D01*
X47880357Y-32603333D01*
X47927976Y-32412857D01*
X47975595Y-32317619D01*
X48023214Y-32270000D01*
X48118452Y-32222380D01*
X49070833Y-32222380D02*
X49166071Y-32222380D01*
X49261309Y-32270000D01*
X49308928Y-32317619D01*
X49356547Y-32412857D01*
X49404166Y-32603333D01*
X49404166Y-32841428D01*
X49356547Y-33031904D01*
X49308928Y-33127142D01*
X49261309Y-33174761D01*
X49166071Y-33222380D01*
X49070833Y-33222380D01*
X48975595Y-33174761D01*
X48927976Y-33127142D01*
X48880357Y-33031904D01*
X48832738Y-32841428D01*
X48832738Y-32603333D01*
X48880357Y-32412857D01*
X48927976Y-32317619D01*
X48975595Y-32270000D01*
X49070833Y-32222380D01*
X50451785Y-32746190D02*
X50404166Y-32698571D01*
X50308928Y-32650952D01*
X50213690Y-32650952D01*
X50118452Y-32698571D01*
X50070833Y-32746190D01*
X50023214Y-32841428D01*
X50023214Y-32936666D01*
X50070833Y-33031904D01*
X50118452Y-33079523D01*
X50213690Y-33127142D01*
X50308928Y-33127142D01*
X50404166Y-33079523D01*
X50451785Y-33031904D01*
X50451785Y-32650952D02*
X50451785Y-33031904D01*
X50499404Y-33079523D01*
X50547023Y-33079523D01*
X50642261Y-33031904D01*
X50689880Y-32936666D01*
X50689880Y-32698571D01*
X50594642Y-32555714D01*
X50451785Y-32460476D01*
X50261309Y-32412857D01*
X50070833Y-32460476D01*
X49927976Y-32555714D01*
X49832738Y-32698571D01*
X49785119Y-32889047D01*
X49832738Y-33079523D01*
X49927976Y-33222380D01*
X50070833Y-33317619D01*
X50261309Y-33365238D01*
X50451785Y-33317619D01*
X50594642Y-33222380D01*
X51642261Y-33222380D02*
X51070833Y-33222380D01*
X51356547Y-33222380D02*
X51356547Y-32222380D01*
X51261309Y-32365238D01*
X51166071Y-32460476D01*
X51070833Y-32508095D01*
X52261309Y-32222380D02*
X52356547Y-32222380D01*
X52451785Y-32270000D01*
X52499404Y-32317619D01*
X52547023Y-32412857D01*
X52594642Y-32603333D01*
X52594642Y-32841428D01*
X52547023Y-33031904D01*
X52499404Y-33127142D01*
X52451785Y-33174761D01*
X52356547Y-33222380D01*
X52261309Y-33222380D01*
X52166071Y-33174761D01*
X52118452Y-33127142D01*
X52070833Y-33031904D01*
X52023214Y-32841428D01*
X52023214Y-32603333D01*
X52070833Y-32412857D01*
X52118452Y-32317619D01*
X52166071Y-32270000D01*
X52261309Y-32222380D01*
X53213690Y-32222380D02*
X53308928Y-32222380D01*
X53404166Y-32270000D01*
X53451785Y-32317619D01*
X53499404Y-32412857D01*
X53547023Y-32603333D01*
X53547023Y-32841428D01*
X53499404Y-33031904D01*
X53451785Y-33127142D01*
X53404166Y-33174761D01*
X53308928Y-33222380D01*
X53213690Y-33222380D01*
X53118452Y-33174761D01*
X53070833Y-33127142D01*
X53023214Y-33031904D01*
X52975595Y-32841428D01*
X52975595Y-32603333D01*
X53023214Y-32412857D01*
X53070833Y-32317619D01*
X53118452Y-32270000D01*
X53213690Y-32222380D01*
X53975595Y-33222380D02*
X53975595Y-32222380D01*
X54308928Y-32936666D01*
X54642261Y-32222380D01*
X54642261Y-33222380D01*
X55118452Y-33222380D02*
X55118452Y-32222380D01*
X55118452Y-32698571D02*
X55689880Y-32698571D01*
X55689880Y-33222380D02*
X55689880Y-32222380D01*
X56070833Y-32555714D02*
X56594642Y-32555714D01*
X56070833Y-33222380D01*
X56594642Y-33222380D01*
D11*
X51404166Y-34171428D02*
X51270833Y-34171428D01*
X51270833Y-34380952D02*
X51270833Y-33980952D01*
X51461309Y-33980952D01*
X51747023Y-34171428D02*
X51804166Y-34190476D01*
X51823214Y-34209523D01*
X51842261Y-34247619D01*
X51842261Y-34304761D01*
X51823214Y-34342857D01*
X51804166Y-34361904D01*
X51766071Y-34380952D01*
X51613690Y-34380952D01*
X51613690Y-33980952D01*
X51747023Y-33980952D01*
X51785119Y-34000000D01*
X51804166Y-34019047D01*
X51823214Y-34057142D01*
X51823214Y-34095238D01*
X51804166Y-34133333D01*
X51785119Y-34152380D01*
X51747023Y-34171428D01*
X51613690Y-34171428D01*
X52223214Y-34380952D02*
X51994642Y-34380952D01*
X52108928Y-34380952D02*
X52108928Y-33980952D01*
X52070833Y-34038095D01*
X52032738Y-34076190D01*
X51994642Y-34095238D01*
D10*
%TO.C,R11*%
X45977142Y-56782380D02*
X45643809Y-56306190D01*
X45405714Y-56782380D02*
X45405714Y-55782380D01*
X45786666Y-55782380D01*
X45881904Y-55830000D01*
X45929523Y-55877619D01*
X45977142Y-55972857D01*
X45977142Y-56115714D01*
X45929523Y-56210952D01*
X45881904Y-56258571D01*
X45786666Y-56306190D01*
X45405714Y-56306190D01*
X46929523Y-56782380D02*
X46358095Y-56782380D01*
X46643809Y-56782380D02*
X46643809Y-55782380D01*
X46548571Y-55925238D01*
X46453333Y-56020476D01*
X46358095Y-56068095D01*
X47881904Y-56782380D02*
X47310476Y-56782380D01*
X47596190Y-56782380D02*
X47596190Y-55782380D01*
X47500952Y-55925238D01*
X47405714Y-56020476D01*
X47310476Y-56068095D01*
X46024761Y-59122380D02*
X45453333Y-59122380D01*
X45739047Y-59122380D02*
X45739047Y-58122380D01*
X45643809Y-58265238D01*
X45548571Y-58360476D01*
X45453333Y-58408095D01*
X46453333Y-59122380D02*
X46453333Y-58122380D01*
X46548571Y-58741428D02*
X46834285Y-59122380D01*
X46834285Y-58455714D02*
X46453333Y-58836666D01*
X47739047Y-58122380D02*
X47262857Y-58122380D01*
X47215238Y-58598571D01*
X47262857Y-58550952D01*
X47358095Y-58503333D01*
X47596190Y-58503333D01*
X47691428Y-58550952D01*
X47739047Y-58598571D01*
X47786666Y-58693809D01*
X47786666Y-58931904D01*
X47739047Y-59027142D01*
X47691428Y-59074761D01*
X47596190Y-59122380D01*
X47358095Y-59122380D01*
X47262857Y-59074761D01*
X47215238Y-59027142D01*
D12*
X46452857Y-57617619D02*
X46366190Y-57493809D01*
X46304285Y-57617619D02*
X46304285Y-57357619D01*
X46403333Y-57357619D01*
X46428095Y-57370000D01*
X46440476Y-57382380D01*
X46452857Y-57407142D01*
X46452857Y-57444285D01*
X46440476Y-57469047D01*
X46428095Y-57481428D01*
X46403333Y-57493809D01*
X46304285Y-57493809D01*
X46700476Y-57617619D02*
X46551904Y-57617619D01*
X46626190Y-57617619D02*
X46626190Y-57357619D01*
X46601428Y-57394761D01*
X46576666Y-57419523D01*
X46551904Y-57431904D01*
X46948095Y-57617619D02*
X46799523Y-57617619D01*
X46873809Y-57617619D02*
X46873809Y-57357619D01*
X46849047Y-57394761D01*
X46824285Y-57419523D01*
X46799523Y-57431904D01*
D10*
%TO.C,D4*%
X37772380Y-67988095D02*
X36772380Y-67988095D01*
X36772380Y-67750000D01*
X36820000Y-67607142D01*
X36915238Y-67511904D01*
X37010476Y-67464285D01*
X37200952Y-67416666D01*
X37343809Y-67416666D01*
X37534285Y-67464285D01*
X37629523Y-67511904D01*
X37724761Y-67607142D01*
X37772380Y-67750000D01*
X37772380Y-67988095D01*
X37105714Y-66559523D02*
X37772380Y-66559523D01*
X36724761Y-66797619D02*
X37439047Y-67035714D01*
X37439047Y-66416666D01*
X40156190Y-69178571D02*
X40632380Y-69178571D01*
X39632380Y-69511904D02*
X40156190Y-69178571D01*
X39632380Y-68845238D01*
X40584761Y-68130952D02*
X40632380Y-68226190D01*
X40632380Y-68416666D01*
X40584761Y-68511904D01*
X40489523Y-68559523D01*
X40108571Y-68559523D01*
X40013333Y-68511904D01*
X39965714Y-68416666D01*
X39965714Y-68226190D01*
X40013333Y-68130952D01*
X40108571Y-68083333D01*
X40203809Y-68083333D01*
X40299047Y-68559523D01*
X40632380Y-67511904D02*
X40584761Y-67607142D01*
X40489523Y-67654761D01*
X39632380Y-67654761D01*
X40632380Y-66988095D02*
X40584761Y-67083333D01*
X40489523Y-67130952D01*
X39632380Y-67130952D01*
X40632380Y-66464285D02*
X40584761Y-66559523D01*
X40537142Y-66607142D01*
X40441904Y-66654761D01*
X40156190Y-66654761D01*
X40060952Y-66607142D01*
X40013333Y-66559523D01*
X39965714Y-66464285D01*
X39965714Y-66321428D01*
X40013333Y-66226190D01*
X40060952Y-66178571D01*
X40156190Y-66130952D01*
X40441904Y-66130952D01*
X40537142Y-66178571D01*
X40584761Y-66226190D01*
X40632380Y-66321428D01*
X40632380Y-66464285D01*
X39965714Y-65797619D02*
X40632380Y-65607142D01*
X40156190Y-65416666D01*
X40632380Y-65226190D01*
X39965714Y-65035714D01*
D11*
X38930952Y-67545238D02*
X38530952Y-67545238D01*
X38530952Y-67450000D01*
X38550000Y-67392857D01*
X38588095Y-67354761D01*
X38626190Y-67335714D01*
X38702380Y-67316666D01*
X38759523Y-67316666D01*
X38835714Y-67335714D01*
X38873809Y-67354761D01*
X38911904Y-67392857D01*
X38930952Y-67450000D01*
X38930952Y-67545238D01*
X38664285Y-66973809D02*
X38930952Y-66973809D01*
X38511904Y-67069047D02*
X38797619Y-67164285D01*
X38797619Y-66916666D01*
D10*
%TO.C,R10*%
X54857142Y-58622380D02*
X54523809Y-58146190D01*
X54285714Y-58622380D02*
X54285714Y-57622380D01*
X54666666Y-57622380D01*
X54761904Y-57670000D01*
X54809523Y-57717619D01*
X54857142Y-57812857D01*
X54857142Y-57955714D01*
X54809523Y-58050952D01*
X54761904Y-58098571D01*
X54666666Y-58146190D01*
X54285714Y-58146190D01*
X55809523Y-58622380D02*
X55238095Y-58622380D01*
X55523809Y-58622380D02*
X55523809Y-57622380D01*
X55428571Y-57765238D01*
X55333333Y-57860476D01*
X55238095Y-57908095D01*
X56428571Y-57622380D02*
X56523809Y-57622380D01*
X56619047Y-57670000D01*
X56666666Y-57717619D01*
X56714285Y-57812857D01*
X56761904Y-58003333D01*
X56761904Y-58241428D01*
X56714285Y-58431904D01*
X56666666Y-58527142D01*
X56619047Y-58574761D01*
X56523809Y-58622380D01*
X56428571Y-58622380D01*
X56333333Y-58574761D01*
X56285714Y-58527142D01*
X56238095Y-58431904D01*
X56190476Y-58241428D01*
X56190476Y-58003333D01*
X56238095Y-57812857D01*
X56285714Y-57717619D01*
X56333333Y-57670000D01*
X56428571Y-57622380D01*
X54904761Y-56282380D02*
X54333333Y-56282380D01*
X54619047Y-56282380D02*
X54619047Y-55282380D01*
X54523809Y-55425238D01*
X54428571Y-55520476D01*
X54333333Y-55568095D01*
X55333333Y-56282380D02*
X55333333Y-55282380D01*
X55428571Y-55901428D02*
X55714285Y-56282380D01*
X55714285Y-55615714D02*
X55333333Y-55996666D01*
X56619047Y-55282380D02*
X56142857Y-55282380D01*
X56095238Y-55758571D01*
X56142857Y-55710952D01*
X56238095Y-55663333D01*
X56476190Y-55663333D01*
X56571428Y-55710952D01*
X56619047Y-55758571D01*
X56666666Y-55853809D01*
X56666666Y-56091904D01*
X56619047Y-56187142D01*
X56571428Y-56234761D01*
X56476190Y-56282380D01*
X56238095Y-56282380D01*
X56142857Y-56234761D01*
X56095238Y-56187142D01*
D12*
X55332857Y-57117619D02*
X55246190Y-56993809D01*
X55184285Y-57117619D02*
X55184285Y-56857619D01*
X55283333Y-56857619D01*
X55308095Y-56870000D01*
X55320476Y-56882380D01*
X55332857Y-56907142D01*
X55332857Y-56944285D01*
X55320476Y-56969047D01*
X55308095Y-56981428D01*
X55283333Y-56993809D01*
X55184285Y-56993809D01*
X55580476Y-57117619D02*
X55431904Y-57117619D01*
X55506190Y-57117619D02*
X55506190Y-56857619D01*
X55481428Y-56894761D01*
X55456666Y-56919523D01*
X55431904Y-56931904D01*
X55741428Y-56857619D02*
X55766190Y-56857619D01*
X55790952Y-56870000D01*
X55803333Y-56882380D01*
X55815714Y-56907142D01*
X55828095Y-56956666D01*
X55828095Y-57018571D01*
X55815714Y-57068095D01*
X55803333Y-57092857D01*
X55790952Y-57105238D01*
X55766190Y-57117619D01*
X55741428Y-57117619D01*
X55716666Y-57105238D01*
X55704285Y-57092857D01*
X55691904Y-57068095D01*
X55679523Y-57018571D01*
X55679523Y-56956666D01*
X55691904Y-56907142D01*
X55704285Y-56882380D01*
X55716666Y-56870000D01*
X55741428Y-56857619D01*
D10*
%TO.C,R9*%
X55333333Y-59822380D02*
X55000000Y-59346190D01*
X54761904Y-59822380D02*
X54761904Y-58822380D01*
X55142857Y-58822380D01*
X55238095Y-58870000D01*
X55285714Y-58917619D01*
X55333333Y-59012857D01*
X55333333Y-59155714D01*
X55285714Y-59250952D01*
X55238095Y-59298571D01*
X55142857Y-59346190D01*
X54761904Y-59346190D01*
X55809523Y-59822380D02*
X56000000Y-59822380D01*
X56095238Y-59774761D01*
X56142857Y-59727142D01*
X56238095Y-59584285D01*
X56285714Y-59393809D01*
X56285714Y-59012857D01*
X56238095Y-58917619D01*
X56190476Y-58870000D01*
X56095238Y-58822380D01*
X55904761Y-58822380D01*
X55809523Y-58870000D01*
X55761904Y-58917619D01*
X55714285Y-59012857D01*
X55714285Y-59250952D01*
X55761904Y-59346190D01*
X55809523Y-59393809D01*
X55904761Y-59441428D01*
X56095238Y-59441428D01*
X56190476Y-59393809D01*
X56238095Y-59346190D01*
X56285714Y-59250952D01*
X54904761Y-57482380D02*
X54333333Y-57482380D01*
X54619047Y-57482380D02*
X54619047Y-56482380D01*
X54523809Y-56625238D01*
X54428571Y-56720476D01*
X54333333Y-56768095D01*
X55333333Y-57482380D02*
X55333333Y-56482380D01*
X55428571Y-57101428D02*
X55714285Y-57482380D01*
X55714285Y-56815714D02*
X55333333Y-57196666D01*
X56619047Y-56482380D02*
X56142857Y-56482380D01*
X56095238Y-56958571D01*
X56142857Y-56910952D01*
X56238095Y-56863333D01*
X56476190Y-56863333D01*
X56571428Y-56910952D01*
X56619047Y-56958571D01*
X56666666Y-57053809D01*
X56666666Y-57291904D01*
X56619047Y-57387142D01*
X56571428Y-57434761D01*
X56476190Y-57482380D01*
X56238095Y-57482380D01*
X56142857Y-57434761D01*
X56095238Y-57387142D01*
D12*
X55456666Y-58317619D02*
X55370000Y-58193809D01*
X55308095Y-58317619D02*
X55308095Y-58057619D01*
X55407142Y-58057619D01*
X55431904Y-58070000D01*
X55444285Y-58082380D01*
X55456666Y-58107142D01*
X55456666Y-58144285D01*
X55444285Y-58169047D01*
X55431904Y-58181428D01*
X55407142Y-58193809D01*
X55308095Y-58193809D01*
X55580476Y-58317619D02*
X55630000Y-58317619D01*
X55654761Y-58305238D01*
X55667142Y-58292857D01*
X55691904Y-58255714D01*
X55704285Y-58206190D01*
X55704285Y-58107142D01*
X55691904Y-58082380D01*
X55679523Y-58070000D01*
X55654761Y-58057619D01*
X55605238Y-58057619D01*
X55580476Y-58070000D01*
X55568095Y-58082380D01*
X55555714Y-58107142D01*
X55555714Y-58169047D01*
X55568095Y-58193809D01*
X55580476Y-58206190D01*
X55605238Y-58218571D01*
X55654761Y-58218571D01*
X55679523Y-58206190D01*
X55691904Y-58193809D01*
X55704285Y-58169047D01*
D10*
%TO.C,J4*%
X49546666Y-62552380D02*
X49546666Y-63266666D01*
X49499047Y-63409523D01*
X49403809Y-63504761D01*
X49260952Y-63552380D01*
X49165714Y-63552380D01*
X50451428Y-62885714D02*
X50451428Y-63552380D01*
X50213333Y-62504761D02*
X49975238Y-63219047D01*
X50594285Y-63219047D01*
X47332380Y-70152380D02*
X47332380Y-70961904D01*
X47380000Y-71057142D01*
X47427619Y-71104761D01*
X47522857Y-71152380D01*
X47713333Y-71152380D01*
X47808571Y-71104761D01*
X47856190Y-71057142D01*
X47903809Y-70961904D01*
X47903809Y-70152380D01*
X48332380Y-71104761D02*
X48475238Y-71152380D01*
X48713333Y-71152380D01*
X48808571Y-71104761D01*
X48856190Y-71057142D01*
X48903809Y-70961904D01*
X48903809Y-70866666D01*
X48856190Y-70771428D01*
X48808571Y-70723809D01*
X48713333Y-70676190D01*
X48522857Y-70628571D01*
X48427619Y-70580952D01*
X48380000Y-70533333D01*
X48332380Y-70438095D01*
X48332380Y-70342857D01*
X48380000Y-70247619D01*
X48427619Y-70200000D01*
X48522857Y-70152380D01*
X48760952Y-70152380D01*
X48903809Y-70200000D01*
X49284761Y-70866666D02*
X49760952Y-70866666D01*
X49189523Y-71152380D02*
X49522857Y-70152380D01*
X49856190Y-71152380D01*
X50760952Y-71152380D02*
X50427619Y-70676190D01*
X50189523Y-71152380D02*
X50189523Y-70152380D01*
X50570476Y-70152380D01*
X50665714Y-70200000D01*
X50713333Y-70247619D01*
X50760952Y-70342857D01*
X50760952Y-70485714D01*
X50713333Y-70580952D01*
X50665714Y-70628571D01*
X50570476Y-70676190D01*
X50189523Y-70676190D01*
X51046666Y-70152380D02*
X51618095Y-70152380D01*
X51332380Y-71152380D02*
X51332380Y-70152380D01*
X52475238Y-71152380D02*
X51903809Y-71152380D01*
X52189523Y-71152380D02*
X52189523Y-70152380D01*
X52094285Y-70295238D01*
X51999047Y-70390476D01*
X51903809Y-70438095D01*
X49546666Y-68252380D02*
X49546666Y-68966666D01*
X49499047Y-69109523D01*
X49403809Y-69204761D01*
X49260952Y-69252380D01*
X49165714Y-69252380D01*
X50451428Y-68585714D02*
X50451428Y-69252380D01*
X50213333Y-68204761D02*
X49975238Y-68919047D01*
X50594285Y-68919047D01*
%TO.C,Q1*%
X54947619Y-37295238D02*
X54900000Y-37390476D01*
X54804761Y-37485714D01*
X54661904Y-37628571D01*
X54614285Y-37723809D01*
X54614285Y-37819047D01*
X54852380Y-37771428D02*
X54804761Y-37866666D01*
X54709523Y-37961904D01*
X54519047Y-38009523D01*
X54185714Y-38009523D01*
X53995238Y-37961904D01*
X53900000Y-37866666D01*
X53852380Y-37771428D01*
X53852380Y-37580952D01*
X53900000Y-37485714D01*
X53995238Y-37390476D01*
X54185714Y-37342857D01*
X54519047Y-37342857D01*
X54709523Y-37390476D01*
X54804761Y-37485714D01*
X54852380Y-37580952D01*
X54852380Y-37771428D01*
X54852380Y-36390476D02*
X54852380Y-36961904D01*
X54852380Y-36676190D02*
X53852380Y-36676190D01*
X53995238Y-36771428D01*
X54090476Y-36866666D01*
X54138095Y-36961904D01*
X49566666Y-40295238D02*
X49566666Y-39819047D01*
X49852380Y-40390476D02*
X48852380Y-40057142D01*
X49852380Y-39723809D01*
X48852380Y-39200000D02*
X48852380Y-39009523D01*
X48900000Y-38914285D01*
X48995238Y-38819047D01*
X49185714Y-38771428D01*
X49519047Y-38771428D01*
X49709523Y-38819047D01*
X49804761Y-38914285D01*
X49852380Y-39009523D01*
X49852380Y-39200000D01*
X49804761Y-39295238D01*
X49709523Y-39390476D01*
X49519047Y-39438095D01*
X49185714Y-39438095D01*
X48995238Y-39390476D01*
X48900000Y-39295238D01*
X48852380Y-39200000D01*
X48852380Y-38438095D02*
X48852380Y-37819047D01*
X49233333Y-38152380D01*
X49233333Y-38009523D01*
X49280952Y-37914285D01*
X49328571Y-37866666D01*
X49423809Y-37819047D01*
X49661904Y-37819047D01*
X49757142Y-37866666D01*
X49804761Y-37914285D01*
X49852380Y-38009523D01*
X49852380Y-38295238D01*
X49804761Y-38390476D01*
X49757142Y-38438095D01*
X49185714Y-36961904D02*
X49852380Y-36961904D01*
X48804761Y-37200000D02*
X49519047Y-37438095D01*
X49519047Y-36819047D01*
X48852380Y-36247619D02*
X48852380Y-36152380D01*
X48900000Y-36057142D01*
X48947619Y-36009523D01*
X49042857Y-35961904D01*
X49233333Y-35914285D01*
X49471428Y-35914285D01*
X49661904Y-35961904D01*
X49757142Y-36009523D01*
X49804761Y-36057142D01*
X49852380Y-36152380D01*
X49852380Y-36247619D01*
X49804761Y-36342857D01*
X49757142Y-36390476D01*
X49661904Y-36438095D01*
X49471428Y-36485714D01*
X49233333Y-36485714D01*
X49042857Y-36438095D01*
X48947619Y-36390476D01*
X48900000Y-36342857D01*
X48852380Y-36247619D01*
X49852380Y-34961904D02*
X49852380Y-35533333D01*
X49852380Y-35247619D02*
X48852380Y-35247619D01*
X48995238Y-35342857D01*
X49090476Y-35438095D01*
X49138095Y-35533333D01*
X49566666Y-34580952D02*
X49566666Y-34104761D01*
X49852380Y-34676190D02*
X48852380Y-34342857D01*
X49852380Y-34009523D01*
D15*
X51852380Y-37473809D02*
X51804761Y-37450000D01*
X51757142Y-37402380D01*
X51685714Y-37330952D01*
X51638095Y-37307142D01*
X51590476Y-37307142D01*
X51614285Y-37426190D02*
X51566666Y-37402380D01*
X51519047Y-37354761D01*
X51495238Y-37259523D01*
X51495238Y-37092857D01*
X51519047Y-36997619D01*
X51566666Y-36950000D01*
X51614285Y-36926190D01*
X51709523Y-36926190D01*
X51757142Y-36950000D01*
X51804761Y-36997619D01*
X51828571Y-37092857D01*
X51828571Y-37259523D01*
X51804761Y-37354761D01*
X51757142Y-37402380D01*
X51709523Y-37426190D01*
X51614285Y-37426190D01*
X52304761Y-37426190D02*
X52019047Y-37426190D01*
X52161904Y-37426190D02*
X52161904Y-36926190D01*
X52114285Y-36997619D01*
X52066666Y-37045238D01*
X52019047Y-37069047D01*
D10*
%TO.C,F1*%
X50166666Y-42048571D02*
X49833333Y-42048571D01*
X49833333Y-42572380D02*
X49833333Y-41572380D01*
X50309523Y-41572380D01*
X51214285Y-42572380D02*
X50642857Y-42572380D01*
X50928571Y-42572380D02*
X50928571Y-41572380D01*
X50833333Y-41715238D01*
X50738095Y-41810476D01*
X50642857Y-41858095D01*
X48452380Y-38932380D02*
X47880952Y-38932380D01*
X48166666Y-38932380D02*
X48166666Y-37932380D01*
X48071428Y-38075238D01*
X47976190Y-38170476D01*
X47880952Y-38218095D01*
X48833333Y-38646666D02*
X49309523Y-38646666D01*
X48738095Y-38932380D02*
X49071428Y-37932380D01*
X49404761Y-38932380D01*
X50452380Y-37884761D02*
X49595238Y-39170476D01*
X50690476Y-37932380D02*
X51309523Y-37932380D01*
X50976190Y-38313333D01*
X51119047Y-38313333D01*
X51214285Y-38360952D01*
X51261904Y-38408571D01*
X51309523Y-38503809D01*
X51309523Y-38741904D01*
X51261904Y-38837142D01*
X51214285Y-38884761D01*
X51119047Y-38932380D01*
X50833333Y-38932380D01*
X50738095Y-38884761D01*
X50690476Y-38837142D01*
X51642857Y-37932380D02*
X52261904Y-37932380D01*
X51928571Y-38313333D01*
X52071428Y-38313333D01*
X52166666Y-38360952D01*
X52214285Y-38408571D01*
X52261904Y-38503809D01*
X52261904Y-38741904D01*
X52214285Y-38837142D01*
X52166666Y-38884761D01*
X52071428Y-38932380D01*
X51785714Y-38932380D01*
X51690476Y-38884761D01*
X51642857Y-38837142D01*
X52547619Y-37932380D02*
X52880952Y-38932380D01*
X53214285Y-37932380D01*
D14*
X50233333Y-40242857D02*
X49966666Y-40242857D01*
X49966666Y-40661904D02*
X49966666Y-39861904D01*
X50347619Y-39861904D01*
X51071428Y-40661904D02*
X50614285Y-40661904D01*
X50842857Y-40661904D02*
X50842857Y-39861904D01*
X50766666Y-39976190D01*
X50690476Y-40052380D01*
X50614285Y-40090476D01*
D10*
%TO.C,J1*%
X45416666Y-38612380D02*
X45416666Y-39326666D01*
X45369047Y-39469523D01*
X45273809Y-39564761D01*
X45130952Y-39612380D01*
X45035714Y-39612380D01*
X46416666Y-39612380D02*
X45845238Y-39612380D01*
X46130952Y-39612380D02*
X46130952Y-38612380D01*
X46035714Y-38755238D01*
X45940476Y-38850476D01*
X45845238Y-38898095D01*
X44416666Y-29892380D02*
X44416666Y-28892380D01*
X44797619Y-28892380D01*
X44892857Y-28940000D01*
X44940476Y-28987619D01*
X44988095Y-29082857D01*
X44988095Y-29225714D01*
X44940476Y-29320952D01*
X44892857Y-29368571D01*
X44797619Y-29416190D01*
X44416666Y-29416190D01*
X45321428Y-28892380D02*
X45559523Y-29892380D01*
X45750000Y-29178095D01*
X45940476Y-29892380D01*
X46178571Y-28892380D01*
X47130952Y-29892380D02*
X46797619Y-29416190D01*
X46559523Y-29892380D02*
X46559523Y-28892380D01*
X46940476Y-28892380D01*
X47035714Y-28940000D01*
X47083333Y-28987619D01*
X47130952Y-29082857D01*
X47130952Y-29225714D01*
X47083333Y-29320952D01*
X47035714Y-29368571D01*
X46940476Y-29416190D01*
X46559523Y-29416190D01*
X45416666Y-32052380D02*
X45416666Y-32766666D01*
X45369047Y-32909523D01*
X45273809Y-33004761D01*
X45130952Y-33052380D01*
X45035714Y-33052380D01*
X46416666Y-33052380D02*
X45845238Y-33052380D01*
X46130952Y-33052380D02*
X46130952Y-32052380D01*
X46035714Y-32195238D01*
X45940476Y-32290476D01*
X45845238Y-32338095D01*
%TO.C,D3*%
X37872380Y-34025595D02*
X36872380Y-34025595D01*
X36872380Y-33787500D01*
X36920000Y-33644642D01*
X37015238Y-33549404D01*
X37110476Y-33501785D01*
X37300952Y-33454166D01*
X37443809Y-33454166D01*
X37634285Y-33501785D01*
X37729523Y-33549404D01*
X37824761Y-33644642D01*
X37872380Y-33787500D01*
X37872380Y-34025595D01*
X36872380Y-33120833D02*
X36872380Y-32501785D01*
X37253333Y-32835119D01*
X37253333Y-32692261D01*
X37300952Y-32597023D01*
X37348571Y-32549404D01*
X37443809Y-32501785D01*
X37681904Y-32501785D01*
X37777142Y-32549404D01*
X37824761Y-32597023D01*
X37872380Y-32692261D01*
X37872380Y-32977976D01*
X37824761Y-33073214D01*
X37777142Y-33120833D01*
X39780000Y-34644642D02*
X39732380Y-34739880D01*
X39732380Y-34882738D01*
X39780000Y-35025595D01*
X39875238Y-35120833D01*
X39970476Y-35168452D01*
X40160952Y-35216071D01*
X40303809Y-35216071D01*
X40494285Y-35168452D01*
X40589523Y-35120833D01*
X40684761Y-35025595D01*
X40732380Y-34882738D01*
X40732380Y-34787500D01*
X40684761Y-34644642D01*
X40637142Y-34597023D01*
X40303809Y-34597023D01*
X40303809Y-34787500D01*
X40732380Y-34168452D02*
X40065714Y-34168452D01*
X40256190Y-34168452D02*
X40160952Y-34120833D01*
X40113333Y-34073214D01*
X40065714Y-33977976D01*
X40065714Y-33882738D01*
X40684761Y-33168452D02*
X40732380Y-33263690D01*
X40732380Y-33454166D01*
X40684761Y-33549404D01*
X40589523Y-33597023D01*
X40208571Y-33597023D01*
X40113333Y-33549404D01*
X40065714Y-33454166D01*
X40065714Y-33263690D01*
X40113333Y-33168452D01*
X40208571Y-33120833D01*
X40303809Y-33120833D01*
X40399047Y-33597023D01*
X40684761Y-32311309D02*
X40732380Y-32406547D01*
X40732380Y-32597023D01*
X40684761Y-32692261D01*
X40589523Y-32739880D01*
X40208571Y-32739880D01*
X40113333Y-32692261D01*
X40065714Y-32597023D01*
X40065714Y-32406547D01*
X40113333Y-32311309D01*
X40208571Y-32263690D01*
X40303809Y-32263690D01*
X40399047Y-32739880D01*
X40065714Y-31835119D02*
X40732380Y-31835119D01*
X40160952Y-31835119D02*
X40113333Y-31787500D01*
X40065714Y-31692261D01*
X40065714Y-31549404D01*
X40113333Y-31454166D01*
X40208571Y-31406547D01*
X40732380Y-31406547D01*
D11*
X39030952Y-33582738D02*
X38630952Y-33582738D01*
X38630952Y-33487500D01*
X38650000Y-33430357D01*
X38688095Y-33392261D01*
X38726190Y-33373214D01*
X38802380Y-33354166D01*
X38859523Y-33354166D01*
X38935714Y-33373214D01*
X38973809Y-33392261D01*
X39011904Y-33430357D01*
X39030952Y-33487500D01*
X39030952Y-33582738D01*
X38630952Y-33220833D02*
X38630952Y-32973214D01*
X38783333Y-33106547D01*
X38783333Y-33049404D01*
X38802380Y-33011309D01*
X38821428Y-32992261D01*
X38859523Y-32973214D01*
X38954761Y-32973214D01*
X38992857Y-32992261D01*
X39011904Y-33011309D01*
X39030952Y-33049404D01*
X39030952Y-33163690D01*
X39011904Y-33201785D01*
X38992857Y-33220833D01*
D10*
%TO.C,R7*%
X41922380Y-33176666D02*
X41446190Y-33510000D01*
X41922380Y-33748095D02*
X40922380Y-33748095D01*
X40922380Y-33367142D01*
X40970000Y-33271904D01*
X41017619Y-33224285D01*
X41112857Y-33176666D01*
X41255714Y-33176666D01*
X41350952Y-33224285D01*
X41398571Y-33271904D01*
X41446190Y-33367142D01*
X41446190Y-33748095D01*
X40922380Y-32843333D02*
X40922380Y-32176666D01*
X41922380Y-32605238D01*
X39582380Y-33605238D02*
X39582380Y-34176666D01*
X39582380Y-33890952D02*
X38582380Y-33890952D01*
X38725238Y-33986190D01*
X38820476Y-34081428D01*
X38868095Y-34176666D01*
X39582380Y-33176666D02*
X38582380Y-33176666D01*
X39201428Y-33081428D02*
X39582380Y-32795714D01*
X38915714Y-32795714D02*
X39296666Y-33176666D01*
X38582380Y-31890952D02*
X38582380Y-32367142D01*
X39058571Y-32414761D01*
X39010952Y-32367142D01*
X38963333Y-32271904D01*
X38963333Y-32033809D01*
X39010952Y-31938571D01*
X39058571Y-31890952D01*
X39153809Y-31843333D01*
X39391904Y-31843333D01*
X39487142Y-31890952D01*
X39534761Y-31938571D01*
X39582380Y-32033809D01*
X39582380Y-32271904D01*
X39534761Y-32367142D01*
X39487142Y-32414761D01*
D12*
X40417619Y-33053333D02*
X40293809Y-33140000D01*
X40417619Y-33201904D02*
X40157619Y-33201904D01*
X40157619Y-33102857D01*
X40170000Y-33078095D01*
X40182380Y-33065714D01*
X40207142Y-33053333D01*
X40244285Y-33053333D01*
X40269047Y-33065714D01*
X40281428Y-33078095D01*
X40293809Y-33102857D01*
X40293809Y-33201904D01*
X40157619Y-32966666D02*
X40157619Y-32793333D01*
X40417619Y-32904761D01*
D10*
%TO.C,J2*%
X62552380Y-49453333D02*
X63266666Y-49453333D01*
X63409523Y-49500952D01*
X63504761Y-49596190D01*
X63552380Y-49739047D01*
X63552380Y-49834285D01*
X62647619Y-49024761D02*
X62600000Y-48977142D01*
X62552380Y-48881904D01*
X62552380Y-48643809D01*
X62600000Y-48548571D01*
X62647619Y-48500952D01*
X62742857Y-48453333D01*
X62838095Y-48453333D01*
X62980952Y-48500952D01*
X63552380Y-49072380D01*
X63552380Y-48453333D01*
X71152380Y-50572380D02*
X70152380Y-50572380D01*
X70247619Y-50143809D02*
X70200000Y-50096190D01*
X70152380Y-50000952D01*
X70152380Y-49762857D01*
X70200000Y-49667619D01*
X70247619Y-49620000D01*
X70342857Y-49572380D01*
X70438095Y-49572380D01*
X70580952Y-49620000D01*
X71152380Y-50191428D01*
X71152380Y-49572380D01*
X71057142Y-48572380D02*
X71104761Y-48620000D01*
X71152380Y-48762857D01*
X71152380Y-48858095D01*
X71104761Y-49000952D01*
X71009523Y-49096190D01*
X70914285Y-49143809D01*
X70723809Y-49191428D01*
X70580952Y-49191428D01*
X70390476Y-49143809D01*
X70295238Y-49096190D01*
X70200000Y-49000952D01*
X70152380Y-48858095D01*
X70152380Y-48762857D01*
X70200000Y-48620000D01*
X70247619Y-48572380D01*
X71152380Y-47620000D02*
X71152380Y-48191428D01*
X71152380Y-47905714D02*
X70152380Y-47905714D01*
X70295238Y-48000952D01*
X70390476Y-48096190D01*
X70438095Y-48191428D01*
X68252380Y-49453333D02*
X68966666Y-49453333D01*
X69109523Y-49500952D01*
X69204761Y-49596190D01*
X69252380Y-49739047D01*
X69252380Y-49834285D01*
X68347619Y-49024761D02*
X68300000Y-48977142D01*
X68252380Y-48881904D01*
X68252380Y-48643809D01*
X68300000Y-48548571D01*
X68347619Y-48500952D01*
X68442857Y-48453333D01*
X68538095Y-48453333D01*
X68680952Y-48500952D01*
X69252380Y-49072380D01*
X69252380Y-48453333D01*
%TO.C,C12*%
X66527142Y-62667142D02*
X66479523Y-62714761D01*
X66336666Y-62762380D01*
X66241428Y-62762380D01*
X66098571Y-62714761D01*
X66003333Y-62619523D01*
X65955714Y-62524285D01*
X65908095Y-62333809D01*
X65908095Y-62190952D01*
X65955714Y-62000476D01*
X66003333Y-61905238D01*
X66098571Y-61810000D01*
X66241428Y-61762380D01*
X66336666Y-61762380D01*
X66479523Y-61810000D01*
X66527142Y-61857619D01*
X67479523Y-62762380D02*
X66908095Y-62762380D01*
X67193809Y-62762380D02*
X67193809Y-61762380D01*
X67098571Y-61905238D01*
X67003333Y-62000476D01*
X66908095Y-62048095D01*
X67860476Y-61857619D02*
X67908095Y-61810000D01*
X68003333Y-61762380D01*
X68241428Y-61762380D01*
X68336666Y-61810000D01*
X68384285Y-61857619D01*
X68431904Y-61952857D01*
X68431904Y-62048095D01*
X68384285Y-62190952D01*
X67812857Y-62762380D01*
X68431904Y-62762380D01*
X66527142Y-60442380D02*
X65955714Y-60442380D01*
X66241428Y-60442380D02*
X66241428Y-59442380D01*
X66146190Y-59585238D01*
X66050952Y-59680476D01*
X65955714Y-59728095D01*
X67146190Y-59442380D02*
X67241428Y-59442380D01*
X67336666Y-59490000D01*
X67384285Y-59537619D01*
X67431904Y-59632857D01*
X67479523Y-59823333D01*
X67479523Y-60061428D01*
X67431904Y-60251904D01*
X67384285Y-60347142D01*
X67336666Y-60394761D01*
X67241428Y-60442380D01*
X67146190Y-60442380D01*
X67050952Y-60394761D01*
X67003333Y-60347142D01*
X66955714Y-60251904D01*
X66908095Y-60061428D01*
X66908095Y-59823333D01*
X66955714Y-59632857D01*
X67003333Y-59537619D01*
X67050952Y-59490000D01*
X67146190Y-59442380D01*
X67908095Y-59775714D02*
X67908095Y-60442380D01*
X67908095Y-59870952D02*
X67955714Y-59823333D01*
X68050952Y-59775714D01*
X68193809Y-59775714D01*
X68289047Y-59823333D01*
X68336666Y-59918571D01*
X68336666Y-60442380D01*
D12*
X67009285Y-61239285D02*
X66997380Y-61251190D01*
X66961666Y-61263095D01*
X66937857Y-61263095D01*
X66902142Y-61251190D01*
X66878333Y-61227380D01*
X66866428Y-61203571D01*
X66854523Y-61155952D01*
X66854523Y-61120238D01*
X66866428Y-61072619D01*
X66878333Y-61048809D01*
X66902142Y-61025000D01*
X66937857Y-61013095D01*
X66961666Y-61013095D01*
X66997380Y-61025000D01*
X67009285Y-61036904D01*
X67247380Y-61263095D02*
X67104523Y-61263095D01*
X67175952Y-61263095D02*
X67175952Y-61013095D01*
X67152142Y-61048809D01*
X67128333Y-61072619D01*
X67104523Y-61084523D01*
X67342619Y-61036904D02*
X67354523Y-61025000D01*
X67378333Y-61013095D01*
X67437857Y-61013095D01*
X67461666Y-61025000D01*
X67473571Y-61036904D01*
X67485476Y-61060714D01*
X67485476Y-61084523D01*
X67473571Y-61120238D01*
X67330714Y-61263095D01*
X67485476Y-61263095D01*
D10*
%TO.C,D5*%
X65966905Y-62137381D02*
X65966905Y-61137381D01*
X66205001Y-61137381D01*
X66347858Y-61185001D01*
X66443096Y-61280239D01*
X66490715Y-61375477D01*
X66538334Y-61565953D01*
X66538334Y-61708810D01*
X66490715Y-61899286D01*
X66443096Y-61994524D01*
X66347858Y-62089762D01*
X66205001Y-62137381D01*
X65966905Y-62137381D01*
X67443096Y-61137381D02*
X66966905Y-61137381D01*
X66919286Y-61613572D01*
X66966905Y-61565953D01*
X67062143Y-61518334D01*
X67300239Y-61518334D01*
X67395477Y-61565953D01*
X67443096Y-61613572D01*
X67490715Y-61708810D01*
X67490715Y-61946905D01*
X67443096Y-62042143D01*
X67395477Y-62089762D01*
X67300239Y-62137381D01*
X67062143Y-62137381D01*
X66966905Y-62089762D01*
X66919286Y-62042143D01*
X63797619Y-61952380D02*
X63321428Y-61952380D01*
X63321428Y-60952380D01*
X64130952Y-61428571D02*
X64464285Y-61428571D01*
X64607142Y-61952380D02*
X64130952Y-61952380D01*
X64130952Y-60952380D01*
X64607142Y-60952380D01*
X65035714Y-61952380D02*
X65035714Y-60952380D01*
X65273809Y-60952380D01*
X65416666Y-61000000D01*
X65511904Y-61095238D01*
X65559523Y-61190476D01*
X65607142Y-61380952D01*
X65607142Y-61523809D01*
X65559523Y-61714285D01*
X65511904Y-61809523D01*
X65416666Y-61904761D01*
X65273809Y-61952380D01*
X65035714Y-61952380D01*
X65797619Y-62047619D02*
X66559523Y-62047619D01*
X67369047Y-61952380D02*
X67035714Y-61476190D01*
X66797619Y-61952380D02*
X66797619Y-60952380D01*
X67178571Y-60952380D01*
X67273809Y-61000000D01*
X67321428Y-61047619D01*
X67369047Y-61142857D01*
X67369047Y-61285714D01*
X67321428Y-61380952D01*
X67273809Y-61428571D01*
X67178571Y-61476190D01*
X66797619Y-61476190D01*
X68321428Y-61000000D02*
X68226190Y-60952380D01*
X68083333Y-60952380D01*
X67940476Y-61000000D01*
X67845238Y-61095238D01*
X67797619Y-61190476D01*
X67750000Y-61380952D01*
X67750000Y-61523809D01*
X67797619Y-61714285D01*
X67845238Y-61809523D01*
X67940476Y-61904761D01*
X68083333Y-61952380D01*
X68178571Y-61952380D01*
X68321428Y-61904761D01*
X68369047Y-61857142D01*
X68369047Y-61523809D01*
X68178571Y-61523809D01*
X69130952Y-61428571D02*
X69273809Y-61476190D01*
X69321428Y-61523809D01*
X69369047Y-61619047D01*
X69369047Y-61761904D01*
X69321428Y-61857142D01*
X69273809Y-61904761D01*
X69178571Y-61952380D01*
X68797619Y-61952380D01*
X68797619Y-60952380D01*
X69130952Y-60952380D01*
X69226190Y-61000000D01*
X69273809Y-61047619D01*
X69321428Y-61142857D01*
X69321428Y-61238095D01*
X69273809Y-61333333D01*
X69226190Y-61380952D01*
X69130952Y-61428571D01*
X68797619Y-61428571D01*
X69750000Y-61666666D02*
X70226190Y-61666666D01*
X69654761Y-61952380D02*
X69988095Y-60952380D01*
X70321428Y-61952380D01*
D16*
%TO.C,C1*%
X55375000Y-52200000D02*
X56175000Y-52200000D01*
X56175000Y-53800000D02*
X55375000Y-53800000D01*
X56175000Y-52200000D02*
X56175000Y-53800000D01*
X55375000Y-53800000D02*
X55375000Y-52200000D01*
%TO.C,C2*%
X54250000Y-52500000D02*
X54750000Y-52500000D01*
X54250000Y-53500000D02*
X54250000Y-52500000D01*
X54750000Y-52500000D02*
X54750000Y-53500000D01*
X54750000Y-53500000D02*
X54250000Y-53500000D01*
%TO.C,C5*%
X43950000Y-53650000D02*
X44750000Y-53650000D01*
X43950000Y-55250000D02*
X43950000Y-53650000D01*
X44750000Y-55250000D02*
X43950000Y-55250000D01*
X44750000Y-53650000D02*
X44750000Y-55250000D01*
%TO.C,J3*%
X32250000Y-39760000D02*
X32250000Y-40160000D01*
X36705000Y-39760000D02*
X37750000Y-39760000D01*
X33295000Y-44840000D02*
X32250000Y-44840000D01*
X36705000Y-42300000D02*
X37750000Y-42300000D01*
X37750000Y-41430000D02*
X36705000Y-41430000D01*
X33295000Y-39760000D02*
X32250000Y-39760000D01*
X32250000Y-41030000D02*
X32250000Y-41430000D01*
X37750000Y-44840000D02*
X37750000Y-45240000D01*
X37750000Y-39760000D02*
X37750000Y-40160000D01*
X32250000Y-41430000D02*
X33295000Y-41430000D01*
X37750000Y-45240000D02*
X36705000Y-45240000D01*
X33295000Y-41030000D02*
X32250000Y-41030000D01*
X36705000Y-41030000D02*
X37750000Y-41030000D01*
X37750000Y-42300000D02*
X37750000Y-42700000D01*
X32250000Y-42700000D02*
X33295000Y-42700000D01*
X37750000Y-43970000D02*
X36705000Y-43970000D01*
X36705000Y-43570000D02*
X37750000Y-43570000D01*
X37750000Y-41030000D02*
X37750000Y-41430000D01*
X33295000Y-42300000D02*
X32250000Y-42300000D01*
X32250000Y-45240000D02*
X33295000Y-45240000D01*
X33295000Y-43570000D02*
X32250000Y-43570000D01*
X37750000Y-42700000D02*
X36705000Y-42700000D01*
X32250000Y-40160000D02*
X33295000Y-40160000D01*
X36705000Y-44840000D02*
X37750000Y-44840000D01*
X33730000Y-39325000D02*
X36705000Y-39325000D01*
X33295000Y-39760000D02*
X33730000Y-39325000D01*
X36705000Y-39325000D02*
X36705000Y-45675000D01*
X33295000Y-45675000D02*
X33295000Y-39760000D01*
X32250000Y-42300000D02*
X32250000Y-42700000D01*
X32250000Y-43570000D02*
X32250000Y-43970000D01*
X32250000Y-43970000D02*
X33295000Y-43970000D01*
X32250000Y-44840000D02*
X32250000Y-45240000D01*
X37750000Y-43570000D02*
X37750000Y-43970000D01*
X36705000Y-45675000D02*
X33295000Y-45675000D01*
X37750000Y-40160000D02*
X36705000Y-40160000D01*
%TO.C,R3*%
X68870000Y-43715000D02*
X68870000Y-44765000D01*
X68330000Y-43715000D02*
X68870000Y-43715000D01*
X68330000Y-44765000D02*
X68330000Y-43715000D01*
X68870000Y-44765000D02*
X68330000Y-44765000D01*
%TO.C,R6*%
X67230000Y-44765000D02*
X67230000Y-43715000D01*
X67770000Y-43715000D02*
X67770000Y-44765000D01*
X67230000Y-43715000D02*
X67770000Y-43715000D01*
X67770000Y-44765000D02*
X67230000Y-44765000D01*
%TO.C,R8*%
X54975000Y-59130000D02*
X56025000Y-59130000D01*
X54975000Y-59670000D02*
X54975000Y-59130000D01*
X56025000Y-59670000D02*
X54975000Y-59670000D01*
X56025000Y-59130000D02*
X56025000Y-59670000D01*
%TO.C,R12*%
X34980000Y-54715000D02*
X35520000Y-54715000D01*
X35520000Y-55765000D02*
X34980000Y-55765000D01*
X34980000Y-55765000D02*
X34980000Y-54715000D01*
X35520000Y-54715000D02*
X35520000Y-55765000D01*
%TO.C,SW1*%
X28950000Y-54650000D02*
X29150000Y-54850000D01*
X30500000Y-58350000D02*
X33100000Y-58350000D01*
X29200000Y-54900000D02*
X30500000Y-54900000D01*
X33100000Y-51650000D02*
X30500000Y-51650000D01*
X28950000Y-53800000D02*
X28950000Y-54650000D01*
X30500000Y-51650000D02*
X30500000Y-58350000D01*
X29150000Y-53600000D02*
X28950000Y-53800000D01*
X33100000Y-58350000D02*
X33100000Y-51650000D01*
X29150000Y-54850000D02*
X29200000Y-54900000D01*
X30450000Y-53600000D02*
X29150000Y-53600000D01*
%TO.C,C6*%
X45350000Y-54380000D02*
X45350000Y-53380000D01*
X45850000Y-53380000D02*
X45850000Y-54380000D01*
X45350000Y-53380000D02*
X45850000Y-53380000D01*
X45850000Y-54380000D02*
X45350000Y-54380000D01*
%TO.C,R2*%
X45325000Y-51105000D02*
X45325000Y-51645000D01*
X44275000Y-51105000D02*
X45325000Y-51105000D01*
X45325000Y-51645000D02*
X44275000Y-51645000D01*
X44275000Y-51645000D02*
X44275000Y-51105000D01*
%TO.C,C3*%
X40580000Y-47800000D02*
X41580000Y-47800000D01*
X41580000Y-47800000D02*
X41580000Y-48300000D01*
X41580000Y-48300000D02*
X40580000Y-48300000D01*
X40580000Y-48300000D02*
X40580000Y-47800000D01*
%TO.C,Y1*%
X42700000Y-49100000D02*
X40200000Y-49100000D01*
X42700000Y-52300000D02*
X42700000Y-49100000D01*
X40200000Y-49100000D02*
X40200000Y-52300000D01*
X41200000Y-49100000D02*
X40200000Y-50100000D01*
X40200000Y-52300000D02*
X42700000Y-52300000D01*
%TO.C,C4*%
X42320000Y-53600000D02*
X41320000Y-53600000D01*
X41320000Y-53100000D02*
X42320000Y-53100000D01*
X42320000Y-53100000D02*
X42320000Y-53600000D01*
X41320000Y-53600000D02*
X41320000Y-53100000D01*
%TO.C,U2*%
X61150000Y-37000000D02*
X61150000Y-39700000D01*
X60150000Y-36000000D02*
X54450000Y-36000000D01*
X60150000Y-36000000D02*
X61150000Y-37000000D01*
X54450000Y-36000000D02*
X54450000Y-39700000D01*
X61150000Y-39700000D02*
X54450000Y-39700000D01*
%TO.C,C8*%
X57675000Y-32700000D02*
X57675000Y-31100000D01*
X57675000Y-31100000D02*
X60875000Y-31100000D01*
X60875000Y-31100000D02*
X60875000Y-32700000D01*
X60875000Y-32700000D02*
X57675000Y-32700000D01*
%TO.C,C7*%
X52425000Y-32700000D02*
X52425000Y-31100000D01*
X55625000Y-32700000D02*
X52425000Y-32700000D01*
X55625000Y-31100000D02*
X55625000Y-32700000D01*
X52425000Y-31100000D02*
X55625000Y-31100000D01*
%TO.C,U1*%
X47800000Y-50750000D02*
X48800000Y-49750000D01*
X52200000Y-56250000D02*
X47800000Y-56250000D01*
X48800000Y-49750000D02*
X52200000Y-49750000D01*
X47800000Y-56250000D02*
X47800000Y-50750000D01*
X52200000Y-49750000D02*
X52200000Y-56250000D01*
%TO.C,FB1*%
X52537500Y-34600000D02*
X50937500Y-34600000D01*
X50937500Y-33800000D02*
X52537500Y-33800000D01*
X52537500Y-33800000D02*
X52537500Y-34600000D01*
X50937500Y-34600000D02*
X50937500Y-33800000D01*
%TO.C,R11*%
X47145000Y-57230000D02*
X47145000Y-57770000D01*
X46095000Y-57770000D02*
X46095000Y-57230000D01*
X47145000Y-57770000D02*
X46095000Y-57770000D01*
X46095000Y-57230000D02*
X47145000Y-57230000D01*
%TO.C,D4*%
X38650000Y-68050000D02*
X39150000Y-68050000D01*
X38350000Y-67750000D02*
X38650000Y-68050000D01*
X39150000Y-68050000D02*
X39150000Y-66450000D01*
X38350000Y-66450000D02*
X38350000Y-67750000D01*
X39150000Y-66450000D02*
X38350000Y-66450000D01*
%TO.C,R10*%
X56025000Y-56730000D02*
X56025000Y-57270000D01*
X56025000Y-57270000D02*
X54975000Y-57270000D01*
X54975000Y-56730000D02*
X56025000Y-56730000D01*
X54975000Y-57270000D02*
X54975000Y-56730000D01*
%TO.C,R9*%
X56025000Y-58470000D02*
X54975000Y-58470000D01*
X54975000Y-58470000D02*
X54975000Y-57930000D01*
X54975000Y-57930000D02*
X56025000Y-57930000D01*
X56025000Y-57930000D02*
X56025000Y-58470000D01*
%TO.C,J4*%
X47500000Y-64300000D02*
X48000000Y-65007107D01*
X49875000Y-64300000D02*
X52400000Y-64300000D01*
X47350000Y-64300000D02*
X47350000Y-64000000D01*
X48000000Y-65007107D02*
X48500000Y-64300000D01*
X52400000Y-64000000D02*
X53250000Y-64000000D01*
X52400000Y-64300000D02*
X52400000Y-64000000D01*
X49875000Y-64300000D02*
X47350000Y-64300000D01*
X46500000Y-69500000D02*
X49875000Y-69500000D01*
X53250000Y-69500000D02*
X49875000Y-69500000D01*
X53250000Y-64000000D02*
X53250000Y-69500000D01*
X46500000Y-64000000D02*
X46500000Y-69500000D01*
X47350000Y-64000000D02*
X46500000Y-64000000D01*
%TO.C,Q1*%
X52850000Y-36500000D02*
X50400000Y-36500000D01*
X53420000Y-37900000D02*
X50380000Y-37900000D01*
X53420000Y-37050000D02*
X53420000Y-37900000D01*
X52850000Y-36500000D02*
X53420000Y-37050000D01*
X50380000Y-36500000D02*
X50380000Y-37900000D01*
%TO.C,F1*%
X48900000Y-39500000D02*
X52100000Y-39500000D01*
X52100000Y-39500000D02*
X52100000Y-41100000D01*
X48900000Y-41100000D02*
X48900000Y-39500000D01*
X52100000Y-41100000D02*
X48900000Y-41100000D01*
%TO.C,J1*%
X49250000Y-38100000D02*
X42250000Y-38100000D01*
X49250000Y-30900000D02*
X42250000Y-30900000D01*
X46362000Y-35955000D02*
X48455000Y-33862000D01*
X49250000Y-30900000D02*
X49250000Y-38100000D01*
X46545000Y-36138000D02*
X48638000Y-34045000D01*
X48850000Y-30500000D02*
X49250000Y-30900000D01*
X42862000Y-35955000D02*
X44954000Y-33862000D01*
X49250000Y-32000000D02*
X42250000Y-32000000D01*
X42250000Y-30500000D02*
X48850000Y-30500000D01*
X42250000Y-38100000D02*
X42250000Y-30500000D01*
X43045000Y-36138000D02*
X45137000Y-34045000D01*
X45500000Y-35000000D02*
G75*
G03*
X45500000Y-35000000I-1500000J0D01*
G01*
X49000000Y-35000000D02*
G75*
G03*
X49000000Y-35000000I-1500000J0D01*
G01*
%TO.C,D3*%
X38450000Y-33787500D02*
X38750000Y-34087500D01*
X39250000Y-32487500D02*
X38450000Y-32487500D01*
X39250000Y-34087500D02*
X39250000Y-32487500D01*
X38450000Y-32487500D02*
X38450000Y-33787500D01*
X38750000Y-34087500D02*
X39250000Y-34087500D01*
%TO.C,R7*%
X40570000Y-32485000D02*
X40570000Y-33535000D01*
X40030000Y-32485000D02*
X40570000Y-32485000D01*
X40030000Y-33535000D02*
X40030000Y-32485000D01*
X40570000Y-33535000D02*
X40030000Y-33535000D01*
%TO.C,J2*%
X64300000Y-49125000D02*
X64300000Y-46600000D01*
X69500000Y-45750000D02*
X69500000Y-49125000D01*
X64000000Y-45750000D02*
X69500000Y-45750000D01*
X69500000Y-52500000D02*
X69500000Y-49125000D01*
X64000000Y-46600000D02*
X64000000Y-45750000D01*
X64300000Y-51650000D02*
X64000000Y-51650000D01*
X64300000Y-49125000D02*
X64300000Y-51650000D01*
X64000000Y-52500000D02*
X69500000Y-52500000D01*
X64300000Y-46600000D02*
X64000000Y-46600000D01*
X64000000Y-51650000D02*
X64000000Y-52500000D01*
X65007107Y-51000000D02*
X64300000Y-50500000D01*
X64300000Y-51500000D02*
X65007107Y-51000000D01*
%TO.C,C12*%
X66670000Y-61400000D02*
X66670000Y-60900000D01*
X66670000Y-60900000D02*
X67670000Y-60900000D01*
X67670000Y-61400000D02*
X66670000Y-61400000D01*
X67670000Y-60900000D02*
X67670000Y-61400000D01*
%TD*%
M02*
