%TF.GenerationSoftware,KiCad,Pcbnew,(6.0.0-rc1-124-g18b4ebcc17)*%
%TF.CreationDate,2021-11-25T20:10:52+05:30*%
%TF.ProjectId,Europa,4575726f-7061-42e6-9b69-6361645f7063,rev?*%
%TF.SameCoordinates,Original*%
%TF.FileFunction,Soldermask,Bot*%
%TF.FilePolarity,Negative*%
%FSLAX46Y46*%
G04 Gerber Fmt 4.6, Leading zero omitted, Abs format (unit mm)*
G04 Created by KiCad (PCBNEW (6.0.0-rc1-124-g18b4ebcc17)) date 2021-11-25 20:10:52*
%MOMM*%
%LPD*%
G01*
G04 APERTURE LIST*
G04 Aperture macros list*
%AMRoundRect*
0 Rectangle with rounded corners*
0 $1 Rounding radius*
0 $2 $3 $4 $5 $6 $7 $8 $9 X,Y pos of 4 corners*
0 Add a 4 corners polygon primitive as box body*
4,1,4,$2,$3,$4,$5,$6,$7,$8,$9,$2,$3,0*
0 Add four circle primitives for the rounded corners*
1,1,$1+$1,$2,$3*
1,1,$1+$1,$4,$5*
1,1,$1+$1,$6,$7*
1,1,$1+$1,$8,$9*
0 Add four rect primitives between the rounded corners*
20,1,$1+$1,$2,$3,$4,$5,0*
20,1,$1+$1,$4,$5,$6,$7,0*
20,1,$1+$1,$6,$7,$8,$9,0*
20,1,$1+$1,$8,$9,$2,$3,0*%
G04 Aperture macros list end*
%ADD10C,0.800000*%
%ADD11C,6.000000*%
%ADD12C,0.900000*%
%ADD13RoundRect,0.200000X-0.200000X-0.450000X0.200000X-0.450000X0.200000X0.450000X-0.200000X0.450000X0*%
%ADD14O,0.800000X1.300000*%
%ADD15R,2.400000X2.400000*%
%ADD16C,2.400000*%
%ADD17RoundRect,0.200000X0.450000X-0.200000X0.450000X0.200000X-0.450000X0.200000X-0.450000X-0.200000X0*%
%ADD18O,1.300000X0.800000*%
G04 APERTURE END LIST*
D10*
%TO.C,H1*%
X36250000Y-34000000D03*
X31750000Y-34000000D03*
X35590990Y-32409010D03*
X35590990Y-35590990D03*
X32409010Y-32409010D03*
X32409010Y-35590990D03*
X34000000Y-36250000D03*
D11*
X34000000Y-34000000D03*
D10*
X34000000Y-31750000D03*
%TD*%
%TO.C,H2*%
X35590990Y-67590990D03*
X31750000Y-66000000D03*
X32409010Y-64409010D03*
D11*
X34000000Y-66000000D03*
D10*
X32409010Y-67590990D03*
X34000000Y-63750000D03*
X36250000Y-66000000D03*
X35590990Y-64409010D03*
X34000000Y-68250000D03*
%TD*%
%TO.C,H3*%
X66000000Y-63750000D03*
X67590990Y-64409010D03*
X68250000Y-66000000D03*
X63750000Y-66000000D03*
X67590990Y-67590990D03*
X64409010Y-67590990D03*
X66000000Y-68250000D03*
X64409010Y-64409010D03*
D11*
X66000000Y-66000000D03*
%TD*%
D12*
%TO.C,SW1*%
X31770000Y-56500000D03*
X31770000Y-53500000D03*
%TD*%
D10*
%TO.C,H4*%
X67590990Y-32409010D03*
X67590990Y-35590990D03*
X66000000Y-31750000D03*
X64409010Y-35590990D03*
X66000000Y-36250000D03*
X64409010Y-32409010D03*
X63750000Y-34000000D03*
D11*
X66000000Y-34000000D03*
D10*
X68250000Y-34000000D03*
%TD*%
D13*
%TO.C,J4*%
X48000000Y-65050000D03*
D14*
X49250000Y-65050000D03*
X50500000Y-65050000D03*
X51750000Y-65050000D03*
%TD*%
D15*
%TO.C,J1*%
X47500000Y-35000000D03*
D16*
X44000000Y-35000000D03*
%TD*%
D17*
%TO.C,J2*%
X65050000Y-51000000D03*
D18*
X65050000Y-49750000D03*
X65050000Y-48500000D03*
X65050000Y-47250000D03*
%TD*%
M02*
