%TF.GenerationSoftware,KiCad,Pcbnew,(6.0.0-rc1-124-g18b4ebcc17)*%
%TF.CreationDate,2021-11-25T20:10:52+05:30*%
%TF.ProjectId,Europa,4575726f-7061-42e6-9b69-6361645f7063,rev?*%
%TF.SameCoordinates,Original*%
%TF.FileFunction,Copper,L1,Top*%
%TF.FilePolarity,Positive*%
%FSLAX46Y46*%
G04 Gerber Fmt 4.6, Leading zero omitted, Abs format (unit mm)*
G04 Created by KiCad (PCBNEW (6.0.0-rc1-124-g18b4ebcc17)) date 2021-11-25 20:10:52*
%MOMM*%
%LPD*%
G01*
G04 APERTURE LIST*
G04 Aperture macros list*
%AMRoundRect*
0 Rectangle with rounded corners*
0 $1 Rounding radius*
0 $2 $3 $4 $5 $6 $7 $8 $9 X,Y pos of 4 corners*
0 Add a 4 corners polygon primitive as box body*
4,1,4,$2,$3,$4,$5,$6,$7,$8,$9,$2,$3,0*
0 Add four circle primitives for the rounded corners*
1,1,$1+$1,$2,$3*
1,1,$1+$1,$4,$5*
1,1,$1+$1,$6,$7*
1,1,$1+$1,$8,$9*
0 Add four rect primitives between the rounded corners*
20,1,$1+$1,$2,$3,$4,$5,0*
20,1,$1+$1,$4,$5,$6,$7,0*
20,1,$1+$1,$6,$7,$8,$9,0*
20,1,$1+$1,$8,$9,$2,$3,0*%
G04 Aperture macros list end*
%TA.AperFunction,SMDPad,CuDef*%
%ADD10RoundRect,0.225000X-0.250000X0.225000X-0.250000X-0.225000X0.250000X-0.225000X0.250000X0.225000X0*%
%TD*%
%TA.AperFunction,SMDPad,CuDef*%
%ADD11RoundRect,0.140000X-0.170000X0.140000X-0.170000X-0.140000X0.170000X-0.140000X0.170000X0.140000X0*%
%TD*%
%TA.AperFunction,ComponentPad*%
%ADD12C,0.800000*%
%TD*%
%TA.AperFunction,ComponentPad*%
%ADD13C,6.000000*%
%TD*%
%TA.AperFunction,SMDPad,CuDef*%
%ADD14R,2.400000X0.740000*%
%TD*%
%TA.AperFunction,SMDPad,CuDef*%
%ADD15RoundRect,0.135000X-0.185000X0.135000X-0.185000X-0.135000X0.185000X-0.135000X0.185000X0.135000X0*%
%TD*%
%TA.AperFunction,SMDPad,CuDef*%
%ADD16RoundRect,0.135000X0.135000X0.185000X-0.135000X0.185000X-0.135000X-0.185000X0.135000X-0.185000X0*%
%TD*%
%TA.AperFunction,SMDPad,CuDef*%
%ADD17RoundRect,0.135000X0.185000X-0.135000X0.185000X0.135000X-0.185000X0.135000X-0.185000X-0.135000X0*%
%TD*%
%TA.AperFunction,SMDPad,CuDef*%
%ADD18R,0.800000X1.000000*%
%TD*%
%TA.AperFunction,SMDPad,CuDef*%
%ADD19R,1.500000X0.700000*%
%TD*%
%TA.AperFunction,SMDPad,CuDef*%
%ADD20RoundRect,0.140000X0.140000X0.170000X-0.140000X0.170000X-0.140000X-0.170000X0.140000X-0.170000X0*%
%TD*%
%TA.AperFunction,SMDPad,CuDef*%
%ADD21R,1.200000X1.400000*%
%TD*%
%TA.AperFunction,SMDPad,CuDef*%
%ADD22R,1.500000X2.000000*%
%TD*%
%TA.AperFunction,SMDPad,CuDef*%
%ADD23R,3.800000X2.000000*%
%TD*%
%TA.AperFunction,SMDPad,CuDef*%
%ADD24RoundRect,0.249999X-0.325001X-0.650001X0.325001X-0.650001X0.325001X0.650001X-0.325001X0.650001X0*%
%TD*%
%TA.AperFunction,SMDPad,CuDef*%
%ADD25RoundRect,0.100000X-0.637500X-0.100000X0.637500X-0.100000X0.637500X0.100000X-0.637500X0.100000X0*%
%TD*%
%TA.AperFunction,SMDPad,CuDef*%
%ADD26RoundRect,0.218750X0.218750X0.256250X-0.218750X0.256250X-0.218750X-0.256250X0.218750X-0.256250X0*%
%TD*%
%TA.AperFunction,SMDPad,CuDef*%
%ADD27RoundRect,0.135000X-0.135000X-0.185000X0.135000X-0.185000X0.135000X0.185000X-0.135000X0.185000X0*%
%TD*%
%TA.AperFunction,SMDPad,CuDef*%
%ADD28RoundRect,0.218750X0.256250X-0.218750X0.256250X0.218750X-0.256250X0.218750X-0.256250X-0.218750X0*%
%TD*%
%TA.AperFunction,ComponentPad*%
%ADD29RoundRect,0.200000X-0.200000X-0.450000X0.200000X-0.450000X0.200000X0.450000X-0.200000X0.450000X0*%
%TD*%
%TA.AperFunction,ComponentPad*%
%ADD30O,0.800000X1.300000*%
%TD*%
%TA.AperFunction,SMDPad,CuDef*%
%ADD31R,0.800000X0.900000*%
%TD*%
%TA.AperFunction,SMDPad,CuDef*%
%ADD32RoundRect,0.250000X0.375000X0.625000X-0.375000X0.625000X-0.375000X-0.625000X0.375000X-0.625000X0*%
%TD*%
%TA.AperFunction,ComponentPad*%
%ADD33R,2.400000X2.400000*%
%TD*%
%TA.AperFunction,ComponentPad*%
%ADD34C,2.400000*%
%TD*%
%TA.AperFunction,ComponentPad*%
%ADD35RoundRect,0.200000X0.450000X-0.200000X0.450000X0.200000X-0.450000X0.200000X-0.450000X-0.200000X0*%
%TD*%
%TA.AperFunction,ComponentPad*%
%ADD36O,1.300000X0.800000*%
%TD*%
%TA.AperFunction,SMDPad,CuDef*%
%ADD37R,1.000000X0.500000*%
%TD*%
%TA.AperFunction,ViaPad*%
%ADD38C,0.800000*%
%TD*%
%TA.AperFunction,Conductor*%
%ADD39C,0.500000*%
%TD*%
%TA.AperFunction,Conductor*%
%ADD40C,0.250000*%
%TD*%
%TA.AperFunction,Conductor*%
%ADD41C,1.500000*%
%TD*%
%TA.AperFunction,Conductor*%
%ADD42C,1.000000*%
%TD*%
%TA.AperFunction,Conductor*%
%ADD43C,0.750000*%
%TD*%
%TA.AperFunction,Conductor*%
%ADD44C,2.000000*%
%TD*%
G04 APERTURE END LIST*
D10*
%TO.P,C1,1*%
%TO.N,+3V3*%
X55775000Y-52225000D03*
%TO.P,C1,2*%
%TO.N,GND*%
X55775000Y-53775000D03*
%TD*%
D11*
%TO.P,C2,1*%
%TO.N,+3V3*%
X54500000Y-52520000D03*
%TO.P,C2,2*%
%TO.N,GND*%
X54500000Y-53480000D03*
%TD*%
D10*
%TO.P,C5,1*%
%TO.N,+3V3*%
X44350000Y-53675000D03*
%TO.P,C5,2*%
%TO.N,GND*%
X44350000Y-55225000D03*
%TD*%
D12*
%TO.P,H1,1*%
%TO.N,GND*%
X36250000Y-34000000D03*
X31750000Y-34000000D03*
X35590990Y-32409010D03*
X35590990Y-35590990D03*
X32409010Y-32409010D03*
X32409010Y-35590990D03*
X34000000Y-36250000D03*
D13*
X34000000Y-34000000D03*
D12*
X34000000Y-31750000D03*
%TD*%
%TO.P,H2,1*%
%TO.N,GND*%
X35590990Y-67590990D03*
X31750000Y-66000000D03*
X32409010Y-64409010D03*
D13*
X34000000Y-66000000D03*
D12*
X32409010Y-67590990D03*
X34000000Y-63750000D03*
X36250000Y-66000000D03*
X35590990Y-64409010D03*
X34000000Y-68250000D03*
%TD*%
%TO.P,H3,1*%
%TO.N,GND*%
X66000000Y-63750000D03*
X67590990Y-64409010D03*
X68250000Y-66000000D03*
X63750000Y-66000000D03*
X67590990Y-67590990D03*
X64409010Y-67590990D03*
X66000000Y-68250000D03*
X64409010Y-64409010D03*
D13*
X66000000Y-66000000D03*
%TD*%
D14*
%TO.P,J3,1*%
%TO.N,+3V3*%
X33050000Y-39960000D03*
%TO.P,J3,2*%
%TO.N,SYS_SWDIO*%
X36950000Y-39960000D03*
%TO.P,J3,3*%
%TO.N,GND*%
X33050000Y-41230000D03*
%TO.P,J3,4*%
%TO.N,SYS_SWCLK*%
X36950000Y-41230000D03*
%TO.P,J3,5*%
%TO.N,GND*%
X33050000Y-42500000D03*
%TO.P,J3,6*%
%TO.N,Net-(J3-Pad6)*%
X36950000Y-42500000D03*
%TO.P,J3,7*%
%TO.N,Net-(J3-Pad7)*%
X33050000Y-43770000D03*
%TO.P,J3,8*%
%TO.N,Net-(J3-Pad8)*%
X36950000Y-43770000D03*
%TO.P,J3,9*%
%TO.N,GND*%
X33050000Y-45040000D03*
%TO.P,J3,10*%
%TO.N,NRST*%
X36950000Y-45040000D03*
%TD*%
D15*
%TO.P,R3,1*%
%TO.N,+3V3*%
X68600000Y-43730000D03*
%TO.P,R3,2*%
%TO.N,I2C1_SCL*%
X68600000Y-44750000D03*
%TD*%
%TO.P,R6,1*%
%TO.N,+3V3*%
X67500000Y-43730000D03*
%TO.P,R6,2*%
%TO.N,I2C1_SDA*%
X67500000Y-44750000D03*
%TD*%
D16*
%TO.P,R8,1*%
%TO.N,Net-(D5-Pad1)*%
X56010000Y-59400000D03*
%TO.P,R8,2*%
%TO.N,TIM3_CH4*%
X54990000Y-59400000D03*
%TD*%
D17*
%TO.P,R12,1*%
%TO.N,Net-(R12-Pad1)*%
X35250000Y-55750000D03*
%TO.P,R12,2*%
%TO.N,BOOT*%
X35250000Y-54730000D03*
%TD*%
D18*
%TO.P,SW1,*%
%TO.N,*%
X30670000Y-58650000D03*
X32880000Y-51350000D03*
X32880000Y-58650000D03*
X30670000Y-51350000D03*
D19*
%TO.P,SW1,1*%
%TO.N,+3V3*%
X33530000Y-52750000D03*
%TO.P,SW1,2*%
%TO.N,Net-(R12-Pad1)*%
X33530000Y-55750000D03*
%TO.P,SW1,3*%
%TO.N,GND*%
X33530000Y-57250000D03*
%TD*%
D11*
%TO.P,C6,1*%
%TO.N,+3V3*%
X45600000Y-53400000D03*
%TO.P,C6,2*%
%TO.N,GND*%
X45600000Y-54360000D03*
%TD*%
D16*
%TO.P,R2,1*%
%TO.N,RCC_OSC_OUT*%
X45310000Y-51375000D03*
%TO.P,R2,2*%
%TO.N,Net-(C4-Pad1)*%
X44290000Y-51375000D03*
%TD*%
D20*
%TO.P,C3,1*%
%TO.N,GND*%
X41560000Y-48050000D03*
%TO.P,C3,2*%
%TO.N,RCC_OSC_IN*%
X40600000Y-48050000D03*
%TD*%
D21*
%TO.P,Y1,1*%
%TO.N,RCC_OSC_IN*%
X40600000Y-49600000D03*
%TO.P,Y1,2*%
%TO.N,GND*%
X40600000Y-51800000D03*
%TO.P,Y1,3*%
%TO.N,Net-(C4-Pad1)*%
X42300000Y-51800000D03*
%TO.P,Y1,4*%
%TO.N,GND*%
X42300000Y-49600000D03*
%TD*%
D20*
%TO.P,C4,1*%
%TO.N,Net-(C4-Pad1)*%
X42300000Y-53350000D03*
%TO.P,C4,2*%
%TO.N,GND*%
X41340000Y-53350000D03*
%TD*%
D12*
%TO.P,H4,1*%
%TO.N,GND*%
X67590990Y-32409010D03*
X67590990Y-35590990D03*
X66000000Y-31750000D03*
X64409010Y-35590990D03*
X66000000Y-36250000D03*
X64409010Y-32409010D03*
X63750000Y-34000000D03*
D13*
X66000000Y-34000000D03*
D12*
X68250000Y-34000000D03*
%TD*%
D22*
%TO.P,U2,1*%
%TO.N,GND*%
X60100000Y-34700000D03*
D23*
%TO.P,U2,2*%
%TO.N,+3V3*%
X57800000Y-41000000D03*
D22*
X57800000Y-34700000D03*
%TO.P,U2,3*%
%TO.N,VCC*%
X55500000Y-34700000D03*
%TD*%
D24*
%TO.P,C8,1*%
%TO.N,+3V3*%
X57800000Y-31900000D03*
%TO.P,C8,2*%
%TO.N,GND*%
X60750000Y-31900000D03*
%TD*%
%TO.P,C7,1*%
%TO.N,GND*%
X52550000Y-31900000D03*
%TO.P,C7,2*%
%TO.N,VCC*%
X55500000Y-31900000D03*
%TD*%
D25*
%TO.P,U1,1*%
%TO.N,BOOT*%
X47137500Y-50075000D03*
%TO.P,U1,2*%
%TO.N,RCC_OSC_IN*%
X47137500Y-50725000D03*
%TO.P,U1,3*%
%TO.N,RCC_OSC_OUT*%
X47137500Y-51375000D03*
%TO.P,U1,4*%
%TO.N,NRST*%
X47137500Y-52025000D03*
%TO.P,U1,5*%
%TO.N,+3V3*%
X47137500Y-52675000D03*
%TO.P,U1,6*%
%TO.N,Net-(U1-Pad6)*%
X47137500Y-53325000D03*
%TO.P,U1,7*%
%TO.N,Net-(U1-Pad7)*%
X47137500Y-53975000D03*
%TO.P,U1,8*%
%TO.N,USART1_TX*%
X47137500Y-54625000D03*
%TO.P,U1,9*%
%TO.N,USART1_RX*%
X47137500Y-55275000D03*
%TO.P,U1,10*%
%TO.N,TIM14_CH1*%
X47137500Y-55925000D03*
%TO.P,U1,11*%
%TO.N,Net-(U1-Pad11)*%
X52862500Y-55925000D03*
%TO.P,U1,12*%
%TO.N,TIM3_CH1*%
X52862500Y-55275000D03*
%TO.P,U1,13*%
%TO.N,TIM3_CH2*%
X52862500Y-54625000D03*
%TO.P,U1,14*%
%TO.N,TIM3_CH4*%
X52862500Y-53975000D03*
%TO.P,U1,15*%
%TO.N,GND*%
X52862500Y-53325000D03*
%TO.P,U1,16*%
%TO.N,+3V3*%
X52862500Y-52675000D03*
%TO.P,U1,17*%
%TO.N,I2C1_SCL*%
X52862500Y-52025000D03*
%TO.P,U1,18*%
%TO.N,I2C1_SDA*%
X52862500Y-51375000D03*
%TO.P,U1,19*%
%TO.N,SYS_SWDIO*%
X52862500Y-50725000D03*
%TO.P,U1,20*%
%TO.N,SYS_SWCLK*%
X52862500Y-50075000D03*
%TD*%
D26*
%TO.P,FB1,1*%
%TO.N,VCC*%
X52525000Y-34200000D03*
%TO.P,FB1,2*%
%TO.N,Net-(FB1-Pad2)*%
X50950000Y-34200000D03*
%TD*%
D27*
%TO.P,R11,1*%
%TO.N,Net-(D4-Pad2)*%
X46110000Y-57500000D03*
%TO.P,R11,2*%
%TO.N,TIM14_CH1*%
X47130000Y-57500000D03*
%TD*%
D28*
%TO.P,D4,1*%
%TO.N,GND*%
X38750000Y-68037500D03*
%TO.P,D4,2*%
%TO.N,Net-(D4-Pad2)*%
X38750000Y-66462500D03*
%TD*%
D16*
%TO.P,R10,1*%
%TO.N,Net-(D5-Pad3)*%
X56010000Y-57000000D03*
%TO.P,R10,2*%
%TO.N,TIM3_CH2*%
X54990000Y-57000000D03*
%TD*%
%TO.P,R9,1*%
%TO.N,Net-(D5-Pad2)*%
X56010000Y-58200000D03*
%TO.P,R9,2*%
%TO.N,TIM3_CH1*%
X54990000Y-58200000D03*
%TD*%
D29*
%TO.P,J4,1*%
%TO.N,+3V3*%
X48000000Y-65050000D03*
D30*
%TO.P,J4,2*%
%TO.N,USART1_RX*%
X49250000Y-65050000D03*
%TO.P,J4,3*%
%TO.N,USART1_TX*%
X50500000Y-65050000D03*
%TO.P,J4,4*%
%TO.N,GND*%
X51750000Y-65050000D03*
%TD*%
D31*
%TO.P,Q1,1*%
%TO.N,GND*%
X52850000Y-36200000D03*
%TO.P,Q1,2*%
%TO.N,Net-(FB1-Pad2)*%
X50950000Y-36200000D03*
%TO.P,Q1,3*%
%TO.N,Net-(F1-Pad1)*%
X51900000Y-38200000D03*
%TD*%
D32*
%TO.P,F1,1*%
%TO.N,Net-(F1-Pad1)*%
X51900000Y-40300000D03*
%TO.P,F1,2*%
%TO.N,Net-(F1-Pad2)*%
X49100000Y-40300000D03*
%TD*%
D33*
%TO.P,J1,1*%
%TO.N,Net-(F1-Pad2)*%
X47500000Y-35000000D03*
D34*
%TO.P,J1,2*%
%TO.N,GND*%
X44000000Y-35000000D03*
%TD*%
D28*
%TO.P,D3,1*%
%TO.N,GND*%
X38850000Y-34075000D03*
%TO.P,D3,2*%
%TO.N,Net-(D3-Pad2)*%
X38850000Y-32500000D03*
%TD*%
D15*
%TO.P,R7,1*%
%TO.N,Net-(D3-Pad2)*%
X40300000Y-32500000D03*
%TO.P,R7,2*%
%TO.N,+3V3*%
X40300000Y-33520000D03*
%TD*%
D35*
%TO.P,J2,1*%
%TO.N,+3V3*%
X65050000Y-51000000D03*
D36*
%TO.P,J2,2*%
%TO.N,I2C1_SCL*%
X65050000Y-49750000D03*
%TO.P,J2,3*%
%TO.N,I2C1_SDA*%
X65050000Y-48500000D03*
%TO.P,J2,4*%
%TO.N,GND*%
X65050000Y-47250000D03*
%TD*%
D20*
%TO.P,C12,1*%
%TO.N,+3V3*%
X67650000Y-61150000D03*
%TO.P,C12,2*%
%TO.N,GND*%
X66690000Y-61150000D03*
%TD*%
D37*
%TO.P,D5,1*%
%TO.N,Net-(D5-Pad1)*%
X65850000Y-60000000D03*
%TO.P,D5,2*%
%TO.N,Net-(D5-Pad2)*%
X65850000Y-59000000D03*
%TO.P,D5,3*%
%TO.N,Net-(D5-Pad3)*%
X67650000Y-59000000D03*
%TO.P,D5,4*%
%TO.N,+3V3*%
X67650000Y-60000000D03*
%TD*%
D38*
%TO.N,+3V3*%
X40300000Y-34400000D03*
X45600000Y-52475000D03*
X44350000Y-52500000D03*
X56950000Y-52225000D03*
X56950000Y-51050000D03*
X35100000Y-52750000D03*
X31190000Y-39960000D03*
X68550000Y-61150000D03*
X61000000Y-41000000D03*
X67000000Y-42000000D03*
X68000000Y-42000000D03*
X61000000Y-39000000D03*
X66000000Y-42000000D03*
X56000000Y-39000000D03*
X62000000Y-38000000D03*
X63000000Y-41000000D03*
X59000000Y-39000000D03*
X59000000Y-38000000D03*
X60000000Y-39000000D03*
X63000000Y-42000000D03*
X65000000Y-40000000D03*
X61000000Y-40000000D03*
X60000000Y-38000000D03*
X62000000Y-40000000D03*
X57000000Y-38000000D03*
X61000000Y-38000000D03*
X56000000Y-38000000D03*
X64000000Y-42000000D03*
X66000000Y-41000000D03*
X68000000Y-40000000D03*
X63000000Y-40000000D03*
X67000000Y-41000000D03*
X57000000Y-39000000D03*
X65000000Y-41000000D03*
X62000000Y-39000000D03*
X64000000Y-40000000D03*
X68000000Y-41000000D03*
X65000000Y-42000000D03*
X61000000Y-42000000D03*
X67000000Y-40000000D03*
X58000000Y-39000000D03*
X62000000Y-41000000D03*
X64000000Y-41000000D03*
X62000000Y-42000000D03*
X66000000Y-40000000D03*
X58000000Y-38000000D03*
%TO.N,GND*%
X40400000Y-53350000D03*
X56950000Y-53775000D03*
X43175000Y-55225000D03*
X44350000Y-56375000D03*
X60000000Y-55000000D03*
X62500000Y-55000000D03*
X65000000Y-55000000D03*
X67500000Y-55000000D03*
X62500000Y-52500000D03*
X60000000Y-52500000D03*
X35050000Y-57250000D03*
X31190000Y-45040000D03*
X31200000Y-42500000D03*
X31200000Y-41225000D03*
X37500000Y-60000000D03*
X55000000Y-67500000D03*
X40000000Y-37500000D03*
X57500000Y-45000000D03*
X62500000Y-62500000D03*
X42500000Y-60000000D03*
X35000000Y-50000000D03*
X32500000Y-47500000D03*
X40000000Y-60000000D03*
X35000000Y-60000000D03*
X47500000Y-60000000D03*
X60000000Y-65000000D03*
X60000000Y-47500000D03*
X42500000Y-65000000D03*
X57500000Y-67500000D03*
X57500000Y-65000000D03*
X45000000Y-67500000D03*
X50000000Y-47500000D03*
X42500000Y-57500000D03*
X37500000Y-37500000D03*
X40000000Y-62500000D03*
X60000000Y-45000000D03*
X42500000Y-62500000D03*
X40000000Y-65000000D03*
X40000000Y-57500000D03*
X42500000Y-48050000D03*
X55775000Y-54925000D03*
X57500000Y-62500000D03*
X55000000Y-62500000D03*
X32500000Y-60000000D03*
X37500000Y-57500000D03*
X62500000Y-45000000D03*
X60000000Y-62500000D03*
X57500000Y-47500000D03*
X42500000Y-67500000D03*
X37500000Y-62500000D03*
X60000000Y-67500000D03*
X50000000Y-45000000D03*
X45000000Y-47500000D03*
X52500000Y-62500000D03*
X42500000Y-40000000D03*
X55000000Y-65000000D03*
%TD*%
D39*
%TO.N,+3V3*%
X55775000Y-52225000D02*
X54795000Y-52225000D01*
D40*
X54345000Y-52675000D02*
X54500000Y-52520000D01*
X45800000Y-52675000D02*
X45600000Y-52475000D01*
D41*
X57800000Y-34700000D02*
X57800000Y-37300000D01*
D39*
X54795000Y-52225000D02*
X54500000Y-52520000D01*
D40*
X52862500Y-52675000D02*
X54345000Y-52675000D01*
D39*
X33050000Y-39960000D02*
X31190000Y-39960000D01*
X44625000Y-53400000D02*
X45600000Y-53400000D01*
X56950000Y-51050000D02*
X56200000Y-51050000D01*
X44350000Y-53675000D02*
X44350000Y-52500000D01*
D40*
X47137500Y-52675000D02*
X45800000Y-52675000D01*
D42*
X57800000Y-31900000D02*
X57800000Y-34700000D01*
D39*
X67650000Y-61150000D02*
X67650000Y-60000000D01*
X56200000Y-51050000D02*
X55775000Y-51475000D01*
X40300000Y-34400000D02*
X40300000Y-33520000D01*
X55775000Y-51475000D02*
X55775000Y-52225000D01*
X68550000Y-61150000D02*
X67650000Y-61150000D01*
X35100000Y-52750000D02*
X33530000Y-52750000D01*
X67500000Y-43730000D02*
X67500000Y-42850000D01*
X55775000Y-52225000D02*
X56950000Y-52225000D01*
X68600000Y-43730000D02*
X68600000Y-42800000D01*
X45600000Y-53400000D02*
X45600000Y-52475000D01*
X44350000Y-53675000D02*
X44625000Y-53400000D01*
%TO.N,GND*%
X35050000Y-57250000D02*
X33530000Y-57250000D01*
X40400000Y-53350000D02*
X40400000Y-52000000D01*
X55775000Y-53775000D02*
X54795000Y-53775000D01*
X42500000Y-48050000D02*
X42500000Y-49400000D01*
D40*
X52862500Y-53325000D02*
X54345000Y-53325000D01*
D39*
X40400000Y-53350000D02*
X41340000Y-53350000D01*
X42500000Y-49400000D02*
X42300000Y-49600000D01*
D40*
X54345000Y-53325000D02*
X54500000Y-53480000D01*
D39*
X42500000Y-48050000D02*
X41560000Y-48050000D01*
X40400000Y-52000000D02*
X40600000Y-51800000D01*
X54795000Y-53775000D02*
X54500000Y-53480000D01*
D40*
%TO.N,RCC_OSC_IN*%
X41539998Y-50725000D02*
X40600000Y-49785002D01*
D39*
X40600000Y-48050000D02*
X40600000Y-49600000D01*
D40*
X47137500Y-50725000D02*
X41539998Y-50725000D01*
X40600000Y-49785002D02*
X40600000Y-49600000D01*
D39*
%TO.N,Net-(C4-Pad1)*%
X42300000Y-51800000D02*
X42300000Y-53350000D01*
D40*
X42725000Y-51375000D02*
X42300000Y-51800000D01*
X44290000Y-51375000D02*
X42725000Y-51375000D01*
D43*
%TO.N,VCC*%
X55000000Y-34200000D02*
X55500000Y-34700000D01*
X52525000Y-34200000D02*
X55000000Y-34200000D01*
D42*
X55500000Y-31900000D02*
X55500000Y-34700000D01*
D39*
%TO.N,Net-(D3-Pad2)*%
X38850000Y-32500000D02*
X40300000Y-32500000D01*
D40*
%TO.N,Net-(D4-Pad2)*%
X46110000Y-57500000D02*
X46110000Y-58290000D01*
X45600000Y-65900000D02*
X45600000Y-65100000D01*
X46120000Y-57500000D02*
X46000000Y-57500000D01*
X45037500Y-66462500D02*
X45600000Y-65900000D01*
X46110000Y-58290000D02*
X45600000Y-58800000D01*
X38750000Y-66462500D02*
X45037500Y-66462500D01*
X45600000Y-58800000D02*
X45600000Y-65100000D01*
%TO.N,Net-(D5-Pad1)*%
X65850000Y-60000000D02*
X58500000Y-60000000D01*
X56010000Y-59400000D02*
X57900000Y-59400000D01*
X57900000Y-59400000D02*
X58500000Y-60000000D01*
%TO.N,Net-(D5-Pad2)*%
X65850000Y-59000000D02*
X59000000Y-59000000D01*
X56010000Y-58200000D02*
X58200000Y-58200000D01*
X58200000Y-58200000D02*
X59000000Y-59000000D01*
%TO.N,Net-(D5-Pad3)*%
X67650000Y-59000000D02*
X67650000Y-58450000D01*
X67650000Y-57650000D02*
X67650000Y-59000000D01*
X56010000Y-57000000D02*
X67000000Y-57000000D01*
X56010000Y-57000000D02*
X56600000Y-57000000D01*
X67000000Y-57000000D02*
X67650000Y-57650000D01*
D43*
%TO.N,Net-(F1-Pad1)*%
X51900000Y-38200000D02*
X51900000Y-40300000D01*
D44*
%TO.N,Net-(F1-Pad2)*%
X47500000Y-35000000D02*
X47500000Y-38700000D01*
X47500000Y-38700000D02*
X49100000Y-40300000D01*
D40*
%TO.N,I2C1_SCL*%
X65050000Y-49750000D02*
X56200000Y-49750000D01*
X53925000Y-52025000D02*
X52862500Y-52025000D01*
X68050000Y-49750000D02*
X65050000Y-49750000D01*
X68600000Y-44750000D02*
X68600000Y-49200000D01*
X56200000Y-49750000D02*
X53925000Y-52025000D01*
X68600000Y-49200000D02*
X68050000Y-49750000D01*
%TO.N,I2C1_SDA*%
X56813590Y-48500000D02*
X53938590Y-51375000D01*
X67500000Y-48000000D02*
X67000000Y-48500000D01*
X67000000Y-48500000D02*
X65050000Y-48500000D01*
X52862500Y-51375000D02*
X53275000Y-51375000D01*
X53938590Y-51375000D02*
X52862500Y-51375000D01*
X67500000Y-44750000D02*
X67500000Y-48000000D01*
X65050000Y-48500000D02*
X56813590Y-48500000D01*
%TO.N,SYS_SWDIO*%
X53600000Y-50725000D02*
X52862500Y-50725000D01*
X40460000Y-39960000D02*
X43500000Y-43000000D01*
X53500000Y-43000000D02*
X54500000Y-44000000D01*
X54500000Y-44000000D02*
X54500000Y-49825000D01*
X43500000Y-43000000D02*
X53500000Y-43000000D01*
X54500000Y-49825000D02*
X53600000Y-50725000D01*
X36950000Y-39960000D02*
X40460000Y-39960000D01*
%TO.N,SYS_SWCLK*%
X39730000Y-41230000D02*
X42500000Y-44000000D01*
X36950000Y-41230000D02*
X39730000Y-41230000D01*
X52862500Y-48362500D02*
X52862500Y-50075000D01*
X52862500Y-44862500D02*
X52862500Y-48362500D01*
X42500000Y-44000000D02*
X52000000Y-44000000D01*
X52000000Y-44000000D02*
X52862500Y-44862500D01*
%TO.N,NRST*%
X48475000Y-52025000D02*
X47137500Y-52025000D01*
X36950000Y-45040000D02*
X48040000Y-45040000D01*
X49000000Y-46000000D02*
X49000000Y-51500000D01*
X49000000Y-51500000D02*
X48475000Y-52025000D01*
X48040000Y-45040000D02*
X49000000Y-46000000D01*
%TO.N,USART1_TX*%
X49800000Y-63500000D02*
X50500000Y-64200000D01*
X47137500Y-54625000D02*
X48825000Y-54625000D01*
X50500000Y-64200000D02*
X50500000Y-65050000D01*
X49125000Y-54625000D02*
X49800000Y-55300000D01*
X47137500Y-54625000D02*
X49125000Y-54625000D01*
X49800000Y-55300000D02*
X49800000Y-63500000D01*
%TO.N,USART1_RX*%
X49250000Y-55550000D02*
X49250000Y-56150000D01*
X49250000Y-65050000D02*
X49250000Y-63600000D01*
X49250000Y-63600000D02*
X49250000Y-56150000D01*
X48975000Y-55275000D02*
X49250000Y-55550000D01*
X47137500Y-55275000D02*
X48975000Y-55275000D01*
%TO.N,RCC_OSC_OUT*%
X47137500Y-51375000D02*
X45310000Y-51375000D01*
%TO.N,TIM3_CH1*%
X54300000Y-55800000D02*
X53775000Y-55275000D01*
X54500000Y-58200000D02*
X54300000Y-58000000D01*
X52862500Y-55275000D02*
X52862500Y-55337500D01*
X53775000Y-55275000D02*
X52862500Y-55275000D01*
X54300000Y-58000000D02*
X54300000Y-55800000D01*
X54990000Y-58200000D02*
X54500000Y-58200000D01*
%TO.N,TIM3_CH2*%
X54990000Y-57000000D02*
X54990000Y-55490000D01*
X54125000Y-54625000D02*
X52862500Y-54625000D01*
X54990000Y-55490000D02*
X54125000Y-54625000D01*
%TO.N,TIM3_CH4*%
X51700000Y-59400000D02*
X54990000Y-59400000D01*
X52862500Y-53975000D02*
X51525000Y-53975000D01*
X51200000Y-54300000D02*
X51200000Y-58900000D01*
X51200000Y-58900000D02*
X51700000Y-59400000D01*
X52862500Y-53975000D02*
X52525000Y-53975000D01*
X51525000Y-53975000D02*
X51200000Y-54300000D01*
%TO.N,TIM14_CH1*%
X47130000Y-57500000D02*
X47130000Y-55932500D01*
X47130000Y-55932500D02*
X47137500Y-55925000D01*
%TO.N,BOOT*%
X35250000Y-54730000D02*
X35730000Y-54730000D01*
X38000000Y-54000000D02*
X37270000Y-54730000D01*
X46500000Y-46000000D02*
X47137500Y-46637500D01*
X38000000Y-47000000D02*
X38000000Y-54000000D01*
X38000000Y-47000000D02*
X39000000Y-46000000D01*
X37270000Y-54730000D02*
X35730000Y-54730000D01*
X35250000Y-54730000D02*
X35250000Y-54750000D01*
X47137500Y-46637500D02*
X47137500Y-50075000D01*
X39000000Y-46000000D02*
X46500000Y-46000000D01*
D39*
%TO.N,Net-(R12-Pad1)*%
X35250000Y-55750000D02*
X33530000Y-55750000D01*
D43*
%TO.N,Net-(FB1-Pad2)*%
X50950000Y-36200000D02*
X50950000Y-34200000D01*
%TD*%
%TA.AperFunction,Conductor*%
%TO.N,+3V3*%
G36*
X62942121Y-37020002D02*
G01*
X62988614Y-37073658D01*
X63000000Y-37126000D01*
X63000000Y-39000000D01*
X68874000Y-39000000D01*
X68942121Y-39020002D01*
X68988614Y-39073658D01*
X69000000Y-39126000D01*
X69000000Y-42827503D01*
X68979998Y-42895624D01*
X68926342Y-42942117D01*
X68889499Y-42948629D01*
X68889790Y-42950015D01*
X68856970Y-42956910D01*
X68854000Y-42968374D01*
X68854000Y-43000000D01*
X68346000Y-43000000D01*
X68346000Y-42970434D01*
X68341656Y-42955639D01*
X68329997Y-42953579D01*
X68320023Y-42954363D01*
X68307436Y-42956662D01*
X68175488Y-42994997D01*
X68140335Y-43000000D01*
X67959665Y-43000000D01*
X67924512Y-42994997D01*
X67792564Y-42956662D01*
X67779977Y-42954363D01*
X67772057Y-42953740D01*
X67756970Y-42956910D01*
X67754000Y-42968374D01*
X67754000Y-43000000D01*
X67246000Y-43000000D01*
X67246000Y-42970434D01*
X67241656Y-42955639D01*
X67229997Y-42953579D01*
X67220023Y-42954363D01*
X67207436Y-42956662D01*
X67075488Y-42994997D01*
X67040335Y-43000000D01*
X55126000Y-43000000D01*
X55057879Y-42979998D01*
X55011386Y-42926342D01*
X55000000Y-42874000D01*
X55000000Y-42044669D01*
X55392001Y-42044669D01*
X55392371Y-42051490D01*
X55397895Y-42102352D01*
X55401521Y-42117604D01*
X55446676Y-42238054D01*
X55455214Y-42253649D01*
X55531715Y-42355724D01*
X55544276Y-42368285D01*
X55646351Y-42444786D01*
X55661946Y-42453324D01*
X55782394Y-42498478D01*
X55797649Y-42502105D01*
X55848514Y-42507631D01*
X55855328Y-42508000D01*
X57527885Y-42508000D01*
X57543124Y-42503525D01*
X57544329Y-42502135D01*
X57546000Y-42494452D01*
X57546000Y-42489884D01*
X58054000Y-42489884D01*
X58058475Y-42505123D01*
X58059865Y-42506328D01*
X58067548Y-42507999D01*
X59744669Y-42507999D01*
X59751490Y-42507629D01*
X59802352Y-42502105D01*
X59817604Y-42498479D01*
X59938054Y-42453324D01*
X59953649Y-42444786D01*
X60055724Y-42368285D01*
X60068285Y-42355724D01*
X60144786Y-42253649D01*
X60153324Y-42238054D01*
X60198478Y-42117606D01*
X60202105Y-42102351D01*
X60207631Y-42051486D01*
X60208000Y-42044672D01*
X60208000Y-41272115D01*
X60203525Y-41256876D01*
X60202135Y-41255671D01*
X60194452Y-41254000D01*
X58072115Y-41254000D01*
X58056876Y-41258475D01*
X58055671Y-41259865D01*
X58054000Y-41267548D01*
X58054000Y-42489884D01*
X57546000Y-42489884D01*
X57546000Y-41272115D01*
X57541525Y-41256876D01*
X57540135Y-41255671D01*
X57532452Y-41254000D01*
X55410116Y-41254000D01*
X55394877Y-41258475D01*
X55393672Y-41259865D01*
X55392001Y-41267548D01*
X55392001Y-42044669D01*
X55000000Y-42044669D01*
X55000000Y-40727885D01*
X55392000Y-40727885D01*
X55396475Y-40743124D01*
X55397865Y-40744329D01*
X55405548Y-40746000D01*
X57527885Y-40746000D01*
X57543124Y-40741525D01*
X57544329Y-40740135D01*
X57546000Y-40732452D01*
X57546000Y-40727885D01*
X58054000Y-40727885D01*
X58058475Y-40743124D01*
X58059865Y-40744329D01*
X58067548Y-40746000D01*
X60189884Y-40746000D01*
X60205123Y-40741525D01*
X60206328Y-40740135D01*
X60207999Y-40732452D01*
X60207999Y-39955331D01*
X60207629Y-39948510D01*
X60202105Y-39897648D01*
X60198479Y-39882396D01*
X60153324Y-39761946D01*
X60144786Y-39746351D01*
X60068285Y-39644276D01*
X60055724Y-39631715D01*
X59953649Y-39555214D01*
X59938054Y-39546676D01*
X59817606Y-39501522D01*
X59802351Y-39497895D01*
X59751486Y-39492369D01*
X59744672Y-39492000D01*
X58072115Y-39492000D01*
X58056876Y-39496475D01*
X58055671Y-39497865D01*
X58054000Y-39505548D01*
X58054000Y-40727885D01*
X57546000Y-40727885D01*
X57546000Y-39510116D01*
X57541525Y-39494877D01*
X57540135Y-39493672D01*
X57532452Y-39492001D01*
X55855331Y-39492001D01*
X55848510Y-39492371D01*
X55797648Y-39497895D01*
X55782396Y-39501521D01*
X55661946Y-39546676D01*
X55646351Y-39555214D01*
X55544276Y-39631715D01*
X55531715Y-39644276D01*
X55455214Y-39746351D01*
X55446676Y-39761946D01*
X55401522Y-39882394D01*
X55397895Y-39897649D01*
X55392369Y-39948514D01*
X55392000Y-39955328D01*
X55392000Y-40727885D01*
X55000000Y-40727885D01*
X55000000Y-37126000D01*
X55020002Y-37057879D01*
X55073658Y-37011386D01*
X55126000Y-37000000D01*
X62874000Y-37000000D01*
X62942121Y-37020002D01*
G37*
%TD.AperFunction*%
%TD*%
%TA.AperFunction,Conductor*%
%TO.N,GND*%
G36*
X51658935Y-30528002D02*
G01*
X51705428Y-30581658D01*
X51715532Y-30651932D01*
X51686038Y-30716512D01*
X51679988Y-30723017D01*
X51631259Y-30771832D01*
X51622250Y-30783239D01*
X51537184Y-30921242D01*
X51531037Y-30934423D01*
X51479862Y-31088709D01*
X51476995Y-31102085D01*
X51467328Y-31196437D01*
X51467000Y-31202854D01*
X51467000Y-31627885D01*
X51471475Y-31643124D01*
X51472865Y-31644329D01*
X51480548Y-31646000D01*
X53614885Y-31646000D01*
X53630124Y-31641525D01*
X53631329Y-31640135D01*
X53633000Y-31632452D01*
X53633000Y-31202902D01*
X53632663Y-31196387D01*
X53622744Y-31100795D01*
X53619850Y-31087396D01*
X53568412Y-30933215D01*
X53562238Y-30920036D01*
X53476937Y-30782190D01*
X53467905Y-30770796D01*
X53420200Y-30723174D01*
X53386120Y-30660892D01*
X53391123Y-30590071D01*
X53433619Y-30533198D01*
X53500118Y-30508329D01*
X53509217Y-30508000D01*
X54540107Y-30508000D01*
X54608228Y-30528002D01*
X54654721Y-30581658D01*
X54664825Y-30651932D01*
X54635331Y-30716512D01*
X54629280Y-30723017D01*
X54575694Y-30776697D01*
X54567678Y-30789701D01*
X54487157Y-30920331D01*
X54482885Y-30927261D01*
X54427203Y-31095138D01*
X54416500Y-31199599D01*
X54416501Y-32600400D01*
X54427474Y-32706167D01*
X54461381Y-32807799D01*
X54483450Y-32873946D01*
X54481985Y-32874435D01*
X54491500Y-32917181D01*
X54491500Y-33190500D01*
X54471498Y-33258621D01*
X54417842Y-33305114D01*
X54365500Y-33316500D01*
X53484728Y-33316500D01*
X53416607Y-33296498D01*
X53370114Y-33242842D01*
X53360010Y-33172568D01*
X53389504Y-33107988D01*
X53395555Y-33101482D01*
X53468742Y-33028168D01*
X53477750Y-33016761D01*
X53562816Y-32878758D01*
X53568963Y-32865577D01*
X53620138Y-32711291D01*
X53623005Y-32697915D01*
X53632672Y-32603563D01*
X53633000Y-32597147D01*
X53633000Y-32172115D01*
X53628525Y-32156876D01*
X53627135Y-32155671D01*
X53619452Y-32154000D01*
X51485115Y-32154000D01*
X51469876Y-32158475D01*
X51468671Y-32159865D01*
X51467000Y-32167548D01*
X51467000Y-32597098D01*
X51467337Y-32603613D01*
X51477256Y-32699205D01*
X51480150Y-32712604D01*
X51531588Y-32866785D01*
X51537762Y-32879964D01*
X51623063Y-33017810D01*
X51632099Y-33029209D01*
X51746828Y-33143738D01*
X51758239Y-33152750D01*
X51814582Y-33187481D01*
X51862076Y-33240254D01*
X51873498Y-33310325D01*
X51845224Y-33375449D01*
X51837642Y-33383756D01*
X51826615Y-33394803D01*
X51764335Y-33428883D01*
X51693515Y-33423883D01*
X51648422Y-33394960D01*
X51627733Y-33374307D01*
X51622553Y-33369136D01*
X51478192Y-33280151D01*
X51471243Y-33277846D01*
X51323762Y-33228928D01*
X51323760Y-33228928D01*
X51317231Y-33226762D01*
X51217072Y-33216500D01*
X50682928Y-33216500D01*
X50679682Y-33216837D01*
X50679678Y-33216837D01*
X50645897Y-33220342D01*
X50581518Y-33227022D01*
X50420651Y-33280692D01*
X50276445Y-33369929D01*
X50156636Y-33489947D01*
X50067651Y-33634308D01*
X50065346Y-33641256D01*
X50065346Y-33641257D01*
X50027133Y-33756466D01*
X50014262Y-33795269D01*
X50004000Y-33895428D01*
X50004000Y-34504572D01*
X50004337Y-34507818D01*
X50004337Y-34507822D01*
X50013508Y-34596206D01*
X50014522Y-34605982D01*
X50016705Y-34612524D01*
X50016705Y-34612526D01*
X50060023Y-34742366D01*
X50066500Y-34782243D01*
X50066500Y-35568174D01*
X50058482Y-35612404D01*
X50048255Y-35639684D01*
X50041500Y-35701866D01*
X50041500Y-36698134D01*
X50048255Y-36760316D01*
X50099385Y-36896705D01*
X50186739Y-37013261D01*
X50303295Y-37100615D01*
X50439684Y-37151745D01*
X50501866Y-37158500D01*
X51063059Y-37158500D01*
X51131180Y-37178502D01*
X51177673Y-37232158D01*
X51187777Y-37302432D01*
X51158283Y-37367012D01*
X51149995Y-37374734D01*
X51150269Y-37375008D01*
X51143919Y-37381358D01*
X51136739Y-37386739D01*
X51049385Y-37503295D01*
X50998255Y-37639684D01*
X50991500Y-37701866D01*
X50991500Y-38698134D01*
X50998255Y-38760316D01*
X51007216Y-38784219D01*
X51008482Y-38787596D01*
X51016500Y-38831826D01*
X51016500Y-39058607D01*
X50996498Y-39126728D01*
X50979673Y-39147625D01*
X50925695Y-39201697D01*
X50921855Y-39207927D01*
X50921854Y-39207928D01*
X50837006Y-39345577D01*
X50832885Y-39352262D01*
X50821163Y-39387604D01*
X50788016Y-39487540D01*
X50777203Y-39520139D01*
X50776503Y-39526975D01*
X50776502Y-39526978D01*
X50775325Y-39538469D01*
X50766500Y-39624600D01*
X50766500Y-39747182D01*
X50746498Y-39815303D01*
X50692842Y-39861796D01*
X50622568Y-39871900D01*
X50557988Y-39842406D01*
X50519878Y-39783600D01*
X50510532Y-39752643D01*
X50510530Y-39752639D01*
X50509067Y-39747792D01*
X50402654Y-39529612D01*
X50287453Y-39366305D01*
X50265007Y-39334486D01*
X50265004Y-39334482D01*
X50262726Y-39331253D01*
X50243091Y-39309750D01*
X49045405Y-38112064D01*
X49011379Y-38049752D01*
X49008500Y-38022969D01*
X49008500Y-36667329D01*
X49028502Y-36599208D01*
X49050407Y-36575668D01*
X49049731Y-36574992D01*
X49056081Y-36568642D01*
X49063261Y-36563261D01*
X49150615Y-36446705D01*
X49201745Y-36310316D01*
X49208500Y-36248134D01*
X49208500Y-33751866D01*
X49201745Y-33689684D01*
X49150615Y-33553295D01*
X49063261Y-33436739D01*
X48946705Y-33349385D01*
X48810316Y-33298255D01*
X48748134Y-33291500D01*
X46251866Y-33291500D01*
X46189684Y-33298255D01*
X46053295Y-33349385D01*
X45936739Y-33436739D01*
X45849385Y-33553295D01*
X45798255Y-33689684D01*
X45791500Y-33751866D01*
X45791500Y-34222433D01*
X45771498Y-34290554D01*
X45717842Y-34337047D01*
X45647568Y-34347151D01*
X45582988Y-34317657D01*
X45550099Y-34270983D01*
X45549644Y-34271200D01*
X45548371Y-34268531D01*
X45548066Y-34268098D01*
X45547631Y-34266980D01*
X45543619Y-34258567D01*
X45422284Y-34046276D01*
X45417074Y-34038553D01*
X45385787Y-33998865D01*
X45373863Y-33990395D01*
X45362328Y-33996882D01*
X44372022Y-34987188D01*
X44364408Y-35001132D01*
X44364539Y-35002965D01*
X44368790Y-35009580D01*
X45363732Y-36004522D01*
X45376112Y-36011282D01*
X45384453Y-36005038D01*
X45502700Y-35821202D01*
X45507147Y-35813011D01*
X45550618Y-35716510D01*
X45596834Y-35662616D01*
X45664850Y-35642263D01*
X45733073Y-35661913D01*
X45779842Y-35715328D01*
X45791500Y-35768261D01*
X45791500Y-36248134D01*
X45798255Y-36310316D01*
X45849385Y-36446705D01*
X45936739Y-36563261D01*
X45943919Y-36568642D01*
X45950269Y-36574992D01*
X45948634Y-36576627D01*
X45983579Y-36623359D01*
X45991500Y-36667329D01*
X45991500Y-38675984D01*
X45991451Y-38679502D01*
X45989194Y-38760316D01*
X45988666Y-38779205D01*
X45992640Y-38808984D01*
X45999058Y-38857086D01*
X45999758Y-38863639D01*
X46006060Y-38941965D01*
X46013897Y-38973870D01*
X46016426Y-38987258D01*
X46020771Y-39019820D01*
X46022232Y-39024661D01*
X46022233Y-39024663D01*
X46043478Y-39095029D01*
X46045219Y-39101390D01*
X46063963Y-39177706D01*
X46065941Y-39182366D01*
X46076801Y-39207951D01*
X46081438Y-39220761D01*
X46090933Y-39252208D01*
X46093151Y-39256756D01*
X46093154Y-39256763D01*
X46125371Y-39322818D01*
X46128107Y-39328820D01*
X46147075Y-39373504D01*
X46158812Y-39401156D01*
X46164625Y-39410386D01*
X46176319Y-39428956D01*
X46182945Y-39440860D01*
X46197346Y-39470388D01*
X46200265Y-39474525D01*
X46200265Y-39474526D01*
X46242641Y-39534597D01*
X46246301Y-39540086D01*
X46285471Y-39602286D01*
X46288167Y-39606567D01*
X46291508Y-39610356D01*
X46291512Y-39610362D01*
X46309898Y-39631217D01*
X46318344Y-39641912D01*
X46337274Y-39668747D01*
X46356909Y-39690250D01*
X46396625Y-39729966D01*
X46402044Y-39735736D01*
X46445350Y-39784858D01*
X46445353Y-39784861D01*
X46448698Y-39788655D01*
X46452606Y-39791865D01*
X46452607Y-39791866D01*
X46480989Y-39815179D01*
X46490108Y-39823449D01*
X48076464Y-41409805D01*
X48078374Y-41411431D01*
X48078381Y-41411437D01*
X48204925Y-41519134D01*
X48214720Y-41527470D01*
X48356400Y-41613275D01*
X48377372Y-41625976D01*
X48422358Y-41653221D01*
X48427047Y-41655115D01*
X48427046Y-41655115D01*
X48642733Y-41742259D01*
X48642736Y-41742260D01*
X48647429Y-41744156D01*
X48797907Y-41778343D01*
X48879210Y-41796814D01*
X48879212Y-41796814D01*
X48884145Y-41797935D01*
X48889195Y-41798253D01*
X48889197Y-41798253D01*
X49121359Y-41812860D01*
X49126413Y-41813178D01*
X49368002Y-41789490D01*
X49372893Y-41788198D01*
X49372897Y-41788197D01*
X49597808Y-41728773D01*
X49597814Y-41728771D01*
X49602696Y-41727481D01*
X49624869Y-41717609D01*
X49819832Y-41630805D01*
X49819834Y-41630804D01*
X49824456Y-41628746D01*
X49828684Y-41625979D01*
X49828690Y-41625976D01*
X49984232Y-41524192D01*
X50027579Y-41495827D01*
X50034108Y-41489865D01*
X50203101Y-41335554D01*
X50203105Y-41335550D01*
X50206837Y-41332142D01*
X50209979Y-41328178D01*
X50354475Y-41145869D01*
X50354476Y-41145867D01*
X50357619Y-41141902D01*
X50387910Y-41087704D01*
X50473580Y-40934416D01*
X50473582Y-40934412D01*
X50476046Y-40930003D01*
X50522099Y-40803474D01*
X50564193Y-40746303D01*
X50630515Y-40720965D01*
X50700006Y-40735506D01*
X50750605Y-40785308D01*
X50766500Y-40846569D01*
X50766500Y-40975400D01*
X50777474Y-41081166D01*
X50779655Y-41087702D01*
X50779655Y-41087704D01*
X50797737Y-41141902D01*
X50833450Y-41248946D01*
X50926522Y-41399348D01*
X51051697Y-41524305D01*
X51057927Y-41528145D01*
X51057928Y-41528146D01*
X51195090Y-41612694D01*
X51202262Y-41617115D01*
X51282005Y-41643564D01*
X51363611Y-41670632D01*
X51363613Y-41670632D01*
X51370139Y-41672797D01*
X51376975Y-41673497D01*
X51376978Y-41673498D01*
X51420031Y-41677909D01*
X51474600Y-41683500D01*
X52325400Y-41683500D01*
X52328646Y-41683163D01*
X52328650Y-41683163D01*
X52424308Y-41673238D01*
X52424312Y-41673237D01*
X52431166Y-41672526D01*
X52437702Y-41670345D01*
X52437704Y-41670345D01*
X52570693Y-41625976D01*
X52598946Y-41616550D01*
X52749348Y-41523478D01*
X52874305Y-41398303D01*
X52912984Y-41335554D01*
X52963275Y-41253968D01*
X52963276Y-41253966D01*
X52967115Y-41247738D01*
X53022797Y-41079861D01*
X53033500Y-40975400D01*
X53033500Y-39624600D01*
X53026953Y-39561502D01*
X53023238Y-39525692D01*
X53023237Y-39525688D01*
X53022526Y-39518834D01*
X53018364Y-39506357D01*
X52968868Y-39358002D01*
X52966550Y-39351054D01*
X52873478Y-39200652D01*
X52867777Y-39194961D01*
X52820482Y-39147748D01*
X52786403Y-39085465D01*
X52783500Y-39058575D01*
X52783500Y-38831826D01*
X52791518Y-38787596D01*
X52792784Y-38784219D01*
X52801745Y-38760316D01*
X52808500Y-38698134D01*
X52808500Y-37701866D01*
X52801745Y-37639684D01*
X52750615Y-37503295D01*
X52663261Y-37386739D01*
X52606456Y-37344166D01*
X52563941Y-37287307D01*
X52558915Y-37216488D01*
X52586797Y-37160827D01*
X52594329Y-37152135D01*
X52596000Y-37144452D01*
X52596000Y-37139884D01*
X53104000Y-37139884D01*
X53108475Y-37155123D01*
X53109865Y-37156328D01*
X53117548Y-37157999D01*
X53294669Y-37157999D01*
X53301490Y-37157629D01*
X53352352Y-37152105D01*
X53367604Y-37148479D01*
X53488054Y-37103324D01*
X53503649Y-37094786D01*
X53605724Y-37018285D01*
X53618285Y-37005724D01*
X53694786Y-36903649D01*
X53703324Y-36888054D01*
X53748478Y-36767606D01*
X53752105Y-36752351D01*
X53757631Y-36701486D01*
X53758000Y-36694672D01*
X53758000Y-36472115D01*
X53753525Y-36456876D01*
X53752135Y-36455671D01*
X53744452Y-36454000D01*
X53122115Y-36454000D01*
X53106876Y-36458475D01*
X53105671Y-36459865D01*
X53104000Y-36467548D01*
X53104000Y-37139884D01*
X52596000Y-37139884D01*
X52596000Y-36072000D01*
X52616002Y-36003879D01*
X52669658Y-35957386D01*
X52722000Y-35946000D01*
X53739884Y-35946000D01*
X53755123Y-35941525D01*
X53756328Y-35940135D01*
X53757999Y-35932452D01*
X53757999Y-35705331D01*
X53757629Y-35698510D01*
X53752105Y-35647648D01*
X53748479Y-35632396D01*
X53703324Y-35511946D01*
X53694786Y-35496351D01*
X53618285Y-35394276D01*
X53605724Y-35381715D01*
X53510470Y-35310326D01*
X53467955Y-35253467D01*
X53462929Y-35182648D01*
X53496989Y-35120355D01*
X53559320Y-35086365D01*
X53586035Y-35083500D01*
X54115500Y-35083500D01*
X54183621Y-35103502D01*
X54230114Y-35157158D01*
X54241500Y-35209500D01*
X54241500Y-35748134D01*
X54248255Y-35810316D01*
X54299385Y-35946705D01*
X54386739Y-36063261D01*
X54503295Y-36150615D01*
X54639684Y-36201745D01*
X54701866Y-36208500D01*
X56298134Y-36208500D01*
X56360316Y-36201745D01*
X56367716Y-36198971D01*
X56371275Y-36197637D01*
X56374238Y-36197420D01*
X56375400Y-36197144D01*
X56375445Y-36197332D01*
X56442082Y-36192457D01*
X56504450Y-36226380D01*
X56538577Y-36288637D01*
X56541500Y-36315621D01*
X56541500Y-36366000D01*
X56521498Y-36434121D01*
X56467842Y-36480614D01*
X56415500Y-36492000D01*
X55126000Y-36492000D01*
X55018020Y-36503609D01*
X55014736Y-36504323D01*
X55014732Y-36504324D01*
X54989661Y-36509778D01*
X54965678Y-36514995D01*
X54862628Y-36549293D01*
X54740990Y-36627465D01*
X54737595Y-36630407D01*
X54737592Y-36630409D01*
X54708998Y-36655186D01*
X54687334Y-36673958D01*
X54684393Y-36677352D01*
X54672803Y-36690727D01*
X54592645Y-36783234D01*
X54532579Y-36914760D01*
X54512577Y-36982881D01*
X54511937Y-36987329D01*
X54511936Y-36987336D01*
X54492639Y-37121552D01*
X54492638Y-37121559D01*
X54492000Y-37126000D01*
X54492000Y-42791904D01*
X54471998Y-42860025D01*
X54418342Y-42906518D01*
X54348068Y-42916622D01*
X54283488Y-42887128D01*
X54276905Y-42880999D01*
X54003648Y-42607742D01*
X53996113Y-42599462D01*
X53992000Y-42592982D01*
X53942348Y-42546356D01*
X53939507Y-42543602D01*
X53919770Y-42523865D01*
X53916573Y-42521385D01*
X53907551Y-42513680D01*
X53881100Y-42488841D01*
X53875321Y-42483414D01*
X53868375Y-42479595D01*
X53868372Y-42479593D01*
X53857566Y-42473652D01*
X53841047Y-42462801D01*
X53840583Y-42462441D01*
X53825041Y-42450386D01*
X53817772Y-42447241D01*
X53817768Y-42447238D01*
X53784463Y-42432826D01*
X53773813Y-42427609D01*
X53735060Y-42406305D01*
X53715437Y-42401267D01*
X53696734Y-42394863D01*
X53685420Y-42389967D01*
X53685419Y-42389967D01*
X53678145Y-42386819D01*
X53670322Y-42385580D01*
X53670312Y-42385577D01*
X53634476Y-42379901D01*
X53622856Y-42377495D01*
X53587711Y-42368472D01*
X53587710Y-42368472D01*
X53580030Y-42366500D01*
X53559776Y-42366500D01*
X53540065Y-42364949D01*
X53527886Y-42363020D01*
X53520057Y-42361780D01*
X53512165Y-42362526D01*
X53476039Y-42365941D01*
X53464181Y-42366500D01*
X43814595Y-42366500D01*
X43746474Y-42346498D01*
X43725500Y-42329595D01*
X40963652Y-39567747D01*
X40956112Y-39559461D01*
X40952000Y-39552982D01*
X40902348Y-39506356D01*
X40899507Y-39503602D01*
X40879770Y-39483865D01*
X40876573Y-39481385D01*
X40867551Y-39473680D01*
X40835321Y-39443414D01*
X40828375Y-39439595D01*
X40828372Y-39439593D01*
X40817566Y-39433652D01*
X40801047Y-39422801D01*
X40800583Y-39422441D01*
X40785041Y-39410386D01*
X40777772Y-39407241D01*
X40777768Y-39407238D01*
X40744463Y-39392826D01*
X40733813Y-39387609D01*
X40695060Y-39366305D01*
X40675437Y-39361267D01*
X40656734Y-39354863D01*
X40645420Y-39349967D01*
X40645419Y-39349967D01*
X40638145Y-39346819D01*
X40630322Y-39345580D01*
X40630312Y-39345577D01*
X40594476Y-39339901D01*
X40582856Y-39337495D01*
X40547711Y-39328472D01*
X40547710Y-39328472D01*
X40540030Y-39326500D01*
X40519776Y-39326500D01*
X40500065Y-39324949D01*
X40487886Y-39323020D01*
X40480057Y-39321780D01*
X40472165Y-39322526D01*
X40436039Y-39325941D01*
X40424181Y-39326500D01*
X38651055Y-39326500D01*
X38582934Y-39306498D01*
X38550229Y-39276065D01*
X38518643Y-39233920D01*
X38518642Y-39233919D01*
X38513261Y-39226739D01*
X38396705Y-39139385D01*
X38260316Y-39088255D01*
X38198134Y-39081500D01*
X35701866Y-39081500D01*
X35639684Y-39088255D01*
X35503295Y-39139385D01*
X35386739Y-39226739D01*
X35299385Y-39343295D01*
X35248255Y-39479684D01*
X35241500Y-39541866D01*
X35241500Y-40378134D01*
X35248255Y-40440316D01*
X35251027Y-40447712D01*
X35251029Y-40447718D01*
X35289662Y-40550771D01*
X35294845Y-40621578D01*
X35289662Y-40639229D01*
X35251029Y-40742282D01*
X35251027Y-40742288D01*
X35248255Y-40749684D01*
X35241500Y-40811866D01*
X35241500Y-41648134D01*
X35248255Y-41710316D01*
X35251027Y-41717712D01*
X35251029Y-41717718D01*
X35289662Y-41820771D01*
X35294845Y-41891578D01*
X35289662Y-41909229D01*
X35251029Y-42012282D01*
X35251027Y-42012288D01*
X35248255Y-42019684D01*
X35241500Y-42081866D01*
X35241500Y-42918134D01*
X35248255Y-42980316D01*
X35251027Y-42987712D01*
X35251029Y-42987718D01*
X35289662Y-43090771D01*
X35294845Y-43161578D01*
X35289662Y-43179229D01*
X35251029Y-43282282D01*
X35251027Y-43282288D01*
X35248255Y-43289684D01*
X35241500Y-43351866D01*
X35241500Y-44188134D01*
X35248255Y-44250316D01*
X35251027Y-44257712D01*
X35251029Y-44257718D01*
X35289662Y-44360771D01*
X35294845Y-44431578D01*
X35289662Y-44449229D01*
X35251029Y-44552282D01*
X35251027Y-44552288D01*
X35248255Y-44559684D01*
X35241500Y-44621866D01*
X35241500Y-45458134D01*
X35248255Y-45520316D01*
X35299385Y-45656705D01*
X35386739Y-45773261D01*
X35503295Y-45860615D01*
X35639684Y-45911745D01*
X35701866Y-45918500D01*
X37881405Y-45918500D01*
X37949526Y-45938502D01*
X37996019Y-45992158D01*
X38006123Y-46062432D01*
X37976629Y-46127012D01*
X37970505Y-46133591D01*
X37780629Y-46323466D01*
X37607742Y-46496353D01*
X37599463Y-46503887D01*
X37592982Y-46508000D01*
X37572323Y-46530000D01*
X37546357Y-46557651D01*
X37543602Y-46560493D01*
X37523865Y-46580230D01*
X37521385Y-46583427D01*
X37513682Y-46592447D01*
X37483414Y-46624679D01*
X37479595Y-46631625D01*
X37479593Y-46631628D01*
X37473652Y-46642434D01*
X37462801Y-46658953D01*
X37450386Y-46674959D01*
X37447241Y-46682228D01*
X37447238Y-46682232D01*
X37432826Y-46715537D01*
X37427609Y-46726187D01*
X37406305Y-46764940D01*
X37404334Y-46772615D01*
X37404334Y-46772616D01*
X37401267Y-46784562D01*
X37394863Y-46803266D01*
X37386819Y-46821855D01*
X37385580Y-46829678D01*
X37385577Y-46829688D01*
X37379901Y-46865524D01*
X37377495Y-46877144D01*
X37366500Y-46919970D01*
X37366500Y-46940224D01*
X37364949Y-46959934D01*
X37361780Y-46979943D01*
X37362526Y-46987835D01*
X37365941Y-47023961D01*
X37366500Y-47035819D01*
X37366500Y-53685405D01*
X37346498Y-53753526D01*
X37329595Y-53774501D01*
X37044499Y-54059596D01*
X36982187Y-54093621D01*
X36955404Y-54096500D01*
X35890694Y-54096500D01*
X35826555Y-54078954D01*
X35790830Y-54057826D01*
X35729811Y-54021740D01*
X35699419Y-54003766D01*
X35699418Y-54003766D01*
X35692596Y-53999731D01*
X35684985Y-53997520D01*
X35684983Y-53997519D01*
X35542644Y-53956166D01*
X35542645Y-53956166D01*
X35536466Y-53954371D01*
X35530059Y-53953867D01*
X35530055Y-53953866D01*
X35502444Y-53951693D01*
X35502438Y-53951693D01*
X35499989Y-53951500D01*
X35250152Y-53951500D01*
X35000012Y-53951501D01*
X34963534Y-53954371D01*
X34867636Y-53982232D01*
X34815017Y-53997519D01*
X34815015Y-53997520D01*
X34807404Y-53999731D01*
X34800582Y-54003766D01*
X34800581Y-54003766D01*
X34697141Y-54064940D01*
X34667459Y-54082494D01*
X34552494Y-54197459D01*
X34548460Y-54204280D01*
X34499607Y-54286887D01*
X34469731Y-54337404D01*
X34467520Y-54345015D01*
X34467519Y-54345017D01*
X34457036Y-54381100D01*
X34424371Y-54493534D01*
X34421500Y-54530011D01*
X34421501Y-54719452D01*
X34421501Y-54765499D01*
X34401499Y-54833620D01*
X34347844Y-54880113D01*
X34295501Y-54891500D01*
X32731866Y-54891500D01*
X32669684Y-54898255D01*
X32533295Y-54949385D01*
X32416739Y-55036739D01*
X32329385Y-55153295D01*
X32278255Y-55289684D01*
X32271500Y-55351866D01*
X32271500Y-55480923D01*
X32251498Y-55549044D01*
X32197842Y-55595537D01*
X32127568Y-55605641D01*
X32108247Y-55601290D01*
X31963666Y-55556534D01*
X31957541Y-55555890D01*
X31957540Y-55555890D01*
X31782852Y-55537529D01*
X31782851Y-55537529D01*
X31776724Y-55536885D01*
X31718709Y-55542165D01*
X31595665Y-55553363D01*
X31595662Y-55553364D01*
X31589526Y-55553922D01*
X31583620Y-55555660D01*
X31583616Y-55555661D01*
X31457395Y-55592810D01*
X31409202Y-55606994D01*
X31242621Y-55694080D01*
X31096128Y-55811864D01*
X30975302Y-55955859D01*
X30972338Y-55961251D01*
X30972335Y-55961255D01*
X30913117Y-56068973D01*
X30884746Y-56120580D01*
X30882885Y-56126447D01*
X30882884Y-56126449D01*
X30867113Y-56176166D01*
X30827909Y-56299752D01*
X30806956Y-56486552D01*
X30807472Y-56492696D01*
X30820620Y-56649270D01*
X30822685Y-56673865D01*
X30835203Y-56717519D01*
X30872764Y-56848510D01*
X30874497Y-56854555D01*
X30877312Y-56860032D01*
X30877313Y-56860035D01*
X30953041Y-57007386D01*
X30960418Y-57021740D01*
X30964241Y-57026564D01*
X30964244Y-57026568D01*
X30988685Y-57057404D01*
X31077177Y-57169052D01*
X31081871Y-57173047D01*
X31190462Y-57265465D01*
X31220324Y-57290880D01*
X31384409Y-57382584D01*
X31563180Y-57440670D01*
X31749830Y-57462927D01*
X31755965Y-57462455D01*
X31755967Y-57462455D01*
X31931105Y-57448979D01*
X31931109Y-57448978D01*
X31937247Y-57448506D01*
X32002302Y-57430342D01*
X32112117Y-57399681D01*
X32183107Y-57400627D01*
X32242316Y-57439803D01*
X32270946Y-57504771D01*
X32272001Y-57521039D01*
X32272001Y-57607349D01*
X32251999Y-57675470D01*
X32221566Y-57708175D01*
X32125668Y-57780047D01*
X32116739Y-57786739D01*
X32029385Y-57903295D01*
X31978255Y-58039684D01*
X31971500Y-58101866D01*
X31971500Y-59198134D01*
X31978255Y-59260316D01*
X32029385Y-59396705D01*
X32116739Y-59513261D01*
X32233295Y-59600615D01*
X32369684Y-59651745D01*
X32431866Y-59658500D01*
X33328134Y-59658500D01*
X33390316Y-59651745D01*
X33526705Y-59600615D01*
X33643261Y-59513261D01*
X33730615Y-59396705D01*
X33781745Y-59260316D01*
X33788500Y-59198134D01*
X33788500Y-58233999D01*
X33808502Y-58165878D01*
X33862158Y-58119385D01*
X33914500Y-58107999D01*
X34324669Y-58107999D01*
X34331490Y-58107629D01*
X34382352Y-58102105D01*
X34397604Y-58098479D01*
X34518054Y-58053324D01*
X34533649Y-58044786D01*
X34635724Y-57968285D01*
X34648285Y-57955724D01*
X34724786Y-57853649D01*
X34733324Y-57838054D01*
X34778478Y-57717606D01*
X34782105Y-57702351D01*
X34787631Y-57651486D01*
X34788000Y-57644672D01*
X34788000Y-57522115D01*
X34783525Y-57506876D01*
X34782135Y-57505671D01*
X34774452Y-57504000D01*
X33402000Y-57504000D01*
X33333879Y-57483998D01*
X33287386Y-57430342D01*
X33276000Y-57378000D01*
X33276000Y-57122000D01*
X33296002Y-57053879D01*
X33349658Y-57007386D01*
X33402000Y-56996000D01*
X34769884Y-56996000D01*
X34785123Y-56991525D01*
X34786328Y-56990135D01*
X34787999Y-56982452D01*
X34787999Y-56855331D01*
X34787629Y-56848510D01*
X34782105Y-56797648D01*
X34778479Y-56782397D01*
X34739616Y-56678730D01*
X34734433Y-56607923D01*
X34768354Y-56545554D01*
X34830609Y-56511424D01*
X34857598Y-56508500D01*
X34886643Y-56508500D01*
X34921796Y-56513503D01*
X34936397Y-56517745D01*
X34963534Y-56525629D01*
X34969941Y-56526133D01*
X34969945Y-56526134D01*
X34997556Y-56528307D01*
X34997562Y-56528307D01*
X35000011Y-56528500D01*
X35249848Y-56528500D01*
X35499988Y-56528499D01*
X35536466Y-56525629D01*
X35649822Y-56492696D01*
X35684983Y-56482481D01*
X35684985Y-56482480D01*
X35692596Y-56480269D01*
X35711856Y-56468879D01*
X35825720Y-56401540D01*
X35832541Y-56397506D01*
X35947506Y-56282541D01*
X36006574Y-56182663D01*
X36026234Y-56149419D01*
X36026234Y-56149418D01*
X36030269Y-56142596D01*
X36036500Y-56121151D01*
X36073834Y-55992644D01*
X36075629Y-55986466D01*
X36077614Y-55961255D01*
X36078307Y-55952444D01*
X36078307Y-55952438D01*
X36078500Y-55949989D01*
X36078499Y-55550012D01*
X36075629Y-55513534D01*
X36074844Y-55510833D01*
X36076466Y-55495438D01*
X43367000Y-55495438D01*
X43367337Y-55501953D01*
X43376894Y-55594057D01*
X43379788Y-55607456D01*
X43429381Y-55756107D01*
X43435555Y-55769286D01*
X43517788Y-55902173D01*
X43526824Y-55913574D01*
X43637429Y-56023986D01*
X43648840Y-56032998D01*
X43781880Y-56115004D01*
X43795061Y-56121151D01*
X43943814Y-56170491D01*
X43957190Y-56173358D01*
X44048097Y-56182672D01*
X44054513Y-56183000D01*
X44077885Y-56183000D01*
X44093124Y-56178525D01*
X44094329Y-56177135D01*
X44096000Y-56169452D01*
X44096000Y-56164885D01*
X44604000Y-56164885D01*
X44608475Y-56180124D01*
X44609865Y-56181329D01*
X44617548Y-56183000D01*
X44645438Y-56183000D01*
X44651953Y-56182663D01*
X44744057Y-56173106D01*
X44757456Y-56170212D01*
X44906107Y-56120619D01*
X44919286Y-56114445D01*
X45052173Y-56032212D01*
X45063574Y-56023176D01*
X45173986Y-55912571D01*
X45182998Y-55901160D01*
X45265004Y-55768120D01*
X45271151Y-55754939D01*
X45320491Y-55606186D01*
X45323358Y-55592810D01*
X45332672Y-55501903D01*
X45332929Y-55496874D01*
X45328525Y-55481876D01*
X45327135Y-55480671D01*
X45319452Y-55479000D01*
X44622115Y-55479000D01*
X44606876Y-55483475D01*
X44605671Y-55484865D01*
X44604000Y-55492548D01*
X44604000Y-56164885D01*
X44096000Y-56164885D01*
X44096000Y-55497115D01*
X44091525Y-55481876D01*
X44090135Y-55480671D01*
X44082452Y-55479000D01*
X43385115Y-55479000D01*
X43369876Y-55483475D01*
X43368671Y-55484865D01*
X43367000Y-55492548D01*
X43367000Y-55495438D01*
X36076466Y-55495438D01*
X36082147Y-55441528D01*
X36126578Y-55386153D01*
X36198657Y-55363500D01*
X37191233Y-55363500D01*
X37202416Y-55364027D01*
X37209909Y-55365702D01*
X37217835Y-55365453D01*
X37217836Y-55365453D01*
X37277986Y-55363562D01*
X37281945Y-55363500D01*
X37309856Y-55363500D01*
X37313791Y-55363003D01*
X37313856Y-55362995D01*
X37325693Y-55362062D01*
X37357951Y-55361048D01*
X37361970Y-55360922D01*
X37369889Y-55360673D01*
X37389343Y-55355021D01*
X37408700Y-55351013D01*
X37420930Y-55349468D01*
X37420931Y-55349468D01*
X37428797Y-55348474D01*
X37436168Y-55345555D01*
X37436170Y-55345555D01*
X37469912Y-55332196D01*
X37481142Y-55328351D01*
X37515983Y-55318229D01*
X37515984Y-55318229D01*
X37523593Y-55316018D01*
X37530412Y-55311985D01*
X37530417Y-55311983D01*
X37541028Y-55305707D01*
X37558776Y-55297012D01*
X37577617Y-55289552D01*
X37584472Y-55284572D01*
X37613387Y-55263564D01*
X37623307Y-55257048D01*
X37654535Y-55238580D01*
X37654538Y-55238578D01*
X37661362Y-55234542D01*
X37675683Y-55220221D01*
X37690717Y-55207380D01*
X37700693Y-55200132D01*
X37707107Y-55195472D01*
X37735288Y-55161407D01*
X37743278Y-55152626D01*
X38392258Y-54503647D01*
X38400537Y-54496113D01*
X38407018Y-54492000D01*
X38453644Y-54442348D01*
X38456398Y-54439507D01*
X38476135Y-54419770D01*
X38478615Y-54416573D01*
X38486320Y-54407551D01*
X38516586Y-54375321D01*
X38520405Y-54368375D01*
X38520407Y-54368372D01*
X38526348Y-54357566D01*
X38537199Y-54341047D01*
X38544758Y-54331301D01*
X38549614Y-54325041D01*
X38552759Y-54317772D01*
X38552762Y-54317768D01*
X38567174Y-54284463D01*
X38572391Y-54273813D01*
X38593695Y-54235060D01*
X38598733Y-54215437D01*
X38605137Y-54196734D01*
X38610033Y-54185420D01*
X38610033Y-54185419D01*
X38613181Y-54178145D01*
X38614420Y-54170322D01*
X38614423Y-54170312D01*
X38620099Y-54134476D01*
X38622505Y-54122856D01*
X38631528Y-54087711D01*
X38631528Y-54087710D01*
X38633500Y-54080030D01*
X38633500Y-54059776D01*
X38635051Y-54040065D01*
X38636980Y-54027886D01*
X38638220Y-54020057D01*
X38634059Y-53976038D01*
X38633500Y-53964181D01*
X38633500Y-47314594D01*
X38653502Y-47246473D01*
X38670405Y-47225499D01*
X39225499Y-46670405D01*
X39287811Y-46636379D01*
X39314594Y-46633500D01*
X46185406Y-46633500D01*
X46253527Y-46653502D01*
X46274501Y-46670405D01*
X46467095Y-46862999D01*
X46501121Y-46925311D01*
X46504000Y-46952094D01*
X46504000Y-49250224D01*
X46483998Y-49318345D01*
X46430342Y-49364838D01*
X46394445Y-49375146D01*
X46349337Y-49381084D01*
X46349335Y-49381084D01*
X46341150Y-49382162D01*
X46267137Y-49412819D01*
X46200752Y-49440316D01*
X46200750Y-49440317D01*
X46193124Y-49443476D01*
X46186574Y-49448502D01*
X46133500Y-49489228D01*
X46066013Y-49541013D01*
X46060987Y-49547563D01*
X46060984Y-49547566D01*
X46039687Y-49575321D01*
X45968476Y-49668125D01*
X45907162Y-49816150D01*
X45891500Y-49935115D01*
X45891500Y-49965500D01*
X45871498Y-50033621D01*
X45817842Y-50080114D01*
X45765500Y-50091500D01*
X43626000Y-50091500D01*
X43557879Y-50071498D01*
X43511386Y-50017842D01*
X43500000Y-49965500D01*
X43500000Y-47250000D01*
X41872111Y-47250000D01*
X41836959Y-47244997D01*
X41831396Y-47243381D01*
X41817295Y-47243421D01*
X41814314Y-47250000D01*
X41304108Y-47250000D01*
X41302027Y-47242911D01*
X41294129Y-47241776D01*
X41283041Y-47244997D01*
X41247889Y-47250000D01*
X40913902Y-47250000D01*
X40878751Y-47244997D01*
X40842254Y-47234394D01*
X40835844Y-47233889D01*
X40835841Y-47233889D01*
X40807940Y-47231693D01*
X40807932Y-47231693D01*
X40805484Y-47231500D01*
X40394516Y-47231500D01*
X40392068Y-47231693D01*
X40392060Y-47231693D01*
X40364159Y-47233889D01*
X40364156Y-47233889D01*
X40357746Y-47234394D01*
X40321249Y-47244997D01*
X40286098Y-47250000D01*
X39250000Y-47250000D01*
X39250000Y-54250000D01*
X43383772Y-54250000D01*
X43451893Y-54270002D01*
X43490916Y-54309697D01*
X43521248Y-54358713D01*
X43526430Y-54363886D01*
X43530977Y-54369623D01*
X43529170Y-54371055D01*
X43557902Y-54423575D01*
X43552892Y-54494395D01*
X43529501Y-54530853D01*
X43530552Y-54531683D01*
X43517002Y-54548840D01*
X43434996Y-54681880D01*
X43428849Y-54695061D01*
X43379509Y-54843814D01*
X43376642Y-54857190D01*
X43367328Y-54948097D01*
X43367071Y-54953126D01*
X43371475Y-54968124D01*
X43372865Y-54969329D01*
X43380548Y-54971000D01*
X45327885Y-54971000D01*
X45343124Y-54966525D01*
X45344329Y-54965135D01*
X45346000Y-54957452D01*
X45346000Y-54314500D01*
X45366002Y-54246379D01*
X45419658Y-54199886D01*
X45472000Y-54188500D01*
X45728000Y-54188500D01*
X45796121Y-54208502D01*
X45842614Y-54262158D01*
X45854000Y-54314500D01*
X45854000Y-55128424D01*
X45862375Y-55156946D01*
X45886396Y-55194323D01*
X45891500Y-55229821D01*
X45891501Y-55323831D01*
X45891501Y-55414884D01*
X45892039Y-55418969D01*
X45892039Y-55418973D01*
X45906084Y-55525663D01*
X45907162Y-55533850D01*
X45913890Y-55550092D01*
X45914589Y-55551780D01*
X45922179Y-55622370D01*
X45914590Y-55648218D01*
X45907162Y-55666150D01*
X45906084Y-55674338D01*
X45902977Y-55697942D01*
X45891500Y-55785115D01*
X45891501Y-56064884D01*
X45892039Y-56068969D01*
X45892039Y-56068973D01*
X45906084Y-56175663D01*
X45907162Y-56183850D01*
X45923696Y-56223766D01*
X45958628Y-56308100D01*
X45968476Y-56331876D01*
X46066013Y-56458987D01*
X46066618Y-56459451D01*
X46098981Y-56518718D01*
X46093916Y-56589533D01*
X46051369Y-56646369D01*
X45984849Y-56671180D01*
X45975865Y-56671501D01*
X45910012Y-56671501D01*
X45873534Y-56674371D01*
X45786007Y-56699800D01*
X45725017Y-56717519D01*
X45725015Y-56717520D01*
X45717404Y-56719731D01*
X45710582Y-56723766D01*
X45710581Y-56723766D01*
X45650227Y-56759459D01*
X45577459Y-56802494D01*
X45462494Y-56917459D01*
X45458460Y-56924280D01*
X45400823Y-57021740D01*
X45379731Y-57057404D01*
X45334371Y-57213534D01*
X45333867Y-57219941D01*
X45333866Y-57219945D01*
X45331693Y-57247556D01*
X45331500Y-57250011D01*
X45331501Y-57749988D01*
X45334371Y-57786466D01*
X45379731Y-57942596D01*
X45383766Y-57949418D01*
X45383766Y-57949419D01*
X45397529Y-57972691D01*
X45414988Y-58041507D01*
X45392471Y-58108839D01*
X45378171Y-58125924D01*
X45207742Y-58296353D01*
X45199463Y-58303887D01*
X45192982Y-58308000D01*
X45150436Y-58353307D01*
X45146357Y-58357651D01*
X45143602Y-58360493D01*
X45123865Y-58380230D01*
X45121385Y-58383427D01*
X45113682Y-58392447D01*
X45083414Y-58424679D01*
X45079595Y-58431625D01*
X45079593Y-58431628D01*
X45073652Y-58442434D01*
X45062801Y-58458953D01*
X45050386Y-58474959D01*
X45047241Y-58482228D01*
X45047238Y-58482232D01*
X45032826Y-58515537D01*
X45027609Y-58526187D01*
X45006305Y-58564940D01*
X45004334Y-58572615D01*
X45004334Y-58572616D01*
X45001267Y-58584562D01*
X44994863Y-58603266D01*
X44990341Y-58613717D01*
X44986819Y-58621855D01*
X44985580Y-58629678D01*
X44985577Y-58629688D01*
X44979901Y-58665524D01*
X44977495Y-58677144D01*
X44969921Y-58706644D01*
X44966500Y-58719970D01*
X44966500Y-58740224D01*
X44964949Y-58759934D01*
X44961780Y-58779943D01*
X44962526Y-58787835D01*
X44965941Y-58823961D01*
X44966500Y-58835819D01*
X44966500Y-65585405D01*
X44946498Y-65653526D01*
X44929595Y-65674501D01*
X44811999Y-65792096D01*
X44749687Y-65826121D01*
X44722904Y-65829000D01*
X39671647Y-65829000D01*
X39603526Y-65808998D01*
X39580694Y-65788320D01*
X39580071Y-65788945D01*
X39465233Y-65674307D01*
X39460053Y-65669136D01*
X39315692Y-65580151D01*
X39253435Y-65559501D01*
X39161262Y-65528928D01*
X39161260Y-65528928D01*
X39154731Y-65526762D01*
X39054572Y-65516500D01*
X38445428Y-65516500D01*
X38442182Y-65516837D01*
X38442178Y-65516837D01*
X38408397Y-65520342D01*
X38344018Y-65527022D01*
X38183151Y-65580692D01*
X38038945Y-65669929D01*
X37919136Y-65789947D01*
X37830151Y-65934308D01*
X37827846Y-65941256D01*
X37827846Y-65941257D01*
X37787917Y-66061639D01*
X37776762Y-66095269D01*
X37766500Y-66195428D01*
X37766500Y-66729572D01*
X37777022Y-66830982D01*
X37830692Y-66991849D01*
X37919929Y-67136055D01*
X37925107Y-67141224D01*
X37945159Y-67161241D01*
X37979238Y-67223523D01*
X37974235Y-67294343D01*
X37945314Y-67339432D01*
X37924702Y-67360080D01*
X37915690Y-67371491D01*
X37834447Y-67503291D01*
X37828303Y-67516468D01*
X37779421Y-67663843D01*
X37776555Y-67677210D01*
X37767386Y-67766700D01*
X37771475Y-67780624D01*
X37772865Y-67781829D01*
X37780548Y-67783500D01*
X39714885Y-67783500D01*
X39730124Y-67779025D01*
X39731329Y-67777635D01*
X39732842Y-67770679D01*
X39732663Y-67767218D01*
X39723196Y-67675979D01*
X39720303Y-67662583D01*
X39671170Y-67515313D01*
X39664996Y-67502134D01*
X39583530Y-67370486D01*
X39574494Y-67359085D01*
X39554842Y-67339467D01*
X39520763Y-67277184D01*
X39525766Y-67206364D01*
X39554686Y-67161277D01*
X39580863Y-67135054D01*
X39582695Y-67136882D01*
X39630723Y-67102840D01*
X39671673Y-67096000D01*
X44958733Y-67096000D01*
X44969916Y-67096527D01*
X44977409Y-67098202D01*
X44985335Y-67097953D01*
X44985336Y-67097953D01*
X45045486Y-67096062D01*
X45049445Y-67096000D01*
X45077356Y-67096000D01*
X45081291Y-67095503D01*
X45081356Y-67095495D01*
X45093193Y-67094562D01*
X45125451Y-67093548D01*
X45129470Y-67093422D01*
X45137389Y-67093173D01*
X45156843Y-67087521D01*
X45176200Y-67083513D01*
X45188430Y-67081968D01*
X45188431Y-67081968D01*
X45196297Y-67080974D01*
X45203668Y-67078055D01*
X45203670Y-67078055D01*
X45237412Y-67064696D01*
X45248642Y-67060851D01*
X45283483Y-67050729D01*
X45283484Y-67050729D01*
X45291093Y-67048518D01*
X45297912Y-67044485D01*
X45297917Y-67044483D01*
X45308528Y-67038207D01*
X45326276Y-67029512D01*
X45345117Y-67022052D01*
X45380887Y-66996064D01*
X45390807Y-66989548D01*
X45422035Y-66971080D01*
X45422038Y-66971078D01*
X45428862Y-66967042D01*
X45443183Y-66952721D01*
X45458217Y-66939880D01*
X45468193Y-66932632D01*
X45474607Y-66927972D01*
X45502788Y-66893907D01*
X45510778Y-66885126D01*
X45992258Y-66403647D01*
X46000537Y-66396113D01*
X46007018Y-66392000D01*
X46053644Y-66342348D01*
X46056398Y-66339507D01*
X46076135Y-66319770D01*
X46078615Y-66316573D01*
X46086320Y-66307551D01*
X46111159Y-66281100D01*
X46116586Y-66275321D01*
X46120405Y-66268375D01*
X46120407Y-66268372D01*
X46126348Y-66257566D01*
X46137199Y-66241047D01*
X46144758Y-66231301D01*
X46149614Y-66225041D01*
X46152759Y-66217772D01*
X46152762Y-66217768D01*
X46167174Y-66184463D01*
X46172391Y-66173813D01*
X46193695Y-66135060D01*
X46198733Y-66115437D01*
X46205137Y-66096734D01*
X46210033Y-66085420D01*
X46210033Y-66085419D01*
X46213181Y-66078145D01*
X46214420Y-66070322D01*
X46214423Y-66070312D01*
X46220099Y-66034476D01*
X46222505Y-66022856D01*
X46231528Y-65987711D01*
X46231528Y-65987710D01*
X46233500Y-65980030D01*
X46233500Y-65959776D01*
X46235051Y-65940065D01*
X46236980Y-65927886D01*
X46238220Y-65920057D01*
X46234059Y-65876038D01*
X46233500Y-65864181D01*
X46233500Y-59114595D01*
X46253502Y-59046474D01*
X46270405Y-59025499D01*
X46385947Y-58909958D01*
X46502258Y-58793647D01*
X46510537Y-58786113D01*
X46517018Y-58782000D01*
X46563644Y-58732348D01*
X46566398Y-58729507D01*
X46586135Y-58709770D01*
X46588615Y-58706573D01*
X46596320Y-58697551D01*
X46610688Y-58682251D01*
X46626586Y-58665321D01*
X46630405Y-58658375D01*
X46630407Y-58658372D01*
X46636348Y-58647566D01*
X46647199Y-58631047D01*
X46648253Y-58629688D01*
X46659614Y-58615041D01*
X46662759Y-58607772D01*
X46662762Y-58607768D01*
X46677174Y-58574463D01*
X46682391Y-58563813D01*
X46703695Y-58525060D01*
X46708733Y-58505437D01*
X46715137Y-58486734D01*
X46720033Y-58475420D01*
X46720033Y-58475419D01*
X46723181Y-58468145D01*
X46729897Y-58425742D01*
X46760310Y-58361590D01*
X46820578Y-58324063D01*
X46880705Y-58324405D01*
X46881021Y-58322677D01*
X46887357Y-58323834D01*
X46893534Y-58325629D01*
X46899941Y-58326133D01*
X46899945Y-58326134D01*
X46927556Y-58328307D01*
X46927562Y-58328307D01*
X46930011Y-58328500D01*
X47129878Y-58328500D01*
X47329988Y-58328499D01*
X47366466Y-58325629D01*
X47467648Y-58296233D01*
X47514983Y-58282481D01*
X47514985Y-58282480D01*
X47522596Y-58280269D01*
X47662541Y-58197506D01*
X47777506Y-58082541D01*
X47796893Y-58049760D01*
X47856234Y-57949419D01*
X47856234Y-57949418D01*
X47860269Y-57942596D01*
X47905629Y-57786466D01*
X47906135Y-57780047D01*
X47908307Y-57752444D01*
X47908307Y-57752438D01*
X47908500Y-57749989D01*
X47908499Y-57250012D01*
X47905629Y-57213534D01*
X47860269Y-57057404D01*
X47781046Y-56923445D01*
X47763500Y-56859306D01*
X47763500Y-56750763D01*
X47783502Y-56682642D01*
X47837158Y-56636149D01*
X47873054Y-56625841D01*
X47897837Y-56622579D01*
X47925663Y-56618916D01*
X47925665Y-56618916D01*
X47933850Y-56617838D01*
X48012341Y-56585326D01*
X48074248Y-56559684D01*
X48074250Y-56559683D01*
X48081876Y-56556524D01*
X48118397Y-56528500D01*
X48202436Y-56464014D01*
X48202437Y-56464013D01*
X48208987Y-56458987D01*
X48214013Y-56452437D01*
X48214016Y-56452434D01*
X48282625Y-56363020D01*
X48306524Y-56331875D01*
X48367838Y-56183850D01*
X48368873Y-56175989D01*
X48405744Y-56115498D01*
X48469605Y-56084476D01*
X48540099Y-56092904D01*
X48594846Y-56138106D01*
X48616500Y-56208731D01*
X48616500Y-63816484D01*
X48596498Y-63884605D01*
X48542842Y-63931098D01*
X48472568Y-63941202D01*
X48452829Y-63936720D01*
X48330062Y-63898247D01*
X48256635Y-63891500D01*
X48253737Y-63891500D01*
X47999335Y-63891501D01*
X47743366Y-63891501D01*
X47740508Y-63891764D01*
X47740499Y-63891764D01*
X47704996Y-63895026D01*
X47669938Y-63898247D01*
X47663560Y-63900246D01*
X47663559Y-63900246D01*
X47513550Y-63947256D01*
X47513548Y-63947257D01*
X47506301Y-63949528D01*
X47359619Y-64038361D01*
X47238361Y-64159619D01*
X47149528Y-64306301D01*
X47098247Y-64469938D01*
X47091500Y-64543365D01*
X47091501Y-65556634D01*
X47091764Y-65559492D01*
X47091764Y-65559501D01*
X47094065Y-65584542D01*
X47098247Y-65630062D01*
X47100246Y-65636440D01*
X47100246Y-65636441D01*
X47112113Y-65674307D01*
X47149528Y-65793699D01*
X47238361Y-65940381D01*
X47359619Y-66061639D01*
X47506301Y-66150472D01*
X47513548Y-66152743D01*
X47513550Y-66152744D01*
X47556198Y-66166109D01*
X47669938Y-66201753D01*
X47743365Y-66208500D01*
X47746263Y-66208500D01*
X48000665Y-66208499D01*
X48256634Y-66208499D01*
X48259492Y-66208236D01*
X48259501Y-66208236D01*
X48295004Y-66204974D01*
X48330062Y-66201753D01*
X48336447Y-66199752D01*
X48486450Y-66152744D01*
X48486452Y-66152743D01*
X48493699Y-66150472D01*
X48630018Y-66067915D01*
X48698648Y-66049736D01*
X48769350Y-66073755D01*
X48787308Y-66086802D01*
X48793248Y-66091118D01*
X48799276Y-66093802D01*
X48799278Y-66093803D01*
X48946844Y-66159503D01*
X48967712Y-66168794D01*
X49061113Y-66188647D01*
X49148056Y-66207128D01*
X49148061Y-66207128D01*
X49154513Y-66208500D01*
X49345487Y-66208500D01*
X49351939Y-66207128D01*
X49351944Y-66207128D01*
X49438887Y-66188647D01*
X49532288Y-66168794D01*
X49553156Y-66159503D01*
X49700722Y-66093803D01*
X49700724Y-66093802D01*
X49706752Y-66091118D01*
X49712693Y-66086802D01*
X49800939Y-66022687D01*
X49867807Y-65998828D01*
X49936958Y-66014909D01*
X49949061Y-66022687D01*
X50037308Y-66086802D01*
X50043248Y-66091118D01*
X50049276Y-66093802D01*
X50049278Y-66093803D01*
X50196844Y-66159503D01*
X50217712Y-66168794D01*
X50311113Y-66188647D01*
X50398056Y-66207128D01*
X50398061Y-66207128D01*
X50404513Y-66208500D01*
X50595487Y-66208500D01*
X50601939Y-66207128D01*
X50601944Y-66207128D01*
X50688887Y-66188647D01*
X50782288Y-66168794D01*
X50803156Y-66159503D01*
X50950722Y-66093803D01*
X50950724Y-66093802D01*
X50956752Y-66091118D01*
X51051366Y-66022377D01*
X51118230Y-65998520D01*
X51187382Y-66014600D01*
X51199485Y-66022378D01*
X51288157Y-66086802D01*
X51299529Y-66093368D01*
X51461839Y-66165633D01*
X51474325Y-66169690D01*
X51478278Y-66170530D01*
X51492341Y-66169457D01*
X51496000Y-66159503D01*
X51496000Y-66156182D01*
X52004000Y-66156182D01*
X52007973Y-66169713D01*
X52018468Y-66171222D01*
X52025675Y-66169690D01*
X52038161Y-66165633D01*
X52200471Y-66093368D01*
X52211843Y-66086802D01*
X52326773Y-66003301D01*
X62487359Y-66003301D01*
X62506257Y-66363896D01*
X62506945Y-66370440D01*
X62563433Y-66727099D01*
X62564802Y-66733537D01*
X62658260Y-67082328D01*
X62660300Y-67088605D01*
X62789704Y-67425714D01*
X62792380Y-67431725D01*
X62956317Y-67753468D01*
X62959613Y-67759177D01*
X63156279Y-68062016D01*
X63160146Y-68067338D01*
X63333678Y-68281634D01*
X63345933Y-68290100D01*
X63357024Y-68283766D01*
X65627978Y-66012812D01*
X65635592Y-65998868D01*
X65635461Y-65997035D01*
X65631210Y-65990420D01*
X63357890Y-63717100D01*
X63344814Y-63709960D01*
X63334446Y-63717418D01*
X63160146Y-63932662D01*
X63156279Y-63937984D01*
X62959613Y-64240823D01*
X62956317Y-64246532D01*
X62792380Y-64568275D01*
X62789704Y-64574286D01*
X62660300Y-64911395D01*
X62658260Y-64917672D01*
X62564802Y-65266463D01*
X62563433Y-65272901D01*
X62506945Y-65629560D01*
X62506257Y-65636104D01*
X62487359Y-65996699D01*
X62487359Y-66003301D01*
X52326773Y-66003301D01*
X52355574Y-65982376D01*
X52365337Y-65973585D01*
X52484214Y-65841558D01*
X52491938Y-65830927D01*
X52580765Y-65677074D01*
X52586111Y-65665066D01*
X52641011Y-65496102D01*
X52643741Y-65483261D01*
X52657656Y-65350862D01*
X52658000Y-65344302D01*
X52658000Y-65322115D01*
X52653525Y-65306876D01*
X52652135Y-65305671D01*
X52644452Y-65304000D01*
X52022115Y-65304000D01*
X52006876Y-65308475D01*
X52005671Y-65309865D01*
X52004000Y-65317548D01*
X52004000Y-66156182D01*
X51496000Y-66156182D01*
X51496000Y-64777885D01*
X52004000Y-64777885D01*
X52008475Y-64793124D01*
X52009865Y-64794329D01*
X52017548Y-64796000D01*
X52639885Y-64796000D01*
X52655124Y-64791525D01*
X52656329Y-64790135D01*
X52658000Y-64782452D01*
X52658000Y-64755698D01*
X52657656Y-64749138D01*
X52643741Y-64616739D01*
X52641011Y-64603898D01*
X52586111Y-64434934D01*
X52580765Y-64422926D01*
X52491938Y-64269073D01*
X52484214Y-64258442D01*
X52365337Y-64126415D01*
X52355574Y-64117624D01*
X52211843Y-64013198D01*
X52200471Y-64006632D01*
X52038161Y-63934367D01*
X52025675Y-63930310D01*
X52021722Y-63929470D01*
X52007659Y-63930543D01*
X52004000Y-63940497D01*
X52004000Y-64777885D01*
X51496000Y-64777885D01*
X51496000Y-63943818D01*
X51492027Y-63930287D01*
X51481532Y-63928778D01*
X51474325Y-63930310D01*
X51461839Y-63934367D01*
X51299529Y-64006632D01*
X51288156Y-64013199D01*
X51282313Y-64017444D01*
X51215445Y-64041303D01*
X51146294Y-64025224D01*
X51096813Y-63974310D01*
X51091526Y-63961230D01*
X51091378Y-63961294D01*
X51088229Y-63954017D01*
X51086018Y-63946406D01*
X51081985Y-63939587D01*
X51081983Y-63939582D01*
X51075707Y-63928971D01*
X51067010Y-63911221D01*
X51059552Y-63892383D01*
X51033571Y-63856623D01*
X51027053Y-63846701D01*
X51008578Y-63815460D01*
X51008574Y-63815455D01*
X51004542Y-63808637D01*
X50990218Y-63794313D01*
X50977376Y-63779278D01*
X50965472Y-63762893D01*
X50931406Y-63734711D01*
X50922627Y-63726722D01*
X50541838Y-63345933D01*
X63709900Y-63345933D01*
X63716234Y-63357024D01*
X65987188Y-65627978D01*
X66001132Y-65635592D01*
X66002965Y-65635461D01*
X66009580Y-65631210D01*
X68282900Y-63357890D01*
X68290040Y-63344814D01*
X68282582Y-63334446D01*
X68067338Y-63160146D01*
X68062016Y-63156279D01*
X67759177Y-62959613D01*
X67753468Y-62956317D01*
X67431725Y-62792380D01*
X67425714Y-62789704D01*
X67088605Y-62660300D01*
X67082328Y-62658260D01*
X66733537Y-62564802D01*
X66727099Y-62563433D01*
X66370440Y-62506945D01*
X66363896Y-62506257D01*
X66003301Y-62487359D01*
X65996699Y-62487359D01*
X65636104Y-62506257D01*
X65629560Y-62506945D01*
X65272901Y-62563433D01*
X65266463Y-62564802D01*
X64917672Y-62658260D01*
X64911395Y-62660300D01*
X64574286Y-62789704D01*
X64568275Y-62792380D01*
X64246532Y-62956317D01*
X64240823Y-62959613D01*
X63937984Y-63156279D01*
X63932662Y-63160146D01*
X63718366Y-63333678D01*
X63709900Y-63345933D01*
X50541838Y-63345933D01*
X50470405Y-63274500D01*
X50436379Y-63212188D01*
X50433500Y-63185405D01*
X50433500Y-61418775D01*
X65904937Y-61418775D01*
X65906688Y-61428359D01*
X65948357Y-61571784D01*
X65954604Y-61586220D01*
X66029876Y-61713499D01*
X66039516Y-61725926D01*
X66144074Y-61830484D01*
X66156501Y-61840124D01*
X66283780Y-61915396D01*
X66298216Y-61921643D01*
X66418605Y-61956619D01*
X66432705Y-61956579D01*
X66436000Y-61949309D01*
X66436000Y-61422115D01*
X66431525Y-61406876D01*
X66430135Y-61405671D01*
X66422452Y-61404000D01*
X65921576Y-61404000D01*
X65906781Y-61408344D01*
X65904937Y-61418775D01*
X50433500Y-61418775D01*
X50433500Y-59310566D01*
X50453502Y-59242445D01*
X50507158Y-59195952D01*
X50577432Y-59185848D01*
X50642012Y-59215342D01*
X50661435Y-59236504D01*
X50666443Y-59243397D01*
X50672952Y-59253307D01*
X50695458Y-59291362D01*
X50709779Y-59305683D01*
X50722619Y-59320716D01*
X50734528Y-59337107D01*
X50753087Y-59352460D01*
X50768593Y-59365288D01*
X50777374Y-59373278D01*
X51196353Y-59792258D01*
X51203887Y-59800537D01*
X51208000Y-59807018D01*
X51257651Y-59853643D01*
X51260493Y-59856398D01*
X51280230Y-59876135D01*
X51283427Y-59878615D01*
X51292447Y-59886318D01*
X51324679Y-59916586D01*
X51331625Y-59920405D01*
X51331628Y-59920407D01*
X51342434Y-59926348D01*
X51358953Y-59937199D01*
X51374959Y-59949614D01*
X51382228Y-59952759D01*
X51382232Y-59952762D01*
X51415537Y-59967174D01*
X51426187Y-59972391D01*
X51464940Y-59993695D01*
X51472615Y-59995666D01*
X51472616Y-59995666D01*
X51484562Y-59998733D01*
X51503267Y-60005137D01*
X51521855Y-60013181D01*
X51529678Y-60014420D01*
X51529688Y-60014423D01*
X51565524Y-60020099D01*
X51577144Y-60022505D01*
X51612289Y-60031528D01*
X51619970Y-60033500D01*
X51640224Y-60033500D01*
X51659934Y-60035051D01*
X51679943Y-60038220D01*
X51687835Y-60037474D01*
X51723961Y-60034059D01*
X51735819Y-60033500D01*
X54341263Y-60033500D01*
X54409384Y-60053502D01*
X54430358Y-60070405D01*
X54457459Y-60097506D01*
X54464280Y-60101540D01*
X54480001Y-60110837D01*
X54597404Y-60180269D01*
X54605015Y-60182480D01*
X54605017Y-60182481D01*
X54695750Y-60208841D01*
X54753534Y-60225629D01*
X54759941Y-60226133D01*
X54759945Y-60226134D01*
X54787556Y-60228307D01*
X54787562Y-60228307D01*
X54790011Y-60228500D01*
X54989878Y-60228500D01*
X55189988Y-60228499D01*
X55226466Y-60225629D01*
X55323270Y-60197505D01*
X55374983Y-60182481D01*
X55374985Y-60182480D01*
X55382596Y-60180269D01*
X55389421Y-60176233D01*
X55389425Y-60176231D01*
X55435861Y-60148769D01*
X55504677Y-60131309D01*
X55564139Y-60148769D01*
X55610575Y-60176231D01*
X55610579Y-60176233D01*
X55617404Y-60180269D01*
X55625015Y-60182480D01*
X55625017Y-60182481D01*
X55715750Y-60208841D01*
X55773534Y-60225629D01*
X55779941Y-60226133D01*
X55779945Y-60226134D01*
X55807556Y-60228307D01*
X55807562Y-60228307D01*
X55810011Y-60228500D01*
X56009878Y-60228500D01*
X56209988Y-60228499D01*
X56246466Y-60225629D01*
X56343270Y-60197505D01*
X56394983Y-60182481D01*
X56394985Y-60182480D01*
X56402596Y-60180269D01*
X56520000Y-60110837D01*
X56535720Y-60101540D01*
X56542541Y-60097506D01*
X56569642Y-60070405D01*
X56631954Y-60036379D01*
X56658737Y-60033500D01*
X57585406Y-60033500D01*
X57653527Y-60053502D01*
X57674501Y-60070405D01*
X57996343Y-60392247D01*
X58003887Y-60400537D01*
X58008000Y-60407018D01*
X58013777Y-60412443D01*
X58057667Y-60453658D01*
X58060509Y-60456413D01*
X58080230Y-60476134D01*
X58083425Y-60478612D01*
X58092447Y-60486318D01*
X58124679Y-60516586D01*
X58131628Y-60520406D01*
X58142432Y-60526346D01*
X58158956Y-60537199D01*
X58174959Y-60549613D01*
X58215543Y-60567176D01*
X58226173Y-60572383D01*
X58264940Y-60593695D01*
X58272617Y-60595666D01*
X58272622Y-60595668D01*
X58284558Y-60598732D01*
X58303266Y-60605137D01*
X58321855Y-60613181D01*
X58329683Y-60614421D01*
X58329690Y-60614423D01*
X58365524Y-60620099D01*
X58377144Y-60622505D01*
X58412289Y-60631528D01*
X58419970Y-60633500D01*
X58440224Y-60633500D01*
X58459934Y-60635051D01*
X58479943Y-60638220D01*
X58487835Y-60637474D01*
X58513467Y-60635051D01*
X58523962Y-60634059D01*
X58535819Y-60633500D01*
X64971768Y-60633500D01*
X65039889Y-60653502D01*
X65047333Y-60658674D01*
X65096108Y-60695229D01*
X65096110Y-60695230D01*
X65103295Y-60700615D01*
X65239684Y-60751745D01*
X65301866Y-60758500D01*
X65777976Y-60758500D01*
X65846097Y-60778502D01*
X65892590Y-60832158D01*
X65897679Y-60860942D01*
X65901157Y-60860211D01*
X65908052Y-60893031D01*
X65919513Y-60896000D01*
X66735500Y-60896000D01*
X66803621Y-60916002D01*
X66850114Y-60969658D01*
X66861500Y-61022000D01*
X66861500Y-61385484D01*
X66861693Y-61387932D01*
X66861693Y-61387940D01*
X66863184Y-61406876D01*
X66864394Y-61422254D01*
X66910106Y-61579597D01*
X66914141Y-61586419D01*
X66914141Y-61586420D01*
X66926454Y-61607240D01*
X66944000Y-61671379D01*
X66944000Y-61943558D01*
X66947973Y-61957089D01*
X66955871Y-61958224D01*
X67081784Y-61921643D01*
X67096222Y-61915395D01*
X67105372Y-61909984D01*
X67174188Y-61892526D01*
X67233647Y-61909985D01*
X67241531Y-61914647D01*
X67250403Y-61919894D01*
X67258014Y-61922105D01*
X67258016Y-61922106D01*
X67296513Y-61933290D01*
X67407746Y-61965606D01*
X67414151Y-61966110D01*
X67414156Y-61966111D01*
X67442060Y-61968307D01*
X67442068Y-61968307D01*
X67444516Y-61968500D01*
X67855484Y-61968500D01*
X67857932Y-61968307D01*
X67857940Y-61968307D01*
X67885844Y-61966111D01*
X67885849Y-61966110D01*
X67892254Y-61965606D01*
X67898430Y-61963812D01*
X67898434Y-61963811D01*
X68003490Y-61933290D01*
X68074486Y-61933493D01*
X68093083Y-61941488D01*
X68093248Y-61941118D01*
X68144218Y-61963811D01*
X68267712Y-62018794D01*
X68361112Y-62038647D01*
X68448056Y-62057128D01*
X68448061Y-62057128D01*
X68454513Y-62058500D01*
X68645487Y-62058500D01*
X68651939Y-62057128D01*
X68651944Y-62057128D01*
X68738888Y-62038647D01*
X68832288Y-62018794D01*
X68945251Y-61968500D01*
X69000722Y-61943803D01*
X69000724Y-61943802D01*
X69006752Y-61941118D01*
X69017527Y-61933290D01*
X69073633Y-61892526D01*
X69161253Y-61828866D01*
X69272365Y-61705463D01*
X69332810Y-61668225D01*
X69403794Y-61669577D01*
X69462778Y-61709091D01*
X69491036Y-61774221D01*
X69492000Y-61789775D01*
X69492000Y-64628315D01*
X69471998Y-64696436D01*
X69418342Y-64742929D01*
X69348068Y-64753033D01*
X69283488Y-64723539D01*
X69248369Y-64673469D01*
X69210299Y-64574292D01*
X69207620Y-64568275D01*
X69043683Y-64246532D01*
X69040387Y-64240823D01*
X68843721Y-63937984D01*
X68839854Y-63932662D01*
X68666322Y-63718366D01*
X68654067Y-63709900D01*
X68642976Y-63716234D01*
X63717100Y-68642110D01*
X63709960Y-68655186D01*
X63717418Y-68665554D01*
X63932662Y-68839854D01*
X63937984Y-68843721D01*
X64240823Y-69040387D01*
X64246532Y-69043683D01*
X64568275Y-69207620D01*
X64574292Y-69210299D01*
X64673469Y-69248369D01*
X64729897Y-69291455D01*
X64754074Y-69358208D01*
X64738323Y-69427435D01*
X64687645Y-69477157D01*
X64628315Y-69492000D01*
X35371685Y-69492000D01*
X35303564Y-69471998D01*
X35257071Y-69418342D01*
X35246967Y-69348068D01*
X35276461Y-69283488D01*
X35326531Y-69248369D01*
X35425708Y-69210299D01*
X35431725Y-69207620D01*
X35753468Y-69043683D01*
X35759177Y-69040387D01*
X36062016Y-68843721D01*
X36067338Y-68839854D01*
X36281634Y-68666322D01*
X36290100Y-68654067D01*
X36283766Y-68642976D01*
X35945111Y-68304321D01*
X37767158Y-68304321D01*
X37767337Y-68307782D01*
X37776804Y-68399021D01*
X37779697Y-68412417D01*
X37828830Y-68559687D01*
X37835004Y-68572866D01*
X37916470Y-68704514D01*
X37925506Y-68715915D01*
X38035080Y-68825298D01*
X38046491Y-68834310D01*
X38178291Y-68915553D01*
X38191468Y-68921697D01*
X38338843Y-68970579D01*
X38352210Y-68973445D01*
X38442270Y-68982672D01*
X38448685Y-68983000D01*
X38477885Y-68983000D01*
X38493124Y-68978525D01*
X38494329Y-68977135D01*
X38496000Y-68969452D01*
X38496000Y-68964885D01*
X39004000Y-68964885D01*
X39008475Y-68980124D01*
X39009865Y-68981329D01*
X39017548Y-68983000D01*
X39051266Y-68983000D01*
X39057782Y-68982663D01*
X39149021Y-68973196D01*
X39162417Y-68970303D01*
X39309687Y-68921170D01*
X39322866Y-68914996D01*
X39454514Y-68833530D01*
X39465915Y-68824494D01*
X39575298Y-68714920D01*
X39584310Y-68703509D01*
X39665553Y-68571709D01*
X39671697Y-68558532D01*
X39720579Y-68411157D01*
X39723445Y-68397790D01*
X39732614Y-68308300D01*
X39728525Y-68294376D01*
X39727135Y-68293171D01*
X39719452Y-68291500D01*
X39022115Y-68291500D01*
X39006876Y-68295975D01*
X39005671Y-68297365D01*
X39004000Y-68305048D01*
X39004000Y-68964885D01*
X38496000Y-68964885D01*
X38496000Y-68309615D01*
X38491525Y-68294376D01*
X38490135Y-68293171D01*
X38482452Y-68291500D01*
X37785115Y-68291500D01*
X37769876Y-68295975D01*
X37768671Y-68297365D01*
X37767158Y-68304321D01*
X35945111Y-68304321D01*
X33641922Y-66001132D01*
X34364408Y-66001132D01*
X34364539Y-66002965D01*
X34368790Y-66009580D01*
X36642110Y-68282900D01*
X36655186Y-68290040D01*
X36665554Y-68282582D01*
X36839854Y-68067338D01*
X36843721Y-68062016D01*
X37040387Y-67759177D01*
X37043683Y-67753468D01*
X37207620Y-67431725D01*
X37210296Y-67425714D01*
X37339700Y-67088605D01*
X37341740Y-67082328D01*
X37435198Y-66733537D01*
X37436567Y-66727099D01*
X37493055Y-66370440D01*
X37493743Y-66363896D01*
X37512641Y-66003301D01*
X37512641Y-65996699D01*
X37493743Y-65636104D01*
X37493055Y-65629560D01*
X37436567Y-65272901D01*
X37435198Y-65266463D01*
X37341740Y-64917672D01*
X37339700Y-64911395D01*
X37210296Y-64574286D01*
X37207620Y-64568275D01*
X37043683Y-64246532D01*
X37040387Y-64240823D01*
X36843721Y-63937984D01*
X36839854Y-63932662D01*
X36666322Y-63718366D01*
X36654067Y-63709900D01*
X36642976Y-63716234D01*
X34372022Y-65987188D01*
X34364408Y-66001132D01*
X33641922Y-66001132D01*
X31357890Y-63717100D01*
X31344814Y-63709960D01*
X31334446Y-63717418D01*
X31160146Y-63932662D01*
X31156279Y-63937984D01*
X30959613Y-64240823D01*
X30956317Y-64246532D01*
X30792380Y-64568275D01*
X30789701Y-64574292D01*
X30751631Y-64673469D01*
X30708545Y-64729897D01*
X30641792Y-64754074D01*
X30572565Y-64738323D01*
X30522843Y-64687645D01*
X30508000Y-64628315D01*
X30508000Y-63345933D01*
X31709900Y-63345933D01*
X31716234Y-63357024D01*
X33987188Y-65627978D01*
X34001132Y-65635592D01*
X34002965Y-65635461D01*
X34009580Y-65631210D01*
X36282900Y-63357890D01*
X36290040Y-63344814D01*
X36282582Y-63334446D01*
X36067338Y-63160146D01*
X36062016Y-63156279D01*
X35759177Y-62959613D01*
X35753468Y-62956317D01*
X35431725Y-62792380D01*
X35425714Y-62789704D01*
X35088605Y-62660300D01*
X35082328Y-62658260D01*
X34733537Y-62564802D01*
X34727099Y-62563433D01*
X34370440Y-62506945D01*
X34363896Y-62506257D01*
X34003301Y-62487359D01*
X33996699Y-62487359D01*
X33636104Y-62506257D01*
X33629560Y-62506945D01*
X33272901Y-62563433D01*
X33266463Y-62564802D01*
X32917672Y-62658260D01*
X32911395Y-62660300D01*
X32574286Y-62789704D01*
X32568275Y-62792380D01*
X32246532Y-62956317D01*
X32240823Y-62959613D01*
X31937984Y-63156279D01*
X31932662Y-63160146D01*
X31718366Y-63333678D01*
X31709900Y-63345933D01*
X30508000Y-63345933D01*
X30508000Y-59784500D01*
X30528002Y-59716379D01*
X30581658Y-59669886D01*
X30634000Y-59658500D01*
X31118134Y-59658500D01*
X31180316Y-59651745D01*
X31316705Y-59600615D01*
X31433261Y-59513261D01*
X31520615Y-59396705D01*
X31571745Y-59260316D01*
X31578500Y-59198134D01*
X31578500Y-58101866D01*
X31571745Y-58039684D01*
X31520615Y-57903295D01*
X31433261Y-57786739D01*
X31316705Y-57699385D01*
X31180316Y-57648255D01*
X31118134Y-57641500D01*
X30634000Y-57641500D01*
X30565879Y-57621498D01*
X30519386Y-57567842D01*
X30508000Y-57515500D01*
X30508000Y-53486552D01*
X30806956Y-53486552D01*
X30807472Y-53492696D01*
X30821395Y-53658500D01*
X30822685Y-53673865D01*
X30840960Y-53737596D01*
X30861148Y-53808000D01*
X30874497Y-53854555D01*
X30877312Y-53860032D01*
X30877313Y-53860035D01*
X30954681Y-54010577D01*
X30960418Y-54021740D01*
X30964241Y-54026564D01*
X30964244Y-54026568D01*
X31045977Y-54129688D01*
X31077177Y-54169052D01*
X31081871Y-54173047D01*
X31195793Y-54270002D01*
X31220324Y-54290880D01*
X31225702Y-54293886D01*
X31225704Y-54293887D01*
X31268434Y-54317768D01*
X31384409Y-54382584D01*
X31563180Y-54440670D01*
X31749830Y-54462927D01*
X31755965Y-54462455D01*
X31755967Y-54462455D01*
X31931105Y-54448979D01*
X31931109Y-54448978D01*
X31937247Y-54448506D01*
X32022378Y-54424737D01*
X32112350Y-54399616D01*
X32112353Y-54399615D01*
X32118294Y-54397956D01*
X32123798Y-54395176D01*
X32123800Y-54395175D01*
X32280574Y-54315983D01*
X32280576Y-54315982D01*
X32286075Y-54313204D01*
X32414901Y-54212554D01*
X32429343Y-54201271D01*
X32434199Y-54197477D01*
X32450886Y-54178145D01*
X32552994Y-54059852D01*
X32552995Y-54059850D01*
X32557023Y-54055184D01*
X32649870Y-53891744D01*
X32709203Y-53713382D01*
X32709976Y-53707262D01*
X32710130Y-53706585D01*
X32744727Y-53644589D01*
X32807349Y-53611138D01*
X32832999Y-53608500D01*
X34328134Y-53608500D01*
X34390316Y-53601745D01*
X34526705Y-53550615D01*
X34532926Y-53545952D01*
X34601691Y-53530912D01*
X34644091Y-53541493D01*
X34817712Y-53618794D01*
X34911113Y-53638647D01*
X34998056Y-53657128D01*
X34998061Y-53657128D01*
X35004513Y-53658500D01*
X35195487Y-53658500D01*
X35201939Y-53657128D01*
X35201944Y-53657128D01*
X35288888Y-53638647D01*
X35382288Y-53618794D01*
X35418665Y-53602598D01*
X35550722Y-53543803D01*
X35550724Y-53543802D01*
X35556752Y-53541118D01*
X35570800Y-53530912D01*
X35631855Y-53486552D01*
X35711253Y-53428866D01*
X35731893Y-53405943D01*
X35834621Y-53291852D01*
X35834622Y-53291851D01*
X35839040Y-53286944D01*
X35928423Y-53132128D01*
X35931223Y-53127279D01*
X35931224Y-53127278D01*
X35934527Y-53121556D01*
X35993542Y-52939928D01*
X35995042Y-52925662D01*
X36012814Y-52756565D01*
X36013504Y-52750000D01*
X35998474Y-52606994D01*
X35994232Y-52566635D01*
X35994232Y-52566633D01*
X35993542Y-52560072D01*
X35934527Y-52378444D01*
X35839040Y-52213056D01*
X35791954Y-52160761D01*
X35715675Y-52076045D01*
X35715674Y-52076044D01*
X35711253Y-52071134D01*
X35556752Y-51958882D01*
X35550724Y-51956198D01*
X35550722Y-51956197D01*
X35388319Y-51883891D01*
X35388318Y-51883891D01*
X35382288Y-51881206D01*
X35281247Y-51859729D01*
X35201944Y-51842872D01*
X35201939Y-51842872D01*
X35195487Y-51841500D01*
X35004513Y-51841500D01*
X34998061Y-51842872D01*
X34998056Y-51842872D01*
X34918753Y-51859729D01*
X34817712Y-51881206D01*
X34644092Y-51958506D01*
X34573727Y-51967940D01*
X34533099Y-51954177D01*
X34526705Y-51949385D01*
X34390316Y-51898255D01*
X34328134Y-51891500D01*
X33914500Y-51891500D01*
X33846379Y-51871498D01*
X33799886Y-51817842D01*
X33788500Y-51765500D01*
X33788500Y-50801866D01*
X33781745Y-50739684D01*
X33730615Y-50603295D01*
X33643261Y-50486739D01*
X33526705Y-50399385D01*
X33390316Y-50348255D01*
X33328134Y-50341500D01*
X32431866Y-50341500D01*
X32369684Y-50348255D01*
X32233295Y-50399385D01*
X32116739Y-50486739D01*
X32029385Y-50603295D01*
X31978255Y-50739684D01*
X31971500Y-50801866D01*
X31971500Y-51898134D01*
X31971869Y-51901531D01*
X31971960Y-51902365D01*
X31978255Y-51960316D01*
X32029385Y-52096705D01*
X32116739Y-52213261D01*
X32123919Y-52218642D01*
X32221065Y-52291449D01*
X32263580Y-52348308D01*
X32271500Y-52392275D01*
X32271500Y-52480923D01*
X32251498Y-52549044D01*
X32197842Y-52595537D01*
X32127568Y-52605641D01*
X32108247Y-52601290D01*
X31963666Y-52556534D01*
X31957541Y-52555890D01*
X31957540Y-52555890D01*
X31782852Y-52537529D01*
X31782851Y-52537529D01*
X31776724Y-52536885D01*
X31699673Y-52543897D01*
X31595665Y-52553363D01*
X31595662Y-52553364D01*
X31589526Y-52553922D01*
X31583620Y-52555660D01*
X31583616Y-52555661D01*
X31466022Y-52590271D01*
X31409202Y-52606994D01*
X31334565Y-52646013D01*
X31306468Y-52660702D01*
X31242621Y-52694080D01*
X31096128Y-52811864D01*
X31092170Y-52816582D01*
X31092167Y-52816584D01*
X31023050Y-52898955D01*
X30975302Y-52955859D01*
X30972338Y-52961251D01*
X30972335Y-52961255D01*
X30918792Y-53058650D01*
X30884746Y-53120580D01*
X30882885Y-53126447D01*
X30882884Y-53126449D01*
X30856328Y-53210166D01*
X30827909Y-53299752D01*
X30806956Y-53486552D01*
X30508000Y-53486552D01*
X30508000Y-52484500D01*
X30528002Y-52416379D01*
X30581658Y-52369886D01*
X30634000Y-52358500D01*
X31118134Y-52358500D01*
X31180316Y-52351745D01*
X31316705Y-52300615D01*
X31433261Y-52213261D01*
X31520615Y-52096705D01*
X31571745Y-51960316D01*
X31578040Y-51902365D01*
X31578131Y-51901531D01*
X31578500Y-51898134D01*
X31578500Y-50801866D01*
X31571745Y-50739684D01*
X31520615Y-50603295D01*
X31433261Y-50486739D01*
X31316705Y-50399385D01*
X31180316Y-50348255D01*
X31118134Y-50341500D01*
X30634000Y-50341500D01*
X30565879Y-50321498D01*
X30519386Y-50267842D01*
X30508000Y-50215500D01*
X30508000Y-45454669D01*
X31342001Y-45454669D01*
X31342371Y-45461490D01*
X31347895Y-45512352D01*
X31351521Y-45527604D01*
X31396676Y-45648054D01*
X31405214Y-45663649D01*
X31481715Y-45765724D01*
X31494276Y-45778285D01*
X31596351Y-45854786D01*
X31611946Y-45863324D01*
X31732394Y-45908478D01*
X31747649Y-45912105D01*
X31798514Y-45917631D01*
X31805328Y-45918000D01*
X32777885Y-45918000D01*
X32793124Y-45913525D01*
X32794329Y-45912135D01*
X32796000Y-45904452D01*
X32796000Y-45899884D01*
X33304000Y-45899884D01*
X33308475Y-45915123D01*
X33309865Y-45916328D01*
X33317548Y-45917999D01*
X34294669Y-45917999D01*
X34301490Y-45917629D01*
X34352352Y-45912105D01*
X34367604Y-45908479D01*
X34488054Y-45863324D01*
X34503649Y-45854786D01*
X34605724Y-45778285D01*
X34618285Y-45765724D01*
X34694786Y-45663649D01*
X34703324Y-45648054D01*
X34748478Y-45527606D01*
X34752105Y-45512351D01*
X34757631Y-45461486D01*
X34758000Y-45454672D01*
X34758000Y-45312115D01*
X34753525Y-45296876D01*
X34752135Y-45295671D01*
X34744452Y-45294000D01*
X33322115Y-45294000D01*
X33306876Y-45298475D01*
X33305671Y-45299865D01*
X33304000Y-45307548D01*
X33304000Y-45899884D01*
X32796000Y-45899884D01*
X32796000Y-45312115D01*
X32791525Y-45296876D01*
X32790135Y-45295671D01*
X32782452Y-45294000D01*
X31360116Y-45294000D01*
X31344877Y-45298475D01*
X31343672Y-45299865D01*
X31342001Y-45307548D01*
X31342001Y-45454669D01*
X30508000Y-45454669D01*
X30508000Y-44188134D01*
X31341500Y-44188134D01*
X31348255Y-44250316D01*
X31351027Y-44257712D01*
X31351029Y-44257718D01*
X31389929Y-44361483D01*
X31395112Y-44432290D01*
X31389929Y-44449941D01*
X31351522Y-44552391D01*
X31347895Y-44567649D01*
X31342369Y-44618514D01*
X31342000Y-44625328D01*
X31342000Y-44767885D01*
X31346475Y-44783124D01*
X31347865Y-44784329D01*
X31355548Y-44786000D01*
X34739884Y-44786000D01*
X34755123Y-44781525D01*
X34756328Y-44780135D01*
X34757999Y-44772452D01*
X34757999Y-44625331D01*
X34757629Y-44618510D01*
X34752105Y-44567648D01*
X34748478Y-44552393D01*
X34710071Y-44449941D01*
X34704888Y-44379134D01*
X34710071Y-44361483D01*
X34748971Y-44257718D01*
X34748973Y-44257712D01*
X34751745Y-44250316D01*
X34758500Y-44188134D01*
X34758500Y-43351866D01*
X34751745Y-43289684D01*
X34748973Y-43282288D01*
X34748971Y-43282282D01*
X34710071Y-43178517D01*
X34704888Y-43107710D01*
X34710071Y-43090059D01*
X34748478Y-42987609D01*
X34752105Y-42972351D01*
X34757631Y-42921486D01*
X34758000Y-42914672D01*
X34758000Y-42772115D01*
X34753525Y-42756876D01*
X34752135Y-42755671D01*
X34744452Y-42754000D01*
X31360116Y-42754000D01*
X31344877Y-42758475D01*
X31343672Y-42759865D01*
X31342001Y-42767548D01*
X31342001Y-42914669D01*
X31342371Y-42921490D01*
X31347895Y-42972352D01*
X31351522Y-42987607D01*
X31389929Y-43090059D01*
X31395112Y-43160866D01*
X31389929Y-43178517D01*
X31351029Y-43282282D01*
X31351027Y-43282288D01*
X31348255Y-43289684D01*
X31341500Y-43351866D01*
X31341500Y-44188134D01*
X30508000Y-44188134D01*
X30508000Y-42227885D01*
X31342000Y-42227885D01*
X31346475Y-42243124D01*
X31347865Y-42244329D01*
X31355548Y-42246000D01*
X32777885Y-42246000D01*
X32793124Y-42241525D01*
X32794329Y-42240135D01*
X32796000Y-42232452D01*
X32796000Y-42227885D01*
X33304000Y-42227885D01*
X33308475Y-42243124D01*
X33309865Y-42244329D01*
X33317548Y-42246000D01*
X34739884Y-42246000D01*
X34755123Y-42241525D01*
X34756328Y-42240135D01*
X34757999Y-42232452D01*
X34757999Y-42085331D01*
X34757629Y-42078510D01*
X34752105Y-42027648D01*
X34748478Y-42012394D01*
X34709804Y-41909229D01*
X34704621Y-41838422D01*
X34709804Y-41820771D01*
X34748478Y-41717609D01*
X34752105Y-41702351D01*
X34757631Y-41651486D01*
X34758000Y-41644672D01*
X34758000Y-41502115D01*
X34753525Y-41486876D01*
X34752135Y-41485671D01*
X34744452Y-41484000D01*
X33322115Y-41484000D01*
X33306876Y-41488475D01*
X33305671Y-41489865D01*
X33304000Y-41497548D01*
X33304000Y-42227885D01*
X32796000Y-42227885D01*
X32796000Y-41502115D01*
X32791525Y-41486876D01*
X32790135Y-41485671D01*
X32782452Y-41484000D01*
X31360116Y-41484000D01*
X31344877Y-41488475D01*
X31343672Y-41489865D01*
X31342001Y-41497548D01*
X31342001Y-41644669D01*
X31342371Y-41651490D01*
X31347895Y-41702352D01*
X31351522Y-41717606D01*
X31390196Y-41820771D01*
X31395379Y-41891578D01*
X31390196Y-41909229D01*
X31351522Y-42012391D01*
X31347895Y-42027649D01*
X31342369Y-42078514D01*
X31342000Y-42085328D01*
X31342000Y-42227885D01*
X30508000Y-42227885D01*
X30508000Y-40834754D01*
X30528002Y-40766633D01*
X30581658Y-40720140D01*
X30651932Y-40710036D01*
X30708061Y-40732819D01*
X30733248Y-40751118D01*
X30739276Y-40753802D01*
X30739278Y-40753803D01*
X30877473Y-40815331D01*
X30907712Y-40828794D01*
X31001113Y-40848647D01*
X31088056Y-40867128D01*
X31088061Y-40867128D01*
X31094513Y-40868500D01*
X31221432Y-40868500D01*
X31289553Y-40888502D01*
X31336046Y-40942158D01*
X31342328Y-40959002D01*
X31346475Y-40973124D01*
X31347865Y-40974329D01*
X31355548Y-40976000D01*
X34739884Y-40976000D01*
X34755123Y-40971525D01*
X34756328Y-40970135D01*
X34757999Y-40962452D01*
X34757999Y-40815331D01*
X34757629Y-40808510D01*
X34752105Y-40757648D01*
X34748478Y-40742393D01*
X34710071Y-40639941D01*
X34704888Y-40569134D01*
X34710071Y-40551483D01*
X34748971Y-40447718D01*
X34748973Y-40447712D01*
X34751745Y-40440316D01*
X34758500Y-40378134D01*
X34758500Y-39541866D01*
X34751745Y-39479684D01*
X34700615Y-39343295D01*
X34613261Y-39226739D01*
X34496705Y-39139385D01*
X34360316Y-39088255D01*
X34298134Y-39081500D01*
X31801866Y-39081500D01*
X31739684Y-39088255D01*
X31639247Y-39125907D01*
X31568441Y-39131090D01*
X31543768Y-39123031D01*
X31478323Y-39093892D01*
X31478315Y-39093889D01*
X31472288Y-39091206D01*
X31378888Y-39071353D01*
X31291944Y-39052872D01*
X31291939Y-39052872D01*
X31285487Y-39051500D01*
X31094513Y-39051500D01*
X31088061Y-39052872D01*
X31088056Y-39052872D01*
X31001112Y-39071353D01*
X30907712Y-39091206D01*
X30901682Y-39093891D01*
X30901681Y-39093891D01*
X30739278Y-39166197D01*
X30739276Y-39166198D01*
X30733248Y-39168882D01*
X30727905Y-39172764D01*
X30708062Y-39187181D01*
X30641195Y-39211040D01*
X30572043Y-39194961D01*
X30522562Y-39144048D01*
X30508000Y-39085246D01*
X30508000Y-36655186D01*
X31709960Y-36655186D01*
X31717418Y-36665554D01*
X31932662Y-36839854D01*
X31937984Y-36843721D01*
X32240823Y-37040387D01*
X32246532Y-37043683D01*
X32568275Y-37207620D01*
X32574286Y-37210296D01*
X32911395Y-37339700D01*
X32917672Y-37341740D01*
X33266463Y-37435198D01*
X33272901Y-37436567D01*
X33629560Y-37493055D01*
X33636104Y-37493743D01*
X33996699Y-37512641D01*
X34003301Y-37512641D01*
X34363896Y-37493743D01*
X34370440Y-37493055D01*
X34727099Y-37436567D01*
X34733537Y-37435198D01*
X35082328Y-37341740D01*
X35088605Y-37339700D01*
X35425714Y-37210296D01*
X35431725Y-37207620D01*
X35753468Y-37043683D01*
X35759177Y-37040387D01*
X36062016Y-36843721D01*
X36067338Y-36839854D01*
X36281634Y-36666322D01*
X36290100Y-36654067D01*
X36283766Y-36642976D01*
X36014149Y-36373359D01*
X42991386Y-36373359D01*
X43000099Y-36384879D01*
X43088586Y-36449760D01*
X43096505Y-36454708D01*
X43312877Y-36568547D01*
X43321451Y-36572275D01*
X43552282Y-36652885D01*
X43561291Y-36655299D01*
X43801518Y-36700908D01*
X43810775Y-36701962D01*
X44055107Y-36711563D01*
X44064420Y-36711237D01*
X44307478Y-36684618D01*
X44316655Y-36682917D01*
X44553107Y-36620665D01*
X44561926Y-36617628D01*
X44786584Y-36521107D01*
X44794856Y-36516800D01*
X45002777Y-36388135D01*
X45004620Y-36386796D01*
X45012038Y-36375541D01*
X45005974Y-36365184D01*
X44012812Y-35372022D01*
X43998868Y-35364408D01*
X43997035Y-35364539D01*
X43990420Y-35368790D01*
X42998044Y-36361166D01*
X42991386Y-36373359D01*
X36014149Y-36373359D01*
X34012812Y-34372022D01*
X33998868Y-34364408D01*
X33997035Y-34364539D01*
X33990420Y-34368790D01*
X31717100Y-36642110D01*
X31709960Y-36655186D01*
X30508000Y-36655186D01*
X30508000Y-35371685D01*
X30528002Y-35303564D01*
X30581658Y-35257071D01*
X30651932Y-35246967D01*
X30716512Y-35276461D01*
X30751631Y-35326531D01*
X30789701Y-35425708D01*
X30792380Y-35431725D01*
X30956317Y-35753468D01*
X30959613Y-35759177D01*
X31156279Y-36062016D01*
X31160146Y-36067338D01*
X31333678Y-36281634D01*
X31345933Y-36290100D01*
X31357024Y-36283766D01*
X33639658Y-34001132D01*
X34364408Y-34001132D01*
X34364539Y-34002965D01*
X34368790Y-34009580D01*
X36642110Y-36282900D01*
X36655186Y-36290040D01*
X36665554Y-36282582D01*
X36839854Y-36067338D01*
X36843721Y-36062016D01*
X37040387Y-35759177D01*
X37043683Y-35753468D01*
X37207620Y-35431725D01*
X37210296Y-35425714D01*
X37339700Y-35088605D01*
X37341740Y-35082328D01*
X37435198Y-34733537D01*
X37436567Y-34727099D01*
X37493055Y-34370440D01*
X37493743Y-34363896D01*
X37494900Y-34341821D01*
X37867158Y-34341821D01*
X37867337Y-34345282D01*
X37876804Y-34436521D01*
X37879697Y-34449917D01*
X37928830Y-34597187D01*
X37935004Y-34610366D01*
X38016470Y-34742014D01*
X38025506Y-34753415D01*
X38135080Y-34862798D01*
X38146491Y-34871810D01*
X38278291Y-34953053D01*
X38291468Y-34959197D01*
X38438843Y-35008079D01*
X38452210Y-35010945D01*
X38542270Y-35020172D01*
X38548685Y-35020500D01*
X38577885Y-35020500D01*
X38593124Y-35016025D01*
X38594329Y-35014635D01*
X38596000Y-35006952D01*
X38596000Y-34347115D01*
X38591525Y-34331876D01*
X38590135Y-34330671D01*
X38582452Y-34329000D01*
X37885115Y-34329000D01*
X37869876Y-34333475D01*
X37868671Y-34334865D01*
X37867158Y-34341821D01*
X37494900Y-34341821D01*
X37512641Y-34003301D01*
X37512641Y-33996699D01*
X37493743Y-33636104D01*
X37493055Y-33629560D01*
X37436567Y-33272901D01*
X37435198Y-33266463D01*
X37341740Y-32917672D01*
X37339700Y-32911395D01*
X37284300Y-32767072D01*
X37866500Y-32767072D01*
X37877022Y-32868482D01*
X37930692Y-33029349D01*
X38019929Y-33173555D01*
X38044312Y-33197895D01*
X38045159Y-33198741D01*
X38079238Y-33261023D01*
X38074235Y-33331843D01*
X38045314Y-33376932D01*
X38024702Y-33397580D01*
X38015690Y-33408991D01*
X37934447Y-33540791D01*
X37928303Y-33553968D01*
X37879421Y-33701343D01*
X37876555Y-33714710D01*
X37867386Y-33804200D01*
X37871475Y-33818124D01*
X37872865Y-33819329D01*
X37880548Y-33821000D01*
X38978000Y-33821000D01*
X39046121Y-33841002D01*
X39092614Y-33894658D01*
X39104000Y-33947000D01*
X39104000Y-35002385D01*
X39108475Y-35017624D01*
X39109865Y-35018829D01*
X39117548Y-35020500D01*
X39151266Y-35020500D01*
X39157782Y-35020163D01*
X39249021Y-35010696D01*
X39262417Y-35007803D01*
X39409696Y-34958667D01*
X39422857Y-34952502D01*
X39431036Y-34947441D01*
X39499488Y-34928605D01*
X39567258Y-34949768D01*
X39590973Y-34970277D01*
X39635891Y-35020163D01*
X39688747Y-35078866D01*
X39746233Y-35120632D01*
X39837791Y-35187153D01*
X39843248Y-35191118D01*
X39849276Y-35193802D01*
X39849278Y-35193803D01*
X40011681Y-35266109D01*
X40017712Y-35268794D01*
X40111112Y-35288647D01*
X40198056Y-35307128D01*
X40198061Y-35307128D01*
X40204513Y-35308500D01*
X40395487Y-35308500D01*
X40401939Y-35307128D01*
X40401944Y-35307128D01*
X40488888Y-35288647D01*
X40582288Y-35268794D01*
X40588319Y-35266109D01*
X40750722Y-35193803D01*
X40750724Y-35193802D01*
X40756752Y-35191118D01*
X40762210Y-35187153D01*
X40853767Y-35120632D01*
X40911253Y-35078866D01*
X40964101Y-35020172D01*
X41018429Y-34959835D01*
X42288022Y-34959835D01*
X42299754Y-35204064D01*
X42300891Y-35213324D01*
X42348593Y-35453143D01*
X42351082Y-35462118D01*
X42433708Y-35692250D01*
X42437505Y-35700778D01*
X42553234Y-35916160D01*
X42558245Y-35924027D01*
X42615173Y-36000263D01*
X42626431Y-36008712D01*
X42638850Y-36001940D01*
X43627978Y-35012812D01*
X43635592Y-34998868D01*
X43635461Y-34997035D01*
X43631210Y-34990420D01*
X42636828Y-33996038D01*
X42623520Y-33988771D01*
X42613481Y-33995893D01*
X42608581Y-34001784D01*
X42603168Y-34009373D01*
X42476322Y-34218409D01*
X42472084Y-34226726D01*
X42377529Y-34452214D01*
X42374572Y-34461052D01*
X42314384Y-34698042D01*
X42312763Y-34707232D01*
X42288267Y-34950510D01*
X42288022Y-34959835D01*
X41018429Y-34959835D01*
X41034621Y-34941852D01*
X41034622Y-34941851D01*
X41039040Y-34936944D01*
X41134527Y-34771556D01*
X41193542Y-34589928D01*
X41202857Y-34501306D01*
X41212814Y-34406565D01*
X41213504Y-34400000D01*
X41207389Y-34341821D01*
X41194232Y-34216635D01*
X41194232Y-34216633D01*
X41193542Y-34210072D01*
X41134527Y-34028444D01*
X41102914Y-33973688D01*
X41086176Y-33904694D01*
X41091036Y-33875536D01*
X41123834Y-33762644D01*
X41125629Y-33756466D01*
X41126259Y-33748469D01*
X41128307Y-33722444D01*
X41128307Y-33722438D01*
X41128500Y-33719989D01*
X41128500Y-33624917D01*
X42989330Y-33624917D01*
X42993903Y-33634693D01*
X43987188Y-34627978D01*
X44001132Y-34635592D01*
X44002965Y-34635461D01*
X44009580Y-34631210D01*
X45002488Y-33638302D01*
X45008872Y-33626612D01*
X44999460Y-33614502D01*
X44873144Y-33526873D01*
X44865116Y-33522145D01*
X44645810Y-33413995D01*
X44637177Y-33410507D01*
X44404288Y-33335958D01*
X44395238Y-33333785D01*
X44153891Y-33294480D01*
X44144602Y-33293668D01*
X43900114Y-33290467D01*
X43890803Y-33291037D01*
X43648522Y-33324010D01*
X43639403Y-33325948D01*
X43404668Y-33394367D01*
X43395915Y-33397639D01*
X43173869Y-33500004D01*
X43165714Y-33504524D01*
X42998468Y-33614175D01*
X42989330Y-33624917D01*
X41128500Y-33624917D01*
X41128499Y-33320012D01*
X41125629Y-33283534D01*
X41087397Y-33151937D01*
X41082481Y-33135017D01*
X41082480Y-33135015D01*
X41080269Y-33127404D01*
X41076233Y-33120579D01*
X41076231Y-33120575D01*
X41048769Y-33074139D01*
X41031309Y-33005323D01*
X41048769Y-32945861D01*
X41076231Y-32899425D01*
X41076233Y-32899421D01*
X41080269Y-32892596D01*
X41084290Y-32878758D01*
X41117686Y-32763806D01*
X41125629Y-32736466D01*
X41127611Y-32711291D01*
X41128307Y-32702444D01*
X41128307Y-32702438D01*
X41128500Y-32699989D01*
X41128499Y-32300012D01*
X41125629Y-32263534D01*
X41080269Y-32107404D01*
X40997506Y-31967459D01*
X40882541Y-31852494D01*
X40742596Y-31769731D01*
X40734985Y-31767520D01*
X40734983Y-31767519D01*
X40592644Y-31726166D01*
X40592645Y-31726166D01*
X40586466Y-31724371D01*
X40580059Y-31723867D01*
X40580055Y-31723866D01*
X40552444Y-31721693D01*
X40552438Y-31721693D01*
X40549989Y-31721500D01*
X40300152Y-31721500D01*
X40050012Y-31721501D01*
X40013534Y-31724371D01*
X39978955Y-31734417D01*
X39971796Y-31736497D01*
X39936643Y-31741500D01*
X39646585Y-31741500D01*
X39578464Y-31721498D01*
X39568492Y-31714381D01*
X39565234Y-31711808D01*
X39560053Y-31706636D01*
X39415692Y-31617651D01*
X39405098Y-31614137D01*
X39261262Y-31566428D01*
X39261260Y-31566428D01*
X39254731Y-31564262D01*
X39154572Y-31554000D01*
X38545428Y-31554000D01*
X38542182Y-31554337D01*
X38542178Y-31554337D01*
X38508397Y-31557842D01*
X38444018Y-31564522D01*
X38283151Y-31618192D01*
X38138945Y-31707429D01*
X38133776Y-31712607D01*
X38120241Y-31726166D01*
X38019136Y-31827447D01*
X37930151Y-31971808D01*
X37927846Y-31978756D01*
X37927846Y-31978757D01*
X37889946Y-32093022D01*
X37876762Y-32132769D01*
X37866500Y-32232928D01*
X37866500Y-32767072D01*
X37284300Y-32767072D01*
X37210296Y-32574286D01*
X37207620Y-32568275D01*
X37043683Y-32246532D01*
X37040387Y-32240823D01*
X36843721Y-31937984D01*
X36839854Y-31932662D01*
X36666322Y-31718366D01*
X36654067Y-31709900D01*
X36642976Y-31716234D01*
X34372022Y-33987188D01*
X34364408Y-34001132D01*
X33639658Y-34001132D01*
X36282900Y-31357890D01*
X36290040Y-31344814D01*
X36282582Y-31334446D01*
X36067338Y-31160146D01*
X36062016Y-31156279D01*
X35759177Y-30959613D01*
X35753468Y-30956317D01*
X35431725Y-30792380D01*
X35425708Y-30789701D01*
X35326531Y-30751631D01*
X35270103Y-30708545D01*
X35245926Y-30641792D01*
X35261677Y-30572565D01*
X35312355Y-30522843D01*
X35371685Y-30508000D01*
X51590814Y-30508000D01*
X51658935Y-30528002D01*
G37*
%TD.AperFunction*%
%TA.AperFunction,Conductor*%
G36*
X32943774Y-66801182D02*
G01*
X32988837Y-66830143D01*
X33169857Y-67011163D01*
X33203883Y-67073475D01*
X33198818Y-67144290D01*
X33169857Y-67189353D01*
X32007373Y-68351837D01*
X31945061Y-68385863D01*
X31874246Y-68380798D01*
X31829183Y-68351837D01*
X31648163Y-68170817D01*
X31614137Y-68108505D01*
X31619202Y-68037690D01*
X31648163Y-67992627D01*
X32810647Y-66830143D01*
X32872959Y-66796117D01*
X32943774Y-66801182D01*
G37*
%TD.AperFunction*%
%TA.AperFunction,Conductor*%
G36*
X67144290Y-66801182D02*
G01*
X67189353Y-66830143D01*
X68351837Y-67992627D01*
X68385863Y-68054939D01*
X68380798Y-68125754D01*
X68351837Y-68170817D01*
X68170817Y-68351837D01*
X68108505Y-68385863D01*
X68037690Y-68380798D01*
X67992627Y-68351837D01*
X66830143Y-67189353D01*
X66796117Y-67127041D01*
X66801182Y-67056226D01*
X66830143Y-67011163D01*
X67011163Y-66830143D01*
X67073475Y-66796117D01*
X67144290Y-66801182D01*
G37*
%TD.AperFunction*%
%TA.AperFunction,Conductor*%
G36*
X69410032Y-45274181D02*
G01*
X69466868Y-45316728D01*
X69491679Y-45383248D01*
X69492000Y-45392237D01*
X69492000Y-60510225D01*
X69471998Y-60578346D01*
X69418342Y-60624839D01*
X69348068Y-60634943D01*
X69283488Y-60605449D01*
X69272369Y-60594541D01*
X69161253Y-60471134D01*
X69006752Y-60358882D01*
X69000724Y-60356198D01*
X69000722Y-60356197D01*
X68838319Y-60283891D01*
X68838318Y-60283891D01*
X68832288Y-60281206D01*
X68758303Y-60265480D01*
X68695830Y-60231752D01*
X68661508Y-60169602D01*
X68658500Y-60142233D01*
X68658500Y-59701866D01*
X68651745Y-59639684D01*
X68648973Y-59632288D01*
X68648971Y-59632282D01*
X68615961Y-59544229D01*
X68610778Y-59473422D01*
X68615961Y-59455771D01*
X68648971Y-59367718D01*
X68648973Y-59367712D01*
X68651745Y-59360316D01*
X68658500Y-59298134D01*
X68658500Y-58701866D01*
X68651745Y-58639684D01*
X68600615Y-58503295D01*
X68513261Y-58386739D01*
X68396705Y-58299385D01*
X68388296Y-58296232D01*
X68388293Y-58296231D01*
X68365269Y-58287599D01*
X68308505Y-58244957D01*
X68283806Y-58178395D01*
X68283500Y-58169618D01*
X68283500Y-57728767D01*
X68284027Y-57717584D01*
X68285702Y-57710091D01*
X68285267Y-57696233D01*
X68283562Y-57642001D01*
X68283500Y-57638043D01*
X68283500Y-57610144D01*
X68282996Y-57606153D01*
X68282063Y-57594311D01*
X68280923Y-57558036D01*
X68280674Y-57550111D01*
X68278462Y-57542497D01*
X68278461Y-57542492D01*
X68275023Y-57530659D01*
X68271012Y-57511295D01*
X68269467Y-57499064D01*
X68268474Y-57491203D01*
X68265557Y-57483836D01*
X68265556Y-57483831D01*
X68252198Y-57450092D01*
X68248354Y-57438865D01*
X68238230Y-57404022D01*
X68236018Y-57396407D01*
X68225707Y-57378972D01*
X68217012Y-57361224D01*
X68209552Y-57342383D01*
X68183564Y-57306613D01*
X68177048Y-57296693D01*
X68158580Y-57265465D01*
X68158578Y-57265462D01*
X68154542Y-57258638D01*
X68140221Y-57244317D01*
X68127380Y-57229283D01*
X68120132Y-57219307D01*
X68115472Y-57212893D01*
X68081407Y-57184712D01*
X68072626Y-57176722D01*
X67503647Y-56607742D01*
X67496113Y-56599463D01*
X67492000Y-56592982D01*
X67442348Y-56546356D01*
X67439507Y-56543602D01*
X67419770Y-56523865D01*
X67416573Y-56521385D01*
X67407551Y-56513680D01*
X67385205Y-56492696D01*
X67375321Y-56483414D01*
X67368375Y-56479595D01*
X67368372Y-56479593D01*
X67357566Y-56473652D01*
X67341047Y-56462801D01*
X67332802Y-56456406D01*
X67325041Y-56450386D01*
X67317772Y-56447241D01*
X67317768Y-56447238D01*
X67284463Y-56432826D01*
X67273813Y-56427609D01*
X67235060Y-56406305D01*
X67215437Y-56401267D01*
X67196734Y-56394863D01*
X67185420Y-56389967D01*
X67185419Y-56389967D01*
X67178145Y-56386819D01*
X67170322Y-56385580D01*
X67170312Y-56385577D01*
X67134476Y-56379901D01*
X67122856Y-56377495D01*
X67087711Y-56368472D01*
X67087710Y-56368472D01*
X67080030Y-56366500D01*
X67059776Y-56366500D01*
X67040065Y-56364949D01*
X67027886Y-56363020D01*
X67020057Y-56361780D01*
X67012165Y-56362526D01*
X66976039Y-56365941D01*
X66964181Y-56366500D01*
X56658737Y-56366500D01*
X56590616Y-56346498D01*
X56569642Y-56329595D01*
X56542541Y-56302494D01*
X56527981Y-56293883D01*
X56409419Y-56223766D01*
X56409418Y-56223766D01*
X56402596Y-56219731D01*
X56394985Y-56217520D01*
X56394983Y-56217519D01*
X56275007Y-56182663D01*
X56246466Y-56174371D01*
X56240059Y-56173867D01*
X56240055Y-56173866D01*
X56212444Y-56171693D01*
X56212438Y-56171693D01*
X56209989Y-56171500D01*
X56010122Y-56171500D01*
X55810012Y-56171501D01*
X55773534Y-56174371D01*
X55770833Y-56175156D01*
X55701528Y-56167853D01*
X55646153Y-56123422D01*
X55623500Y-56051343D01*
X55623500Y-55568768D01*
X55624027Y-55557585D01*
X55625702Y-55550092D01*
X55625305Y-55537444D01*
X55623562Y-55482002D01*
X55623500Y-55478044D01*
X55623500Y-55450144D01*
X55622996Y-55446153D01*
X55622063Y-55434311D01*
X55621453Y-55414884D01*
X55620674Y-55390111D01*
X55618462Y-55382497D01*
X55618461Y-55382492D01*
X55615023Y-55370659D01*
X55611012Y-55351295D01*
X55609467Y-55339064D01*
X55608474Y-55331203D01*
X55605557Y-55323836D01*
X55605556Y-55323831D01*
X55592198Y-55290092D01*
X55588354Y-55278865D01*
X55583908Y-55263564D01*
X55576018Y-55236407D01*
X55571597Y-55228931D01*
X55565707Y-55218972D01*
X55557012Y-55201224D01*
X55549552Y-55182383D01*
X55541382Y-55171137D01*
X55523564Y-55146613D01*
X55517048Y-55136693D01*
X55498580Y-55105465D01*
X55498578Y-55105462D01*
X55494542Y-55098638D01*
X55480221Y-55084317D01*
X55467380Y-55069283D01*
X55460131Y-55059306D01*
X55455472Y-55052893D01*
X55449367Y-55047842D01*
X55449362Y-55047837D01*
X55421396Y-55024701D01*
X55412618Y-55016713D01*
X55339804Y-54943899D01*
X55305778Y-54881587D01*
X55310843Y-54810772D01*
X55353390Y-54753936D01*
X55419910Y-54729125D01*
X55441740Y-54729460D01*
X55473094Y-54732672D01*
X55479513Y-54733000D01*
X55502885Y-54733000D01*
X55518124Y-54728525D01*
X55519329Y-54727135D01*
X55521000Y-54719452D01*
X55521000Y-54714885D01*
X56029000Y-54714885D01*
X56033475Y-54730124D01*
X56034865Y-54731329D01*
X56042548Y-54733000D01*
X56070438Y-54733000D01*
X56076953Y-54732663D01*
X56169057Y-54723106D01*
X56182456Y-54720212D01*
X56331107Y-54670619D01*
X56344286Y-54664445D01*
X56477173Y-54582212D01*
X56488574Y-54573176D01*
X56598986Y-54462571D01*
X56607998Y-54451160D01*
X56690004Y-54318120D01*
X56696151Y-54304939D01*
X56745491Y-54156186D01*
X56748358Y-54142810D01*
X56757672Y-54051903D01*
X56757929Y-54046874D01*
X56753525Y-54031876D01*
X56752135Y-54030671D01*
X56744452Y-54029000D01*
X56047115Y-54029000D01*
X56031876Y-54033475D01*
X56030671Y-54034865D01*
X56029000Y-54042548D01*
X56029000Y-54714885D01*
X55521000Y-54714885D01*
X55521000Y-54047115D01*
X55516525Y-54031876D01*
X55515135Y-54030671D01*
X55507452Y-54029000D01*
X54878000Y-54029000D01*
X54809879Y-54008998D01*
X54763386Y-53955342D01*
X54752000Y-53903000D01*
X54752000Y-53752115D01*
X54745224Y-53729039D01*
X54734004Y-53711581D01*
X54687723Y-53732717D01*
X54669790Y-53734000D01*
X54184423Y-53734000D01*
X54116302Y-53713998D01*
X54068014Y-53656218D01*
X54034684Y-53575752D01*
X54034683Y-53575750D01*
X54031524Y-53568124D01*
X54012862Y-53543803D01*
X53987848Y-53511205D01*
X53962247Y-53444984D01*
X53976511Y-53375435D01*
X54026112Y-53324639D01*
X54087810Y-53308500D01*
X54266233Y-53308500D01*
X54277416Y-53309027D01*
X54284909Y-53310702D01*
X54292835Y-53310453D01*
X54292836Y-53310453D01*
X54352986Y-53308562D01*
X54356945Y-53308500D01*
X54628000Y-53308500D01*
X54696121Y-53328502D01*
X54742614Y-53382158D01*
X54754000Y-53434500D01*
X54754000Y-53502885D01*
X54760776Y-53525961D01*
X54771996Y-53543419D01*
X54818277Y-53522283D01*
X54836210Y-53521000D01*
X56739885Y-53521000D01*
X56755124Y-53516525D01*
X56756329Y-53515135D01*
X56758000Y-53507452D01*
X56758000Y-53504562D01*
X56757663Y-53498047D01*
X56748106Y-53405943D01*
X56745212Y-53392544D01*
X56713371Y-53297104D01*
X56710787Y-53226154D01*
X56746971Y-53165071D01*
X56810435Y-53133246D01*
X56846065Y-53131918D01*
X56848053Y-53132127D01*
X56854513Y-53133500D01*
X57045487Y-53133500D01*
X57051939Y-53132128D01*
X57051944Y-53132128D01*
X57138887Y-53113647D01*
X57232288Y-53093794D01*
X57247871Y-53086856D01*
X57400722Y-53018803D01*
X57400724Y-53018802D01*
X57406752Y-53016118D01*
X57428937Y-53000000D01*
X57509482Y-52941480D01*
X57561253Y-52903866D01*
X57689040Y-52761944D01*
X57784527Y-52596556D01*
X57843542Y-52414928D01*
X57853900Y-52316382D01*
X57862814Y-52231565D01*
X57863504Y-52225000D01*
X57849136Y-52088297D01*
X57844232Y-52041635D01*
X57844232Y-52041633D01*
X57843542Y-52035072D01*
X57784527Y-51853444D01*
X57771743Y-51831301D01*
X57696225Y-51700500D01*
X57679487Y-51631505D01*
X57696225Y-51574500D01*
X57781223Y-51427279D01*
X57781224Y-51427278D01*
X57784527Y-51421556D01*
X57843542Y-51239928D01*
X57844478Y-51231028D01*
X57862814Y-51056565D01*
X57863504Y-51050000D01*
X57856891Y-50987080D01*
X57844232Y-50866635D01*
X57844232Y-50866633D01*
X57843542Y-50860072D01*
X57784527Y-50678444D01*
X57723360Y-50572500D01*
X57706622Y-50503505D01*
X57729842Y-50436413D01*
X57785649Y-50392526D01*
X57832479Y-50383500D01*
X63816484Y-50383500D01*
X63884605Y-50403502D01*
X63931098Y-50457158D01*
X63941202Y-50527432D01*
X63936720Y-50547171D01*
X63898247Y-50669938D01*
X63891500Y-50743365D01*
X63891501Y-51256634D01*
X63891764Y-51259492D01*
X63891764Y-51259501D01*
X63895026Y-51295004D01*
X63898247Y-51330062D01*
X63900246Y-51336440D01*
X63900246Y-51336441D01*
X63943994Y-51476039D01*
X63949528Y-51493699D01*
X64038361Y-51640381D01*
X64159619Y-51761639D01*
X64306301Y-51850472D01*
X64313548Y-51852743D01*
X64313550Y-51852744D01*
X64373395Y-51871498D01*
X64469938Y-51901753D01*
X64543365Y-51908500D01*
X64546263Y-51908500D01*
X65051314Y-51908499D01*
X65556634Y-51908499D01*
X65559492Y-51908236D01*
X65559501Y-51908236D01*
X65595004Y-51904974D01*
X65630062Y-51901753D01*
X65661602Y-51891869D01*
X65786450Y-51852744D01*
X65786452Y-51852743D01*
X65793699Y-51850472D01*
X65940381Y-51761639D01*
X66061639Y-51640381D01*
X66150472Y-51493699D01*
X66156007Y-51476039D01*
X66199752Y-51336446D01*
X66201753Y-51330062D01*
X66208500Y-51256635D01*
X66208499Y-50743366D01*
X66208234Y-50740474D01*
X66202364Y-50676592D01*
X66201753Y-50669938D01*
X66163282Y-50547177D01*
X66161997Y-50476195D01*
X66199294Y-50415784D01*
X66263331Y-50385127D01*
X66283516Y-50383500D01*
X67971233Y-50383500D01*
X67982416Y-50384027D01*
X67989909Y-50385702D01*
X67997835Y-50385453D01*
X67997836Y-50385453D01*
X68057986Y-50383562D01*
X68061945Y-50383500D01*
X68089856Y-50383500D01*
X68093791Y-50383003D01*
X68093856Y-50382995D01*
X68105693Y-50382062D01*
X68137951Y-50381048D01*
X68141970Y-50380922D01*
X68149889Y-50380673D01*
X68169343Y-50375021D01*
X68188700Y-50371013D01*
X68200930Y-50369468D01*
X68200931Y-50369468D01*
X68208797Y-50368474D01*
X68216168Y-50365555D01*
X68216170Y-50365555D01*
X68249912Y-50352196D01*
X68261142Y-50348351D01*
X68295983Y-50338229D01*
X68295984Y-50338229D01*
X68303593Y-50336018D01*
X68310412Y-50331985D01*
X68310417Y-50331983D01*
X68321028Y-50325707D01*
X68338776Y-50317012D01*
X68357617Y-50309552D01*
X68393387Y-50283564D01*
X68403307Y-50277048D01*
X68434535Y-50258580D01*
X68434538Y-50258578D01*
X68441362Y-50254542D01*
X68455683Y-50240221D01*
X68470717Y-50227380D01*
X68480694Y-50220131D01*
X68487107Y-50215472D01*
X68515298Y-50181395D01*
X68523288Y-50172616D01*
X68992247Y-49703657D01*
X69000537Y-49696113D01*
X69007018Y-49692000D01*
X69053659Y-49642332D01*
X69056413Y-49639491D01*
X69076134Y-49619770D01*
X69078612Y-49616575D01*
X69086318Y-49607553D01*
X69111158Y-49581101D01*
X69116586Y-49575321D01*
X69126346Y-49557568D01*
X69137199Y-49541045D01*
X69144753Y-49531306D01*
X69149613Y-49525041D01*
X69167176Y-49484457D01*
X69172383Y-49473827D01*
X69193695Y-49435060D01*
X69195666Y-49427383D01*
X69195668Y-49427378D01*
X69198732Y-49415442D01*
X69205138Y-49396730D01*
X69206227Y-49394215D01*
X69213181Y-49378145D01*
X69215026Y-49366501D01*
X69220097Y-49334481D01*
X69222504Y-49322860D01*
X69231528Y-49287711D01*
X69231528Y-49287710D01*
X69233500Y-49280030D01*
X69233500Y-49259769D01*
X69235051Y-49240058D01*
X69236979Y-49227885D01*
X69238219Y-49220057D01*
X69234059Y-49176046D01*
X69233500Y-49164189D01*
X69233500Y-45398737D01*
X69253502Y-45330616D01*
X69270405Y-45309642D01*
X69276905Y-45303142D01*
X69339217Y-45269116D01*
X69410032Y-45274181D01*
G37*
%TD.AperFunction*%
%TA.AperFunction,Conductor*%
G36*
X51753527Y-44653502D02*
G01*
X51774501Y-44670405D01*
X52192095Y-45087999D01*
X52226121Y-45150311D01*
X52229000Y-45177094D01*
X52229000Y-49250224D01*
X52208998Y-49318345D01*
X52155342Y-49364838D01*
X52119445Y-49375146D01*
X52074337Y-49381084D01*
X52074335Y-49381084D01*
X52066150Y-49382162D01*
X51992137Y-49412819D01*
X51925752Y-49440316D01*
X51925750Y-49440317D01*
X51918124Y-49443476D01*
X51911574Y-49448502D01*
X51858500Y-49489228D01*
X51791013Y-49541013D01*
X51785987Y-49547563D01*
X51785984Y-49547566D01*
X51764687Y-49575321D01*
X51693476Y-49668125D01*
X51632162Y-49816150D01*
X51616500Y-49935115D01*
X51616501Y-50214884D01*
X51617039Y-50218969D01*
X51617039Y-50218973D01*
X51630536Y-50321498D01*
X51632162Y-50333850D01*
X51638856Y-50350010D01*
X51639589Y-50351780D01*
X51647179Y-50422370D01*
X51639589Y-50448220D01*
X51635887Y-50457158D01*
X51632162Y-50466150D01*
X51616500Y-50585115D01*
X51616501Y-50864884D01*
X51632162Y-50983850D01*
X51635322Y-50991478D01*
X51639589Y-51001780D01*
X51647179Y-51072370D01*
X51639590Y-51098218D01*
X51632162Y-51116150D01*
X51631084Y-51124338D01*
X51620974Y-51201135D01*
X51616500Y-51235115D01*
X51616501Y-51514884D01*
X51617039Y-51518969D01*
X51617039Y-51518973D01*
X51631084Y-51625663D01*
X51632162Y-51633850D01*
X51635322Y-51641478D01*
X51639589Y-51651780D01*
X51647179Y-51722370D01*
X51639590Y-51748218D01*
X51632162Y-51766150D01*
X51616500Y-51885115D01*
X51616501Y-52164884D01*
X51617039Y-52168969D01*
X51617039Y-52168973D01*
X51623578Y-52218642D01*
X51632162Y-52283850D01*
X51639106Y-52300615D01*
X51639589Y-52301780D01*
X51647179Y-52372370D01*
X51639589Y-52398220D01*
X51635387Y-52408365D01*
X51632162Y-52416150D01*
X51616500Y-52535115D01*
X51616501Y-52814884D01*
X51632162Y-52933850D01*
X51639324Y-52951141D01*
X51639860Y-52952434D01*
X51647450Y-53023023D01*
X51639860Y-53048874D01*
X51635810Y-53058650D01*
X51631572Y-53074468D01*
X51617538Y-53181066D01*
X51617000Y-53189276D01*
X51617000Y-53215500D01*
X51596998Y-53283621D01*
X51543342Y-53330114D01*
X51493044Y-53341055D01*
X51493056Y-53341251D01*
X51491774Y-53341332D01*
X51491000Y-53341500D01*
X51485144Y-53341500D01*
X51481229Y-53341995D01*
X51481225Y-53341995D01*
X51481167Y-53342003D01*
X51481138Y-53342006D01*
X51469296Y-53342939D01*
X51425110Y-53344327D01*
X51407744Y-53349372D01*
X51405658Y-53349978D01*
X51386306Y-53353986D01*
X51374068Y-53355532D01*
X51374066Y-53355533D01*
X51366203Y-53356526D01*
X51325086Y-53372806D01*
X51313885Y-53376641D01*
X51271406Y-53388982D01*
X51264587Y-53393015D01*
X51264582Y-53393017D01*
X51253971Y-53399293D01*
X51236221Y-53407990D01*
X51217383Y-53415448D01*
X51210967Y-53420109D01*
X51210966Y-53420110D01*
X51181625Y-53441428D01*
X51171701Y-53447947D01*
X51140460Y-53466422D01*
X51140455Y-53466426D01*
X51133637Y-53470458D01*
X51119313Y-53484782D01*
X51104281Y-53497621D01*
X51087893Y-53509528D01*
X51059856Y-53543419D01*
X51059712Y-53543593D01*
X51051722Y-53552373D01*
X50807747Y-53796348D01*
X50799461Y-53803888D01*
X50792982Y-53808000D01*
X50787557Y-53813777D01*
X50746357Y-53857651D01*
X50743602Y-53860493D01*
X50723865Y-53880230D01*
X50721385Y-53883427D01*
X50713682Y-53892447D01*
X50683414Y-53924679D01*
X50679595Y-53931625D01*
X50679593Y-53931628D01*
X50673652Y-53942434D01*
X50662801Y-53958953D01*
X50650386Y-53974959D01*
X50647241Y-53982228D01*
X50647238Y-53982232D01*
X50632826Y-54015537D01*
X50627609Y-54026187D01*
X50606305Y-54064940D01*
X50604334Y-54072615D01*
X50604334Y-54072616D01*
X50601267Y-54084562D01*
X50594863Y-54103266D01*
X50586819Y-54121855D01*
X50585580Y-54129678D01*
X50585577Y-54129688D01*
X50579901Y-54165524D01*
X50577495Y-54177144D01*
X50572275Y-54197477D01*
X50566500Y-54219970D01*
X50566500Y-54240224D01*
X50564949Y-54259934D01*
X50561780Y-54279943D01*
X50562526Y-54287835D01*
X50565941Y-54323961D01*
X50566500Y-54335819D01*
X50566500Y-54889434D01*
X50546498Y-54957555D01*
X50492842Y-55004048D01*
X50422568Y-55014152D01*
X50357988Y-54984658D01*
X50338565Y-54963496D01*
X50333557Y-54956603D01*
X50327048Y-54946693D01*
X50308580Y-54915465D01*
X50308578Y-54915462D01*
X50304542Y-54908638D01*
X50290221Y-54894317D01*
X50277380Y-54879283D01*
X50270132Y-54869307D01*
X50265472Y-54862893D01*
X50231407Y-54834712D01*
X50222626Y-54826722D01*
X49628647Y-54232742D01*
X49621113Y-54224463D01*
X49617000Y-54217982D01*
X49567348Y-54171356D01*
X49564507Y-54168602D01*
X49544770Y-54148865D01*
X49541573Y-54146385D01*
X49532551Y-54138680D01*
X49528074Y-54134476D01*
X49500321Y-54108414D01*
X49493375Y-54104595D01*
X49493372Y-54104593D01*
X49482566Y-54098652D01*
X49466047Y-54087801D01*
X49459205Y-54082494D01*
X49450041Y-54075386D01*
X49442772Y-54072241D01*
X49442768Y-54072238D01*
X49409463Y-54057826D01*
X49398813Y-54052609D01*
X49360060Y-54031305D01*
X49340437Y-54026267D01*
X49321734Y-54019863D01*
X49310420Y-54014967D01*
X49310419Y-54014967D01*
X49303145Y-54011819D01*
X49295322Y-54010580D01*
X49295312Y-54010577D01*
X49259476Y-54004901D01*
X49247856Y-54002495D01*
X49212711Y-53993472D01*
X49212710Y-53993472D01*
X49205030Y-53991500D01*
X49184776Y-53991500D01*
X49165065Y-53989949D01*
X49152886Y-53988020D01*
X49145057Y-53986780D01*
X49137165Y-53987526D01*
X49101039Y-53990941D01*
X49089181Y-53991500D01*
X48509499Y-53991500D01*
X48441378Y-53971498D01*
X48394885Y-53917842D01*
X48383499Y-53865500D01*
X48383499Y-53835116D01*
X48379930Y-53808000D01*
X48368916Y-53724337D01*
X48368916Y-53724335D01*
X48367838Y-53716150D01*
X48360411Y-53698219D01*
X48352821Y-53627630D01*
X48360411Y-53601780D01*
X48360426Y-53601745D01*
X48367838Y-53583850D01*
X48376112Y-53521000D01*
X48382962Y-53468972D01*
X48382962Y-53468971D01*
X48383500Y-53464885D01*
X48383499Y-53185116D01*
X48380861Y-53165071D01*
X48368916Y-53074337D01*
X48368916Y-53074335D01*
X48367838Y-53066150D01*
X48360411Y-53048219D01*
X48352821Y-52977630D01*
X48360411Y-52951780D01*
X48364678Y-52941480D01*
X48364679Y-52941477D01*
X48367838Y-52933850D01*
X48383500Y-52814885D01*
X48383500Y-52784500D01*
X48403502Y-52716379D01*
X48457158Y-52669886D01*
X48506967Y-52659051D01*
X48506948Y-52658748D01*
X48508934Y-52658623D01*
X48509500Y-52658500D01*
X48514856Y-52658500D01*
X48518791Y-52658003D01*
X48518856Y-52657995D01*
X48530693Y-52657062D01*
X48562951Y-52656048D01*
X48566970Y-52655922D01*
X48574889Y-52655673D01*
X48594343Y-52650021D01*
X48613700Y-52646013D01*
X48625930Y-52644468D01*
X48625931Y-52644468D01*
X48633797Y-52643474D01*
X48641168Y-52640555D01*
X48641170Y-52640555D01*
X48674912Y-52627196D01*
X48686142Y-52623351D01*
X48720983Y-52613229D01*
X48720984Y-52613229D01*
X48728593Y-52611018D01*
X48735412Y-52606985D01*
X48735417Y-52606983D01*
X48746028Y-52600707D01*
X48763776Y-52592012D01*
X48782617Y-52584552D01*
X48818387Y-52558564D01*
X48828307Y-52552048D01*
X48859535Y-52533580D01*
X48859538Y-52533578D01*
X48866362Y-52529542D01*
X48880683Y-52515221D01*
X48895717Y-52502380D01*
X48905693Y-52495132D01*
X48912107Y-52490472D01*
X48940288Y-52456407D01*
X48948278Y-52447626D01*
X49392258Y-52003647D01*
X49400537Y-51996113D01*
X49407018Y-51992000D01*
X49453644Y-51942348D01*
X49456398Y-51939507D01*
X49476135Y-51919770D01*
X49478615Y-51916573D01*
X49486320Y-51907551D01*
X49493644Y-51899752D01*
X49516586Y-51875321D01*
X49520405Y-51868375D01*
X49520407Y-51868372D01*
X49526348Y-51857566D01*
X49537199Y-51841047D01*
X49544758Y-51831301D01*
X49549614Y-51825041D01*
X49552759Y-51817772D01*
X49552762Y-51817768D01*
X49567174Y-51784463D01*
X49572391Y-51773813D01*
X49593695Y-51735060D01*
X49598733Y-51715437D01*
X49605137Y-51696734D01*
X49610033Y-51685420D01*
X49610033Y-51685419D01*
X49613181Y-51678145D01*
X49614420Y-51670322D01*
X49614423Y-51670312D01*
X49620099Y-51634476D01*
X49622505Y-51622856D01*
X49631528Y-51587711D01*
X49631528Y-51587710D01*
X49633500Y-51580030D01*
X49633500Y-51559776D01*
X49635051Y-51540065D01*
X49636980Y-51527886D01*
X49638220Y-51520057D01*
X49634059Y-51476038D01*
X49633500Y-51464181D01*
X49633500Y-46078767D01*
X49634027Y-46067584D01*
X49635702Y-46060091D01*
X49633562Y-45992014D01*
X49633500Y-45988055D01*
X49633500Y-45960144D01*
X49632995Y-45956144D01*
X49632062Y-45944301D01*
X49631240Y-45918131D01*
X49630673Y-45900111D01*
X49625021Y-45880657D01*
X49621013Y-45861300D01*
X49619468Y-45849070D01*
X49619468Y-45849069D01*
X49618474Y-45841203D01*
X49612567Y-45826283D01*
X49602196Y-45800088D01*
X49598351Y-45788858D01*
X49588229Y-45754017D01*
X49588229Y-45754016D01*
X49586018Y-45746407D01*
X49581985Y-45739588D01*
X49581983Y-45739583D01*
X49575707Y-45728972D01*
X49567012Y-45711224D01*
X49559552Y-45692383D01*
X49533564Y-45656613D01*
X49527048Y-45646693D01*
X49508580Y-45615465D01*
X49508578Y-45615462D01*
X49504542Y-45608638D01*
X49490221Y-45594317D01*
X49477380Y-45579283D01*
X49470131Y-45569306D01*
X49465472Y-45562893D01*
X49459368Y-45557843D01*
X49459363Y-45557838D01*
X49431402Y-45534707D01*
X49422621Y-45526717D01*
X48744500Y-44848595D01*
X48710475Y-44786283D01*
X48715540Y-44715467D01*
X48758087Y-44658632D01*
X48824607Y-44633821D01*
X48833596Y-44633500D01*
X51685406Y-44633500D01*
X51753527Y-44653502D01*
G37*
%TD.AperFunction*%
%TA.AperFunction,Conductor*%
G36*
X66613621Y-43528002D02*
G01*
X66660114Y-43581658D01*
X66671500Y-43634000D01*
X66671501Y-43786283D01*
X66671501Y-43929988D01*
X66674371Y-43966466D01*
X66719731Y-44122596D01*
X66723767Y-44129421D01*
X66723769Y-44129425D01*
X66751231Y-44175861D01*
X66768691Y-44244677D01*
X66751231Y-44304139D01*
X66723769Y-44350575D01*
X66723767Y-44350579D01*
X66719731Y-44357404D01*
X66717520Y-44365015D01*
X66717519Y-44365017D01*
X66705467Y-44406500D01*
X66674371Y-44513534D01*
X66671500Y-44550011D01*
X66671501Y-44949988D01*
X66674371Y-44986466D01*
X66719731Y-45142596D01*
X66723766Y-45149418D01*
X66723766Y-45149419D01*
X66797550Y-45274181D01*
X66802494Y-45282541D01*
X66829595Y-45309642D01*
X66863621Y-45371954D01*
X66866500Y-45398737D01*
X66866500Y-47685405D01*
X66846498Y-47753526D01*
X66829595Y-47774501D01*
X66774499Y-47829596D01*
X66712186Y-47863621D01*
X66685404Y-47866500D01*
X66213470Y-47866500D01*
X66145349Y-47846498D01*
X66098856Y-47792842D01*
X66088752Y-47722568D01*
X66098363Y-47689251D01*
X66165633Y-47538161D01*
X66169690Y-47525675D01*
X66170530Y-47521722D01*
X66169457Y-47507659D01*
X66159503Y-47504000D01*
X63943818Y-47504000D01*
X63930287Y-47507973D01*
X63928778Y-47518468D01*
X63930310Y-47525675D01*
X63934367Y-47538161D01*
X64001637Y-47689251D01*
X64011071Y-47759618D01*
X63980965Y-47823915D01*
X63920876Y-47861728D01*
X63886530Y-47866500D01*
X56892357Y-47866500D01*
X56881174Y-47865973D01*
X56873681Y-47864298D01*
X56865755Y-47864547D01*
X56865754Y-47864547D01*
X56805604Y-47866438D01*
X56801645Y-47866500D01*
X56773734Y-47866500D01*
X56769800Y-47866997D01*
X56769799Y-47866997D01*
X56769734Y-47867005D01*
X56757897Y-47867938D01*
X56725639Y-47868952D01*
X56721620Y-47869078D01*
X56713701Y-47869327D01*
X56694247Y-47874979D01*
X56674890Y-47878987D01*
X56662660Y-47880532D01*
X56662659Y-47880532D01*
X56654793Y-47881526D01*
X56647422Y-47884445D01*
X56647420Y-47884445D01*
X56613678Y-47897804D01*
X56602448Y-47901649D01*
X56567607Y-47911771D01*
X56567606Y-47911771D01*
X56559997Y-47913982D01*
X56553178Y-47918015D01*
X56553173Y-47918017D01*
X56542562Y-47924293D01*
X56524814Y-47932988D01*
X56505973Y-47940448D01*
X56499557Y-47945110D01*
X56499556Y-47945110D01*
X56470203Y-47966436D01*
X56460283Y-47972952D01*
X56429055Y-47991420D01*
X56429052Y-47991422D01*
X56422228Y-47995458D01*
X56407907Y-48009779D01*
X56392874Y-48022619D01*
X56376483Y-48034528D01*
X56371432Y-48040634D01*
X56348292Y-48068605D01*
X56340302Y-48077384D01*
X55348595Y-49069091D01*
X55286283Y-49103117D01*
X55215468Y-49098052D01*
X55158632Y-49055505D01*
X55133821Y-48988985D01*
X55133500Y-48979996D01*
X55133500Y-46978278D01*
X63929470Y-46978278D01*
X63930543Y-46992341D01*
X63940497Y-46996000D01*
X64777885Y-46996000D01*
X64793124Y-46991525D01*
X64794329Y-46990135D01*
X64796000Y-46982452D01*
X64796000Y-46977885D01*
X65304000Y-46977885D01*
X65308475Y-46993124D01*
X65309865Y-46994329D01*
X65317548Y-46996000D01*
X66156182Y-46996000D01*
X66169713Y-46992027D01*
X66171222Y-46981532D01*
X66169690Y-46974325D01*
X66165633Y-46961839D01*
X66093368Y-46799529D01*
X66086802Y-46788157D01*
X65982376Y-46644426D01*
X65973585Y-46634663D01*
X65841558Y-46515786D01*
X65830927Y-46508062D01*
X65677074Y-46419235D01*
X65665066Y-46413889D01*
X65496102Y-46358989D01*
X65483261Y-46356259D01*
X65350862Y-46342344D01*
X65344302Y-46342000D01*
X65322115Y-46342000D01*
X65306876Y-46346475D01*
X65305671Y-46347865D01*
X65304000Y-46355548D01*
X65304000Y-46977885D01*
X64796000Y-46977885D01*
X64796000Y-46360115D01*
X64791525Y-46344876D01*
X64790135Y-46343671D01*
X64782452Y-46342000D01*
X64755698Y-46342000D01*
X64749138Y-46342344D01*
X64616739Y-46356259D01*
X64603898Y-46358989D01*
X64434934Y-46413889D01*
X64422926Y-46419235D01*
X64269073Y-46508062D01*
X64258442Y-46515786D01*
X64126415Y-46634663D01*
X64117624Y-46644426D01*
X64013198Y-46788157D01*
X64006632Y-46799529D01*
X63934367Y-46961839D01*
X63930310Y-46974325D01*
X63929470Y-46978278D01*
X55133500Y-46978278D01*
X55133500Y-44078768D01*
X55134027Y-44067585D01*
X55135702Y-44060092D01*
X55133562Y-43992001D01*
X55133500Y-43988044D01*
X55133500Y-43960144D01*
X55132996Y-43956153D01*
X55132063Y-43944311D01*
X55131691Y-43932450D01*
X55130674Y-43900111D01*
X55125021Y-43880652D01*
X55121012Y-43861293D01*
X55120846Y-43859983D01*
X55118474Y-43841203D01*
X55115558Y-43833837D01*
X55115556Y-43833831D01*
X55102200Y-43800098D01*
X55098355Y-43788868D01*
X55088230Y-43754017D01*
X55088230Y-43754016D01*
X55086019Y-43746407D01*
X55075705Y-43728966D01*
X55067008Y-43711213D01*
X55062471Y-43699754D01*
X55062469Y-43699751D01*
X55059552Y-43692383D01*
X55059022Y-43691653D01*
X55044403Y-43625375D01*
X55069021Y-43558783D01*
X55125733Y-43516072D01*
X55170107Y-43508000D01*
X66545500Y-43508000D01*
X66613621Y-43528002D01*
G37*
%TD.AperFunction*%
%TA.AperFunction,Conductor*%
G36*
X59858935Y-30528002D02*
G01*
X59905428Y-30581658D01*
X59915532Y-30651932D01*
X59886038Y-30716512D01*
X59879988Y-30723017D01*
X59831259Y-30771832D01*
X59822250Y-30783239D01*
X59737184Y-30921242D01*
X59731037Y-30934423D01*
X59679862Y-31088709D01*
X59676995Y-31102085D01*
X59667328Y-31196437D01*
X59667000Y-31202854D01*
X59667000Y-31627885D01*
X59671475Y-31643124D01*
X59672865Y-31644329D01*
X59680548Y-31646000D01*
X61814885Y-31646000D01*
X61830124Y-31641525D01*
X61831329Y-31640135D01*
X61833000Y-31632452D01*
X61833000Y-31202902D01*
X61832663Y-31196387D01*
X61822744Y-31100795D01*
X61819850Y-31087396D01*
X61768412Y-30933215D01*
X61762238Y-30920036D01*
X61676937Y-30782190D01*
X61667905Y-30770796D01*
X61620200Y-30723174D01*
X61586120Y-30660892D01*
X61591123Y-30590071D01*
X61633619Y-30533198D01*
X61700118Y-30508329D01*
X61709217Y-30508000D01*
X64628315Y-30508000D01*
X64696436Y-30528002D01*
X64742929Y-30581658D01*
X64753033Y-30651932D01*
X64723539Y-30716512D01*
X64673469Y-30751631D01*
X64574292Y-30789701D01*
X64568275Y-30792380D01*
X64246532Y-30956317D01*
X64240823Y-30959613D01*
X63937984Y-31156279D01*
X63932662Y-31160146D01*
X63718366Y-31333678D01*
X63709900Y-31345933D01*
X63716234Y-31357024D01*
X68642110Y-36282900D01*
X68655186Y-36290040D01*
X68665554Y-36282582D01*
X68839854Y-36067338D01*
X68843721Y-36062016D01*
X69040387Y-35759177D01*
X69043683Y-35753468D01*
X69207620Y-35431725D01*
X69210299Y-35425708D01*
X69248369Y-35326531D01*
X69291455Y-35270103D01*
X69358208Y-35245926D01*
X69427435Y-35261677D01*
X69477157Y-35312355D01*
X69492000Y-35371685D01*
X69492000Y-38555236D01*
X69471998Y-38623357D01*
X69418342Y-38669850D01*
X69348068Y-38679954D01*
X69283487Y-38650460D01*
X69223577Y-38598547D01*
X69216766Y-38592645D01*
X69085240Y-38532579D01*
X69061486Y-38525604D01*
X69021442Y-38513846D01*
X69021438Y-38513845D01*
X69017119Y-38512577D01*
X69012671Y-38511937D01*
X69012664Y-38511936D01*
X68878448Y-38492639D01*
X68878441Y-38492638D01*
X68874000Y-38492000D01*
X63634000Y-38492000D01*
X63565879Y-38471998D01*
X63519386Y-38418342D01*
X63508000Y-38366000D01*
X63508000Y-37126000D01*
X63496391Y-37018020D01*
X63485005Y-36965678D01*
X63450707Y-36862628D01*
X63372535Y-36740990D01*
X63347037Y-36711563D01*
X63328982Y-36690727D01*
X63326042Y-36687334D01*
X63307213Y-36671018D01*
X63288942Y-36655186D01*
X63709960Y-36655186D01*
X63717418Y-36665554D01*
X63932662Y-36839854D01*
X63937984Y-36843721D01*
X64240823Y-37040387D01*
X64246532Y-37043683D01*
X64568275Y-37207620D01*
X64574286Y-37210296D01*
X64911395Y-37339700D01*
X64917672Y-37341740D01*
X65266463Y-37435198D01*
X65272901Y-37436567D01*
X65629560Y-37493055D01*
X65636104Y-37493743D01*
X65996699Y-37512641D01*
X66003301Y-37512641D01*
X66363896Y-37493743D01*
X66370440Y-37493055D01*
X66727099Y-37436567D01*
X66733537Y-37435198D01*
X67082328Y-37341740D01*
X67088605Y-37339700D01*
X67425714Y-37210296D01*
X67431725Y-37207620D01*
X67753468Y-37043683D01*
X67759177Y-37040387D01*
X68062016Y-36843721D01*
X68067338Y-36839854D01*
X68281634Y-36666322D01*
X68290100Y-36654067D01*
X68283766Y-36642976D01*
X66012812Y-34372022D01*
X65998868Y-34364408D01*
X65997035Y-34364539D01*
X65990420Y-34368790D01*
X63717100Y-36642110D01*
X63709960Y-36655186D01*
X63288942Y-36655186D01*
X63273851Y-36642110D01*
X63216766Y-36592645D01*
X63085240Y-36532579D01*
X63046170Y-36521107D01*
X63021442Y-36513846D01*
X63021438Y-36513845D01*
X63017119Y-36512577D01*
X63012671Y-36511937D01*
X63012664Y-36511936D01*
X62878448Y-36492639D01*
X62878441Y-36492638D01*
X62874000Y-36492000D01*
X59184500Y-36492000D01*
X59116379Y-36471998D01*
X59069886Y-36418342D01*
X59058500Y-36366000D01*
X59058500Y-36315087D01*
X59078502Y-36246966D01*
X59132158Y-36200473D01*
X59202432Y-36190369D01*
X59228726Y-36197104D01*
X59232389Y-36198477D01*
X59247649Y-36202105D01*
X59298514Y-36207631D01*
X59305328Y-36208000D01*
X59827885Y-36208000D01*
X59843124Y-36203525D01*
X59844329Y-36202135D01*
X59846000Y-36194452D01*
X59846000Y-36189884D01*
X60354000Y-36189884D01*
X60358475Y-36205123D01*
X60359865Y-36206328D01*
X60367548Y-36207999D01*
X60894669Y-36207999D01*
X60901490Y-36207629D01*
X60952352Y-36202105D01*
X60967604Y-36198479D01*
X61088054Y-36153324D01*
X61103649Y-36144786D01*
X61205724Y-36068285D01*
X61218285Y-36055724D01*
X61294786Y-35953649D01*
X61303324Y-35938054D01*
X61348478Y-35817606D01*
X61352105Y-35802351D01*
X61357631Y-35751486D01*
X61358000Y-35744672D01*
X61358000Y-34972115D01*
X61353525Y-34956876D01*
X61352135Y-34955671D01*
X61344452Y-34954000D01*
X60372115Y-34954000D01*
X60356876Y-34958475D01*
X60355671Y-34959865D01*
X60354000Y-34967548D01*
X60354000Y-36189884D01*
X59846000Y-36189884D01*
X59846000Y-34572000D01*
X59866002Y-34503879D01*
X59919658Y-34457386D01*
X59972000Y-34446000D01*
X61339884Y-34446000D01*
X61355123Y-34441525D01*
X61356328Y-34440135D01*
X61357999Y-34432452D01*
X61357999Y-34003301D01*
X62487359Y-34003301D01*
X62506257Y-34363896D01*
X62506945Y-34370440D01*
X62563433Y-34727099D01*
X62564802Y-34733537D01*
X62658260Y-35082328D01*
X62660300Y-35088605D01*
X62789704Y-35425714D01*
X62792380Y-35431725D01*
X62956317Y-35753468D01*
X62959613Y-35759177D01*
X63156279Y-36062016D01*
X63160146Y-36067338D01*
X63333678Y-36281634D01*
X63345933Y-36290100D01*
X63357024Y-36283766D01*
X65627978Y-34012812D01*
X65635592Y-33998868D01*
X65635461Y-33997035D01*
X65631210Y-33990420D01*
X63357890Y-31717100D01*
X63344814Y-31709960D01*
X63334446Y-31717418D01*
X63160146Y-31932662D01*
X63156279Y-31937984D01*
X62959613Y-32240823D01*
X62956317Y-32246532D01*
X62792380Y-32568275D01*
X62789704Y-32574286D01*
X62660300Y-32911395D01*
X62658260Y-32917672D01*
X62564802Y-33266463D01*
X62563433Y-33272901D01*
X62506945Y-33629560D01*
X62506257Y-33636104D01*
X62487359Y-33996699D01*
X62487359Y-34003301D01*
X61357999Y-34003301D01*
X61357999Y-33655331D01*
X61357629Y-33648510D01*
X61352105Y-33597648D01*
X61348479Y-33582396D01*
X61303324Y-33461946D01*
X61290478Y-33438483D01*
X61292655Y-33437291D01*
X61272441Y-33383177D01*
X61287499Y-33313795D01*
X61337677Y-33263569D01*
X61358241Y-33254603D01*
X61391783Y-33243413D01*
X61404964Y-33237238D01*
X61542810Y-33151937D01*
X61554209Y-33142901D01*
X61668738Y-33028172D01*
X61677750Y-33016761D01*
X61762816Y-32878758D01*
X61768963Y-32865577D01*
X61820138Y-32711291D01*
X61823005Y-32697915D01*
X61832672Y-32603563D01*
X61833000Y-32597147D01*
X61833000Y-32172115D01*
X61828525Y-32156876D01*
X61827135Y-32155671D01*
X61819452Y-32154000D01*
X59685115Y-32154000D01*
X59669876Y-32158475D01*
X59668671Y-32159865D01*
X59667000Y-32167548D01*
X59667000Y-32597098D01*
X59667337Y-32603613D01*
X59677256Y-32699205D01*
X59680150Y-32712604D01*
X59731588Y-32866785D01*
X59737759Y-32879957D01*
X59811856Y-32999698D01*
X59830693Y-33068150D01*
X59809531Y-33135920D01*
X59755091Y-33181491D01*
X59704711Y-33192001D01*
X59305331Y-33192001D01*
X59298510Y-33192371D01*
X59247648Y-33197895D01*
X59232396Y-33201521D01*
X59111946Y-33246676D01*
X59096352Y-33255214D01*
X59025982Y-33307953D01*
X58959476Y-33332801D01*
X58890093Y-33317748D01*
X58874861Y-33307960D01*
X58858933Y-33296023D01*
X58816420Y-33239165D01*
X58808500Y-33195198D01*
X58808500Y-32917141D01*
X58818260Y-32873119D01*
X58817115Y-32872739D01*
X58870632Y-32711390D01*
X58870632Y-32711388D01*
X58872797Y-32704862D01*
X58873550Y-32697520D01*
X58877909Y-32654970D01*
X58883500Y-32600401D01*
X58883499Y-31199600D01*
X58872526Y-31093833D01*
X58819342Y-30934423D01*
X58818867Y-30932998D01*
X58818866Y-30932996D01*
X58816550Y-30926054D01*
X58723479Y-30775651D01*
X58670909Y-30723173D01*
X58636829Y-30660891D01*
X58641832Y-30590071D01*
X58684329Y-30533198D01*
X58750827Y-30508329D01*
X58759926Y-30508000D01*
X59790814Y-30508000D01*
X59858935Y-30528002D01*
G37*
%TD.AperFunction*%
%TA.AperFunction,Conductor*%
G36*
X68125754Y-31619202D02*
G01*
X68170817Y-31648163D01*
X68351837Y-31829183D01*
X68385863Y-31891495D01*
X68380798Y-31962310D01*
X68351837Y-32007373D01*
X67189353Y-33169857D01*
X67127041Y-33203883D01*
X67056226Y-33198818D01*
X67011163Y-33169857D01*
X66830143Y-32988837D01*
X66796117Y-32926525D01*
X66801182Y-32855710D01*
X66830143Y-32810647D01*
X67992627Y-31648163D01*
X68054939Y-31614137D01*
X68125754Y-31619202D01*
G37*
%TD.AperFunction*%
%TA.AperFunction,Conductor*%
G36*
X31962310Y-31619202D02*
G01*
X32007373Y-31648163D01*
X33169857Y-32810647D01*
X33203883Y-32872959D01*
X33198818Y-32943774D01*
X33169857Y-32988837D01*
X32988837Y-33169857D01*
X32926525Y-33203883D01*
X32855710Y-33198818D01*
X32810647Y-33169857D01*
X31648163Y-32007373D01*
X31614137Y-31945061D01*
X31619202Y-31874246D01*
X31648163Y-31829183D01*
X31829183Y-31648163D01*
X31891495Y-31614137D01*
X31962310Y-31619202D01*
G37*
%TD.AperFunction*%
%TD*%
M02*
