%TF.GenerationSoftware,KiCad,Pcbnew,(6.0.0-rc1-124-g18b4ebcc17)*%
%TF.CreationDate,2021-11-25T20:10:52+05:30*%
%TF.ProjectId,Europa,4575726f-7061-42e6-9b69-6361645f7063,rev?*%
%TF.SameCoordinates,Original*%
%TF.FileFunction,Other,User*%
%FSLAX46Y46*%
G04 Gerber Fmt 4.6, Leading zero omitted, Abs format (unit mm)*
G04 Created by KiCad (PCBNEW (6.0.0-rc1-124-g18b4ebcc17)) date 2021-11-25 20:10:52*
%MOMM*%
%LPD*%
G01*
G04 APERTURE LIST*
%ADD10C,0.050000*%
G04 APERTURE END LIST*
D10*
%TO.C,C1*%
X55045000Y-51520000D02*
X56505000Y-51520000D01*
X56505000Y-51520000D02*
X56505000Y-54480000D01*
X56505000Y-54480000D02*
X55045000Y-54480000D01*
X55045000Y-54480000D02*
X55045000Y-51520000D01*
%TO.C,C2*%
X54960000Y-53910000D02*
X54040000Y-53910000D01*
X54040000Y-53910000D02*
X54040000Y-52090000D01*
X54960000Y-52090000D02*
X54960000Y-53910000D01*
X54040000Y-52090000D02*
X54960000Y-52090000D01*
%TO.C,C5*%
X45080000Y-55930000D02*
X43620000Y-55930000D01*
X43620000Y-52970000D02*
X45080000Y-52970000D01*
X45080000Y-52970000D02*
X45080000Y-55930000D01*
X43620000Y-55930000D02*
X43620000Y-52970000D01*
%TO.C,H1*%
X37250000Y-34000000D02*
G75*
G03*
X37250000Y-34000000I-3250000J0D01*
G01*
%TO.C,H2*%
X37250000Y-66000000D02*
G75*
G03*
X37250000Y-66000000I-3250000J0D01*
G01*
%TO.C,H3*%
X69250000Y-66000000D02*
G75*
G03*
X69250000Y-66000000I-3250000J0D01*
G01*
%TO.C,J3*%
X30700000Y-38800000D02*
X30700000Y-46200000D01*
X39300000Y-46200000D02*
X39300000Y-38800000D01*
X30700000Y-46200000D02*
X39300000Y-46200000D01*
X39300000Y-38800000D02*
X30700000Y-38800000D01*
%TO.C,R3*%
X68130000Y-43310000D02*
X69070000Y-43310000D01*
X69070000Y-43310000D02*
X69070000Y-45170000D01*
X69070000Y-45170000D02*
X68130000Y-45170000D01*
X68130000Y-45170000D02*
X68130000Y-43310000D01*
%TO.C,R6*%
X67970000Y-43310000D02*
X67970000Y-45170000D01*
X67030000Y-45170000D02*
X67030000Y-43310000D01*
X67970000Y-45170000D02*
X67030000Y-45170000D01*
X67030000Y-43310000D02*
X67970000Y-43310000D01*
%TO.C,R8*%
X54570000Y-59870000D02*
X54570000Y-58930000D01*
X56430000Y-59870000D02*
X54570000Y-59870000D01*
X54570000Y-58930000D02*
X56430000Y-58930000D01*
X56430000Y-58930000D02*
X56430000Y-59870000D01*
%TO.C,R12*%
X35720000Y-56170000D02*
X34780000Y-56170000D01*
X35720000Y-54310000D02*
X35720000Y-56170000D01*
X34780000Y-56170000D02*
X34780000Y-54310000D01*
X34780000Y-54310000D02*
X35720000Y-54310000D01*
%TO.C,SW1*%
X34550000Y-50600000D02*
X34550000Y-59400000D01*
X30000000Y-56650000D02*
X28700000Y-56650000D01*
X28700000Y-53350000D02*
X30000000Y-53350000D01*
X34550000Y-59400000D02*
X30000000Y-59400000D01*
X30000000Y-50600000D02*
X34550000Y-50600000D01*
X30000000Y-53350000D02*
X30000000Y-50600000D01*
X30000000Y-59400000D02*
X30000000Y-56650000D01*
X28700000Y-56650000D02*
X28700000Y-53350000D01*
%TO.C,C6*%
X45140000Y-54790000D02*
X45140000Y-52970000D01*
X46060000Y-54790000D02*
X45140000Y-54790000D01*
X45140000Y-52970000D02*
X46060000Y-52970000D01*
X46060000Y-52970000D02*
X46060000Y-54790000D01*
%TO.C,R2*%
X43870000Y-50905000D02*
X45730000Y-50905000D01*
X45730000Y-50905000D02*
X45730000Y-51845000D01*
X45730000Y-51845000D02*
X43870000Y-51845000D01*
X43870000Y-51845000D02*
X43870000Y-50905000D01*
%TO.C,C3*%
X41990000Y-48510000D02*
X40170000Y-48510000D01*
X40170000Y-47590000D02*
X41990000Y-47590000D01*
X41990000Y-47590000D02*
X41990000Y-48510000D01*
X40170000Y-48510000D02*
X40170000Y-47590000D01*
%TO.C,Y1*%
X43150000Y-48600000D02*
X39750000Y-48600000D01*
X39750000Y-52800000D02*
X43150000Y-52800000D01*
X43150000Y-52800000D02*
X43150000Y-48600000D01*
X39750000Y-48600000D02*
X39750000Y-52800000D01*
%TO.C,C4*%
X40910000Y-53810000D02*
X40910000Y-52890000D01*
X42730000Y-52890000D02*
X42730000Y-53810000D01*
X40910000Y-52890000D02*
X42730000Y-52890000D01*
X42730000Y-53810000D02*
X40910000Y-53810000D01*
%TO.C,H4*%
X69250000Y-34000000D02*
G75*
G03*
X69250000Y-34000000I-3250000J0D01*
G01*
%TO.C,U2*%
X61400000Y-42250000D02*
X61400000Y-33450000D01*
X54200000Y-33450000D02*
X54200000Y-42250000D01*
X61400000Y-33450000D02*
X54200000Y-33450000D01*
X54200000Y-42250000D02*
X61400000Y-42250000D01*
%TO.C,C8*%
X56975000Y-30750000D02*
X61575000Y-30750000D01*
X61575000Y-33050000D02*
X56975000Y-33050000D01*
X56975000Y-33050000D02*
X56975000Y-30750000D01*
X61575000Y-30750000D02*
X61575000Y-33050000D01*
%TO.C,C7*%
X56325000Y-30750000D02*
X56325000Y-33050000D01*
X51725000Y-33050000D02*
X51725000Y-30750000D01*
X51725000Y-30750000D02*
X56325000Y-30750000D01*
X56325000Y-33050000D02*
X51725000Y-33050000D01*
%TO.C,U1*%
X53850000Y-56500000D02*
X53850000Y-49500000D01*
X46150000Y-56500000D02*
X53850000Y-56500000D01*
X53850000Y-49500000D02*
X46150000Y-49500000D01*
X46150000Y-49500000D02*
X46150000Y-56500000D01*
%TO.C,FB1*%
X53217500Y-33470000D02*
X53217500Y-34930000D01*
X53217500Y-34930000D02*
X50257500Y-34930000D01*
X50257500Y-34930000D02*
X50257500Y-33470000D01*
X50257500Y-33470000D02*
X53217500Y-33470000D01*
%TO.C,R11*%
X47550000Y-57030000D02*
X47550000Y-57970000D01*
X45690000Y-57970000D02*
X45690000Y-57030000D01*
X45690000Y-57030000D02*
X47550000Y-57030000D01*
X47550000Y-57970000D02*
X45690000Y-57970000D01*
%TO.C,D4*%
X38020000Y-68730000D02*
X38020000Y-65770000D01*
X39480000Y-65770000D02*
X39480000Y-68730000D01*
X38020000Y-65770000D02*
X39480000Y-65770000D01*
X39480000Y-68730000D02*
X38020000Y-68730000D01*
%TO.C,R10*%
X54570000Y-57470000D02*
X54570000Y-56530000D01*
X54570000Y-56530000D02*
X56430000Y-56530000D01*
X56430000Y-56530000D02*
X56430000Y-57470000D01*
X56430000Y-57470000D02*
X54570000Y-57470000D01*
%TO.C,R9*%
X54570000Y-58670000D02*
X54570000Y-57730000D01*
X56430000Y-57730000D02*
X56430000Y-58670000D01*
X56430000Y-58670000D02*
X54570000Y-58670000D01*
X54570000Y-57730000D02*
X56430000Y-57730000D01*
%TO.C,J4*%
X51900000Y-63500000D02*
X53750000Y-63500000D01*
X46000000Y-63500000D02*
X46000000Y-70000000D01*
X47850000Y-63500000D02*
X46000000Y-63500000D01*
X51900000Y-63800000D02*
X51900000Y-63500000D01*
X47850000Y-63800000D02*
X47850000Y-63500000D01*
X49880000Y-63800000D02*
X47850000Y-63800000D01*
X53750000Y-70000000D02*
X49870000Y-70000000D01*
X49870000Y-63800000D02*
X51900000Y-63800000D01*
X53750000Y-63500000D02*
X53750000Y-70000000D01*
X46000000Y-70000000D02*
X49880000Y-70000000D01*
%TO.C,Q1*%
X53650000Y-35500000D02*
X53650000Y-38900000D01*
X50150000Y-38900000D02*
X50150000Y-35500000D01*
X50150000Y-35500000D02*
X53650000Y-35500000D01*
X53650000Y-38900000D02*
X50150000Y-38900000D01*
%TO.C,F1*%
X52780000Y-39180000D02*
X52780000Y-41420000D01*
X48220000Y-41420000D02*
X48220000Y-39180000D01*
X48220000Y-39180000D02*
X52780000Y-39180000D01*
X52780000Y-41420000D02*
X48220000Y-41420000D01*
%TO.C,J1*%
X41750000Y-30000000D02*
X41750000Y-38600000D01*
X41750000Y-38600000D02*
X49750000Y-38600000D01*
X49750000Y-30000000D02*
X41750000Y-30000000D01*
X49750000Y-38600000D02*
X49750000Y-30000000D01*
%TO.C,D3*%
X38120000Y-34767500D02*
X38120000Y-31807500D01*
X39580000Y-31807500D02*
X39580000Y-34767500D01*
X39580000Y-34767500D02*
X38120000Y-34767500D01*
X38120000Y-31807500D02*
X39580000Y-31807500D01*
%TO.C,R7*%
X39830000Y-33940000D02*
X39830000Y-32080000D01*
X40770000Y-33940000D02*
X39830000Y-33940000D01*
X39830000Y-32080000D02*
X40770000Y-32080000D01*
X40770000Y-32080000D02*
X40770000Y-33940000D01*
%TO.C,J2*%
X63800000Y-49130000D02*
X63800000Y-47100000D01*
X70000000Y-53000000D02*
X70000000Y-49120000D01*
X63800000Y-47100000D02*
X63500000Y-47100000D01*
X63500000Y-53000000D02*
X70000000Y-53000000D01*
X70000000Y-45250000D02*
X70000000Y-49130000D01*
X63500000Y-47100000D02*
X63500000Y-45250000D01*
X63800000Y-51150000D02*
X63500000Y-51150000D01*
X63500000Y-51150000D02*
X63500000Y-53000000D01*
X63800000Y-49120000D02*
X63800000Y-51150000D01*
X63500000Y-45250000D02*
X70000000Y-45250000D01*
%TO.C,C12*%
X66260000Y-61610000D02*
X66260000Y-60690000D01*
X66260000Y-60690000D02*
X68080000Y-60690000D01*
X68080000Y-60690000D02*
X68080000Y-61610000D01*
X68080000Y-61610000D02*
X66260000Y-61610000D01*
%TD*%
M02*
