M48
; DRILL file {KiCad (6.0.0-rc1-124-g18b4ebcc17)} date Thu Nov 25 20:10:18 2021
; FORMAT={-:-/ absolute / metric / decimal}
; #@! TF.CreationDate,2021-11-25T20:10:18+05:30
; #@! TF.GenerationSoftware,Kicad,Pcbnew,(6.0.0-rc1-124-g18b4ebcc17)
; #@! TF.FileFunction,Plated,1,4,PTH
FMAT,2
METRIC
; #@! TA.AperFunction,Plated,PTH,ViaDrill
T1C0.400
; #@! TA.AperFunction,Plated,PTH,ComponentDrill
T2C0.500
; #@! TA.AperFunction,Plated,PTH,ComponentDrill
T3C1.200
; #@! TA.AperFunction,Plated,PTH,ComponentDrill
T4C3.000
%
G90
G05
T1
X31.19Y-39.96
X31.19Y-45.04
X31.2Y-41.225
X31.2Y-42.5
X32.5Y-47.5
X32.5Y-60.0
X35.0Y-50.0
X35.0Y-60.0
X35.05Y-57.25
X35.1Y-52.75
X37.5Y-37.5
X37.5Y-57.5
X37.5Y-60.0
X37.5Y-62.5
X40.0Y-37.5
X40.0Y-57.5
X40.0Y-60.0
X40.0Y-62.5
X40.0Y-65.0
X40.3Y-34.4
X40.4Y-53.35
X42.5Y-40.0
X42.5Y-48.05
X42.5Y-57.5
X42.5Y-60.0
X42.5Y-62.5
X42.5Y-65.0
X42.5Y-67.5
X43.175Y-55.225
X44.35Y-52.5
X44.35Y-56.375
X45.0Y-47.5
X45.0Y-67.5
X45.6Y-52.475
X47.5Y-60.0
X50.0Y-45.0
X50.0Y-47.5
X52.5Y-62.5
X55.0Y-62.5
X55.0Y-65.0
X55.0Y-67.5
X55.775Y-54.925
X56.0Y-38.0
X56.0Y-39.0
X56.95Y-51.05
X56.95Y-52.225
X56.95Y-53.775
X57.0Y-38.0
X57.0Y-39.0
X57.5Y-45.0
X57.5Y-47.5
X57.5Y-62.5
X57.5Y-65.0
X57.5Y-67.5
X58.0Y-38.0
X58.0Y-39.0
X59.0Y-38.0
X59.0Y-39.0
X60.0Y-38.0
X60.0Y-39.0
X60.0Y-45.0
X60.0Y-47.5
X60.0Y-52.5
X60.0Y-55.0
X60.0Y-62.5
X60.0Y-65.0
X60.0Y-67.5
X61.0Y-38.0
X61.0Y-39.0
X61.0Y-40.0
X61.0Y-41.0
X61.0Y-42.0
X62.0Y-38.0
X62.0Y-39.0
X62.0Y-40.0
X62.0Y-41.0
X62.0Y-42.0
X62.5Y-45.0
X62.5Y-52.5
X62.5Y-55.0
X62.5Y-62.5
X63.0Y-40.0
X63.0Y-41.0
X63.0Y-42.0
X64.0Y-40.0
X64.0Y-41.0
X64.0Y-42.0
X65.0Y-40.0
X65.0Y-41.0
X65.0Y-42.0
X65.0Y-55.0
X66.0Y-40.0
X66.0Y-41.0
X66.0Y-42.0
X67.0Y-40.0
X67.0Y-41.0
X67.0Y-42.0
X67.5Y-55.0
X68.0Y-40.0
X68.0Y-41.0
X68.0Y-42.0
X68.55Y-61.15
T2
X31.75Y-34.0
X31.75Y-66.0
X32.409Y-32.409
X32.409Y-35.591
X32.409Y-64.409
X32.409Y-67.591
X34.0Y-31.75
X34.0Y-36.25
X34.0Y-63.75
X34.0Y-68.25
X35.591Y-32.409
X35.591Y-35.591
X35.591Y-64.409
X35.591Y-67.591
X36.25Y-34.0
X36.25Y-66.0
X48.0Y-65.05
X49.25Y-65.05
X50.5Y-65.05
X51.75Y-65.05
X63.75Y-34.0
X63.75Y-66.0
X64.409Y-32.409
X64.409Y-35.591
X64.409Y-64.409
X64.409Y-67.591
X65.05Y-47.25
X65.05Y-48.5
X65.05Y-49.75
X65.05Y-51.0
X66.0Y-31.75
X66.0Y-36.25
X66.0Y-63.75
X66.0Y-68.25
X67.591Y-32.409
X67.591Y-35.591
X67.591Y-64.409
X67.591Y-67.591
X68.25Y-34.0
X68.25Y-66.0
T3
X44.0Y-35.0
X47.5Y-35.0
T4
X34.0Y-34.0
X34.0Y-66.0
X66.0Y-34.0
X66.0Y-66.0
T0
M30
