%TF.GenerationSoftware,KiCad,Pcbnew,(6.0.0-rc1-124-g18b4ebcc17)*%
%TF.CreationDate,2021-11-25T20:10:52+05:30*%
%TF.ProjectId,Europa,4575726f-7061-42e6-9b69-6361645f7063,rev?*%
%TF.SameCoordinates,Original*%
%TF.FileFunction,Copper,L3,Inr*%
%TF.FilePolarity,Positive*%
%FSLAX46Y46*%
G04 Gerber Fmt 4.6, Leading zero omitted, Abs format (unit mm)*
G04 Created by KiCad (PCBNEW (6.0.0-rc1-124-g18b4ebcc17)) date 2021-11-25 20:10:52*
%MOMM*%
%LPD*%
G01*
G04 APERTURE LIST*
G04 Aperture macros list*
%AMRoundRect*
0 Rectangle with rounded corners*
0 $1 Rounding radius*
0 $2 $3 $4 $5 $6 $7 $8 $9 X,Y pos of 4 corners*
0 Add a 4 corners polygon primitive as box body*
4,1,4,$2,$3,$4,$5,$6,$7,$8,$9,$2,$3,0*
0 Add four circle primitives for the rounded corners*
1,1,$1+$1,$2,$3*
1,1,$1+$1,$4,$5*
1,1,$1+$1,$6,$7*
1,1,$1+$1,$8,$9*
0 Add four rect primitives between the rounded corners*
20,1,$1+$1,$2,$3,$4,$5,0*
20,1,$1+$1,$4,$5,$6,$7,0*
20,1,$1+$1,$6,$7,$8,$9,0*
20,1,$1+$1,$8,$9,$2,$3,0*%
G04 Aperture macros list end*
%TA.AperFunction,ComponentPad*%
%ADD10C,0.800000*%
%TD*%
%TA.AperFunction,ComponentPad*%
%ADD11C,6.000000*%
%TD*%
%TA.AperFunction,ComponentPad*%
%ADD12RoundRect,0.200000X-0.200000X-0.450000X0.200000X-0.450000X0.200000X0.450000X-0.200000X0.450000X0*%
%TD*%
%TA.AperFunction,ComponentPad*%
%ADD13O,0.800000X1.300000*%
%TD*%
%TA.AperFunction,ComponentPad*%
%ADD14R,2.400000X2.400000*%
%TD*%
%TA.AperFunction,ComponentPad*%
%ADD15C,2.400000*%
%TD*%
%TA.AperFunction,ComponentPad*%
%ADD16RoundRect,0.200000X0.450000X-0.200000X0.450000X0.200000X-0.450000X0.200000X-0.450000X-0.200000X0*%
%TD*%
%TA.AperFunction,ComponentPad*%
%ADD17O,1.300000X0.800000*%
%TD*%
%TA.AperFunction,ViaPad*%
%ADD18C,0.800000*%
%TD*%
G04 APERTURE END LIST*
D10*
%TO.N,GND*%
%TO.C,H1*%
X36250000Y-34000000D03*
X31750000Y-34000000D03*
X35590990Y-32409010D03*
X35590990Y-35590990D03*
X32409010Y-32409010D03*
X32409010Y-35590990D03*
X34000000Y-36250000D03*
D11*
X34000000Y-34000000D03*
D10*
X34000000Y-31750000D03*
%TD*%
%TO.N,GND*%
%TO.C,H2*%
X35590990Y-67590990D03*
X31750000Y-66000000D03*
X32409010Y-64409010D03*
D11*
X34000000Y-66000000D03*
D10*
X32409010Y-67590990D03*
X34000000Y-63750000D03*
X36250000Y-66000000D03*
X35590990Y-64409010D03*
X34000000Y-68250000D03*
%TD*%
%TO.N,GND*%
%TO.C,H3*%
X66000000Y-63750000D03*
X67590990Y-64409010D03*
X68250000Y-66000000D03*
X63750000Y-66000000D03*
X67590990Y-67590990D03*
X64409010Y-67590990D03*
X66000000Y-68250000D03*
X64409010Y-64409010D03*
D11*
X66000000Y-66000000D03*
%TD*%
D10*
%TO.N,GND*%
%TO.C,H4*%
X67590990Y-32409010D03*
X67590990Y-35590990D03*
X66000000Y-31750000D03*
X64409010Y-35590990D03*
X66000000Y-36250000D03*
X64409010Y-32409010D03*
X63750000Y-34000000D03*
D11*
X66000000Y-34000000D03*
D10*
X68250000Y-34000000D03*
%TD*%
D12*
%TO.N,+3V3*%
%TO.C,J4*%
X48000000Y-65050000D03*
D13*
%TO.N,USART1_RX*%
X49250000Y-65050000D03*
%TO.N,USART1_TX*%
X50500000Y-65050000D03*
%TO.N,GND*%
X51750000Y-65050000D03*
%TD*%
D14*
%TO.N,Net-(F1-Pad2)*%
%TO.C,J1*%
X47500000Y-35000000D03*
D15*
%TO.N,GND*%
X44000000Y-35000000D03*
%TD*%
D16*
%TO.N,+3V3*%
%TO.C,J2*%
X65050000Y-51000000D03*
D17*
%TO.N,I2C1_SCL*%
X65050000Y-49750000D03*
%TO.N,I2C1_SDA*%
X65050000Y-48500000D03*
%TO.N,GND*%
X65050000Y-47250000D03*
%TD*%
D18*
%TO.N,+3V3*%
X40300000Y-34400000D03*
X45600000Y-52475000D03*
X44350000Y-52500000D03*
X56950000Y-52225000D03*
X56950000Y-51050000D03*
X35100000Y-52750000D03*
X31190000Y-39960000D03*
X68550000Y-61150000D03*
X61000000Y-41000000D03*
X67000000Y-42000000D03*
X68000000Y-42000000D03*
X61000000Y-39000000D03*
X66000000Y-42000000D03*
X56000000Y-39000000D03*
X62000000Y-38000000D03*
X63000000Y-41000000D03*
X59000000Y-39000000D03*
X59000000Y-38000000D03*
X60000000Y-39000000D03*
X63000000Y-42000000D03*
X65000000Y-40000000D03*
X61000000Y-40000000D03*
X60000000Y-38000000D03*
X62000000Y-40000000D03*
X57000000Y-38000000D03*
X61000000Y-38000000D03*
X56000000Y-38000000D03*
X64000000Y-42000000D03*
X66000000Y-41000000D03*
X68000000Y-40000000D03*
X63000000Y-40000000D03*
X67000000Y-41000000D03*
X57000000Y-39000000D03*
X65000000Y-41000000D03*
X62000000Y-39000000D03*
X64000000Y-40000000D03*
X68000000Y-41000000D03*
X65000000Y-42000000D03*
X61000000Y-42000000D03*
X67000000Y-40000000D03*
X58000000Y-39000000D03*
X62000000Y-41000000D03*
X64000000Y-41000000D03*
X62000000Y-42000000D03*
X66000000Y-40000000D03*
X58000000Y-38000000D03*
%TO.N,GND*%
X40400000Y-53350000D03*
X56950000Y-53775000D03*
X43175000Y-55225000D03*
X44350000Y-56375000D03*
X60000000Y-55000000D03*
X62500000Y-55000000D03*
X65000000Y-55000000D03*
X67500000Y-55000000D03*
X62500000Y-52500000D03*
X60000000Y-52500000D03*
X35050000Y-57250000D03*
X31190000Y-45040000D03*
X31200000Y-42500000D03*
X31200000Y-41225000D03*
X37500000Y-60000000D03*
X55000000Y-67500000D03*
X40000000Y-37500000D03*
X57500000Y-45000000D03*
X62500000Y-62500000D03*
X42500000Y-60000000D03*
X35000000Y-50000000D03*
X32500000Y-47500000D03*
X40000000Y-60000000D03*
X35000000Y-60000000D03*
X47500000Y-60000000D03*
X60000000Y-65000000D03*
X60000000Y-47500000D03*
X42500000Y-65000000D03*
X57500000Y-67500000D03*
X57500000Y-65000000D03*
X45000000Y-67500000D03*
X50000000Y-47500000D03*
X42500000Y-57500000D03*
X37500000Y-37500000D03*
X40000000Y-62500000D03*
X60000000Y-45000000D03*
X42500000Y-62500000D03*
X40000000Y-65000000D03*
X40000000Y-57500000D03*
X42500000Y-48050000D03*
X55775000Y-54925000D03*
X57500000Y-62500000D03*
X55000000Y-62500000D03*
X32500000Y-60000000D03*
X37500000Y-57500000D03*
X62500000Y-45000000D03*
X60000000Y-62500000D03*
X57500000Y-47500000D03*
X42500000Y-67500000D03*
X37500000Y-62500000D03*
X60000000Y-67500000D03*
X50000000Y-45000000D03*
X45000000Y-47500000D03*
X52500000Y-62500000D03*
X42500000Y-40000000D03*
X55000000Y-65000000D03*
%TD*%
%TA.AperFunction,Conductor*%
%TO.N,+3V3*%
G36*
X64695040Y-30528002D02*
G01*
X64741533Y-30581658D01*
X64751637Y-30651932D01*
X64722143Y-30716512D01*
X64672073Y-30751631D01*
X64571006Y-30790427D01*
X64568066Y-30791925D01*
X64246284Y-30955881D01*
X64246277Y-30955885D01*
X64243343Y-30957380D01*
X63934925Y-31157668D01*
X63649133Y-31389098D01*
X63389098Y-31649133D01*
X63157668Y-31934925D01*
X62957380Y-32243343D01*
X62790427Y-32571006D01*
X62658639Y-32914326D01*
X62563459Y-33269541D01*
X62535840Y-33443919D01*
X62523519Y-33521715D01*
X62505931Y-33632759D01*
X62486685Y-34000000D01*
X62505931Y-34367241D01*
X62506444Y-34370481D01*
X62506445Y-34370489D01*
X62532888Y-34537442D01*
X62563459Y-34730459D01*
X62658639Y-35085674D01*
X62790427Y-35428994D01*
X62791925Y-35431934D01*
X62936943Y-35716547D01*
X62957380Y-35756657D01*
X62959176Y-35759423D01*
X62959178Y-35759426D01*
X62999452Y-35821442D01*
X63157668Y-36065075D01*
X63389098Y-36350867D01*
X63649133Y-36610902D01*
X63934925Y-36842332D01*
X64243342Y-37042620D01*
X64246276Y-37044115D01*
X64246283Y-37044119D01*
X64400549Y-37122721D01*
X64571006Y-37209573D01*
X64914326Y-37341361D01*
X65269541Y-37436541D01*
X65462558Y-37467112D01*
X65629511Y-37493555D01*
X65629519Y-37493556D01*
X65632759Y-37494069D01*
X66000000Y-37513315D01*
X66367241Y-37494069D01*
X66370481Y-37493556D01*
X66370489Y-37493555D01*
X66537442Y-37467112D01*
X66730459Y-37436541D01*
X67085674Y-37341361D01*
X67428994Y-37209573D01*
X67599451Y-37122721D01*
X67753717Y-37044119D01*
X67753724Y-37044115D01*
X67756658Y-37042620D01*
X68065075Y-36842332D01*
X68350867Y-36610902D01*
X68610902Y-36350867D01*
X68842332Y-36065075D01*
X69000548Y-35821442D01*
X69040822Y-35759426D01*
X69040824Y-35759423D01*
X69042620Y-35756657D01*
X69063058Y-35716547D01*
X69208075Y-35431934D01*
X69209573Y-35428994D01*
X69248369Y-35327927D01*
X69291455Y-35271499D01*
X69358208Y-35247322D01*
X69427435Y-35263073D01*
X69477157Y-35313751D01*
X69492000Y-35373081D01*
X69492000Y-64626919D01*
X69471998Y-64695040D01*
X69418342Y-64741533D01*
X69348068Y-64751637D01*
X69283488Y-64722143D01*
X69248369Y-64672073D01*
X69210757Y-64574091D01*
X69209573Y-64571006D01*
X69078498Y-64313757D01*
X69044119Y-64246284D01*
X69044115Y-64246277D01*
X69042620Y-64243343D01*
X68944904Y-64092872D01*
X68844134Y-63937700D01*
X68842332Y-63934925D01*
X68610902Y-63649133D01*
X68350867Y-63389098D01*
X68065075Y-63157668D01*
X67756658Y-62957380D01*
X67753724Y-62955885D01*
X67753717Y-62955881D01*
X67431934Y-62791925D01*
X67428994Y-62790427D01*
X67085674Y-62658639D01*
X66730459Y-62563459D01*
X66537442Y-62532888D01*
X66370489Y-62506445D01*
X66370481Y-62506444D01*
X66367241Y-62505931D01*
X66000000Y-62486685D01*
X65632759Y-62505931D01*
X65629519Y-62506444D01*
X65629511Y-62506445D01*
X65462558Y-62532888D01*
X65269541Y-62563459D01*
X64914326Y-62658639D01*
X64571006Y-62790427D01*
X64568066Y-62791925D01*
X64246284Y-62955881D01*
X64246277Y-62955885D01*
X64243343Y-62957380D01*
X64240577Y-62959176D01*
X64240574Y-62959178D01*
X64113267Y-63041852D01*
X63934925Y-63157668D01*
X63649133Y-63389098D01*
X63389098Y-63649133D01*
X63157668Y-63934925D01*
X63155866Y-63937700D01*
X63055097Y-64092872D01*
X62957380Y-64243343D01*
X62955885Y-64246277D01*
X62955881Y-64246284D01*
X62921502Y-64313757D01*
X62790427Y-64571006D01*
X62658639Y-64914326D01*
X62563459Y-65269541D01*
X62546395Y-65377279D01*
X62507427Y-65623315D01*
X62505931Y-65632759D01*
X62486685Y-66000000D01*
X62505931Y-66367241D01*
X62563459Y-66730459D01*
X62658639Y-67085674D01*
X62790427Y-67428994D01*
X62791925Y-67431934D01*
X62926579Y-67696206D01*
X62957380Y-67756657D01*
X63157668Y-68065075D01*
X63389098Y-68350867D01*
X63649133Y-68610902D01*
X63934925Y-68842332D01*
X64243342Y-69042620D01*
X64246276Y-69044115D01*
X64246283Y-69044119D01*
X64568066Y-69208075D01*
X64571006Y-69209573D01*
X64647658Y-69238997D01*
X64672073Y-69248369D01*
X64728501Y-69291455D01*
X64752678Y-69358208D01*
X64736927Y-69427435D01*
X64686249Y-69477157D01*
X64626919Y-69492000D01*
X35373081Y-69492000D01*
X35304960Y-69471998D01*
X35258467Y-69418342D01*
X35248363Y-69348068D01*
X35277857Y-69283488D01*
X35327927Y-69248369D01*
X35352342Y-69238997D01*
X35428994Y-69209573D01*
X35431934Y-69208075D01*
X35753717Y-69044119D01*
X35753724Y-69044115D01*
X35756658Y-69042620D01*
X36065075Y-68842332D01*
X36350867Y-68610902D01*
X36610902Y-68350867D01*
X36842332Y-68065075D01*
X37042620Y-67756657D01*
X37073422Y-67696206D01*
X37173394Y-67500000D01*
X41586496Y-67500000D01*
X41587186Y-67506565D01*
X41591047Y-67543296D01*
X41606458Y-67689928D01*
X41665473Y-67871556D01*
X41760960Y-68036944D01*
X41765378Y-68041851D01*
X41765379Y-68041852D01*
X41786289Y-68065075D01*
X41888747Y-68178866D01*
X42043248Y-68291118D01*
X42049276Y-68293802D01*
X42049278Y-68293803D01*
X42211681Y-68366109D01*
X42217712Y-68368794D01*
X42311113Y-68388647D01*
X42398056Y-68407128D01*
X42398061Y-68407128D01*
X42404513Y-68408500D01*
X42595487Y-68408500D01*
X42601939Y-68407128D01*
X42601944Y-68407128D01*
X42688887Y-68388647D01*
X42782288Y-68368794D01*
X42788319Y-68366109D01*
X42950722Y-68293803D01*
X42950724Y-68293802D01*
X42956752Y-68291118D01*
X43111253Y-68178866D01*
X43213711Y-68065075D01*
X43234621Y-68041852D01*
X43234622Y-68041851D01*
X43239040Y-68036944D01*
X43334527Y-67871556D01*
X43393542Y-67689928D01*
X43408954Y-67543296D01*
X43412814Y-67506565D01*
X43413504Y-67500000D01*
X44086496Y-67500000D01*
X44087186Y-67506565D01*
X44091047Y-67543296D01*
X44106458Y-67689928D01*
X44165473Y-67871556D01*
X44260960Y-68036944D01*
X44265378Y-68041851D01*
X44265379Y-68041852D01*
X44286289Y-68065075D01*
X44388747Y-68178866D01*
X44543248Y-68291118D01*
X44549276Y-68293802D01*
X44549278Y-68293803D01*
X44711681Y-68366109D01*
X44717712Y-68368794D01*
X44811113Y-68388647D01*
X44898056Y-68407128D01*
X44898061Y-68407128D01*
X44904513Y-68408500D01*
X45095487Y-68408500D01*
X45101939Y-68407128D01*
X45101944Y-68407128D01*
X45188887Y-68388647D01*
X45282288Y-68368794D01*
X45288319Y-68366109D01*
X45450722Y-68293803D01*
X45450724Y-68293802D01*
X45456752Y-68291118D01*
X45611253Y-68178866D01*
X45713711Y-68065075D01*
X45734621Y-68041852D01*
X45734622Y-68041851D01*
X45739040Y-68036944D01*
X45834527Y-67871556D01*
X45893542Y-67689928D01*
X45908954Y-67543296D01*
X45912814Y-67506565D01*
X45913504Y-67500000D01*
X54086496Y-67500000D01*
X54087186Y-67506565D01*
X54091047Y-67543296D01*
X54106458Y-67689928D01*
X54165473Y-67871556D01*
X54260960Y-68036944D01*
X54265378Y-68041851D01*
X54265379Y-68041852D01*
X54286289Y-68065075D01*
X54388747Y-68178866D01*
X54543248Y-68291118D01*
X54549276Y-68293802D01*
X54549278Y-68293803D01*
X54711681Y-68366109D01*
X54717712Y-68368794D01*
X54811113Y-68388647D01*
X54898056Y-68407128D01*
X54898061Y-68407128D01*
X54904513Y-68408500D01*
X55095487Y-68408500D01*
X55101939Y-68407128D01*
X55101944Y-68407128D01*
X55188887Y-68388647D01*
X55282288Y-68368794D01*
X55288319Y-68366109D01*
X55450722Y-68293803D01*
X55450724Y-68293802D01*
X55456752Y-68291118D01*
X55611253Y-68178866D01*
X55713711Y-68065075D01*
X55734621Y-68041852D01*
X55734622Y-68041851D01*
X55739040Y-68036944D01*
X55834527Y-67871556D01*
X55893542Y-67689928D01*
X55908954Y-67543296D01*
X55912814Y-67506565D01*
X55913504Y-67500000D01*
X56586496Y-67500000D01*
X56587186Y-67506565D01*
X56591047Y-67543296D01*
X56606458Y-67689928D01*
X56665473Y-67871556D01*
X56760960Y-68036944D01*
X56765378Y-68041851D01*
X56765379Y-68041852D01*
X56786289Y-68065075D01*
X56888747Y-68178866D01*
X57043248Y-68291118D01*
X57049276Y-68293802D01*
X57049278Y-68293803D01*
X57211681Y-68366109D01*
X57217712Y-68368794D01*
X57311113Y-68388647D01*
X57398056Y-68407128D01*
X57398061Y-68407128D01*
X57404513Y-68408500D01*
X57595487Y-68408500D01*
X57601939Y-68407128D01*
X57601944Y-68407128D01*
X57688887Y-68388647D01*
X57782288Y-68368794D01*
X57788319Y-68366109D01*
X57950722Y-68293803D01*
X57950724Y-68293802D01*
X57956752Y-68291118D01*
X58111253Y-68178866D01*
X58213711Y-68065075D01*
X58234621Y-68041852D01*
X58234622Y-68041851D01*
X58239040Y-68036944D01*
X58334527Y-67871556D01*
X58393542Y-67689928D01*
X58408954Y-67543296D01*
X58412814Y-67506565D01*
X58413504Y-67500000D01*
X59086496Y-67500000D01*
X59087186Y-67506565D01*
X59091047Y-67543296D01*
X59106458Y-67689928D01*
X59165473Y-67871556D01*
X59260960Y-68036944D01*
X59265378Y-68041851D01*
X59265379Y-68041852D01*
X59286289Y-68065075D01*
X59388747Y-68178866D01*
X59543248Y-68291118D01*
X59549276Y-68293802D01*
X59549278Y-68293803D01*
X59711681Y-68366109D01*
X59717712Y-68368794D01*
X59811113Y-68388647D01*
X59898056Y-68407128D01*
X59898061Y-68407128D01*
X59904513Y-68408500D01*
X60095487Y-68408500D01*
X60101939Y-68407128D01*
X60101944Y-68407128D01*
X60188887Y-68388647D01*
X60282288Y-68368794D01*
X60288319Y-68366109D01*
X60450722Y-68293803D01*
X60450724Y-68293802D01*
X60456752Y-68291118D01*
X60611253Y-68178866D01*
X60713711Y-68065075D01*
X60734621Y-68041852D01*
X60734622Y-68041851D01*
X60739040Y-68036944D01*
X60834527Y-67871556D01*
X60893542Y-67689928D01*
X60908954Y-67543296D01*
X60912814Y-67506565D01*
X60913504Y-67500000D01*
X60893542Y-67310072D01*
X60834527Y-67128444D01*
X60739040Y-66963056D01*
X60611253Y-66821134D01*
X60456752Y-66708882D01*
X60450724Y-66706198D01*
X60450722Y-66706197D01*
X60288319Y-66633891D01*
X60288318Y-66633891D01*
X60282288Y-66631206D01*
X60188887Y-66611353D01*
X60101944Y-66592872D01*
X60101939Y-66592872D01*
X60095487Y-66591500D01*
X59904513Y-66591500D01*
X59898061Y-66592872D01*
X59898056Y-66592872D01*
X59811113Y-66611353D01*
X59717712Y-66631206D01*
X59711682Y-66633891D01*
X59711681Y-66633891D01*
X59549278Y-66706197D01*
X59549276Y-66706198D01*
X59543248Y-66708882D01*
X59388747Y-66821134D01*
X59260960Y-66963056D01*
X59165473Y-67128444D01*
X59106458Y-67310072D01*
X59086496Y-67500000D01*
X58413504Y-67500000D01*
X58393542Y-67310072D01*
X58334527Y-67128444D01*
X58239040Y-66963056D01*
X58111253Y-66821134D01*
X57956752Y-66708882D01*
X57950724Y-66706198D01*
X57950722Y-66706197D01*
X57788319Y-66633891D01*
X57788318Y-66633891D01*
X57782288Y-66631206D01*
X57688887Y-66611353D01*
X57601944Y-66592872D01*
X57601939Y-66592872D01*
X57595487Y-66591500D01*
X57404513Y-66591500D01*
X57398061Y-66592872D01*
X57398056Y-66592872D01*
X57311113Y-66611353D01*
X57217712Y-66631206D01*
X57211682Y-66633891D01*
X57211681Y-66633891D01*
X57049278Y-66706197D01*
X57049276Y-66706198D01*
X57043248Y-66708882D01*
X56888747Y-66821134D01*
X56760960Y-66963056D01*
X56665473Y-67128444D01*
X56606458Y-67310072D01*
X56586496Y-67500000D01*
X55913504Y-67500000D01*
X55893542Y-67310072D01*
X55834527Y-67128444D01*
X55739040Y-66963056D01*
X55611253Y-66821134D01*
X55456752Y-66708882D01*
X55450724Y-66706198D01*
X55450722Y-66706197D01*
X55288319Y-66633891D01*
X55288318Y-66633891D01*
X55282288Y-66631206D01*
X55188887Y-66611353D01*
X55101944Y-66592872D01*
X55101939Y-66592872D01*
X55095487Y-66591500D01*
X54904513Y-66591500D01*
X54898061Y-66592872D01*
X54898056Y-66592872D01*
X54811113Y-66611353D01*
X54717712Y-66631206D01*
X54711682Y-66633891D01*
X54711681Y-66633891D01*
X54549278Y-66706197D01*
X54549276Y-66706198D01*
X54543248Y-66708882D01*
X54388747Y-66821134D01*
X54260960Y-66963056D01*
X54165473Y-67128444D01*
X54106458Y-67310072D01*
X54086496Y-67500000D01*
X45913504Y-67500000D01*
X45893542Y-67310072D01*
X45834527Y-67128444D01*
X45739040Y-66963056D01*
X45611253Y-66821134D01*
X45456752Y-66708882D01*
X45450724Y-66706198D01*
X45450722Y-66706197D01*
X45288319Y-66633891D01*
X45288318Y-66633891D01*
X45282288Y-66631206D01*
X45188887Y-66611353D01*
X45101944Y-66592872D01*
X45101939Y-66592872D01*
X45095487Y-66591500D01*
X44904513Y-66591500D01*
X44898061Y-66592872D01*
X44898056Y-66592872D01*
X44811113Y-66611353D01*
X44717712Y-66631206D01*
X44711682Y-66633891D01*
X44711681Y-66633891D01*
X44549278Y-66706197D01*
X44549276Y-66706198D01*
X44543248Y-66708882D01*
X44388747Y-66821134D01*
X44260960Y-66963056D01*
X44165473Y-67128444D01*
X44106458Y-67310072D01*
X44086496Y-67500000D01*
X43413504Y-67500000D01*
X43393542Y-67310072D01*
X43334527Y-67128444D01*
X43239040Y-66963056D01*
X43111253Y-66821134D01*
X42956752Y-66708882D01*
X42950724Y-66706198D01*
X42950722Y-66706197D01*
X42788319Y-66633891D01*
X42788318Y-66633891D01*
X42782288Y-66631206D01*
X42688887Y-66611353D01*
X42601944Y-66592872D01*
X42601939Y-66592872D01*
X42595487Y-66591500D01*
X42404513Y-66591500D01*
X42398061Y-66592872D01*
X42398056Y-66592872D01*
X42311113Y-66611353D01*
X42217712Y-66631206D01*
X42211682Y-66633891D01*
X42211681Y-66633891D01*
X42049278Y-66706197D01*
X42049276Y-66706198D01*
X42043248Y-66708882D01*
X41888747Y-66821134D01*
X41760960Y-66963056D01*
X41665473Y-67128444D01*
X41606458Y-67310072D01*
X41586496Y-67500000D01*
X37173394Y-67500000D01*
X37208075Y-67431934D01*
X37209573Y-67428994D01*
X37341361Y-67085674D01*
X37436541Y-66730459D01*
X37494069Y-66367241D01*
X37513315Y-66000000D01*
X37494069Y-65632759D01*
X37492574Y-65623315D01*
X37453605Y-65377279D01*
X37436541Y-65269541D01*
X37364317Y-65000000D01*
X39086496Y-65000000D01*
X39106458Y-65189928D01*
X39165473Y-65371556D01*
X39260960Y-65536944D01*
X39265378Y-65541851D01*
X39265379Y-65541852D01*
X39347232Y-65632759D01*
X39388747Y-65678866D01*
X39543248Y-65791118D01*
X39549276Y-65793802D01*
X39549278Y-65793803D01*
X39563170Y-65799988D01*
X39717712Y-65868794D01*
X39811112Y-65888647D01*
X39898056Y-65907128D01*
X39898061Y-65907128D01*
X39904513Y-65908500D01*
X40095487Y-65908500D01*
X40101939Y-65907128D01*
X40101944Y-65907128D01*
X40188888Y-65888647D01*
X40282288Y-65868794D01*
X40436830Y-65799988D01*
X40450722Y-65793803D01*
X40450724Y-65793802D01*
X40456752Y-65791118D01*
X40611253Y-65678866D01*
X40652768Y-65632759D01*
X40734621Y-65541852D01*
X40734622Y-65541851D01*
X40739040Y-65536944D01*
X40834527Y-65371556D01*
X40893542Y-65189928D01*
X40913504Y-65000000D01*
X41586496Y-65000000D01*
X41606458Y-65189928D01*
X41665473Y-65371556D01*
X41760960Y-65536944D01*
X41765378Y-65541851D01*
X41765379Y-65541852D01*
X41847232Y-65632759D01*
X41888747Y-65678866D01*
X42043248Y-65791118D01*
X42049276Y-65793802D01*
X42049278Y-65793803D01*
X42063170Y-65799988D01*
X42217712Y-65868794D01*
X42311112Y-65888647D01*
X42398056Y-65907128D01*
X42398061Y-65907128D01*
X42404513Y-65908500D01*
X42595487Y-65908500D01*
X42601939Y-65907128D01*
X42601944Y-65907128D01*
X42688888Y-65888647D01*
X42782288Y-65868794D01*
X42936830Y-65799988D01*
X42950722Y-65793803D01*
X42950724Y-65793802D01*
X42956752Y-65791118D01*
X43111253Y-65678866D01*
X43152768Y-65632759D01*
X43223949Y-65553705D01*
X47092001Y-65553705D01*
X47092264Y-65559454D01*
X47098132Y-65623315D01*
X47100743Y-65636351D01*
X47147715Y-65786243D01*
X47153921Y-65799988D01*
X47234824Y-65933574D01*
X47244131Y-65945443D01*
X47354557Y-66055869D01*
X47366426Y-66065176D01*
X47500012Y-66146079D01*
X47513757Y-66152285D01*
X47663644Y-66199256D01*
X47676694Y-66201869D01*
X47731586Y-66206913D01*
X47743124Y-66203525D01*
X47744329Y-66202135D01*
X47746000Y-66194452D01*
X47746000Y-66189884D01*
X48254000Y-66189884D01*
X48258475Y-66205123D01*
X48259865Y-66206328D01*
X48264294Y-66207291D01*
X48323315Y-66201868D01*
X48336351Y-66199257D01*
X48486243Y-66152285D01*
X48499988Y-66146079D01*
X48629578Y-66067596D01*
X48698208Y-66049417D01*
X48768911Y-66073436D01*
X48793248Y-66091118D01*
X48799276Y-66093802D01*
X48799278Y-66093803D01*
X48916693Y-66146079D01*
X48967712Y-66168794D01*
X49061113Y-66188647D01*
X49148056Y-66207128D01*
X49148061Y-66207128D01*
X49154513Y-66208500D01*
X49345487Y-66208500D01*
X49351939Y-66207128D01*
X49351944Y-66207128D01*
X49438887Y-66188647D01*
X49532288Y-66168794D01*
X49583307Y-66146079D01*
X49700722Y-66093803D01*
X49700724Y-66093802D01*
X49706752Y-66091118D01*
X49800939Y-66022687D01*
X49867807Y-65998828D01*
X49936958Y-66014909D01*
X49949061Y-66022687D01*
X50043248Y-66091118D01*
X50049276Y-66093802D01*
X50049278Y-66093803D01*
X50166693Y-66146079D01*
X50217712Y-66168794D01*
X50311113Y-66188647D01*
X50398056Y-66207128D01*
X50398061Y-66207128D01*
X50404513Y-66208500D01*
X50595487Y-66208500D01*
X50601939Y-66207128D01*
X50601944Y-66207128D01*
X50688887Y-66188647D01*
X50782288Y-66168794D01*
X50833307Y-66146079D01*
X50950722Y-66093803D01*
X50950724Y-66093802D01*
X50956752Y-66091118D01*
X51050939Y-66022687D01*
X51117807Y-65998828D01*
X51186958Y-66014909D01*
X51199061Y-66022687D01*
X51293248Y-66091118D01*
X51299276Y-66093802D01*
X51299278Y-66093803D01*
X51416693Y-66146079D01*
X51467712Y-66168794D01*
X51561113Y-66188647D01*
X51648056Y-66207128D01*
X51648061Y-66207128D01*
X51654513Y-66208500D01*
X51845487Y-66208500D01*
X51851939Y-66207128D01*
X51851944Y-66207128D01*
X51938887Y-66188647D01*
X52032288Y-66168794D01*
X52083307Y-66146079D01*
X52200722Y-66093803D01*
X52200724Y-66093802D01*
X52206752Y-66091118D01*
X52361253Y-65978866D01*
X52489040Y-65836944D01*
X52584527Y-65671556D01*
X52643542Y-65489928D01*
X52658500Y-65347610D01*
X52658500Y-65000000D01*
X54086496Y-65000000D01*
X54106458Y-65189928D01*
X54165473Y-65371556D01*
X54260960Y-65536944D01*
X54265378Y-65541851D01*
X54265379Y-65541852D01*
X54347232Y-65632759D01*
X54388747Y-65678866D01*
X54543248Y-65791118D01*
X54549276Y-65793802D01*
X54549278Y-65793803D01*
X54563170Y-65799988D01*
X54717712Y-65868794D01*
X54811112Y-65888647D01*
X54898056Y-65907128D01*
X54898061Y-65907128D01*
X54904513Y-65908500D01*
X55095487Y-65908500D01*
X55101939Y-65907128D01*
X55101944Y-65907128D01*
X55188888Y-65888647D01*
X55282288Y-65868794D01*
X55436830Y-65799988D01*
X55450722Y-65793803D01*
X55450724Y-65793802D01*
X55456752Y-65791118D01*
X55611253Y-65678866D01*
X55652768Y-65632759D01*
X55734621Y-65541852D01*
X55734622Y-65541851D01*
X55739040Y-65536944D01*
X55834527Y-65371556D01*
X55893542Y-65189928D01*
X55913504Y-65000000D01*
X56586496Y-65000000D01*
X56606458Y-65189928D01*
X56665473Y-65371556D01*
X56760960Y-65536944D01*
X56765378Y-65541851D01*
X56765379Y-65541852D01*
X56847232Y-65632759D01*
X56888747Y-65678866D01*
X57043248Y-65791118D01*
X57049276Y-65793802D01*
X57049278Y-65793803D01*
X57063170Y-65799988D01*
X57217712Y-65868794D01*
X57311112Y-65888647D01*
X57398056Y-65907128D01*
X57398061Y-65907128D01*
X57404513Y-65908500D01*
X57595487Y-65908500D01*
X57601939Y-65907128D01*
X57601944Y-65907128D01*
X57688888Y-65888647D01*
X57782288Y-65868794D01*
X57936830Y-65799988D01*
X57950722Y-65793803D01*
X57950724Y-65793802D01*
X57956752Y-65791118D01*
X58111253Y-65678866D01*
X58152768Y-65632759D01*
X58234621Y-65541852D01*
X58234622Y-65541851D01*
X58239040Y-65536944D01*
X58334527Y-65371556D01*
X58393542Y-65189928D01*
X58413504Y-65000000D01*
X59086496Y-65000000D01*
X59106458Y-65189928D01*
X59165473Y-65371556D01*
X59260960Y-65536944D01*
X59265378Y-65541851D01*
X59265379Y-65541852D01*
X59347232Y-65632759D01*
X59388747Y-65678866D01*
X59543248Y-65791118D01*
X59549276Y-65793802D01*
X59549278Y-65793803D01*
X59563170Y-65799988D01*
X59717712Y-65868794D01*
X59811112Y-65888647D01*
X59898056Y-65907128D01*
X59898061Y-65907128D01*
X59904513Y-65908500D01*
X60095487Y-65908500D01*
X60101939Y-65907128D01*
X60101944Y-65907128D01*
X60188888Y-65888647D01*
X60282288Y-65868794D01*
X60436830Y-65799988D01*
X60450722Y-65793803D01*
X60450724Y-65793802D01*
X60456752Y-65791118D01*
X60611253Y-65678866D01*
X60652768Y-65632759D01*
X60734621Y-65541852D01*
X60734622Y-65541851D01*
X60739040Y-65536944D01*
X60834527Y-65371556D01*
X60893542Y-65189928D01*
X60913504Y-65000000D01*
X60904835Y-64917519D01*
X60894232Y-64816635D01*
X60894232Y-64816633D01*
X60893542Y-64810072D01*
X60834527Y-64628444D01*
X60739040Y-64463056D01*
X60611253Y-64321134D01*
X60456752Y-64208882D01*
X60450724Y-64206198D01*
X60450722Y-64206197D01*
X60288319Y-64133891D01*
X60288318Y-64133891D01*
X60282288Y-64131206D01*
X60188888Y-64111353D01*
X60101944Y-64092872D01*
X60101939Y-64092872D01*
X60095487Y-64091500D01*
X59904513Y-64091500D01*
X59898061Y-64092872D01*
X59898056Y-64092872D01*
X59811112Y-64111353D01*
X59717712Y-64131206D01*
X59711682Y-64133891D01*
X59711681Y-64133891D01*
X59549278Y-64206197D01*
X59549276Y-64206198D01*
X59543248Y-64208882D01*
X59388747Y-64321134D01*
X59260960Y-64463056D01*
X59165473Y-64628444D01*
X59106458Y-64810072D01*
X59105768Y-64816633D01*
X59105768Y-64816635D01*
X59095165Y-64917519D01*
X59086496Y-65000000D01*
X58413504Y-65000000D01*
X58404835Y-64917519D01*
X58394232Y-64816635D01*
X58394232Y-64816633D01*
X58393542Y-64810072D01*
X58334527Y-64628444D01*
X58239040Y-64463056D01*
X58111253Y-64321134D01*
X57956752Y-64208882D01*
X57950724Y-64206198D01*
X57950722Y-64206197D01*
X57788319Y-64133891D01*
X57788318Y-64133891D01*
X57782288Y-64131206D01*
X57688888Y-64111353D01*
X57601944Y-64092872D01*
X57601939Y-64092872D01*
X57595487Y-64091500D01*
X57404513Y-64091500D01*
X57398061Y-64092872D01*
X57398056Y-64092872D01*
X57311112Y-64111353D01*
X57217712Y-64131206D01*
X57211682Y-64133891D01*
X57211681Y-64133891D01*
X57049278Y-64206197D01*
X57049276Y-64206198D01*
X57043248Y-64208882D01*
X56888747Y-64321134D01*
X56760960Y-64463056D01*
X56665473Y-64628444D01*
X56606458Y-64810072D01*
X56605768Y-64816633D01*
X56605768Y-64816635D01*
X56595165Y-64917519D01*
X56586496Y-65000000D01*
X55913504Y-65000000D01*
X55904835Y-64917519D01*
X55894232Y-64816635D01*
X55894232Y-64816633D01*
X55893542Y-64810072D01*
X55834527Y-64628444D01*
X55739040Y-64463056D01*
X55611253Y-64321134D01*
X55456752Y-64208882D01*
X55450724Y-64206198D01*
X55450722Y-64206197D01*
X55288319Y-64133891D01*
X55288318Y-64133891D01*
X55282288Y-64131206D01*
X55188888Y-64111353D01*
X55101944Y-64092872D01*
X55101939Y-64092872D01*
X55095487Y-64091500D01*
X54904513Y-64091500D01*
X54898061Y-64092872D01*
X54898056Y-64092872D01*
X54811112Y-64111353D01*
X54717712Y-64131206D01*
X54711682Y-64133891D01*
X54711681Y-64133891D01*
X54549278Y-64206197D01*
X54549276Y-64206198D01*
X54543248Y-64208882D01*
X54388747Y-64321134D01*
X54260960Y-64463056D01*
X54165473Y-64628444D01*
X54106458Y-64810072D01*
X54105768Y-64816633D01*
X54105768Y-64816635D01*
X54095165Y-64917519D01*
X54086496Y-65000000D01*
X52658500Y-65000000D01*
X52658500Y-64752390D01*
X52645313Y-64626919D01*
X52644232Y-64616635D01*
X52644232Y-64616633D01*
X52643542Y-64610072D01*
X52584527Y-64428444D01*
X52489040Y-64263056D01*
X52473939Y-64246284D01*
X52365675Y-64126045D01*
X52365674Y-64126044D01*
X52361253Y-64121134D01*
X52206752Y-64008882D01*
X52200724Y-64006198D01*
X52200722Y-64006197D01*
X52038319Y-63933891D01*
X52038318Y-63933891D01*
X52032288Y-63931206D01*
X51933068Y-63910116D01*
X51851944Y-63892872D01*
X51851939Y-63892872D01*
X51845487Y-63891500D01*
X51654513Y-63891500D01*
X51648061Y-63892872D01*
X51648056Y-63892872D01*
X51566932Y-63910116D01*
X51467712Y-63931206D01*
X51461682Y-63933891D01*
X51461681Y-63933891D01*
X51299278Y-64006197D01*
X51299276Y-64006198D01*
X51293248Y-64008882D01*
X51287907Y-64012762D01*
X51287906Y-64012763D01*
X51199061Y-64077313D01*
X51132193Y-64101172D01*
X51063042Y-64085091D01*
X51050939Y-64077313D01*
X50962094Y-64012763D01*
X50962093Y-64012762D01*
X50956752Y-64008882D01*
X50950724Y-64006198D01*
X50950722Y-64006197D01*
X50788319Y-63933891D01*
X50788318Y-63933891D01*
X50782288Y-63931206D01*
X50683068Y-63910116D01*
X50601944Y-63892872D01*
X50601939Y-63892872D01*
X50595487Y-63891500D01*
X50404513Y-63891500D01*
X50398061Y-63892872D01*
X50398056Y-63892872D01*
X50316932Y-63910116D01*
X50217712Y-63931206D01*
X50211682Y-63933891D01*
X50211681Y-63933891D01*
X50049278Y-64006197D01*
X50049276Y-64006198D01*
X50043248Y-64008882D01*
X50037907Y-64012762D01*
X50037906Y-64012763D01*
X49949061Y-64077313D01*
X49882193Y-64101172D01*
X49813042Y-64085091D01*
X49800939Y-64077313D01*
X49712094Y-64012763D01*
X49712093Y-64012762D01*
X49706752Y-64008882D01*
X49700724Y-64006198D01*
X49700722Y-64006197D01*
X49538319Y-63933891D01*
X49538318Y-63933891D01*
X49532288Y-63931206D01*
X49433068Y-63910116D01*
X49351944Y-63892872D01*
X49351939Y-63892872D01*
X49345487Y-63891500D01*
X49154513Y-63891500D01*
X49148061Y-63892872D01*
X49148056Y-63892872D01*
X49066932Y-63910116D01*
X48967712Y-63931206D01*
X48961682Y-63933891D01*
X48961681Y-63933891D01*
X48799278Y-64006197D01*
X48799276Y-64006198D01*
X48793248Y-64008882D01*
X48787907Y-64012762D01*
X48787906Y-64012763D01*
X48768911Y-64026564D01*
X48702044Y-64050422D01*
X48629578Y-64032404D01*
X48499988Y-63953921D01*
X48486243Y-63947715D01*
X48336356Y-63900744D01*
X48323306Y-63898131D01*
X48268414Y-63893087D01*
X48256876Y-63896475D01*
X48255671Y-63897865D01*
X48254000Y-63905548D01*
X48254000Y-66189884D01*
X47746000Y-66189884D01*
X47746000Y-65322115D01*
X47741525Y-65306876D01*
X47740135Y-65305671D01*
X47732452Y-65304000D01*
X47110116Y-65304000D01*
X47094877Y-65308475D01*
X47093672Y-65309865D01*
X47092001Y-65317548D01*
X47092001Y-65553705D01*
X43223949Y-65553705D01*
X43234621Y-65541852D01*
X43234622Y-65541851D01*
X43239040Y-65536944D01*
X43334527Y-65371556D01*
X43393542Y-65189928D01*
X43413504Y-65000000D01*
X43404835Y-64917519D01*
X43394232Y-64816635D01*
X43394232Y-64816633D01*
X43393542Y-64810072D01*
X43383084Y-64777885D01*
X47092000Y-64777885D01*
X47096475Y-64793124D01*
X47097865Y-64794329D01*
X47105548Y-64796000D01*
X47727885Y-64796000D01*
X47743124Y-64791525D01*
X47744329Y-64790135D01*
X47746000Y-64782452D01*
X47746000Y-63910116D01*
X47741525Y-63894877D01*
X47740135Y-63893672D01*
X47735706Y-63892709D01*
X47676685Y-63898132D01*
X47663649Y-63900743D01*
X47513757Y-63947715D01*
X47500012Y-63953921D01*
X47366426Y-64034824D01*
X47354557Y-64044131D01*
X47244131Y-64154557D01*
X47234824Y-64166426D01*
X47153921Y-64300012D01*
X47147715Y-64313757D01*
X47100744Y-64463644D01*
X47098131Y-64476694D01*
X47092266Y-64540521D01*
X47092000Y-64546309D01*
X47092000Y-64777885D01*
X43383084Y-64777885D01*
X43334527Y-64628444D01*
X43239040Y-64463056D01*
X43111253Y-64321134D01*
X42956752Y-64208882D01*
X42950724Y-64206198D01*
X42950722Y-64206197D01*
X42788319Y-64133891D01*
X42788318Y-64133891D01*
X42782288Y-64131206D01*
X42688888Y-64111353D01*
X42601944Y-64092872D01*
X42601939Y-64092872D01*
X42595487Y-64091500D01*
X42404513Y-64091500D01*
X42398061Y-64092872D01*
X42398056Y-64092872D01*
X42311112Y-64111353D01*
X42217712Y-64131206D01*
X42211682Y-64133891D01*
X42211681Y-64133891D01*
X42049278Y-64206197D01*
X42049276Y-64206198D01*
X42043248Y-64208882D01*
X41888747Y-64321134D01*
X41760960Y-64463056D01*
X41665473Y-64628444D01*
X41606458Y-64810072D01*
X41605768Y-64816633D01*
X41605768Y-64816635D01*
X41595165Y-64917519D01*
X41586496Y-65000000D01*
X40913504Y-65000000D01*
X40904835Y-64917519D01*
X40894232Y-64816635D01*
X40894232Y-64816633D01*
X40893542Y-64810072D01*
X40834527Y-64628444D01*
X40739040Y-64463056D01*
X40611253Y-64321134D01*
X40456752Y-64208882D01*
X40450724Y-64206198D01*
X40450722Y-64206197D01*
X40288319Y-64133891D01*
X40288318Y-64133891D01*
X40282288Y-64131206D01*
X40188888Y-64111353D01*
X40101944Y-64092872D01*
X40101939Y-64092872D01*
X40095487Y-64091500D01*
X39904513Y-64091500D01*
X39898061Y-64092872D01*
X39898056Y-64092872D01*
X39811112Y-64111353D01*
X39717712Y-64131206D01*
X39711682Y-64133891D01*
X39711681Y-64133891D01*
X39549278Y-64206197D01*
X39549276Y-64206198D01*
X39543248Y-64208882D01*
X39388747Y-64321134D01*
X39260960Y-64463056D01*
X39165473Y-64628444D01*
X39106458Y-64810072D01*
X39105768Y-64816633D01*
X39105768Y-64816635D01*
X39095165Y-64917519D01*
X39086496Y-65000000D01*
X37364317Y-65000000D01*
X37341361Y-64914326D01*
X37209573Y-64571006D01*
X37078498Y-64313757D01*
X37044119Y-64246284D01*
X37044115Y-64246277D01*
X37042620Y-64243343D01*
X36944904Y-64092872D01*
X36844134Y-63937700D01*
X36842332Y-63934925D01*
X36610902Y-63649133D01*
X36350867Y-63389098D01*
X36065075Y-63157668D01*
X35756658Y-62957380D01*
X35753724Y-62955885D01*
X35753717Y-62955881D01*
X35431934Y-62791925D01*
X35428994Y-62790427D01*
X35085674Y-62658639D01*
X34730459Y-62563459D01*
X34537442Y-62532888D01*
X34370489Y-62506445D01*
X34370481Y-62506444D01*
X34367241Y-62505931D01*
X34254069Y-62500000D01*
X36586496Y-62500000D01*
X36587186Y-62506565D01*
X36603080Y-62657784D01*
X36606458Y-62689928D01*
X36665473Y-62871556D01*
X36760960Y-63036944D01*
X36888747Y-63178866D01*
X37043248Y-63291118D01*
X37049276Y-63293802D01*
X37049278Y-63293803D01*
X37211681Y-63366109D01*
X37217712Y-63368794D01*
X37303425Y-63387013D01*
X37398056Y-63407128D01*
X37398061Y-63407128D01*
X37404513Y-63408500D01*
X37595487Y-63408500D01*
X37601939Y-63407128D01*
X37601944Y-63407128D01*
X37696575Y-63387013D01*
X37782288Y-63368794D01*
X37788319Y-63366109D01*
X37950722Y-63293803D01*
X37950724Y-63293802D01*
X37956752Y-63291118D01*
X38111253Y-63178866D01*
X38239040Y-63036944D01*
X38334527Y-62871556D01*
X38393542Y-62689928D01*
X38396921Y-62657784D01*
X38412814Y-62506565D01*
X38413504Y-62500000D01*
X39086496Y-62500000D01*
X39087186Y-62506565D01*
X39103080Y-62657784D01*
X39106458Y-62689928D01*
X39165473Y-62871556D01*
X39260960Y-63036944D01*
X39388747Y-63178866D01*
X39543248Y-63291118D01*
X39549276Y-63293802D01*
X39549278Y-63293803D01*
X39711681Y-63366109D01*
X39717712Y-63368794D01*
X39803425Y-63387013D01*
X39898056Y-63407128D01*
X39898061Y-63407128D01*
X39904513Y-63408500D01*
X40095487Y-63408500D01*
X40101939Y-63407128D01*
X40101944Y-63407128D01*
X40196575Y-63387013D01*
X40282288Y-63368794D01*
X40288319Y-63366109D01*
X40450722Y-63293803D01*
X40450724Y-63293802D01*
X40456752Y-63291118D01*
X40611253Y-63178866D01*
X40739040Y-63036944D01*
X40834527Y-62871556D01*
X40893542Y-62689928D01*
X40896921Y-62657784D01*
X40912814Y-62506565D01*
X40913504Y-62500000D01*
X41586496Y-62500000D01*
X41587186Y-62506565D01*
X41603080Y-62657784D01*
X41606458Y-62689928D01*
X41665473Y-62871556D01*
X41760960Y-63036944D01*
X41888747Y-63178866D01*
X42043248Y-63291118D01*
X42049276Y-63293802D01*
X42049278Y-63293803D01*
X42211681Y-63366109D01*
X42217712Y-63368794D01*
X42303425Y-63387013D01*
X42398056Y-63407128D01*
X42398061Y-63407128D01*
X42404513Y-63408500D01*
X42595487Y-63408500D01*
X42601939Y-63407128D01*
X42601944Y-63407128D01*
X42696575Y-63387013D01*
X42782288Y-63368794D01*
X42788319Y-63366109D01*
X42950722Y-63293803D01*
X42950724Y-63293802D01*
X42956752Y-63291118D01*
X43111253Y-63178866D01*
X43239040Y-63036944D01*
X43334527Y-62871556D01*
X43393542Y-62689928D01*
X43396921Y-62657784D01*
X43412814Y-62506565D01*
X43413504Y-62500000D01*
X51586496Y-62500000D01*
X51587186Y-62506565D01*
X51603080Y-62657784D01*
X51606458Y-62689928D01*
X51665473Y-62871556D01*
X51760960Y-63036944D01*
X51888747Y-63178866D01*
X52043248Y-63291118D01*
X52049276Y-63293802D01*
X52049278Y-63293803D01*
X52211681Y-63366109D01*
X52217712Y-63368794D01*
X52303425Y-63387013D01*
X52398056Y-63407128D01*
X52398061Y-63407128D01*
X52404513Y-63408500D01*
X52595487Y-63408500D01*
X52601939Y-63407128D01*
X52601944Y-63407128D01*
X52696575Y-63387013D01*
X52782288Y-63368794D01*
X52788319Y-63366109D01*
X52950722Y-63293803D01*
X52950724Y-63293802D01*
X52956752Y-63291118D01*
X53111253Y-63178866D01*
X53239040Y-63036944D01*
X53334527Y-62871556D01*
X53393542Y-62689928D01*
X53396921Y-62657784D01*
X53412814Y-62506565D01*
X53413504Y-62500000D01*
X54086496Y-62500000D01*
X54087186Y-62506565D01*
X54103080Y-62657784D01*
X54106458Y-62689928D01*
X54165473Y-62871556D01*
X54260960Y-63036944D01*
X54388747Y-63178866D01*
X54543248Y-63291118D01*
X54549276Y-63293802D01*
X54549278Y-63293803D01*
X54711681Y-63366109D01*
X54717712Y-63368794D01*
X54803425Y-63387013D01*
X54898056Y-63407128D01*
X54898061Y-63407128D01*
X54904513Y-63408500D01*
X55095487Y-63408500D01*
X55101939Y-63407128D01*
X55101944Y-63407128D01*
X55196575Y-63387013D01*
X55282288Y-63368794D01*
X55288319Y-63366109D01*
X55450722Y-63293803D01*
X55450724Y-63293802D01*
X55456752Y-63291118D01*
X55611253Y-63178866D01*
X55739040Y-63036944D01*
X55834527Y-62871556D01*
X55893542Y-62689928D01*
X55896921Y-62657784D01*
X55912814Y-62506565D01*
X55913504Y-62500000D01*
X56586496Y-62500000D01*
X56587186Y-62506565D01*
X56603080Y-62657784D01*
X56606458Y-62689928D01*
X56665473Y-62871556D01*
X56760960Y-63036944D01*
X56888747Y-63178866D01*
X57043248Y-63291118D01*
X57049276Y-63293802D01*
X57049278Y-63293803D01*
X57211681Y-63366109D01*
X57217712Y-63368794D01*
X57303425Y-63387013D01*
X57398056Y-63407128D01*
X57398061Y-63407128D01*
X57404513Y-63408500D01*
X57595487Y-63408500D01*
X57601939Y-63407128D01*
X57601944Y-63407128D01*
X57696575Y-63387013D01*
X57782288Y-63368794D01*
X57788319Y-63366109D01*
X57950722Y-63293803D01*
X57950724Y-63293802D01*
X57956752Y-63291118D01*
X58111253Y-63178866D01*
X58239040Y-63036944D01*
X58334527Y-62871556D01*
X58393542Y-62689928D01*
X58396921Y-62657784D01*
X58412814Y-62506565D01*
X58413504Y-62500000D01*
X59086496Y-62500000D01*
X59087186Y-62506565D01*
X59103080Y-62657784D01*
X59106458Y-62689928D01*
X59165473Y-62871556D01*
X59260960Y-63036944D01*
X59388747Y-63178866D01*
X59543248Y-63291118D01*
X59549276Y-63293802D01*
X59549278Y-63293803D01*
X59711681Y-63366109D01*
X59717712Y-63368794D01*
X59803425Y-63387013D01*
X59898056Y-63407128D01*
X59898061Y-63407128D01*
X59904513Y-63408500D01*
X60095487Y-63408500D01*
X60101939Y-63407128D01*
X60101944Y-63407128D01*
X60196575Y-63387013D01*
X60282288Y-63368794D01*
X60288319Y-63366109D01*
X60450722Y-63293803D01*
X60450724Y-63293802D01*
X60456752Y-63291118D01*
X60611253Y-63178866D01*
X60739040Y-63036944D01*
X60834527Y-62871556D01*
X60893542Y-62689928D01*
X60896921Y-62657784D01*
X60912814Y-62506565D01*
X60913504Y-62500000D01*
X61586496Y-62500000D01*
X61587186Y-62506565D01*
X61603080Y-62657784D01*
X61606458Y-62689928D01*
X61665473Y-62871556D01*
X61760960Y-63036944D01*
X61888747Y-63178866D01*
X62043248Y-63291118D01*
X62049276Y-63293802D01*
X62049278Y-63293803D01*
X62211681Y-63366109D01*
X62217712Y-63368794D01*
X62303425Y-63387013D01*
X62398056Y-63407128D01*
X62398061Y-63407128D01*
X62404513Y-63408500D01*
X62595487Y-63408500D01*
X62601939Y-63407128D01*
X62601944Y-63407128D01*
X62696575Y-63387013D01*
X62782288Y-63368794D01*
X62788319Y-63366109D01*
X62950722Y-63293803D01*
X62950724Y-63293802D01*
X62956752Y-63291118D01*
X63111253Y-63178866D01*
X63239040Y-63036944D01*
X63334527Y-62871556D01*
X63393542Y-62689928D01*
X63396921Y-62657784D01*
X63412814Y-62506565D01*
X63413504Y-62500000D01*
X63393542Y-62310072D01*
X63334527Y-62128444D01*
X63239040Y-61963056D01*
X63111253Y-61821134D01*
X62956752Y-61708882D01*
X62950724Y-61706198D01*
X62950722Y-61706197D01*
X62788319Y-61633891D01*
X62788318Y-61633891D01*
X62782288Y-61631206D01*
X62688888Y-61611353D01*
X62601944Y-61592872D01*
X62601939Y-61592872D01*
X62595487Y-61591500D01*
X62404513Y-61591500D01*
X62398061Y-61592872D01*
X62398056Y-61592872D01*
X62311112Y-61611353D01*
X62217712Y-61631206D01*
X62211682Y-61633891D01*
X62211681Y-61633891D01*
X62049278Y-61706197D01*
X62049276Y-61706198D01*
X62043248Y-61708882D01*
X61888747Y-61821134D01*
X61760960Y-61963056D01*
X61665473Y-62128444D01*
X61606458Y-62310072D01*
X61586496Y-62500000D01*
X60913504Y-62500000D01*
X60893542Y-62310072D01*
X60834527Y-62128444D01*
X60739040Y-61963056D01*
X60611253Y-61821134D01*
X60456752Y-61708882D01*
X60450724Y-61706198D01*
X60450722Y-61706197D01*
X60288319Y-61633891D01*
X60288318Y-61633891D01*
X60282288Y-61631206D01*
X60188888Y-61611353D01*
X60101944Y-61592872D01*
X60101939Y-61592872D01*
X60095487Y-61591500D01*
X59904513Y-61591500D01*
X59898061Y-61592872D01*
X59898056Y-61592872D01*
X59811112Y-61611353D01*
X59717712Y-61631206D01*
X59711682Y-61633891D01*
X59711681Y-61633891D01*
X59549278Y-61706197D01*
X59549276Y-61706198D01*
X59543248Y-61708882D01*
X59388747Y-61821134D01*
X59260960Y-61963056D01*
X59165473Y-62128444D01*
X59106458Y-62310072D01*
X59086496Y-62500000D01*
X58413504Y-62500000D01*
X58393542Y-62310072D01*
X58334527Y-62128444D01*
X58239040Y-61963056D01*
X58111253Y-61821134D01*
X57956752Y-61708882D01*
X57950724Y-61706198D01*
X57950722Y-61706197D01*
X57788319Y-61633891D01*
X57788318Y-61633891D01*
X57782288Y-61631206D01*
X57688888Y-61611353D01*
X57601944Y-61592872D01*
X57601939Y-61592872D01*
X57595487Y-61591500D01*
X57404513Y-61591500D01*
X57398061Y-61592872D01*
X57398056Y-61592872D01*
X57311112Y-61611353D01*
X57217712Y-61631206D01*
X57211682Y-61633891D01*
X57211681Y-61633891D01*
X57049278Y-61706197D01*
X57049276Y-61706198D01*
X57043248Y-61708882D01*
X56888747Y-61821134D01*
X56760960Y-61963056D01*
X56665473Y-62128444D01*
X56606458Y-62310072D01*
X56586496Y-62500000D01*
X55913504Y-62500000D01*
X55893542Y-62310072D01*
X55834527Y-62128444D01*
X55739040Y-61963056D01*
X55611253Y-61821134D01*
X55456752Y-61708882D01*
X55450724Y-61706198D01*
X55450722Y-61706197D01*
X55288319Y-61633891D01*
X55288318Y-61633891D01*
X55282288Y-61631206D01*
X55188888Y-61611353D01*
X55101944Y-61592872D01*
X55101939Y-61592872D01*
X55095487Y-61591500D01*
X54904513Y-61591500D01*
X54898061Y-61592872D01*
X54898056Y-61592872D01*
X54811112Y-61611353D01*
X54717712Y-61631206D01*
X54711682Y-61633891D01*
X54711681Y-61633891D01*
X54549278Y-61706197D01*
X54549276Y-61706198D01*
X54543248Y-61708882D01*
X54388747Y-61821134D01*
X54260960Y-61963056D01*
X54165473Y-62128444D01*
X54106458Y-62310072D01*
X54086496Y-62500000D01*
X53413504Y-62500000D01*
X53393542Y-62310072D01*
X53334527Y-62128444D01*
X53239040Y-61963056D01*
X53111253Y-61821134D01*
X52956752Y-61708882D01*
X52950724Y-61706198D01*
X52950722Y-61706197D01*
X52788319Y-61633891D01*
X52788318Y-61633891D01*
X52782288Y-61631206D01*
X52688888Y-61611353D01*
X52601944Y-61592872D01*
X52601939Y-61592872D01*
X52595487Y-61591500D01*
X52404513Y-61591500D01*
X52398061Y-61592872D01*
X52398056Y-61592872D01*
X52311112Y-61611353D01*
X52217712Y-61631206D01*
X52211682Y-61633891D01*
X52211681Y-61633891D01*
X52049278Y-61706197D01*
X52049276Y-61706198D01*
X52043248Y-61708882D01*
X51888747Y-61821134D01*
X51760960Y-61963056D01*
X51665473Y-62128444D01*
X51606458Y-62310072D01*
X51586496Y-62500000D01*
X43413504Y-62500000D01*
X43393542Y-62310072D01*
X43334527Y-62128444D01*
X43239040Y-61963056D01*
X43111253Y-61821134D01*
X42956752Y-61708882D01*
X42950724Y-61706198D01*
X42950722Y-61706197D01*
X42788319Y-61633891D01*
X42788318Y-61633891D01*
X42782288Y-61631206D01*
X42688888Y-61611353D01*
X42601944Y-61592872D01*
X42601939Y-61592872D01*
X42595487Y-61591500D01*
X42404513Y-61591500D01*
X42398061Y-61592872D01*
X42398056Y-61592872D01*
X42311112Y-61611353D01*
X42217712Y-61631206D01*
X42211682Y-61633891D01*
X42211681Y-61633891D01*
X42049278Y-61706197D01*
X42049276Y-61706198D01*
X42043248Y-61708882D01*
X41888747Y-61821134D01*
X41760960Y-61963056D01*
X41665473Y-62128444D01*
X41606458Y-62310072D01*
X41586496Y-62500000D01*
X40913504Y-62500000D01*
X40893542Y-62310072D01*
X40834527Y-62128444D01*
X40739040Y-61963056D01*
X40611253Y-61821134D01*
X40456752Y-61708882D01*
X40450724Y-61706198D01*
X40450722Y-61706197D01*
X40288319Y-61633891D01*
X40288318Y-61633891D01*
X40282288Y-61631206D01*
X40188888Y-61611353D01*
X40101944Y-61592872D01*
X40101939Y-61592872D01*
X40095487Y-61591500D01*
X39904513Y-61591500D01*
X39898061Y-61592872D01*
X39898056Y-61592872D01*
X39811112Y-61611353D01*
X39717712Y-61631206D01*
X39711682Y-61633891D01*
X39711681Y-61633891D01*
X39549278Y-61706197D01*
X39549276Y-61706198D01*
X39543248Y-61708882D01*
X39388747Y-61821134D01*
X39260960Y-61963056D01*
X39165473Y-62128444D01*
X39106458Y-62310072D01*
X39086496Y-62500000D01*
X38413504Y-62500000D01*
X38393542Y-62310072D01*
X38334527Y-62128444D01*
X38239040Y-61963056D01*
X38111253Y-61821134D01*
X37956752Y-61708882D01*
X37950724Y-61706198D01*
X37950722Y-61706197D01*
X37788319Y-61633891D01*
X37788318Y-61633891D01*
X37782288Y-61631206D01*
X37688888Y-61611353D01*
X37601944Y-61592872D01*
X37601939Y-61592872D01*
X37595487Y-61591500D01*
X37404513Y-61591500D01*
X37398061Y-61592872D01*
X37398056Y-61592872D01*
X37311112Y-61611353D01*
X37217712Y-61631206D01*
X37211682Y-61633891D01*
X37211681Y-61633891D01*
X37049278Y-61706197D01*
X37049276Y-61706198D01*
X37043248Y-61708882D01*
X36888747Y-61821134D01*
X36760960Y-61963056D01*
X36665473Y-62128444D01*
X36606458Y-62310072D01*
X36586496Y-62500000D01*
X34254069Y-62500000D01*
X34000000Y-62486685D01*
X33632759Y-62505931D01*
X33629519Y-62506444D01*
X33629511Y-62506445D01*
X33462558Y-62532888D01*
X33269541Y-62563459D01*
X32914326Y-62658639D01*
X32571006Y-62790427D01*
X32568066Y-62791925D01*
X32246284Y-62955881D01*
X32246277Y-62955885D01*
X32243343Y-62957380D01*
X32240577Y-62959176D01*
X32240574Y-62959178D01*
X32113267Y-63041852D01*
X31934925Y-63157668D01*
X31649133Y-63389098D01*
X31389098Y-63649133D01*
X31157668Y-63934925D01*
X31155866Y-63937700D01*
X31055097Y-64092872D01*
X30957380Y-64243343D01*
X30955885Y-64246277D01*
X30955881Y-64246284D01*
X30921502Y-64313757D01*
X30790427Y-64571006D01*
X30789243Y-64574091D01*
X30751631Y-64672073D01*
X30708545Y-64728501D01*
X30641792Y-64752678D01*
X30572565Y-64736927D01*
X30522843Y-64686249D01*
X30508000Y-64626919D01*
X30508000Y-60000000D01*
X31586496Y-60000000D01*
X31606458Y-60189928D01*
X31665473Y-60371556D01*
X31760960Y-60536944D01*
X31888747Y-60678866D01*
X32043248Y-60791118D01*
X32049276Y-60793802D01*
X32049278Y-60793803D01*
X32211681Y-60866109D01*
X32217712Y-60868794D01*
X32311113Y-60888647D01*
X32398056Y-60907128D01*
X32398061Y-60907128D01*
X32404513Y-60908500D01*
X32595487Y-60908500D01*
X32601939Y-60907128D01*
X32601944Y-60907128D01*
X32688887Y-60888647D01*
X32782288Y-60868794D01*
X32788319Y-60866109D01*
X32950722Y-60793803D01*
X32950724Y-60793802D01*
X32956752Y-60791118D01*
X33111253Y-60678866D01*
X33239040Y-60536944D01*
X33334527Y-60371556D01*
X33393542Y-60189928D01*
X33413504Y-60000000D01*
X34086496Y-60000000D01*
X34106458Y-60189928D01*
X34165473Y-60371556D01*
X34260960Y-60536944D01*
X34388747Y-60678866D01*
X34543248Y-60791118D01*
X34549276Y-60793802D01*
X34549278Y-60793803D01*
X34711681Y-60866109D01*
X34717712Y-60868794D01*
X34811113Y-60888647D01*
X34898056Y-60907128D01*
X34898061Y-60907128D01*
X34904513Y-60908500D01*
X35095487Y-60908500D01*
X35101939Y-60907128D01*
X35101944Y-60907128D01*
X35188887Y-60888647D01*
X35282288Y-60868794D01*
X35288319Y-60866109D01*
X35450722Y-60793803D01*
X35450724Y-60793802D01*
X35456752Y-60791118D01*
X35611253Y-60678866D01*
X35739040Y-60536944D01*
X35834527Y-60371556D01*
X35893542Y-60189928D01*
X35913504Y-60000000D01*
X36586496Y-60000000D01*
X36606458Y-60189928D01*
X36665473Y-60371556D01*
X36760960Y-60536944D01*
X36888747Y-60678866D01*
X37043248Y-60791118D01*
X37049276Y-60793802D01*
X37049278Y-60793803D01*
X37211681Y-60866109D01*
X37217712Y-60868794D01*
X37311113Y-60888647D01*
X37398056Y-60907128D01*
X37398061Y-60907128D01*
X37404513Y-60908500D01*
X37595487Y-60908500D01*
X37601939Y-60907128D01*
X37601944Y-60907128D01*
X37688887Y-60888647D01*
X37782288Y-60868794D01*
X37788319Y-60866109D01*
X37950722Y-60793803D01*
X37950724Y-60793802D01*
X37956752Y-60791118D01*
X38111253Y-60678866D01*
X38239040Y-60536944D01*
X38334527Y-60371556D01*
X38393542Y-60189928D01*
X38413504Y-60000000D01*
X39086496Y-60000000D01*
X39106458Y-60189928D01*
X39165473Y-60371556D01*
X39260960Y-60536944D01*
X39388747Y-60678866D01*
X39543248Y-60791118D01*
X39549276Y-60793802D01*
X39549278Y-60793803D01*
X39711681Y-60866109D01*
X39717712Y-60868794D01*
X39811113Y-60888647D01*
X39898056Y-60907128D01*
X39898061Y-60907128D01*
X39904513Y-60908500D01*
X40095487Y-60908500D01*
X40101939Y-60907128D01*
X40101944Y-60907128D01*
X40188887Y-60888647D01*
X40282288Y-60868794D01*
X40288319Y-60866109D01*
X40450722Y-60793803D01*
X40450724Y-60793802D01*
X40456752Y-60791118D01*
X40611253Y-60678866D01*
X40739040Y-60536944D01*
X40834527Y-60371556D01*
X40893542Y-60189928D01*
X40913504Y-60000000D01*
X41586496Y-60000000D01*
X41606458Y-60189928D01*
X41665473Y-60371556D01*
X41760960Y-60536944D01*
X41888747Y-60678866D01*
X42043248Y-60791118D01*
X42049276Y-60793802D01*
X42049278Y-60793803D01*
X42211681Y-60866109D01*
X42217712Y-60868794D01*
X42311113Y-60888647D01*
X42398056Y-60907128D01*
X42398061Y-60907128D01*
X42404513Y-60908500D01*
X42595487Y-60908500D01*
X42601939Y-60907128D01*
X42601944Y-60907128D01*
X42688887Y-60888647D01*
X42782288Y-60868794D01*
X42788319Y-60866109D01*
X42950722Y-60793803D01*
X42950724Y-60793802D01*
X42956752Y-60791118D01*
X43111253Y-60678866D01*
X43239040Y-60536944D01*
X43334527Y-60371556D01*
X43393542Y-60189928D01*
X43413504Y-60000000D01*
X46586496Y-60000000D01*
X46606458Y-60189928D01*
X46665473Y-60371556D01*
X46760960Y-60536944D01*
X46888747Y-60678866D01*
X47043248Y-60791118D01*
X47049276Y-60793802D01*
X47049278Y-60793803D01*
X47211681Y-60866109D01*
X47217712Y-60868794D01*
X47311113Y-60888647D01*
X47398056Y-60907128D01*
X47398061Y-60907128D01*
X47404513Y-60908500D01*
X47595487Y-60908500D01*
X47601939Y-60907128D01*
X47601944Y-60907128D01*
X47688887Y-60888647D01*
X47782288Y-60868794D01*
X47788319Y-60866109D01*
X47950722Y-60793803D01*
X47950724Y-60793802D01*
X47956752Y-60791118D01*
X48111253Y-60678866D01*
X48239040Y-60536944D01*
X48334527Y-60371556D01*
X48393542Y-60189928D01*
X48413504Y-60000000D01*
X48393542Y-59810072D01*
X48334527Y-59628444D01*
X48239040Y-59463056D01*
X48111253Y-59321134D01*
X47956752Y-59208882D01*
X47950724Y-59206198D01*
X47950722Y-59206197D01*
X47788319Y-59133891D01*
X47788318Y-59133891D01*
X47782288Y-59131206D01*
X47688888Y-59111353D01*
X47601944Y-59092872D01*
X47601939Y-59092872D01*
X47595487Y-59091500D01*
X47404513Y-59091500D01*
X47398061Y-59092872D01*
X47398056Y-59092872D01*
X47311112Y-59111353D01*
X47217712Y-59131206D01*
X47211682Y-59133891D01*
X47211681Y-59133891D01*
X47049278Y-59206197D01*
X47049276Y-59206198D01*
X47043248Y-59208882D01*
X46888747Y-59321134D01*
X46760960Y-59463056D01*
X46665473Y-59628444D01*
X46606458Y-59810072D01*
X46586496Y-60000000D01*
X43413504Y-60000000D01*
X43393542Y-59810072D01*
X43334527Y-59628444D01*
X43239040Y-59463056D01*
X43111253Y-59321134D01*
X42956752Y-59208882D01*
X42950724Y-59206198D01*
X42950722Y-59206197D01*
X42788319Y-59133891D01*
X42788318Y-59133891D01*
X42782288Y-59131206D01*
X42688888Y-59111353D01*
X42601944Y-59092872D01*
X42601939Y-59092872D01*
X42595487Y-59091500D01*
X42404513Y-59091500D01*
X42398061Y-59092872D01*
X42398056Y-59092872D01*
X42311112Y-59111353D01*
X42217712Y-59131206D01*
X42211682Y-59133891D01*
X42211681Y-59133891D01*
X42049278Y-59206197D01*
X42049276Y-59206198D01*
X42043248Y-59208882D01*
X41888747Y-59321134D01*
X41760960Y-59463056D01*
X41665473Y-59628444D01*
X41606458Y-59810072D01*
X41586496Y-60000000D01*
X40913504Y-60000000D01*
X40893542Y-59810072D01*
X40834527Y-59628444D01*
X40739040Y-59463056D01*
X40611253Y-59321134D01*
X40456752Y-59208882D01*
X40450724Y-59206198D01*
X40450722Y-59206197D01*
X40288319Y-59133891D01*
X40288318Y-59133891D01*
X40282288Y-59131206D01*
X40188888Y-59111353D01*
X40101944Y-59092872D01*
X40101939Y-59092872D01*
X40095487Y-59091500D01*
X39904513Y-59091500D01*
X39898061Y-59092872D01*
X39898056Y-59092872D01*
X39811112Y-59111353D01*
X39717712Y-59131206D01*
X39711682Y-59133891D01*
X39711681Y-59133891D01*
X39549278Y-59206197D01*
X39549276Y-59206198D01*
X39543248Y-59208882D01*
X39388747Y-59321134D01*
X39260960Y-59463056D01*
X39165473Y-59628444D01*
X39106458Y-59810072D01*
X39086496Y-60000000D01*
X38413504Y-60000000D01*
X38393542Y-59810072D01*
X38334527Y-59628444D01*
X38239040Y-59463056D01*
X38111253Y-59321134D01*
X37956752Y-59208882D01*
X37950724Y-59206198D01*
X37950722Y-59206197D01*
X37788319Y-59133891D01*
X37788318Y-59133891D01*
X37782288Y-59131206D01*
X37688888Y-59111353D01*
X37601944Y-59092872D01*
X37601939Y-59092872D01*
X37595487Y-59091500D01*
X37404513Y-59091500D01*
X37398061Y-59092872D01*
X37398056Y-59092872D01*
X37311112Y-59111353D01*
X37217712Y-59131206D01*
X37211682Y-59133891D01*
X37211681Y-59133891D01*
X37049278Y-59206197D01*
X37049276Y-59206198D01*
X37043248Y-59208882D01*
X36888747Y-59321134D01*
X36760960Y-59463056D01*
X36665473Y-59628444D01*
X36606458Y-59810072D01*
X36586496Y-60000000D01*
X35913504Y-60000000D01*
X35893542Y-59810072D01*
X35834527Y-59628444D01*
X35739040Y-59463056D01*
X35611253Y-59321134D01*
X35456752Y-59208882D01*
X35450724Y-59206198D01*
X35450722Y-59206197D01*
X35288319Y-59133891D01*
X35288318Y-59133891D01*
X35282288Y-59131206D01*
X35188888Y-59111353D01*
X35101944Y-59092872D01*
X35101939Y-59092872D01*
X35095487Y-59091500D01*
X34904513Y-59091500D01*
X34898061Y-59092872D01*
X34898056Y-59092872D01*
X34811112Y-59111353D01*
X34717712Y-59131206D01*
X34711682Y-59133891D01*
X34711681Y-59133891D01*
X34549278Y-59206197D01*
X34549276Y-59206198D01*
X34543248Y-59208882D01*
X34388747Y-59321134D01*
X34260960Y-59463056D01*
X34165473Y-59628444D01*
X34106458Y-59810072D01*
X34086496Y-60000000D01*
X33413504Y-60000000D01*
X33393542Y-59810072D01*
X33334527Y-59628444D01*
X33239040Y-59463056D01*
X33111253Y-59321134D01*
X32956752Y-59208882D01*
X32950724Y-59206198D01*
X32950722Y-59206197D01*
X32788319Y-59133891D01*
X32788318Y-59133891D01*
X32782288Y-59131206D01*
X32688888Y-59111353D01*
X32601944Y-59092872D01*
X32601939Y-59092872D01*
X32595487Y-59091500D01*
X32404513Y-59091500D01*
X32398061Y-59092872D01*
X32398056Y-59092872D01*
X32311112Y-59111353D01*
X32217712Y-59131206D01*
X32211682Y-59133891D01*
X32211681Y-59133891D01*
X32049278Y-59206197D01*
X32049276Y-59206198D01*
X32043248Y-59208882D01*
X31888747Y-59321134D01*
X31760960Y-59463056D01*
X31665473Y-59628444D01*
X31606458Y-59810072D01*
X31586496Y-60000000D01*
X30508000Y-60000000D01*
X30508000Y-56486552D01*
X30806956Y-56486552D01*
X30807472Y-56492696D01*
X30818988Y-56629834D01*
X30822685Y-56673865D01*
X30841727Y-56740271D01*
X30864914Y-56821134D01*
X30874497Y-56854555D01*
X30877312Y-56860032D01*
X30877313Y-56860035D01*
X30933197Y-56968774D01*
X30960418Y-57021740D01*
X30964241Y-57026564D01*
X30964244Y-57026568D01*
X31040455Y-57122721D01*
X31077177Y-57169052D01*
X31081871Y-57173047D01*
X31211653Y-57283500D01*
X31220324Y-57290880D01*
X31225702Y-57293886D01*
X31225704Y-57293887D01*
X31266407Y-57316635D01*
X31384409Y-57382584D01*
X31563180Y-57440670D01*
X31749830Y-57462927D01*
X31755965Y-57462455D01*
X31755967Y-57462455D01*
X31931105Y-57448979D01*
X31931109Y-57448978D01*
X31937247Y-57448506D01*
X32022378Y-57424737D01*
X32112350Y-57399616D01*
X32112353Y-57399615D01*
X32118294Y-57397956D01*
X32123798Y-57395176D01*
X32123800Y-57395175D01*
X32280574Y-57315983D01*
X32280576Y-57315982D01*
X32286075Y-57313204D01*
X32366973Y-57250000D01*
X34136496Y-57250000D01*
X34137186Y-57256565D01*
X34152047Y-57397956D01*
X34156458Y-57439928D01*
X34215473Y-57621556D01*
X34310960Y-57786944D01*
X34438747Y-57928866D01*
X34593248Y-58041118D01*
X34599276Y-58043802D01*
X34599278Y-58043803D01*
X34761681Y-58116109D01*
X34767712Y-58118794D01*
X34861112Y-58138647D01*
X34948056Y-58157128D01*
X34948061Y-58157128D01*
X34954513Y-58158500D01*
X35145487Y-58158500D01*
X35151939Y-58157128D01*
X35151944Y-58157128D01*
X35238888Y-58138647D01*
X35332288Y-58118794D01*
X35338319Y-58116109D01*
X35500722Y-58043803D01*
X35500724Y-58043802D01*
X35506752Y-58041118D01*
X35661253Y-57928866D01*
X35789040Y-57786944D01*
X35884527Y-57621556D01*
X35924023Y-57500000D01*
X36586496Y-57500000D01*
X36606458Y-57689928D01*
X36665473Y-57871556D01*
X36760960Y-58036944D01*
X36888747Y-58178866D01*
X37043248Y-58291118D01*
X37049276Y-58293802D01*
X37049278Y-58293803D01*
X37211681Y-58366109D01*
X37217712Y-58368794D01*
X37311112Y-58388647D01*
X37398056Y-58407128D01*
X37398061Y-58407128D01*
X37404513Y-58408500D01*
X37595487Y-58408500D01*
X37601939Y-58407128D01*
X37601944Y-58407128D01*
X37688888Y-58388647D01*
X37782288Y-58368794D01*
X37788319Y-58366109D01*
X37950722Y-58293803D01*
X37950724Y-58293802D01*
X37956752Y-58291118D01*
X38111253Y-58178866D01*
X38239040Y-58036944D01*
X38334527Y-57871556D01*
X38393542Y-57689928D01*
X38413504Y-57500000D01*
X39086496Y-57500000D01*
X39106458Y-57689928D01*
X39165473Y-57871556D01*
X39260960Y-58036944D01*
X39388747Y-58178866D01*
X39543248Y-58291118D01*
X39549276Y-58293802D01*
X39549278Y-58293803D01*
X39711681Y-58366109D01*
X39717712Y-58368794D01*
X39811112Y-58388647D01*
X39898056Y-58407128D01*
X39898061Y-58407128D01*
X39904513Y-58408500D01*
X40095487Y-58408500D01*
X40101939Y-58407128D01*
X40101944Y-58407128D01*
X40188888Y-58388647D01*
X40282288Y-58368794D01*
X40288319Y-58366109D01*
X40450722Y-58293803D01*
X40450724Y-58293802D01*
X40456752Y-58291118D01*
X40611253Y-58178866D01*
X40739040Y-58036944D01*
X40834527Y-57871556D01*
X40893542Y-57689928D01*
X40913504Y-57500000D01*
X41586496Y-57500000D01*
X41606458Y-57689928D01*
X41665473Y-57871556D01*
X41760960Y-58036944D01*
X41888747Y-58178866D01*
X42043248Y-58291118D01*
X42049276Y-58293802D01*
X42049278Y-58293803D01*
X42211681Y-58366109D01*
X42217712Y-58368794D01*
X42311112Y-58388647D01*
X42398056Y-58407128D01*
X42398061Y-58407128D01*
X42404513Y-58408500D01*
X42595487Y-58408500D01*
X42601939Y-58407128D01*
X42601944Y-58407128D01*
X42688888Y-58388647D01*
X42782288Y-58368794D01*
X42788319Y-58366109D01*
X42950722Y-58293803D01*
X42950724Y-58293802D01*
X42956752Y-58291118D01*
X43111253Y-58178866D01*
X43239040Y-58036944D01*
X43334527Y-57871556D01*
X43393542Y-57689928D01*
X43413504Y-57500000D01*
X43407068Y-57438766D01*
X43394232Y-57316635D01*
X43394232Y-57316633D01*
X43393542Y-57310072D01*
X43334527Y-57128444D01*
X43239040Y-56963056D01*
X43174831Y-56891744D01*
X43115675Y-56826045D01*
X43115674Y-56826044D01*
X43111253Y-56821134D01*
X42956752Y-56708882D01*
X42950724Y-56706198D01*
X42950722Y-56706197D01*
X42788319Y-56633891D01*
X42788318Y-56633891D01*
X42782288Y-56631206D01*
X42688888Y-56611353D01*
X42601944Y-56592872D01*
X42601939Y-56592872D01*
X42595487Y-56591500D01*
X42404513Y-56591500D01*
X42398061Y-56592872D01*
X42398056Y-56592872D01*
X42311112Y-56611353D01*
X42217712Y-56631206D01*
X42211682Y-56633891D01*
X42211681Y-56633891D01*
X42049278Y-56706197D01*
X42049276Y-56706198D01*
X42043248Y-56708882D01*
X41888747Y-56821134D01*
X41884326Y-56826044D01*
X41884325Y-56826045D01*
X41825170Y-56891744D01*
X41760960Y-56963056D01*
X41665473Y-57128444D01*
X41606458Y-57310072D01*
X41605768Y-57316633D01*
X41605768Y-57316635D01*
X41592932Y-57438766D01*
X41586496Y-57500000D01*
X40913504Y-57500000D01*
X40907068Y-57438766D01*
X40894232Y-57316635D01*
X40894232Y-57316633D01*
X40893542Y-57310072D01*
X40834527Y-57128444D01*
X40739040Y-56963056D01*
X40674831Y-56891744D01*
X40615675Y-56826045D01*
X40615674Y-56826044D01*
X40611253Y-56821134D01*
X40456752Y-56708882D01*
X40450724Y-56706198D01*
X40450722Y-56706197D01*
X40288319Y-56633891D01*
X40288318Y-56633891D01*
X40282288Y-56631206D01*
X40188888Y-56611353D01*
X40101944Y-56592872D01*
X40101939Y-56592872D01*
X40095487Y-56591500D01*
X39904513Y-56591500D01*
X39898061Y-56592872D01*
X39898056Y-56592872D01*
X39811112Y-56611353D01*
X39717712Y-56631206D01*
X39711682Y-56633891D01*
X39711681Y-56633891D01*
X39549278Y-56706197D01*
X39549276Y-56706198D01*
X39543248Y-56708882D01*
X39388747Y-56821134D01*
X39384326Y-56826044D01*
X39384325Y-56826045D01*
X39325170Y-56891744D01*
X39260960Y-56963056D01*
X39165473Y-57128444D01*
X39106458Y-57310072D01*
X39105768Y-57316633D01*
X39105768Y-57316635D01*
X39092932Y-57438766D01*
X39086496Y-57500000D01*
X38413504Y-57500000D01*
X38407068Y-57438766D01*
X38394232Y-57316635D01*
X38394232Y-57316633D01*
X38393542Y-57310072D01*
X38334527Y-57128444D01*
X38239040Y-56963056D01*
X38174831Y-56891744D01*
X38115675Y-56826045D01*
X38115674Y-56826044D01*
X38111253Y-56821134D01*
X37956752Y-56708882D01*
X37950724Y-56706198D01*
X37950722Y-56706197D01*
X37788319Y-56633891D01*
X37788318Y-56633891D01*
X37782288Y-56631206D01*
X37688888Y-56611353D01*
X37601944Y-56592872D01*
X37601939Y-56592872D01*
X37595487Y-56591500D01*
X37404513Y-56591500D01*
X37398061Y-56592872D01*
X37398056Y-56592872D01*
X37311112Y-56611353D01*
X37217712Y-56631206D01*
X37211682Y-56633891D01*
X37211681Y-56633891D01*
X37049278Y-56706197D01*
X37049276Y-56706198D01*
X37043248Y-56708882D01*
X36888747Y-56821134D01*
X36884326Y-56826044D01*
X36884325Y-56826045D01*
X36825170Y-56891744D01*
X36760960Y-56963056D01*
X36665473Y-57128444D01*
X36606458Y-57310072D01*
X36605768Y-57316633D01*
X36605768Y-57316635D01*
X36592932Y-57438766D01*
X36586496Y-57500000D01*
X35924023Y-57500000D01*
X35943542Y-57439928D01*
X35947954Y-57397956D01*
X35962814Y-57256565D01*
X35963504Y-57250000D01*
X35957984Y-57197477D01*
X35944232Y-57066635D01*
X35944232Y-57066633D01*
X35943542Y-57060072D01*
X35884527Y-56878444D01*
X35867315Y-56848631D01*
X35808381Y-56746556D01*
X35789040Y-56713056D01*
X35661253Y-56571134D01*
X35506752Y-56458882D01*
X35500724Y-56456198D01*
X35500722Y-56456197D01*
X35338319Y-56383891D01*
X35338318Y-56383891D01*
X35332288Y-56381206D01*
X35238888Y-56361353D01*
X35151944Y-56342872D01*
X35151939Y-56342872D01*
X35145487Y-56341500D01*
X34954513Y-56341500D01*
X34948061Y-56342872D01*
X34948056Y-56342872D01*
X34861113Y-56361353D01*
X34767712Y-56381206D01*
X34761682Y-56383891D01*
X34761681Y-56383891D01*
X34599278Y-56456197D01*
X34599276Y-56456198D01*
X34593248Y-56458882D01*
X34438747Y-56571134D01*
X34310960Y-56713056D01*
X34291619Y-56746556D01*
X34232686Y-56848631D01*
X34215473Y-56878444D01*
X34156458Y-57060072D01*
X34155768Y-57066633D01*
X34155768Y-57066635D01*
X34142016Y-57197477D01*
X34136496Y-57250000D01*
X32366973Y-57250000D01*
X32434199Y-57197477D01*
X32438225Y-57192813D01*
X32552994Y-57059852D01*
X32552995Y-57059850D01*
X32557023Y-57055184D01*
X32649870Y-56891744D01*
X32709203Y-56713382D01*
X32732762Y-56526892D01*
X32733138Y-56500000D01*
X32714795Y-56312926D01*
X32660465Y-56132977D01*
X32572218Y-55967008D01*
X32453415Y-55821340D01*
X32374706Y-55756226D01*
X32313329Y-55705450D01*
X32313324Y-55705447D01*
X32308580Y-55701522D01*
X32303161Y-55698592D01*
X32303158Y-55698590D01*
X32233671Y-55661019D01*
X32143231Y-55612119D01*
X31963666Y-55556534D01*
X31957541Y-55555890D01*
X31957540Y-55555890D01*
X31782852Y-55537529D01*
X31782851Y-55537529D01*
X31776724Y-55536885D01*
X31699673Y-55543897D01*
X31595665Y-55553363D01*
X31595662Y-55553364D01*
X31589526Y-55553922D01*
X31583620Y-55555660D01*
X31583616Y-55555661D01*
X31466022Y-55590271D01*
X31409202Y-55606994D01*
X31242621Y-55694080D01*
X31096128Y-55811864D01*
X31092170Y-55816582D01*
X31092167Y-55816584D01*
X31077973Y-55833500D01*
X30975302Y-55955859D01*
X30972338Y-55961251D01*
X30972335Y-55961255D01*
X30944308Y-56012237D01*
X30884746Y-56120580D01*
X30882885Y-56126447D01*
X30882884Y-56126449D01*
X30878942Y-56138877D01*
X30827909Y-56299752D01*
X30806956Y-56486552D01*
X30508000Y-56486552D01*
X30508000Y-53486552D01*
X30806956Y-53486552D01*
X30822685Y-53673865D01*
X30874497Y-53854555D01*
X30877312Y-53860032D01*
X30877313Y-53860035D01*
X30934447Y-53971206D01*
X30960418Y-54021740D01*
X30964241Y-54026564D01*
X30964244Y-54026568D01*
X31052377Y-54137763D01*
X31077177Y-54169052D01*
X31081871Y-54173047D01*
X31195793Y-54270002D01*
X31220324Y-54290880D01*
X31225702Y-54293886D01*
X31225704Y-54293887D01*
X31266795Y-54316852D01*
X31384409Y-54382584D01*
X31563180Y-54440670D01*
X31749830Y-54462927D01*
X31755965Y-54462455D01*
X31755967Y-54462455D01*
X31931105Y-54448979D01*
X31931109Y-54448978D01*
X31937247Y-54448506D01*
X32022378Y-54424737D01*
X32112350Y-54399616D01*
X32112353Y-54399615D01*
X32118294Y-54397956D01*
X32123798Y-54395176D01*
X32123800Y-54395175D01*
X32280574Y-54315983D01*
X32280576Y-54315982D01*
X32286075Y-54313204D01*
X32366973Y-54250000D01*
X39250000Y-54250000D01*
X40251279Y-54250000D01*
X40277476Y-54252754D01*
X40298047Y-54257127D01*
X40298060Y-54257128D01*
X40304513Y-54258500D01*
X40495487Y-54258500D01*
X40501940Y-54257128D01*
X40501953Y-54257127D01*
X40522524Y-54252754D01*
X40548721Y-54250000D01*
X42583552Y-54250000D01*
X42651673Y-54270002D01*
X42698166Y-54323658D01*
X42708270Y-54393932D01*
X42678776Y-54458512D01*
X42657613Y-54477936D01*
X42563747Y-54546134D01*
X42559326Y-54551044D01*
X42559325Y-54551045D01*
X42441298Y-54682128D01*
X42435960Y-54688056D01*
X42340473Y-54853444D01*
X42281458Y-55035072D01*
X42261496Y-55225000D01*
X42281458Y-55414928D01*
X42340473Y-55596556D01*
X42343776Y-55602278D01*
X42343777Y-55602279D01*
X42377686Y-55661010D01*
X42435960Y-55761944D01*
X42563747Y-55903866D01*
X42718248Y-56016118D01*
X42724276Y-56018802D01*
X42724278Y-56018803D01*
X42886681Y-56091109D01*
X42892712Y-56093794D01*
X42986112Y-56113647D01*
X43073056Y-56132128D01*
X43073061Y-56132128D01*
X43079513Y-56133500D01*
X43270487Y-56133500D01*
X43280984Y-56131269D01*
X43296618Y-56127946D01*
X43367408Y-56133348D01*
X43424041Y-56176165D01*
X43448534Y-56242803D01*
X43448124Y-56264363D01*
X43443020Y-56312926D01*
X43436496Y-56375000D01*
X43437186Y-56381565D01*
X43452092Y-56523384D01*
X43456458Y-56564928D01*
X43515473Y-56746556D01*
X43610960Y-56911944D01*
X43738747Y-57053866D01*
X43893248Y-57166118D01*
X43899276Y-57168802D01*
X43899278Y-57168803D01*
X43972203Y-57201271D01*
X44067712Y-57243794D01*
X44161113Y-57263647D01*
X44248056Y-57282128D01*
X44248061Y-57282128D01*
X44254513Y-57283500D01*
X44445487Y-57283500D01*
X44451939Y-57282128D01*
X44451944Y-57282128D01*
X44538887Y-57263647D01*
X44632288Y-57243794D01*
X44727797Y-57201271D01*
X44800722Y-57168803D01*
X44800724Y-57168802D01*
X44806752Y-57166118D01*
X44961253Y-57053866D01*
X45089040Y-56911944D01*
X45184527Y-56746556D01*
X45243542Y-56564928D01*
X45247909Y-56523384D01*
X45262814Y-56381565D01*
X45263504Y-56375000D01*
X45243542Y-56185072D01*
X45184527Y-56003444D01*
X45089040Y-55838056D01*
X45083703Y-55832128D01*
X44965675Y-55701045D01*
X44965674Y-55701044D01*
X44961253Y-55696134D01*
X44806752Y-55583882D01*
X44800724Y-55581198D01*
X44800722Y-55581197D01*
X44638319Y-55508891D01*
X44638318Y-55508891D01*
X44632288Y-55506206D01*
X44538887Y-55486353D01*
X44451944Y-55467872D01*
X44451939Y-55467872D01*
X44445487Y-55466500D01*
X44254513Y-55466500D01*
X44248053Y-55467873D01*
X44248054Y-55467873D01*
X44228382Y-55472054D01*
X44157592Y-55466652D01*
X44100959Y-55423835D01*
X44076466Y-55357197D01*
X44076876Y-55335637D01*
X44087814Y-55231565D01*
X44088504Y-55225000D01*
X44068542Y-55035072D01*
X44032777Y-54925000D01*
X54861496Y-54925000D01*
X54881458Y-55114928D01*
X54940473Y-55296556D01*
X55035960Y-55461944D01*
X55040378Y-55466851D01*
X55040379Y-55466852D01*
X55078231Y-55508891D01*
X55163747Y-55603866D01*
X55318248Y-55716118D01*
X55324276Y-55718802D01*
X55324278Y-55718803D01*
X55486681Y-55791109D01*
X55492712Y-55793794D01*
X55577724Y-55811864D01*
X55673056Y-55832128D01*
X55673061Y-55832128D01*
X55679513Y-55833500D01*
X55870487Y-55833500D01*
X55876939Y-55832128D01*
X55876944Y-55832128D01*
X55972276Y-55811864D01*
X56057288Y-55793794D01*
X56063319Y-55791109D01*
X56225722Y-55718803D01*
X56225724Y-55718802D01*
X56231752Y-55716118D01*
X56386253Y-55603866D01*
X56471769Y-55508891D01*
X56509621Y-55466852D01*
X56509622Y-55466851D01*
X56514040Y-55461944D01*
X56609527Y-55296556D01*
X56668542Y-55114928D01*
X56680621Y-55000000D01*
X59086496Y-55000000D01*
X59106458Y-55189928D01*
X59165473Y-55371556D01*
X59260960Y-55536944D01*
X59265378Y-55541851D01*
X59265379Y-55541852D01*
X59308976Y-55590271D01*
X59388747Y-55678866D01*
X59543248Y-55791118D01*
X59549276Y-55793802D01*
X59549278Y-55793803D01*
X59711681Y-55866109D01*
X59717712Y-55868794D01*
X59811112Y-55888647D01*
X59898056Y-55907128D01*
X59898061Y-55907128D01*
X59904513Y-55908500D01*
X60095487Y-55908500D01*
X60101939Y-55907128D01*
X60101944Y-55907128D01*
X60188888Y-55888647D01*
X60282288Y-55868794D01*
X60288319Y-55866109D01*
X60450722Y-55793803D01*
X60450724Y-55793802D01*
X60456752Y-55791118D01*
X60611253Y-55678866D01*
X60691024Y-55590271D01*
X60734621Y-55541852D01*
X60734622Y-55541851D01*
X60739040Y-55536944D01*
X60834527Y-55371556D01*
X60893542Y-55189928D01*
X60913504Y-55000000D01*
X61586496Y-55000000D01*
X61606458Y-55189928D01*
X61665473Y-55371556D01*
X61760960Y-55536944D01*
X61765378Y-55541851D01*
X61765379Y-55541852D01*
X61808976Y-55590271D01*
X61888747Y-55678866D01*
X62043248Y-55791118D01*
X62049276Y-55793802D01*
X62049278Y-55793803D01*
X62211681Y-55866109D01*
X62217712Y-55868794D01*
X62311112Y-55888647D01*
X62398056Y-55907128D01*
X62398061Y-55907128D01*
X62404513Y-55908500D01*
X62595487Y-55908500D01*
X62601939Y-55907128D01*
X62601944Y-55907128D01*
X62688888Y-55888647D01*
X62782288Y-55868794D01*
X62788319Y-55866109D01*
X62950722Y-55793803D01*
X62950724Y-55793802D01*
X62956752Y-55791118D01*
X63111253Y-55678866D01*
X63191024Y-55590271D01*
X63234621Y-55541852D01*
X63234622Y-55541851D01*
X63239040Y-55536944D01*
X63334527Y-55371556D01*
X63393542Y-55189928D01*
X63413504Y-55000000D01*
X64086496Y-55000000D01*
X64106458Y-55189928D01*
X64165473Y-55371556D01*
X64260960Y-55536944D01*
X64265378Y-55541851D01*
X64265379Y-55541852D01*
X64308976Y-55590271D01*
X64388747Y-55678866D01*
X64543248Y-55791118D01*
X64549276Y-55793802D01*
X64549278Y-55793803D01*
X64711681Y-55866109D01*
X64717712Y-55868794D01*
X64811112Y-55888647D01*
X64898056Y-55907128D01*
X64898061Y-55907128D01*
X64904513Y-55908500D01*
X65095487Y-55908500D01*
X65101939Y-55907128D01*
X65101944Y-55907128D01*
X65188888Y-55888647D01*
X65282288Y-55868794D01*
X65288319Y-55866109D01*
X65450722Y-55793803D01*
X65450724Y-55793802D01*
X65456752Y-55791118D01*
X65611253Y-55678866D01*
X65691024Y-55590271D01*
X65734621Y-55541852D01*
X65734622Y-55541851D01*
X65739040Y-55536944D01*
X65834527Y-55371556D01*
X65893542Y-55189928D01*
X65913504Y-55000000D01*
X66586496Y-55000000D01*
X66606458Y-55189928D01*
X66665473Y-55371556D01*
X66760960Y-55536944D01*
X66765378Y-55541851D01*
X66765379Y-55541852D01*
X66808976Y-55590271D01*
X66888747Y-55678866D01*
X67043248Y-55791118D01*
X67049276Y-55793802D01*
X67049278Y-55793803D01*
X67211681Y-55866109D01*
X67217712Y-55868794D01*
X67311112Y-55888647D01*
X67398056Y-55907128D01*
X67398061Y-55907128D01*
X67404513Y-55908500D01*
X67595487Y-55908500D01*
X67601939Y-55907128D01*
X67601944Y-55907128D01*
X67688888Y-55888647D01*
X67782288Y-55868794D01*
X67788319Y-55866109D01*
X67950722Y-55793803D01*
X67950724Y-55793802D01*
X67956752Y-55791118D01*
X68111253Y-55678866D01*
X68191024Y-55590271D01*
X68234621Y-55541852D01*
X68234622Y-55541851D01*
X68239040Y-55536944D01*
X68334527Y-55371556D01*
X68393542Y-55189928D01*
X68413504Y-55000000D01*
X68393542Y-54810072D01*
X68334527Y-54628444D01*
X68239040Y-54463056D01*
X68226344Y-54448955D01*
X68115675Y-54326045D01*
X68115674Y-54326044D01*
X68111253Y-54321134D01*
X67956752Y-54208882D01*
X67950724Y-54206198D01*
X67950722Y-54206197D01*
X67788319Y-54133891D01*
X67788318Y-54133891D01*
X67782288Y-54131206D01*
X67688888Y-54111353D01*
X67601944Y-54092872D01*
X67601939Y-54092872D01*
X67595487Y-54091500D01*
X67404513Y-54091500D01*
X67398061Y-54092872D01*
X67398056Y-54092872D01*
X67311113Y-54111353D01*
X67217712Y-54131206D01*
X67211682Y-54133891D01*
X67211681Y-54133891D01*
X67049278Y-54206197D01*
X67049276Y-54206198D01*
X67043248Y-54208882D01*
X66888747Y-54321134D01*
X66884326Y-54326044D01*
X66884325Y-54326045D01*
X66773657Y-54448955D01*
X66760960Y-54463056D01*
X66665473Y-54628444D01*
X66606458Y-54810072D01*
X66586496Y-55000000D01*
X65913504Y-55000000D01*
X65893542Y-54810072D01*
X65834527Y-54628444D01*
X65739040Y-54463056D01*
X65726344Y-54448955D01*
X65615675Y-54326045D01*
X65615674Y-54326044D01*
X65611253Y-54321134D01*
X65456752Y-54208882D01*
X65450724Y-54206198D01*
X65450722Y-54206197D01*
X65288319Y-54133891D01*
X65288318Y-54133891D01*
X65282288Y-54131206D01*
X65188888Y-54111353D01*
X65101944Y-54092872D01*
X65101939Y-54092872D01*
X65095487Y-54091500D01*
X64904513Y-54091500D01*
X64898061Y-54092872D01*
X64898056Y-54092872D01*
X64811113Y-54111353D01*
X64717712Y-54131206D01*
X64711682Y-54133891D01*
X64711681Y-54133891D01*
X64549278Y-54206197D01*
X64549276Y-54206198D01*
X64543248Y-54208882D01*
X64388747Y-54321134D01*
X64384326Y-54326044D01*
X64384325Y-54326045D01*
X64273657Y-54448955D01*
X64260960Y-54463056D01*
X64165473Y-54628444D01*
X64106458Y-54810072D01*
X64086496Y-55000000D01*
X63413504Y-55000000D01*
X63393542Y-54810072D01*
X63334527Y-54628444D01*
X63239040Y-54463056D01*
X63226344Y-54448955D01*
X63115675Y-54326045D01*
X63115674Y-54326044D01*
X63111253Y-54321134D01*
X62956752Y-54208882D01*
X62950724Y-54206198D01*
X62950722Y-54206197D01*
X62788319Y-54133891D01*
X62788318Y-54133891D01*
X62782288Y-54131206D01*
X62688888Y-54111353D01*
X62601944Y-54092872D01*
X62601939Y-54092872D01*
X62595487Y-54091500D01*
X62404513Y-54091500D01*
X62398061Y-54092872D01*
X62398056Y-54092872D01*
X62311113Y-54111353D01*
X62217712Y-54131206D01*
X62211682Y-54133891D01*
X62211681Y-54133891D01*
X62049278Y-54206197D01*
X62049276Y-54206198D01*
X62043248Y-54208882D01*
X61888747Y-54321134D01*
X61884326Y-54326044D01*
X61884325Y-54326045D01*
X61773657Y-54448955D01*
X61760960Y-54463056D01*
X61665473Y-54628444D01*
X61606458Y-54810072D01*
X61586496Y-55000000D01*
X60913504Y-55000000D01*
X60893542Y-54810072D01*
X60834527Y-54628444D01*
X60739040Y-54463056D01*
X60726344Y-54448955D01*
X60615675Y-54326045D01*
X60615674Y-54326044D01*
X60611253Y-54321134D01*
X60456752Y-54208882D01*
X60450724Y-54206198D01*
X60450722Y-54206197D01*
X60288319Y-54133891D01*
X60288318Y-54133891D01*
X60282288Y-54131206D01*
X60188888Y-54111353D01*
X60101944Y-54092872D01*
X60101939Y-54092872D01*
X60095487Y-54091500D01*
X59904513Y-54091500D01*
X59898061Y-54092872D01*
X59898056Y-54092872D01*
X59811113Y-54111353D01*
X59717712Y-54131206D01*
X59711682Y-54133891D01*
X59711681Y-54133891D01*
X59549278Y-54206197D01*
X59549276Y-54206198D01*
X59543248Y-54208882D01*
X59388747Y-54321134D01*
X59384326Y-54326044D01*
X59384325Y-54326045D01*
X59273657Y-54448955D01*
X59260960Y-54463056D01*
X59165473Y-54628444D01*
X59106458Y-54810072D01*
X59086496Y-55000000D01*
X56680621Y-55000000D01*
X56688504Y-54925000D01*
X56676876Y-54814363D01*
X56689648Y-54744525D01*
X56738150Y-54692678D01*
X56806983Y-54675284D01*
X56828382Y-54677946D01*
X56844016Y-54681269D01*
X56854513Y-54683500D01*
X57045487Y-54683500D01*
X57051939Y-54682128D01*
X57051944Y-54682128D01*
X57138887Y-54663647D01*
X57232288Y-54643794D01*
X57238319Y-54641109D01*
X57400722Y-54568803D01*
X57400724Y-54568802D01*
X57406752Y-54566118D01*
X57561253Y-54453866D01*
X57581666Y-54431195D01*
X57684621Y-54316852D01*
X57684622Y-54316851D01*
X57689040Y-54311944D01*
X57755128Y-54197477D01*
X57781223Y-54152279D01*
X57781224Y-54152278D01*
X57784527Y-54146556D01*
X57843542Y-53964928D01*
X57863504Y-53775000D01*
X57853497Y-53679789D01*
X57844232Y-53591635D01*
X57844232Y-53591633D01*
X57843542Y-53585072D01*
X57784527Y-53403444D01*
X57689040Y-53238056D01*
X57639242Y-53182749D01*
X57565675Y-53101045D01*
X57565674Y-53101044D01*
X57561253Y-53096134D01*
X57406752Y-52983882D01*
X57400724Y-52981198D01*
X57400722Y-52981197D01*
X57238319Y-52908891D01*
X57238318Y-52908891D01*
X57232288Y-52906206D01*
X57138887Y-52886353D01*
X57051944Y-52867872D01*
X57051939Y-52867872D01*
X57045487Y-52866500D01*
X56854513Y-52866500D01*
X56848061Y-52867872D01*
X56848056Y-52867872D01*
X56761113Y-52886353D01*
X56667712Y-52906206D01*
X56661682Y-52908891D01*
X56661681Y-52908891D01*
X56499278Y-52981197D01*
X56499276Y-52981198D01*
X56493248Y-52983882D01*
X56338747Y-53096134D01*
X56334326Y-53101044D01*
X56334325Y-53101045D01*
X56260759Y-53182749D01*
X56210960Y-53238056D01*
X56115473Y-53403444D01*
X56056458Y-53585072D01*
X56055768Y-53591633D01*
X56055768Y-53591635D01*
X56046503Y-53679789D01*
X56036496Y-53775000D01*
X56037186Y-53781565D01*
X56048124Y-53885637D01*
X56035352Y-53955475D01*
X55986850Y-54007322D01*
X55918017Y-54024716D01*
X55896618Y-54022054D01*
X55876946Y-54017873D01*
X55876947Y-54017873D01*
X55870487Y-54016500D01*
X55679513Y-54016500D01*
X55673061Y-54017872D01*
X55673056Y-54017872D01*
X55586112Y-54036353D01*
X55492712Y-54056206D01*
X55486682Y-54058891D01*
X55486681Y-54058891D01*
X55324278Y-54131197D01*
X55324276Y-54131198D01*
X55318248Y-54133882D01*
X55312907Y-54137762D01*
X55312906Y-54137763D01*
X55300804Y-54146556D01*
X55163747Y-54246134D01*
X55159326Y-54251044D01*
X55159325Y-54251045D01*
X55043595Y-54379577D01*
X55035960Y-54388056D01*
X54940473Y-54553444D01*
X54881458Y-54735072D01*
X54861496Y-54925000D01*
X44032777Y-54925000D01*
X44009527Y-54853444D01*
X43914040Y-54688056D01*
X43908703Y-54682128D01*
X43790675Y-54551045D01*
X43790674Y-54551044D01*
X43786253Y-54546134D01*
X43671079Y-54462455D01*
X43637094Y-54437763D01*
X43637093Y-54437762D01*
X43631752Y-54433882D01*
X43625726Y-54431199D01*
X43625719Y-54431195D01*
X43566145Y-54404672D01*
X43512049Y-54358692D01*
X43491399Y-54290765D01*
X43494273Y-54262781D01*
X43497053Y-54250000D01*
X43500000Y-54250000D01*
X43500000Y-52500000D01*
X59086496Y-52500000D01*
X59087186Y-52506565D01*
X59104483Y-52671134D01*
X59106458Y-52689928D01*
X59165473Y-52871556D01*
X59260960Y-53036944D01*
X59265378Y-53041851D01*
X59265379Y-53041852D01*
X59342528Y-53127535D01*
X59388747Y-53178866D01*
X59543248Y-53291118D01*
X59549276Y-53293802D01*
X59549278Y-53293803D01*
X59711681Y-53366109D01*
X59717712Y-53368794D01*
X59811112Y-53388647D01*
X59898056Y-53407128D01*
X59898061Y-53407128D01*
X59904513Y-53408500D01*
X60095487Y-53408500D01*
X60101939Y-53407128D01*
X60101944Y-53407128D01*
X60188888Y-53388647D01*
X60282288Y-53368794D01*
X60288319Y-53366109D01*
X60450722Y-53293803D01*
X60450724Y-53293802D01*
X60456752Y-53291118D01*
X60611253Y-53178866D01*
X60657472Y-53127535D01*
X60734621Y-53041852D01*
X60734622Y-53041851D01*
X60739040Y-53036944D01*
X60834527Y-52871556D01*
X60893542Y-52689928D01*
X60895518Y-52671134D01*
X60912814Y-52506565D01*
X60913504Y-52500000D01*
X61586496Y-52500000D01*
X61587186Y-52506565D01*
X61604483Y-52671134D01*
X61606458Y-52689928D01*
X61665473Y-52871556D01*
X61760960Y-53036944D01*
X61765378Y-53041851D01*
X61765379Y-53041852D01*
X61842528Y-53127535D01*
X61888747Y-53178866D01*
X62043248Y-53291118D01*
X62049276Y-53293802D01*
X62049278Y-53293803D01*
X62211681Y-53366109D01*
X62217712Y-53368794D01*
X62311112Y-53388647D01*
X62398056Y-53407128D01*
X62398061Y-53407128D01*
X62404513Y-53408500D01*
X62595487Y-53408500D01*
X62601939Y-53407128D01*
X62601944Y-53407128D01*
X62688888Y-53388647D01*
X62782288Y-53368794D01*
X62788319Y-53366109D01*
X62950722Y-53293803D01*
X62950724Y-53293802D01*
X62956752Y-53291118D01*
X63111253Y-53178866D01*
X63157472Y-53127535D01*
X63234621Y-53041852D01*
X63234622Y-53041851D01*
X63239040Y-53036944D01*
X63334527Y-52871556D01*
X63393542Y-52689928D01*
X63395518Y-52671134D01*
X63412814Y-52506565D01*
X63413504Y-52500000D01*
X63411529Y-52481206D01*
X63394232Y-52316635D01*
X63394232Y-52316633D01*
X63393542Y-52310072D01*
X63334527Y-52128444D01*
X63239040Y-51963056D01*
X63189468Y-51908000D01*
X63115675Y-51826045D01*
X63115674Y-51826044D01*
X63111253Y-51821134D01*
X62956752Y-51708882D01*
X62950724Y-51706198D01*
X62950722Y-51706197D01*
X62788319Y-51633891D01*
X62788318Y-51633891D01*
X62782288Y-51631206D01*
X62688887Y-51611353D01*
X62601944Y-51592872D01*
X62601939Y-51592872D01*
X62595487Y-51591500D01*
X62404513Y-51591500D01*
X62398061Y-51592872D01*
X62398056Y-51592872D01*
X62311113Y-51611353D01*
X62217712Y-51631206D01*
X62211682Y-51633891D01*
X62211681Y-51633891D01*
X62049278Y-51706197D01*
X62049276Y-51706198D01*
X62043248Y-51708882D01*
X61888747Y-51821134D01*
X61884326Y-51826044D01*
X61884325Y-51826045D01*
X61810533Y-51908000D01*
X61760960Y-51963056D01*
X61665473Y-52128444D01*
X61606458Y-52310072D01*
X61605768Y-52316633D01*
X61605768Y-52316635D01*
X61588471Y-52481206D01*
X61586496Y-52500000D01*
X60913504Y-52500000D01*
X60911529Y-52481206D01*
X60894232Y-52316635D01*
X60894232Y-52316633D01*
X60893542Y-52310072D01*
X60834527Y-52128444D01*
X60739040Y-51963056D01*
X60689468Y-51908000D01*
X60615675Y-51826045D01*
X60615674Y-51826044D01*
X60611253Y-51821134D01*
X60456752Y-51708882D01*
X60450724Y-51706198D01*
X60450722Y-51706197D01*
X60288319Y-51633891D01*
X60288318Y-51633891D01*
X60282288Y-51631206D01*
X60188887Y-51611353D01*
X60101944Y-51592872D01*
X60101939Y-51592872D01*
X60095487Y-51591500D01*
X59904513Y-51591500D01*
X59898061Y-51592872D01*
X59898056Y-51592872D01*
X59811113Y-51611353D01*
X59717712Y-51631206D01*
X59711682Y-51633891D01*
X59711681Y-51633891D01*
X59549278Y-51706197D01*
X59549276Y-51706198D01*
X59543248Y-51708882D01*
X59388747Y-51821134D01*
X59384326Y-51826044D01*
X59384325Y-51826045D01*
X59310533Y-51908000D01*
X59260960Y-51963056D01*
X59165473Y-52128444D01*
X59106458Y-52310072D01*
X59105768Y-52316633D01*
X59105768Y-52316635D01*
X59088471Y-52481206D01*
X59086496Y-52500000D01*
X43500000Y-52500000D01*
X43500000Y-51876000D01*
X43520002Y-51807879D01*
X43573658Y-51761386D01*
X43626000Y-51750000D01*
X48000000Y-51750000D01*
X48000000Y-51264294D01*
X63892709Y-51264294D01*
X63898132Y-51323315D01*
X63900743Y-51336351D01*
X63947715Y-51486243D01*
X63953921Y-51499988D01*
X64034824Y-51633574D01*
X64044131Y-51645443D01*
X64154557Y-51755869D01*
X64166426Y-51765176D01*
X64300012Y-51846079D01*
X64313757Y-51852285D01*
X64463644Y-51899256D01*
X64476694Y-51901869D01*
X64540521Y-51907734D01*
X64546309Y-51908000D01*
X64777885Y-51908000D01*
X64793124Y-51903525D01*
X64794329Y-51902135D01*
X64796000Y-51894452D01*
X64796000Y-51889884D01*
X65304000Y-51889884D01*
X65308475Y-51905123D01*
X65309865Y-51906328D01*
X65317548Y-51907999D01*
X65553705Y-51907999D01*
X65559454Y-51907736D01*
X65623315Y-51901868D01*
X65636351Y-51899257D01*
X65786243Y-51852285D01*
X65799988Y-51846079D01*
X65933574Y-51765176D01*
X65945443Y-51755869D01*
X66055869Y-51645443D01*
X66065176Y-51633574D01*
X66146079Y-51499988D01*
X66152285Y-51486243D01*
X66199256Y-51336356D01*
X66201869Y-51323306D01*
X66206913Y-51268414D01*
X66203525Y-51256876D01*
X66202135Y-51255671D01*
X66194452Y-51254000D01*
X65322115Y-51254000D01*
X65306876Y-51258475D01*
X65305671Y-51259865D01*
X65304000Y-51267548D01*
X65304000Y-51889884D01*
X64796000Y-51889884D01*
X64796000Y-51272115D01*
X64791525Y-51256876D01*
X64790135Y-51255671D01*
X64782452Y-51254000D01*
X63910116Y-51254000D01*
X63894877Y-51258475D01*
X63893672Y-51259865D01*
X63892709Y-51264294D01*
X48000000Y-51264294D01*
X48000000Y-50400000D01*
X43626000Y-50400000D01*
X43557879Y-50379998D01*
X43511386Y-50326342D01*
X43500000Y-50274000D01*
X43500000Y-49845487D01*
X63891500Y-49845487D01*
X63931206Y-50032288D01*
X63933891Y-50038318D01*
X63933891Y-50038319D01*
X64004187Y-50196206D01*
X64008882Y-50206752D01*
X64012762Y-50212093D01*
X64012763Y-50212094D01*
X64026564Y-50231089D01*
X64050422Y-50297956D01*
X64032404Y-50370422D01*
X63953921Y-50500012D01*
X63947715Y-50513757D01*
X63900744Y-50663644D01*
X63898131Y-50676694D01*
X63893087Y-50731586D01*
X63896475Y-50743124D01*
X63897865Y-50744329D01*
X63905548Y-50746000D01*
X66189884Y-50746000D01*
X66205123Y-50741525D01*
X66206328Y-50740135D01*
X66207291Y-50735706D01*
X66201868Y-50676685D01*
X66199257Y-50663649D01*
X66152285Y-50513757D01*
X66146079Y-50500012D01*
X66067596Y-50370422D01*
X66049417Y-50301792D01*
X66073436Y-50231089D01*
X66087237Y-50212094D01*
X66087238Y-50212093D01*
X66091118Y-50206752D01*
X66095814Y-50196206D01*
X66166109Y-50038319D01*
X66166109Y-50038318D01*
X66168794Y-50032288D01*
X66208500Y-49845487D01*
X66208500Y-49654513D01*
X66201743Y-49622721D01*
X66170166Y-49474169D01*
X66168794Y-49467712D01*
X66091118Y-49293248D01*
X66027872Y-49206197D01*
X66022687Y-49199061D01*
X65998828Y-49132193D01*
X66014909Y-49063042D01*
X66022687Y-49050939D01*
X66087237Y-48962094D01*
X66087238Y-48962093D01*
X66091118Y-48956752D01*
X66142602Y-48841118D01*
X66166109Y-48788319D01*
X66166109Y-48788318D01*
X66168794Y-48782288D01*
X66208500Y-48595487D01*
X66208500Y-48404513D01*
X66201200Y-48370166D01*
X66170166Y-48224169D01*
X66168794Y-48217712D01*
X66091118Y-48043248D01*
X66082384Y-48031226D01*
X66022687Y-47949061D01*
X65998828Y-47882193D01*
X66014909Y-47813042D01*
X66022687Y-47800939D01*
X66087237Y-47712094D01*
X66087238Y-47712093D01*
X66091118Y-47706752D01*
X66095814Y-47696206D01*
X66166109Y-47538319D01*
X66166109Y-47538318D01*
X66168794Y-47532288D01*
X66208500Y-47345487D01*
X66208500Y-47154513D01*
X66201743Y-47122721D01*
X66170166Y-46974169D01*
X66168794Y-46967712D01*
X66091118Y-46793248D01*
X65978866Y-46638747D01*
X65836944Y-46510960D01*
X65671556Y-46415473D01*
X65489928Y-46356458D01*
X65483367Y-46355768D01*
X65483365Y-46355768D01*
X65430111Y-46350171D01*
X65347610Y-46341500D01*
X64752390Y-46341500D01*
X64669889Y-46350171D01*
X64616635Y-46355768D01*
X64616633Y-46355768D01*
X64610072Y-46356458D01*
X64428444Y-46415473D01*
X64263056Y-46510960D01*
X64121134Y-46638747D01*
X64008882Y-46793248D01*
X63931206Y-46967712D01*
X63929834Y-46974169D01*
X63898258Y-47122721D01*
X63891500Y-47154513D01*
X63891500Y-47345487D01*
X63931206Y-47532288D01*
X63933891Y-47538318D01*
X63933891Y-47538319D01*
X64004187Y-47696206D01*
X64008882Y-47706752D01*
X64012762Y-47712093D01*
X64012763Y-47712094D01*
X64077313Y-47800939D01*
X64101172Y-47867807D01*
X64085091Y-47936958D01*
X64077313Y-47949061D01*
X64017617Y-48031226D01*
X64008882Y-48043248D01*
X63931206Y-48217712D01*
X63929834Y-48224169D01*
X63898801Y-48370166D01*
X63891500Y-48404513D01*
X63891500Y-48595487D01*
X63931206Y-48782288D01*
X63933891Y-48788318D01*
X63933891Y-48788319D01*
X63957399Y-48841118D01*
X64008882Y-48956752D01*
X64012762Y-48962093D01*
X64012763Y-48962094D01*
X64077313Y-49050939D01*
X64101172Y-49117807D01*
X64085091Y-49186958D01*
X64077313Y-49199061D01*
X64072129Y-49206197D01*
X64008882Y-49293248D01*
X63931206Y-49467712D01*
X63929834Y-49474169D01*
X63898258Y-49622721D01*
X63891500Y-49654513D01*
X63891500Y-49845487D01*
X43500000Y-49845487D01*
X43500000Y-47500000D01*
X44086496Y-47500000D01*
X44106458Y-47689928D01*
X44165473Y-47871556D01*
X44260960Y-48036944D01*
X44265378Y-48041851D01*
X44265379Y-48041852D01*
X44384325Y-48173955D01*
X44388747Y-48178866D01*
X44543248Y-48291118D01*
X44549276Y-48293802D01*
X44549278Y-48293803D01*
X44711681Y-48366109D01*
X44717712Y-48368794D01*
X44811113Y-48388647D01*
X44898056Y-48407128D01*
X44898061Y-48407128D01*
X44904513Y-48408500D01*
X45095487Y-48408500D01*
X45101939Y-48407128D01*
X45101944Y-48407128D01*
X45188887Y-48388647D01*
X45282288Y-48368794D01*
X45288319Y-48366109D01*
X45450722Y-48293803D01*
X45450724Y-48293802D01*
X45456752Y-48291118D01*
X45611253Y-48178866D01*
X45615675Y-48173955D01*
X45734621Y-48041852D01*
X45734622Y-48041851D01*
X45739040Y-48036944D01*
X45834527Y-47871556D01*
X45893542Y-47689928D01*
X45913504Y-47500000D01*
X49086496Y-47500000D01*
X49106458Y-47689928D01*
X49165473Y-47871556D01*
X49260960Y-48036944D01*
X49265378Y-48041851D01*
X49265379Y-48041852D01*
X49384325Y-48173955D01*
X49388747Y-48178866D01*
X49543248Y-48291118D01*
X49549276Y-48293802D01*
X49549278Y-48293803D01*
X49711681Y-48366109D01*
X49717712Y-48368794D01*
X49811113Y-48388647D01*
X49898056Y-48407128D01*
X49898061Y-48407128D01*
X49904513Y-48408500D01*
X50095487Y-48408500D01*
X50101939Y-48407128D01*
X50101944Y-48407128D01*
X50188887Y-48388647D01*
X50282288Y-48368794D01*
X50288319Y-48366109D01*
X50450722Y-48293803D01*
X50450724Y-48293802D01*
X50456752Y-48291118D01*
X50611253Y-48178866D01*
X50615675Y-48173955D01*
X50734621Y-48041852D01*
X50734622Y-48041851D01*
X50739040Y-48036944D01*
X50834527Y-47871556D01*
X50893542Y-47689928D01*
X50913504Y-47500000D01*
X56586496Y-47500000D01*
X56606458Y-47689928D01*
X56665473Y-47871556D01*
X56760960Y-48036944D01*
X56765378Y-48041851D01*
X56765379Y-48041852D01*
X56884325Y-48173955D01*
X56888747Y-48178866D01*
X57043248Y-48291118D01*
X57049276Y-48293802D01*
X57049278Y-48293803D01*
X57211681Y-48366109D01*
X57217712Y-48368794D01*
X57311113Y-48388647D01*
X57398056Y-48407128D01*
X57398061Y-48407128D01*
X57404513Y-48408500D01*
X57595487Y-48408500D01*
X57601939Y-48407128D01*
X57601944Y-48407128D01*
X57688887Y-48388647D01*
X57782288Y-48368794D01*
X57788319Y-48366109D01*
X57950722Y-48293803D01*
X57950724Y-48293802D01*
X57956752Y-48291118D01*
X58111253Y-48178866D01*
X58115675Y-48173955D01*
X58234621Y-48041852D01*
X58234622Y-48041851D01*
X58239040Y-48036944D01*
X58334527Y-47871556D01*
X58393542Y-47689928D01*
X58413504Y-47500000D01*
X59086496Y-47500000D01*
X59106458Y-47689928D01*
X59165473Y-47871556D01*
X59260960Y-48036944D01*
X59265378Y-48041851D01*
X59265379Y-48041852D01*
X59384325Y-48173955D01*
X59388747Y-48178866D01*
X59543248Y-48291118D01*
X59549276Y-48293802D01*
X59549278Y-48293803D01*
X59711681Y-48366109D01*
X59717712Y-48368794D01*
X59811113Y-48388647D01*
X59898056Y-48407128D01*
X59898061Y-48407128D01*
X59904513Y-48408500D01*
X60095487Y-48408500D01*
X60101939Y-48407128D01*
X60101944Y-48407128D01*
X60188887Y-48388647D01*
X60282288Y-48368794D01*
X60288319Y-48366109D01*
X60450722Y-48293803D01*
X60450724Y-48293802D01*
X60456752Y-48291118D01*
X60611253Y-48178866D01*
X60615675Y-48173955D01*
X60734621Y-48041852D01*
X60734622Y-48041851D01*
X60739040Y-48036944D01*
X60834527Y-47871556D01*
X60893542Y-47689928D01*
X60913504Y-47500000D01*
X60893542Y-47310072D01*
X60834527Y-47128444D01*
X60739040Y-46963056D01*
X60611253Y-46821134D01*
X60456752Y-46708882D01*
X60450724Y-46706198D01*
X60450722Y-46706197D01*
X60288319Y-46633891D01*
X60288318Y-46633891D01*
X60282288Y-46631206D01*
X60188887Y-46611353D01*
X60101944Y-46592872D01*
X60101939Y-46592872D01*
X60095487Y-46591500D01*
X59904513Y-46591500D01*
X59898061Y-46592872D01*
X59898056Y-46592872D01*
X59811113Y-46611353D01*
X59717712Y-46631206D01*
X59711682Y-46633891D01*
X59711681Y-46633891D01*
X59549278Y-46706197D01*
X59549276Y-46706198D01*
X59543248Y-46708882D01*
X59388747Y-46821134D01*
X59260960Y-46963056D01*
X59165473Y-47128444D01*
X59106458Y-47310072D01*
X59086496Y-47500000D01*
X58413504Y-47500000D01*
X58393542Y-47310072D01*
X58334527Y-47128444D01*
X58239040Y-46963056D01*
X58111253Y-46821134D01*
X57956752Y-46708882D01*
X57950724Y-46706198D01*
X57950722Y-46706197D01*
X57788319Y-46633891D01*
X57788318Y-46633891D01*
X57782288Y-46631206D01*
X57688887Y-46611353D01*
X57601944Y-46592872D01*
X57601939Y-46592872D01*
X57595487Y-46591500D01*
X57404513Y-46591500D01*
X57398061Y-46592872D01*
X57398056Y-46592872D01*
X57311113Y-46611353D01*
X57217712Y-46631206D01*
X57211682Y-46633891D01*
X57211681Y-46633891D01*
X57049278Y-46706197D01*
X57049276Y-46706198D01*
X57043248Y-46708882D01*
X56888747Y-46821134D01*
X56760960Y-46963056D01*
X56665473Y-47128444D01*
X56606458Y-47310072D01*
X56586496Y-47500000D01*
X50913504Y-47500000D01*
X50893542Y-47310072D01*
X50834527Y-47128444D01*
X50739040Y-46963056D01*
X50611253Y-46821134D01*
X50456752Y-46708882D01*
X50450724Y-46706198D01*
X50450722Y-46706197D01*
X50288319Y-46633891D01*
X50288318Y-46633891D01*
X50282288Y-46631206D01*
X50188887Y-46611353D01*
X50101944Y-46592872D01*
X50101939Y-46592872D01*
X50095487Y-46591500D01*
X49904513Y-46591500D01*
X49898061Y-46592872D01*
X49898056Y-46592872D01*
X49811113Y-46611353D01*
X49717712Y-46631206D01*
X49711682Y-46633891D01*
X49711681Y-46633891D01*
X49549278Y-46706197D01*
X49549276Y-46706198D01*
X49543248Y-46708882D01*
X49388747Y-46821134D01*
X49260960Y-46963056D01*
X49165473Y-47128444D01*
X49106458Y-47310072D01*
X49086496Y-47500000D01*
X45913504Y-47500000D01*
X45893542Y-47310072D01*
X45834527Y-47128444D01*
X45739040Y-46963056D01*
X45611253Y-46821134D01*
X45456752Y-46708882D01*
X45450724Y-46706198D01*
X45450722Y-46706197D01*
X45288319Y-46633891D01*
X45288318Y-46633891D01*
X45282288Y-46631206D01*
X45188887Y-46611353D01*
X45101944Y-46592872D01*
X45101939Y-46592872D01*
X45095487Y-46591500D01*
X44904513Y-46591500D01*
X44898061Y-46592872D01*
X44898056Y-46592872D01*
X44811113Y-46611353D01*
X44717712Y-46631206D01*
X44711682Y-46633891D01*
X44711681Y-46633891D01*
X44549278Y-46706197D01*
X44549276Y-46706198D01*
X44543248Y-46708882D01*
X44388747Y-46821134D01*
X44260960Y-46963056D01*
X44165473Y-47128444D01*
X44106458Y-47310072D01*
X44086496Y-47500000D01*
X43500000Y-47500000D01*
X43500000Y-47250000D01*
X42963585Y-47250000D01*
X42912337Y-47239107D01*
X42788324Y-47183893D01*
X42788321Y-47183892D01*
X42782288Y-47181206D01*
X42687773Y-47161116D01*
X42601944Y-47142872D01*
X42601939Y-47142872D01*
X42595487Y-47141500D01*
X42404513Y-47141500D01*
X42398061Y-47142872D01*
X42398056Y-47142872D01*
X42312227Y-47161116D01*
X42217712Y-47181206D01*
X42211679Y-47183892D01*
X42211676Y-47183893D01*
X42087663Y-47239107D01*
X42036415Y-47250000D01*
X39250000Y-47250000D01*
X39250000Y-54250000D01*
X32366973Y-54250000D01*
X32434199Y-54197477D01*
X32438225Y-54192813D01*
X32552994Y-54059852D01*
X32552995Y-54059850D01*
X32557023Y-54055184D01*
X32649870Y-53891744D01*
X32709203Y-53713382D01*
X32732762Y-53526892D01*
X32733138Y-53500000D01*
X32714795Y-53312926D01*
X32709022Y-53293803D01*
X32662246Y-53138877D01*
X32660465Y-53132977D01*
X32572218Y-52967008D01*
X32453415Y-52821340D01*
X32399603Y-52776823D01*
X32313329Y-52705450D01*
X32313324Y-52705447D01*
X32308580Y-52701522D01*
X32303161Y-52698592D01*
X32303158Y-52698590D01*
X32233671Y-52661019D01*
X32143231Y-52612119D01*
X31963666Y-52556534D01*
X31957541Y-52555890D01*
X31957540Y-52555890D01*
X31782852Y-52537529D01*
X31782851Y-52537529D01*
X31776724Y-52536885D01*
X31699673Y-52543897D01*
X31595665Y-52553363D01*
X31595662Y-52553364D01*
X31589526Y-52553922D01*
X31583620Y-52555660D01*
X31583616Y-52555661D01*
X31450278Y-52594905D01*
X31409202Y-52606994D01*
X31242621Y-52694080D01*
X31096128Y-52811864D01*
X31092170Y-52816582D01*
X31092167Y-52816584D01*
X31041238Y-52877279D01*
X30975302Y-52955859D01*
X30972338Y-52961251D01*
X30972335Y-52961255D01*
X30930725Y-53036944D01*
X30884746Y-53120580D01*
X30827909Y-53299752D01*
X30806956Y-53486552D01*
X30508000Y-53486552D01*
X30508000Y-50000000D01*
X34086496Y-50000000D01*
X34106458Y-50189928D01*
X34165473Y-50371556D01*
X34260960Y-50536944D01*
X34265378Y-50541851D01*
X34265379Y-50541852D01*
X34384325Y-50673955D01*
X34388747Y-50678866D01*
X34543248Y-50791118D01*
X34549276Y-50793802D01*
X34549278Y-50793803D01*
X34711681Y-50866109D01*
X34717712Y-50868794D01*
X34811112Y-50888647D01*
X34898056Y-50907128D01*
X34898061Y-50907128D01*
X34904513Y-50908500D01*
X35095487Y-50908500D01*
X35101939Y-50907128D01*
X35101944Y-50907128D01*
X35188887Y-50888647D01*
X35282288Y-50868794D01*
X35288319Y-50866109D01*
X35450722Y-50793803D01*
X35450724Y-50793802D01*
X35456752Y-50791118D01*
X35611253Y-50678866D01*
X35615675Y-50673955D01*
X35734621Y-50541852D01*
X35734622Y-50541851D01*
X35739040Y-50536944D01*
X35834527Y-50371556D01*
X35893542Y-50189928D01*
X35913504Y-50000000D01*
X35893542Y-49810072D01*
X35834527Y-49628444D01*
X35739040Y-49463056D01*
X35611253Y-49321134D01*
X35456752Y-49208882D01*
X35450724Y-49206198D01*
X35450722Y-49206197D01*
X35288319Y-49133891D01*
X35288318Y-49133891D01*
X35282288Y-49131206D01*
X35188417Y-49111253D01*
X35101944Y-49092872D01*
X35101939Y-49092872D01*
X35095487Y-49091500D01*
X34904513Y-49091500D01*
X34898061Y-49092872D01*
X34898056Y-49092872D01*
X34811583Y-49111253D01*
X34717712Y-49131206D01*
X34711682Y-49133891D01*
X34711681Y-49133891D01*
X34549278Y-49206197D01*
X34549276Y-49206198D01*
X34543248Y-49208882D01*
X34388747Y-49321134D01*
X34260960Y-49463056D01*
X34165473Y-49628444D01*
X34106458Y-49810072D01*
X34086496Y-50000000D01*
X30508000Y-50000000D01*
X30508000Y-47500000D01*
X31586496Y-47500000D01*
X31606458Y-47689928D01*
X31665473Y-47871556D01*
X31760960Y-48036944D01*
X31765378Y-48041851D01*
X31765379Y-48041852D01*
X31884325Y-48173955D01*
X31888747Y-48178866D01*
X32043248Y-48291118D01*
X32049276Y-48293802D01*
X32049278Y-48293803D01*
X32211681Y-48366109D01*
X32217712Y-48368794D01*
X32311113Y-48388647D01*
X32398056Y-48407128D01*
X32398061Y-48407128D01*
X32404513Y-48408500D01*
X32595487Y-48408500D01*
X32601939Y-48407128D01*
X32601944Y-48407128D01*
X32688887Y-48388647D01*
X32782288Y-48368794D01*
X32788319Y-48366109D01*
X32950722Y-48293803D01*
X32950724Y-48293802D01*
X32956752Y-48291118D01*
X33111253Y-48178866D01*
X33115675Y-48173955D01*
X33234621Y-48041852D01*
X33234622Y-48041851D01*
X33239040Y-48036944D01*
X33334527Y-47871556D01*
X33393542Y-47689928D01*
X33413504Y-47500000D01*
X33393542Y-47310072D01*
X33334527Y-47128444D01*
X33239040Y-46963056D01*
X33111253Y-46821134D01*
X32956752Y-46708882D01*
X32950724Y-46706198D01*
X32950722Y-46706197D01*
X32788319Y-46633891D01*
X32788318Y-46633891D01*
X32782288Y-46631206D01*
X32688887Y-46611353D01*
X32601944Y-46592872D01*
X32601939Y-46592872D01*
X32595487Y-46591500D01*
X32404513Y-46591500D01*
X32398061Y-46592872D01*
X32398056Y-46592872D01*
X32311113Y-46611353D01*
X32217712Y-46631206D01*
X32211682Y-46633891D01*
X32211681Y-46633891D01*
X32049278Y-46706197D01*
X32049276Y-46706198D01*
X32043248Y-46708882D01*
X31888747Y-46821134D01*
X31760960Y-46963056D01*
X31665473Y-47128444D01*
X31606458Y-47310072D01*
X31586496Y-47500000D01*
X30508000Y-47500000D01*
X30508000Y-45914754D01*
X30528002Y-45846633D01*
X30581658Y-45800140D01*
X30651932Y-45790036D01*
X30708061Y-45812819D01*
X30733248Y-45831118D01*
X30739276Y-45833802D01*
X30739278Y-45833803D01*
X30901681Y-45906109D01*
X30907712Y-45908794D01*
X31001113Y-45928647D01*
X31088056Y-45947128D01*
X31088061Y-45947128D01*
X31094513Y-45948500D01*
X31285487Y-45948500D01*
X31291939Y-45947128D01*
X31291944Y-45947128D01*
X31378887Y-45928647D01*
X31472288Y-45908794D01*
X31478319Y-45906109D01*
X31640722Y-45833803D01*
X31640724Y-45833802D01*
X31646752Y-45831118D01*
X31698112Y-45793803D01*
X31707149Y-45787237D01*
X31801253Y-45718866D01*
X31841691Y-45673955D01*
X31924621Y-45581852D01*
X31924622Y-45581851D01*
X31929040Y-45576944D01*
X32024527Y-45411556D01*
X32083542Y-45229928D01*
X32103504Y-45040000D01*
X32099300Y-45000000D01*
X49086496Y-45000000D01*
X49106458Y-45189928D01*
X49165473Y-45371556D01*
X49260960Y-45536944D01*
X49265378Y-45541851D01*
X49265379Y-45541852D01*
X49296976Y-45576944D01*
X49388747Y-45678866D01*
X49543248Y-45791118D01*
X49549276Y-45793802D01*
X49549278Y-45793803D01*
X49667937Y-45846633D01*
X49717712Y-45868794D01*
X49811112Y-45888647D01*
X49898056Y-45907128D01*
X49898061Y-45907128D01*
X49904513Y-45908500D01*
X50095487Y-45908500D01*
X50101939Y-45907128D01*
X50101944Y-45907128D01*
X50188888Y-45888647D01*
X50282288Y-45868794D01*
X50332063Y-45846633D01*
X50450722Y-45793803D01*
X50450724Y-45793802D01*
X50456752Y-45791118D01*
X50611253Y-45678866D01*
X50703024Y-45576944D01*
X50734621Y-45541852D01*
X50734622Y-45541851D01*
X50739040Y-45536944D01*
X50834527Y-45371556D01*
X50893542Y-45189928D01*
X50913504Y-45000000D01*
X56586496Y-45000000D01*
X56606458Y-45189928D01*
X56665473Y-45371556D01*
X56760960Y-45536944D01*
X56765378Y-45541851D01*
X56765379Y-45541852D01*
X56796976Y-45576944D01*
X56888747Y-45678866D01*
X57043248Y-45791118D01*
X57049276Y-45793802D01*
X57049278Y-45793803D01*
X57167937Y-45846633D01*
X57217712Y-45868794D01*
X57311112Y-45888647D01*
X57398056Y-45907128D01*
X57398061Y-45907128D01*
X57404513Y-45908500D01*
X57595487Y-45908500D01*
X57601939Y-45907128D01*
X57601944Y-45907128D01*
X57688887Y-45888647D01*
X57782288Y-45868794D01*
X57832063Y-45846633D01*
X57950722Y-45793803D01*
X57950724Y-45793802D01*
X57956752Y-45791118D01*
X58111253Y-45678866D01*
X58203024Y-45576944D01*
X58234621Y-45541852D01*
X58234622Y-45541851D01*
X58239040Y-45536944D01*
X58334527Y-45371556D01*
X58393542Y-45189928D01*
X58413504Y-45000000D01*
X59086496Y-45000000D01*
X59106458Y-45189928D01*
X59165473Y-45371556D01*
X59260960Y-45536944D01*
X59265378Y-45541851D01*
X59265379Y-45541852D01*
X59296976Y-45576944D01*
X59388747Y-45678866D01*
X59543248Y-45791118D01*
X59549276Y-45793802D01*
X59549278Y-45793803D01*
X59667937Y-45846633D01*
X59717712Y-45868794D01*
X59811112Y-45888647D01*
X59898056Y-45907128D01*
X59898061Y-45907128D01*
X59904513Y-45908500D01*
X60095487Y-45908500D01*
X60101939Y-45907128D01*
X60101944Y-45907128D01*
X60188887Y-45888647D01*
X60282288Y-45868794D01*
X60332063Y-45846633D01*
X60450722Y-45793803D01*
X60450724Y-45793802D01*
X60456752Y-45791118D01*
X60611253Y-45678866D01*
X60703024Y-45576944D01*
X60734621Y-45541852D01*
X60734622Y-45541851D01*
X60739040Y-45536944D01*
X60834527Y-45371556D01*
X60893542Y-45189928D01*
X60913504Y-45000000D01*
X61586496Y-45000000D01*
X61606458Y-45189928D01*
X61665473Y-45371556D01*
X61760960Y-45536944D01*
X61765378Y-45541851D01*
X61765379Y-45541852D01*
X61796976Y-45576944D01*
X61888747Y-45678866D01*
X62043248Y-45791118D01*
X62049276Y-45793802D01*
X62049278Y-45793803D01*
X62167937Y-45846633D01*
X62217712Y-45868794D01*
X62311112Y-45888647D01*
X62398056Y-45907128D01*
X62398061Y-45907128D01*
X62404513Y-45908500D01*
X62595487Y-45908500D01*
X62601939Y-45907128D01*
X62601944Y-45907128D01*
X62688887Y-45888647D01*
X62782288Y-45868794D01*
X62832063Y-45846633D01*
X62950722Y-45793803D01*
X62950724Y-45793802D01*
X62956752Y-45791118D01*
X63111253Y-45678866D01*
X63203024Y-45576944D01*
X63234621Y-45541852D01*
X63234622Y-45541851D01*
X63239040Y-45536944D01*
X63334527Y-45371556D01*
X63393542Y-45189928D01*
X63413504Y-45000000D01*
X63393542Y-44810072D01*
X63334527Y-44628444D01*
X63239040Y-44463056D01*
X63218017Y-44439707D01*
X63115675Y-44326045D01*
X63115674Y-44326044D01*
X63111253Y-44321134D01*
X63011807Y-44248882D01*
X62962094Y-44212763D01*
X62962093Y-44212762D01*
X62956752Y-44208882D01*
X62950724Y-44206198D01*
X62950722Y-44206197D01*
X62788319Y-44133891D01*
X62788318Y-44133891D01*
X62782288Y-44131206D01*
X62688887Y-44111353D01*
X62601944Y-44092872D01*
X62601939Y-44092872D01*
X62595487Y-44091500D01*
X62404513Y-44091500D01*
X62398061Y-44092872D01*
X62398056Y-44092872D01*
X62311112Y-44111353D01*
X62217712Y-44131206D01*
X62211682Y-44133891D01*
X62211681Y-44133891D01*
X62049278Y-44206197D01*
X62049276Y-44206198D01*
X62043248Y-44208882D01*
X62037907Y-44212762D01*
X62037906Y-44212763D01*
X61988193Y-44248882D01*
X61888747Y-44321134D01*
X61884326Y-44326044D01*
X61884325Y-44326045D01*
X61781984Y-44439707D01*
X61760960Y-44463056D01*
X61665473Y-44628444D01*
X61606458Y-44810072D01*
X61586496Y-45000000D01*
X60913504Y-45000000D01*
X60893542Y-44810072D01*
X60834527Y-44628444D01*
X60739040Y-44463056D01*
X60718017Y-44439707D01*
X60615675Y-44326045D01*
X60615674Y-44326044D01*
X60611253Y-44321134D01*
X60511807Y-44248882D01*
X60462094Y-44212763D01*
X60462093Y-44212762D01*
X60456752Y-44208882D01*
X60450724Y-44206198D01*
X60450722Y-44206197D01*
X60288319Y-44133891D01*
X60288318Y-44133891D01*
X60282288Y-44131206D01*
X60188887Y-44111353D01*
X60101944Y-44092872D01*
X60101939Y-44092872D01*
X60095487Y-44091500D01*
X59904513Y-44091500D01*
X59898061Y-44092872D01*
X59898056Y-44092872D01*
X59811113Y-44111353D01*
X59717712Y-44131206D01*
X59711682Y-44133891D01*
X59711681Y-44133891D01*
X59549278Y-44206197D01*
X59549276Y-44206198D01*
X59543248Y-44208882D01*
X59537907Y-44212762D01*
X59537906Y-44212763D01*
X59488193Y-44248882D01*
X59388747Y-44321134D01*
X59384326Y-44326044D01*
X59384325Y-44326045D01*
X59281984Y-44439707D01*
X59260960Y-44463056D01*
X59165473Y-44628444D01*
X59106458Y-44810072D01*
X59086496Y-45000000D01*
X58413504Y-45000000D01*
X58393542Y-44810072D01*
X58334527Y-44628444D01*
X58239040Y-44463056D01*
X58218017Y-44439707D01*
X58115675Y-44326045D01*
X58115674Y-44326044D01*
X58111253Y-44321134D01*
X58011807Y-44248882D01*
X57962094Y-44212763D01*
X57962093Y-44212762D01*
X57956752Y-44208882D01*
X57950724Y-44206198D01*
X57950722Y-44206197D01*
X57788319Y-44133891D01*
X57788318Y-44133891D01*
X57782288Y-44131206D01*
X57688887Y-44111353D01*
X57601944Y-44092872D01*
X57601939Y-44092872D01*
X57595487Y-44091500D01*
X57404513Y-44091500D01*
X57398061Y-44092872D01*
X57398056Y-44092872D01*
X57311113Y-44111353D01*
X57217712Y-44131206D01*
X57211682Y-44133891D01*
X57211681Y-44133891D01*
X57049278Y-44206197D01*
X57049276Y-44206198D01*
X57043248Y-44208882D01*
X57037907Y-44212762D01*
X57037906Y-44212763D01*
X56988193Y-44248882D01*
X56888747Y-44321134D01*
X56884326Y-44326044D01*
X56884325Y-44326045D01*
X56781984Y-44439707D01*
X56760960Y-44463056D01*
X56665473Y-44628444D01*
X56606458Y-44810072D01*
X56586496Y-45000000D01*
X50913504Y-45000000D01*
X50893542Y-44810072D01*
X50834527Y-44628444D01*
X50739040Y-44463056D01*
X50718017Y-44439707D01*
X50615675Y-44326045D01*
X50615674Y-44326044D01*
X50611253Y-44321134D01*
X50511807Y-44248882D01*
X50462094Y-44212763D01*
X50462093Y-44212762D01*
X50456752Y-44208882D01*
X50450724Y-44206198D01*
X50450722Y-44206197D01*
X50288319Y-44133891D01*
X50288318Y-44133891D01*
X50282288Y-44131206D01*
X50188887Y-44111353D01*
X50101944Y-44092872D01*
X50101939Y-44092872D01*
X50095487Y-44091500D01*
X49904513Y-44091500D01*
X49898061Y-44092872D01*
X49898056Y-44092872D01*
X49811113Y-44111353D01*
X49717712Y-44131206D01*
X49711682Y-44133891D01*
X49711681Y-44133891D01*
X49549278Y-44206197D01*
X49549276Y-44206198D01*
X49543248Y-44208882D01*
X49537907Y-44212762D01*
X49537906Y-44212763D01*
X49488193Y-44248882D01*
X49388747Y-44321134D01*
X49384326Y-44326044D01*
X49384325Y-44326045D01*
X49281984Y-44439707D01*
X49260960Y-44463056D01*
X49165473Y-44628444D01*
X49106458Y-44810072D01*
X49086496Y-45000000D01*
X32099300Y-45000000D01*
X32083542Y-44850072D01*
X32024527Y-44668444D01*
X31929040Y-44503056D01*
X31898173Y-44468774D01*
X31805675Y-44366045D01*
X31805674Y-44366044D01*
X31801253Y-44361134D01*
X31646752Y-44248882D01*
X31640724Y-44246198D01*
X31640722Y-44246197D01*
X31478319Y-44173891D01*
X31478318Y-44173891D01*
X31472288Y-44171206D01*
X31378887Y-44151353D01*
X31291944Y-44132872D01*
X31291939Y-44132872D01*
X31285487Y-44131500D01*
X31094513Y-44131500D01*
X31088061Y-44132872D01*
X31088056Y-44132872D01*
X31001113Y-44151353D01*
X30907712Y-44171206D01*
X30901682Y-44173891D01*
X30901681Y-44173891D01*
X30739278Y-44246197D01*
X30739276Y-44246198D01*
X30733248Y-44248882D01*
X30727905Y-44252764D01*
X30708062Y-44267181D01*
X30641195Y-44291040D01*
X30572043Y-44274961D01*
X30522562Y-44224048D01*
X30508000Y-44165246D01*
X30508000Y-43367489D01*
X30528002Y-43299368D01*
X30581658Y-43252875D01*
X30651932Y-43242771D01*
X30708061Y-43265553D01*
X30743248Y-43291118D01*
X30749276Y-43293802D01*
X30749278Y-43293803D01*
X30911681Y-43366109D01*
X30917712Y-43368794D01*
X31011112Y-43388647D01*
X31098056Y-43407128D01*
X31098061Y-43407128D01*
X31104513Y-43408500D01*
X31295487Y-43408500D01*
X31301939Y-43407128D01*
X31301944Y-43407128D01*
X31388888Y-43388647D01*
X31482288Y-43368794D01*
X31488319Y-43366109D01*
X31650722Y-43293803D01*
X31650724Y-43293802D01*
X31656752Y-43291118D01*
X31811253Y-43178866D01*
X31939040Y-43036944D01*
X32034527Y-42871556D01*
X32093542Y-42689928D01*
X32113504Y-42500000D01*
X32093542Y-42310072D01*
X32034527Y-42128444D01*
X31939040Y-41963056D01*
X31924411Y-41946809D01*
X31893695Y-41882803D01*
X31902459Y-41812349D01*
X31924410Y-41778193D01*
X31939040Y-41761944D01*
X32034527Y-41596556D01*
X32093542Y-41414928D01*
X32113504Y-41225000D01*
X32093542Y-41035072D01*
X32034527Y-40853444D01*
X31939040Y-40688056D01*
X31926344Y-40673955D01*
X31815675Y-40551045D01*
X31815674Y-40551044D01*
X31811253Y-40546134D01*
X31656752Y-40433882D01*
X31650724Y-40431198D01*
X31650722Y-40431197D01*
X31488319Y-40358891D01*
X31488318Y-40358891D01*
X31482288Y-40356206D01*
X31388887Y-40336353D01*
X31301944Y-40317872D01*
X31301939Y-40317872D01*
X31295487Y-40316500D01*
X31104513Y-40316500D01*
X31098061Y-40317872D01*
X31098056Y-40317872D01*
X31011113Y-40336353D01*
X30917712Y-40356206D01*
X30911682Y-40358891D01*
X30911681Y-40358891D01*
X30749278Y-40431197D01*
X30749276Y-40431198D01*
X30743248Y-40433882D01*
X30737907Y-40437762D01*
X30737906Y-40437763D01*
X30708061Y-40459447D01*
X30641194Y-40483305D01*
X30572042Y-40467225D01*
X30522562Y-40416311D01*
X30508000Y-40357511D01*
X30508000Y-40000000D01*
X41586496Y-40000000D01*
X41606458Y-40189928D01*
X41665473Y-40371556D01*
X41760960Y-40536944D01*
X41765378Y-40541851D01*
X41765379Y-40541852D01*
X41849982Y-40635813D01*
X41888747Y-40678866D01*
X42043248Y-40791118D01*
X42049276Y-40793802D01*
X42049278Y-40793803D01*
X42211681Y-40866109D01*
X42217712Y-40868794D01*
X42311112Y-40888647D01*
X42398056Y-40907128D01*
X42398061Y-40907128D01*
X42404513Y-40908500D01*
X42595487Y-40908500D01*
X42601939Y-40907128D01*
X42601944Y-40907128D01*
X42688888Y-40888647D01*
X42782288Y-40868794D01*
X42788319Y-40866109D01*
X42950722Y-40793803D01*
X42950724Y-40793802D01*
X42956752Y-40791118D01*
X43111253Y-40678866D01*
X43150018Y-40635813D01*
X43234621Y-40541852D01*
X43234622Y-40541851D01*
X43239040Y-40536944D01*
X43334527Y-40371556D01*
X43393542Y-40189928D01*
X43413504Y-40000000D01*
X43393542Y-39810072D01*
X43334527Y-39628444D01*
X43239040Y-39463056D01*
X43111253Y-39321134D01*
X42956752Y-39208882D01*
X42950724Y-39206198D01*
X42950722Y-39206197D01*
X42788319Y-39133891D01*
X42788318Y-39133891D01*
X42782288Y-39131206D01*
X42688887Y-39111353D01*
X42601944Y-39092872D01*
X42601939Y-39092872D01*
X42595487Y-39091500D01*
X42404513Y-39091500D01*
X42398061Y-39092872D01*
X42398056Y-39092872D01*
X42311113Y-39111353D01*
X42217712Y-39131206D01*
X42211682Y-39133891D01*
X42211681Y-39133891D01*
X42049278Y-39206197D01*
X42049276Y-39206198D01*
X42043248Y-39208882D01*
X41888747Y-39321134D01*
X41760960Y-39463056D01*
X41665473Y-39628444D01*
X41606458Y-39810072D01*
X41586496Y-40000000D01*
X30508000Y-40000000D01*
X30508000Y-35373081D01*
X30528002Y-35304960D01*
X30581658Y-35258467D01*
X30651932Y-35248363D01*
X30716512Y-35277857D01*
X30751631Y-35327927D01*
X30790427Y-35428994D01*
X30791925Y-35431934D01*
X30936943Y-35716547D01*
X30957380Y-35756657D01*
X30959176Y-35759423D01*
X30959178Y-35759426D01*
X30999452Y-35821442D01*
X31157668Y-36065075D01*
X31389098Y-36350867D01*
X31649133Y-36610902D01*
X31934925Y-36842332D01*
X32243342Y-37042620D01*
X32246276Y-37044115D01*
X32246283Y-37044119D01*
X32400549Y-37122721D01*
X32571006Y-37209573D01*
X32914326Y-37341361D01*
X33269541Y-37436541D01*
X33462558Y-37467112D01*
X33629511Y-37493555D01*
X33629519Y-37493556D01*
X33632759Y-37494069D01*
X34000000Y-37513315D01*
X34254069Y-37500000D01*
X36586496Y-37500000D01*
X36606458Y-37689928D01*
X36665473Y-37871556D01*
X36760960Y-38036944D01*
X36888747Y-38178866D01*
X37043248Y-38291118D01*
X37049276Y-38293802D01*
X37049278Y-38293803D01*
X37211681Y-38366109D01*
X37217712Y-38368794D01*
X37311112Y-38388647D01*
X37398056Y-38407128D01*
X37398061Y-38407128D01*
X37404513Y-38408500D01*
X37595487Y-38408500D01*
X37601939Y-38407128D01*
X37601944Y-38407128D01*
X37688888Y-38388647D01*
X37782288Y-38368794D01*
X37788319Y-38366109D01*
X37950722Y-38293803D01*
X37950724Y-38293802D01*
X37956752Y-38291118D01*
X38111253Y-38178866D01*
X38239040Y-38036944D01*
X38334527Y-37871556D01*
X38393542Y-37689928D01*
X38413504Y-37500000D01*
X39086496Y-37500000D01*
X39106458Y-37689928D01*
X39165473Y-37871556D01*
X39260960Y-38036944D01*
X39388747Y-38178866D01*
X39543248Y-38291118D01*
X39549276Y-38293802D01*
X39549278Y-38293803D01*
X39711681Y-38366109D01*
X39717712Y-38368794D01*
X39811112Y-38388647D01*
X39898056Y-38407128D01*
X39898061Y-38407128D01*
X39904513Y-38408500D01*
X40095487Y-38408500D01*
X40101939Y-38407128D01*
X40101944Y-38407128D01*
X40188888Y-38388647D01*
X40282288Y-38368794D01*
X40288319Y-38366109D01*
X40450722Y-38293803D01*
X40450724Y-38293802D01*
X40456752Y-38291118D01*
X40611253Y-38178866D01*
X40739040Y-38036944D01*
X40834527Y-37871556D01*
X40893542Y-37689928D01*
X40913504Y-37500000D01*
X40906744Y-37435686D01*
X40894232Y-37316635D01*
X40894232Y-37316633D01*
X40893542Y-37310072D01*
X40834527Y-37128444D01*
X40739040Y-36963056D01*
X40611253Y-36821134D01*
X40456752Y-36708882D01*
X40450724Y-36706198D01*
X40450722Y-36706197D01*
X40288319Y-36633891D01*
X40288318Y-36633891D01*
X40282288Y-36631206D01*
X40175738Y-36608558D01*
X40101944Y-36592872D01*
X40101939Y-36592872D01*
X40095487Y-36591500D01*
X39904513Y-36591500D01*
X39898061Y-36592872D01*
X39898056Y-36592872D01*
X39824262Y-36608558D01*
X39717712Y-36631206D01*
X39711682Y-36633891D01*
X39711681Y-36633891D01*
X39549278Y-36706197D01*
X39549276Y-36706198D01*
X39543248Y-36708882D01*
X39388747Y-36821134D01*
X39260960Y-36963056D01*
X39165473Y-37128444D01*
X39106458Y-37310072D01*
X39105768Y-37316633D01*
X39105768Y-37316635D01*
X39093256Y-37435686D01*
X39086496Y-37500000D01*
X38413504Y-37500000D01*
X38406744Y-37435686D01*
X38394232Y-37316635D01*
X38394232Y-37316633D01*
X38393542Y-37310072D01*
X38334527Y-37128444D01*
X38239040Y-36963056D01*
X38111253Y-36821134D01*
X37956752Y-36708882D01*
X37950724Y-36706198D01*
X37950722Y-36706197D01*
X37788319Y-36633891D01*
X37788318Y-36633891D01*
X37782288Y-36631206D01*
X37675738Y-36608558D01*
X37601944Y-36592872D01*
X37601939Y-36592872D01*
X37595487Y-36591500D01*
X37404513Y-36591500D01*
X37398061Y-36592872D01*
X37398056Y-36592872D01*
X37324262Y-36608558D01*
X37217712Y-36631206D01*
X37211682Y-36633891D01*
X37211681Y-36633891D01*
X37049278Y-36706197D01*
X37049276Y-36706198D01*
X37043248Y-36708882D01*
X36888747Y-36821134D01*
X36760960Y-36963056D01*
X36665473Y-37128444D01*
X36606458Y-37310072D01*
X36605768Y-37316633D01*
X36605768Y-37316635D01*
X36593256Y-37435686D01*
X36586496Y-37500000D01*
X34254069Y-37500000D01*
X34367241Y-37494069D01*
X34370481Y-37493556D01*
X34370489Y-37493555D01*
X34537442Y-37467112D01*
X34730459Y-37436541D01*
X35085674Y-37341361D01*
X35428994Y-37209573D01*
X35599451Y-37122721D01*
X35753717Y-37044119D01*
X35753724Y-37044115D01*
X35756658Y-37042620D01*
X36065075Y-36842332D01*
X36350867Y-36610902D01*
X36610902Y-36350867D01*
X36842332Y-36065075D01*
X37000548Y-35821442D01*
X37040822Y-35759426D01*
X37040824Y-35759423D01*
X37042620Y-35756657D01*
X37063058Y-35716547D01*
X37208075Y-35431934D01*
X37209573Y-35428994D01*
X37341361Y-35085674D01*
X37376335Y-34955151D01*
X42287296Y-34955151D01*
X42299480Y-35208798D01*
X42323176Y-35327927D01*
X42343865Y-35431934D01*
X42349021Y-35457857D01*
X42350600Y-35462255D01*
X42350602Y-35462262D01*
X42433248Y-35692449D01*
X42434831Y-35696858D01*
X42555025Y-35920551D01*
X42557820Y-35924294D01*
X42557822Y-35924297D01*
X42704171Y-36120282D01*
X42704176Y-36120288D01*
X42706963Y-36124020D01*
X42710272Y-36127300D01*
X42710277Y-36127306D01*
X42883990Y-36299509D01*
X42887307Y-36302797D01*
X42891069Y-36305555D01*
X42891072Y-36305558D01*
X42949354Y-36348292D01*
X43092094Y-36452953D01*
X43096229Y-36455129D01*
X43096233Y-36455131D01*
X43214289Y-36517243D01*
X43316827Y-36571191D01*
X43556568Y-36654912D01*
X43806050Y-36702278D01*
X43926532Y-36707011D01*
X44055125Y-36712064D01*
X44055130Y-36712064D01*
X44059793Y-36712247D01*
X44158774Y-36701407D01*
X44307569Y-36685112D01*
X44307575Y-36685111D01*
X44312222Y-36684602D01*
X44421680Y-36655784D01*
X44553273Y-36621138D01*
X44557793Y-36619948D01*
X44706449Y-36556081D01*
X44786807Y-36521557D01*
X44786810Y-36521555D01*
X44791110Y-36519708D01*
X44795090Y-36517245D01*
X44795094Y-36517243D01*
X45003064Y-36388547D01*
X45003066Y-36388545D01*
X45007047Y-36386082D01*
X45048645Y-36350867D01*
X45197289Y-36225031D01*
X45197291Y-36225029D01*
X45200862Y-36222006D01*
X45368295Y-36031084D01*
X45505669Y-35817512D01*
X45550618Y-35717729D01*
X45596834Y-35663835D01*
X45664850Y-35643482D01*
X45733073Y-35663132D01*
X45779842Y-35716547D01*
X45791500Y-35769480D01*
X45791500Y-36248134D01*
X45798255Y-36310316D01*
X45849385Y-36446705D01*
X45936739Y-36563261D01*
X46053295Y-36650615D01*
X46189684Y-36701745D01*
X46251866Y-36708500D01*
X48748134Y-36708500D01*
X48810316Y-36701745D01*
X48946705Y-36650615D01*
X49063261Y-36563261D01*
X49150615Y-36446705D01*
X49201745Y-36310316D01*
X49208500Y-36248134D01*
X49208500Y-33751866D01*
X49201745Y-33689684D01*
X49150615Y-33553295D01*
X49063261Y-33436739D01*
X48946705Y-33349385D01*
X48810316Y-33298255D01*
X48748134Y-33291500D01*
X46251866Y-33291500D01*
X46189684Y-33298255D01*
X46053295Y-33349385D01*
X45936739Y-33436739D01*
X45849385Y-33553295D01*
X45798255Y-33689684D01*
X45791500Y-33751866D01*
X45791500Y-34221052D01*
X45771498Y-34289173D01*
X45717842Y-34335666D01*
X45647568Y-34345770D01*
X45582988Y-34316276D01*
X45550829Y-34270639D01*
X45550099Y-34270987D01*
X45548084Y-34266762D01*
X45546391Y-34262409D01*
X45525866Y-34226498D01*
X45422702Y-34045997D01*
X45422700Y-34045995D01*
X45420383Y-34041940D01*
X45263171Y-33842517D01*
X45078209Y-33668523D01*
X44989132Y-33606728D01*
X44873393Y-33526437D01*
X44873390Y-33526435D01*
X44869561Y-33523779D01*
X44865384Y-33521719D01*
X44865377Y-33521715D01*
X44645996Y-33413528D01*
X44645992Y-33413527D01*
X44641810Y-33411464D01*
X44399960Y-33334047D01*
X44395355Y-33333297D01*
X44153935Y-33293980D01*
X44153934Y-33293980D01*
X44149323Y-33293229D01*
X44022365Y-33291567D01*
X43900083Y-33289966D01*
X43900080Y-33289966D01*
X43895406Y-33289905D01*
X43643787Y-33324149D01*
X43399993Y-33395208D01*
X43169380Y-33501522D01*
X43165471Y-33504085D01*
X42960928Y-33638189D01*
X42960923Y-33638193D01*
X42957015Y-33640755D01*
X42767562Y-33809848D01*
X42605183Y-34005087D01*
X42473447Y-34222182D01*
X42471638Y-34226496D01*
X42471637Y-34226498D01*
X42411257Y-34370489D01*
X42375246Y-34456365D01*
X42312738Y-34702490D01*
X42287296Y-34955151D01*
X37376335Y-34955151D01*
X37436541Y-34730459D01*
X37467112Y-34537442D01*
X37493555Y-34370489D01*
X37493556Y-34370481D01*
X37494069Y-34367241D01*
X37513315Y-34000000D01*
X37494069Y-33632759D01*
X37476482Y-33521715D01*
X37464160Y-33443919D01*
X37436541Y-33269541D01*
X37341361Y-32914326D01*
X37209573Y-32571006D01*
X37042620Y-32243343D01*
X36842332Y-31934925D01*
X36610902Y-31649133D01*
X36350867Y-31389098D01*
X36065075Y-31157668D01*
X35756658Y-30957380D01*
X35753724Y-30955885D01*
X35753717Y-30955881D01*
X35431934Y-30791925D01*
X35428994Y-30790427D01*
X35327927Y-30751631D01*
X35271499Y-30708545D01*
X35247322Y-30641792D01*
X35263073Y-30572565D01*
X35313751Y-30522843D01*
X35373081Y-30508000D01*
X64626919Y-30508000D01*
X64695040Y-30528002D01*
G37*
%TD.AperFunction*%
%TD*%
M02*
