%TF.GenerationSoftware,KiCad,Pcbnew,(6.0.0-rc1-124-g18b4ebcc17)*%
%TF.CreationDate,2021-11-25T20:10:52+05:30*%
%TF.ProjectId,Europa,4575726f-7061-42e6-9b69-6361645f7063,rev?*%
%TF.SameCoordinates,Original*%
%TF.FileFunction,Copper,L4,Bot*%
%TF.FilePolarity,Positive*%
%FSLAX46Y46*%
G04 Gerber Fmt 4.6, Leading zero omitted, Abs format (unit mm)*
G04 Created by KiCad (PCBNEW (6.0.0-rc1-124-g18b4ebcc17)) date 2021-11-25 20:10:52*
%MOMM*%
%LPD*%
G01*
G04 APERTURE LIST*
G04 Aperture macros list*
%AMRoundRect*
0 Rectangle with rounded corners*
0 $1 Rounding radius*
0 $2 $3 $4 $5 $6 $7 $8 $9 X,Y pos of 4 corners*
0 Add a 4 corners polygon primitive as box body*
4,1,4,$2,$3,$4,$5,$6,$7,$8,$9,$2,$3,0*
0 Add four circle primitives for the rounded corners*
1,1,$1+$1,$2,$3*
1,1,$1+$1,$4,$5*
1,1,$1+$1,$6,$7*
1,1,$1+$1,$8,$9*
0 Add four rect primitives between the rounded corners*
20,1,$1+$1,$2,$3,$4,$5,0*
20,1,$1+$1,$4,$5,$6,$7,0*
20,1,$1+$1,$6,$7,$8,$9,0*
20,1,$1+$1,$8,$9,$2,$3,0*%
G04 Aperture macros list end*
%TA.AperFunction,ComponentPad*%
%ADD10C,0.800000*%
%TD*%
%TA.AperFunction,ComponentPad*%
%ADD11C,6.000000*%
%TD*%
%TA.AperFunction,ComponentPad*%
%ADD12RoundRect,0.200000X-0.200000X-0.450000X0.200000X-0.450000X0.200000X0.450000X-0.200000X0.450000X0*%
%TD*%
%TA.AperFunction,ComponentPad*%
%ADD13O,0.800000X1.300000*%
%TD*%
%TA.AperFunction,ComponentPad*%
%ADD14R,2.400000X2.400000*%
%TD*%
%TA.AperFunction,ComponentPad*%
%ADD15C,2.400000*%
%TD*%
%TA.AperFunction,ComponentPad*%
%ADD16RoundRect,0.200000X0.450000X-0.200000X0.450000X0.200000X-0.450000X0.200000X-0.450000X-0.200000X0*%
%TD*%
%TA.AperFunction,ComponentPad*%
%ADD17O,1.300000X0.800000*%
%TD*%
%TA.AperFunction,ViaPad*%
%ADD18C,0.800000*%
%TD*%
G04 APERTURE END LIST*
D10*
%TO.P,H1,1*%
%TO.N,GND*%
X36250000Y-34000000D03*
X31750000Y-34000000D03*
X35590990Y-32409010D03*
X35590990Y-35590990D03*
X32409010Y-32409010D03*
X32409010Y-35590990D03*
X34000000Y-36250000D03*
D11*
X34000000Y-34000000D03*
D10*
X34000000Y-31750000D03*
%TD*%
%TO.P,H2,1*%
%TO.N,GND*%
X35590990Y-67590990D03*
X31750000Y-66000000D03*
X32409010Y-64409010D03*
D11*
X34000000Y-66000000D03*
D10*
X32409010Y-67590990D03*
X34000000Y-63750000D03*
X36250000Y-66000000D03*
X35590990Y-64409010D03*
X34000000Y-68250000D03*
%TD*%
%TO.P,H3,1*%
%TO.N,GND*%
X66000000Y-63750000D03*
X67590990Y-64409010D03*
X68250000Y-66000000D03*
X63750000Y-66000000D03*
X67590990Y-67590990D03*
X64409010Y-67590990D03*
X66000000Y-68250000D03*
X64409010Y-64409010D03*
D11*
X66000000Y-66000000D03*
%TD*%
D10*
%TO.P,H4,1*%
%TO.N,GND*%
X67590990Y-32409010D03*
X67590990Y-35590990D03*
X66000000Y-31750000D03*
X64409010Y-35590990D03*
X66000000Y-36250000D03*
X64409010Y-32409010D03*
X63750000Y-34000000D03*
D11*
X66000000Y-34000000D03*
D10*
X68250000Y-34000000D03*
%TD*%
D12*
%TO.P,J4,1*%
%TO.N,+3V3*%
X48000000Y-65050000D03*
D13*
%TO.P,J4,2*%
%TO.N,USART1_RX*%
X49250000Y-65050000D03*
%TO.P,J4,3*%
%TO.N,USART1_TX*%
X50500000Y-65050000D03*
%TO.P,J4,4*%
%TO.N,GND*%
X51750000Y-65050000D03*
%TD*%
D14*
%TO.P,J1,1*%
%TO.N,Net-(F1-Pad2)*%
X47500000Y-35000000D03*
D15*
%TO.P,J1,2*%
%TO.N,GND*%
X44000000Y-35000000D03*
%TD*%
D16*
%TO.P,J2,1*%
%TO.N,+3V3*%
X65050000Y-51000000D03*
D17*
%TO.P,J2,2*%
%TO.N,I2C1_SCL*%
X65050000Y-49750000D03*
%TO.P,J2,3*%
%TO.N,I2C1_SDA*%
X65050000Y-48500000D03*
%TO.P,J2,4*%
%TO.N,GND*%
X65050000Y-47250000D03*
%TD*%
D18*
%TO.N,+3V3*%
X40300000Y-34400000D03*
X45600000Y-52475000D03*
X44350000Y-52500000D03*
X56950000Y-52225000D03*
X56950000Y-51050000D03*
X35100000Y-52750000D03*
X31190000Y-39960000D03*
X68550000Y-61150000D03*
X61000000Y-41000000D03*
X67000000Y-42000000D03*
X68000000Y-42000000D03*
X61000000Y-39000000D03*
X66000000Y-42000000D03*
X56000000Y-39000000D03*
X62000000Y-38000000D03*
X63000000Y-41000000D03*
X59000000Y-39000000D03*
X59000000Y-38000000D03*
X60000000Y-39000000D03*
X63000000Y-42000000D03*
X65000000Y-40000000D03*
X61000000Y-40000000D03*
X60000000Y-38000000D03*
X62000000Y-40000000D03*
X57000000Y-38000000D03*
X61000000Y-38000000D03*
X56000000Y-38000000D03*
X64000000Y-42000000D03*
X66000000Y-41000000D03*
X68000000Y-40000000D03*
X63000000Y-40000000D03*
X67000000Y-41000000D03*
X57000000Y-39000000D03*
X65000000Y-41000000D03*
X62000000Y-39000000D03*
X64000000Y-40000000D03*
X68000000Y-41000000D03*
X65000000Y-42000000D03*
X61000000Y-42000000D03*
X67000000Y-40000000D03*
X58000000Y-39000000D03*
X62000000Y-41000000D03*
X64000000Y-41000000D03*
X62000000Y-42000000D03*
X66000000Y-40000000D03*
X58000000Y-38000000D03*
%TO.N,GND*%
X40400000Y-53350000D03*
X56950000Y-53775000D03*
X43175000Y-55225000D03*
X44350000Y-56375000D03*
X60000000Y-55000000D03*
X62500000Y-55000000D03*
X65000000Y-55000000D03*
X67500000Y-55000000D03*
X62500000Y-52500000D03*
X60000000Y-52500000D03*
X35050000Y-57250000D03*
X31190000Y-45040000D03*
X31200000Y-42500000D03*
X31200000Y-41225000D03*
X37500000Y-60000000D03*
X55000000Y-67500000D03*
X40000000Y-37500000D03*
X57500000Y-45000000D03*
X62500000Y-62500000D03*
X42500000Y-60000000D03*
X35000000Y-50000000D03*
X32500000Y-47500000D03*
X40000000Y-60000000D03*
X35000000Y-60000000D03*
X47500000Y-60000000D03*
X60000000Y-65000000D03*
X60000000Y-47500000D03*
X42500000Y-65000000D03*
X57500000Y-67500000D03*
X57500000Y-65000000D03*
X45000000Y-67500000D03*
X50000000Y-47500000D03*
X42500000Y-57500000D03*
X37500000Y-37500000D03*
X40000000Y-62500000D03*
X60000000Y-45000000D03*
X42500000Y-62500000D03*
X40000000Y-65000000D03*
X40000000Y-57500000D03*
X42500000Y-48050000D03*
X55775000Y-54925000D03*
X57500000Y-62500000D03*
X55000000Y-62500000D03*
X32500000Y-60000000D03*
X37500000Y-57500000D03*
X62500000Y-45000000D03*
X60000000Y-62500000D03*
X57500000Y-47500000D03*
X42500000Y-67500000D03*
X37500000Y-62500000D03*
X60000000Y-67500000D03*
X50000000Y-45000000D03*
X45000000Y-47500000D03*
X52500000Y-62500000D03*
X42500000Y-40000000D03*
X55000000Y-65000000D03*
%TD*%
%TA.AperFunction,Conductor*%
%TO.N,GND*%
G36*
X64696436Y-30528002D02*
G01*
X64742929Y-30581658D01*
X64753033Y-30651932D01*
X64723539Y-30716512D01*
X64673469Y-30751631D01*
X64574292Y-30789701D01*
X64568275Y-30792380D01*
X64246532Y-30956317D01*
X64240823Y-30959613D01*
X63937984Y-31156279D01*
X63932662Y-31160146D01*
X63718366Y-31333678D01*
X63709900Y-31345933D01*
X63716234Y-31357024D01*
X68642110Y-36282900D01*
X68655186Y-36290040D01*
X68665554Y-36282582D01*
X68839854Y-36067338D01*
X68843721Y-36062016D01*
X69040387Y-35759177D01*
X69043683Y-35753468D01*
X69207620Y-35431725D01*
X69210299Y-35425708D01*
X69248369Y-35326531D01*
X69291455Y-35270103D01*
X69358208Y-35245926D01*
X69427435Y-35261677D01*
X69477157Y-35312355D01*
X69492000Y-35371685D01*
X69492000Y-60510225D01*
X69471998Y-60578346D01*
X69418342Y-60624839D01*
X69348068Y-60634943D01*
X69283488Y-60605449D01*
X69272369Y-60594541D01*
X69161253Y-60471134D01*
X69006752Y-60358882D01*
X69000724Y-60356198D01*
X69000722Y-60356197D01*
X68838319Y-60283891D01*
X68838318Y-60283891D01*
X68832288Y-60281206D01*
X68738888Y-60261353D01*
X68651944Y-60242872D01*
X68651939Y-60242872D01*
X68645487Y-60241500D01*
X68454513Y-60241500D01*
X68448061Y-60242872D01*
X68448056Y-60242872D01*
X68361112Y-60261353D01*
X68267712Y-60281206D01*
X68261682Y-60283891D01*
X68261681Y-60283891D01*
X68099278Y-60356197D01*
X68099276Y-60356198D01*
X68093248Y-60358882D01*
X67938747Y-60471134D01*
X67810960Y-60613056D01*
X67715473Y-60778444D01*
X67656458Y-60960072D01*
X67636496Y-61150000D01*
X67656458Y-61339928D01*
X67715473Y-61521556D01*
X67810960Y-61686944D01*
X67938747Y-61828866D01*
X68093248Y-61941118D01*
X68099276Y-61943802D01*
X68099278Y-61943803D01*
X68261681Y-62016109D01*
X68267712Y-62018794D01*
X68361112Y-62038647D01*
X68448056Y-62057128D01*
X68448061Y-62057128D01*
X68454513Y-62058500D01*
X68645487Y-62058500D01*
X68651939Y-62057128D01*
X68651944Y-62057128D01*
X68738888Y-62038647D01*
X68832288Y-62018794D01*
X68838319Y-62016109D01*
X69000722Y-61943803D01*
X69000724Y-61943802D01*
X69006752Y-61941118D01*
X69161253Y-61828866D01*
X69272365Y-61705463D01*
X69332810Y-61668225D01*
X69403794Y-61669577D01*
X69462778Y-61709091D01*
X69491036Y-61774221D01*
X69492000Y-61789775D01*
X69492000Y-64628315D01*
X69471998Y-64696436D01*
X69418342Y-64742929D01*
X69348068Y-64753033D01*
X69283488Y-64723539D01*
X69248369Y-64673469D01*
X69210299Y-64574292D01*
X69207620Y-64568275D01*
X69043683Y-64246532D01*
X69040387Y-64240823D01*
X68843721Y-63937984D01*
X68839854Y-63932662D01*
X68666322Y-63718366D01*
X68654067Y-63709900D01*
X68642976Y-63716234D01*
X63717100Y-68642110D01*
X63709960Y-68655186D01*
X63717418Y-68665554D01*
X63932662Y-68839854D01*
X63937984Y-68843721D01*
X64240823Y-69040387D01*
X64246532Y-69043683D01*
X64568275Y-69207620D01*
X64574292Y-69210299D01*
X64673469Y-69248369D01*
X64729897Y-69291455D01*
X64754074Y-69358208D01*
X64738323Y-69427435D01*
X64687645Y-69477157D01*
X64628315Y-69492000D01*
X35371685Y-69492000D01*
X35303564Y-69471998D01*
X35257071Y-69418342D01*
X35246967Y-69348068D01*
X35276461Y-69283488D01*
X35326531Y-69248369D01*
X35425708Y-69210299D01*
X35431725Y-69207620D01*
X35753468Y-69043683D01*
X35759177Y-69040387D01*
X36062016Y-68843721D01*
X36067338Y-68839854D01*
X36281634Y-68666322D01*
X36290100Y-68654067D01*
X36283766Y-68642976D01*
X33641922Y-66001132D01*
X34364408Y-66001132D01*
X34364539Y-66002965D01*
X34368790Y-66009580D01*
X36642110Y-68282900D01*
X36655186Y-68290040D01*
X36665554Y-68282582D01*
X36839854Y-68067338D01*
X36843721Y-68062016D01*
X37040387Y-67759177D01*
X37043683Y-67753468D01*
X37207620Y-67431725D01*
X37210296Y-67425714D01*
X37339700Y-67088605D01*
X37341740Y-67082328D01*
X37435198Y-66733537D01*
X37436567Y-66727099D01*
X37493055Y-66370440D01*
X37493743Y-66363896D01*
X37512641Y-66003301D01*
X37512641Y-65996699D01*
X37493743Y-65636104D01*
X37493055Y-65629560D01*
X37436567Y-65272901D01*
X37435198Y-65266463D01*
X37341740Y-64917672D01*
X37339700Y-64911395D01*
X37210296Y-64574286D01*
X37207620Y-64568275D01*
X37194928Y-64543365D01*
X47091500Y-64543365D01*
X47091501Y-65556634D01*
X47098247Y-65630062D01*
X47100246Y-65636440D01*
X47100246Y-65636441D01*
X47111251Y-65671556D01*
X47149528Y-65793699D01*
X47238361Y-65940381D01*
X47359619Y-66061639D01*
X47506301Y-66150472D01*
X47513548Y-66152743D01*
X47513550Y-66152744D01*
X47556198Y-66166109D01*
X47669938Y-66201753D01*
X47743365Y-66208500D01*
X47746263Y-66208500D01*
X48000665Y-66208499D01*
X48256634Y-66208499D01*
X48259492Y-66208236D01*
X48259501Y-66208236D01*
X48295004Y-66204974D01*
X48330062Y-66201753D01*
X48336447Y-66199752D01*
X48486450Y-66152744D01*
X48486452Y-66152743D01*
X48493699Y-66150472D01*
X48630018Y-66067915D01*
X48698648Y-66049736D01*
X48769350Y-66073755D01*
X48787308Y-66086802D01*
X48793248Y-66091118D01*
X48799276Y-66093802D01*
X48799278Y-66093803D01*
X48946844Y-66159503D01*
X48967712Y-66168794D01*
X49061113Y-66188647D01*
X49148056Y-66207128D01*
X49148061Y-66207128D01*
X49154513Y-66208500D01*
X49345487Y-66208500D01*
X49351939Y-66207128D01*
X49351944Y-66207128D01*
X49438887Y-66188647D01*
X49532288Y-66168794D01*
X49553156Y-66159503D01*
X49700722Y-66093803D01*
X49700724Y-66093802D01*
X49706752Y-66091118D01*
X49712693Y-66086802D01*
X49800939Y-66022687D01*
X49867807Y-65998828D01*
X49936958Y-66014909D01*
X49949061Y-66022687D01*
X50037308Y-66086802D01*
X50043248Y-66091118D01*
X50049276Y-66093802D01*
X50049278Y-66093803D01*
X50196844Y-66159503D01*
X50217712Y-66168794D01*
X50311113Y-66188647D01*
X50398056Y-66207128D01*
X50398061Y-66207128D01*
X50404513Y-66208500D01*
X50595487Y-66208500D01*
X50601939Y-66207128D01*
X50601944Y-66207128D01*
X50688887Y-66188647D01*
X50782288Y-66168794D01*
X50803156Y-66159503D01*
X50950722Y-66093803D01*
X50950724Y-66093802D01*
X50956752Y-66091118D01*
X51051366Y-66022377D01*
X51118230Y-65998520D01*
X51187382Y-66014600D01*
X51199485Y-66022378D01*
X51288157Y-66086802D01*
X51299529Y-66093368D01*
X51461839Y-66165633D01*
X51474325Y-66169690D01*
X51478278Y-66170530D01*
X51492341Y-66169457D01*
X51496000Y-66159503D01*
X51496000Y-66156182D01*
X52004000Y-66156182D01*
X52007973Y-66169713D01*
X52018468Y-66171222D01*
X52025675Y-66169690D01*
X52038161Y-66165633D01*
X52200471Y-66093368D01*
X52211843Y-66086802D01*
X52326773Y-66003301D01*
X62487359Y-66003301D01*
X62506257Y-66363896D01*
X62506945Y-66370440D01*
X62563433Y-66727099D01*
X62564802Y-66733537D01*
X62658260Y-67082328D01*
X62660300Y-67088605D01*
X62789704Y-67425714D01*
X62792380Y-67431725D01*
X62956317Y-67753468D01*
X62959613Y-67759177D01*
X63156279Y-68062016D01*
X63160146Y-68067338D01*
X63333678Y-68281634D01*
X63345933Y-68290100D01*
X63357024Y-68283766D01*
X65627978Y-66012812D01*
X65635592Y-65998868D01*
X65635461Y-65997035D01*
X65631210Y-65990420D01*
X63357890Y-63717100D01*
X63344814Y-63709960D01*
X63334446Y-63717418D01*
X63160146Y-63932662D01*
X63156279Y-63937984D01*
X62959613Y-64240823D01*
X62956317Y-64246532D01*
X62792380Y-64568275D01*
X62789704Y-64574286D01*
X62660300Y-64911395D01*
X62658260Y-64917672D01*
X62564802Y-65266463D01*
X62563433Y-65272901D01*
X62506945Y-65629560D01*
X62506257Y-65636104D01*
X62487359Y-65996699D01*
X62487359Y-66003301D01*
X52326773Y-66003301D01*
X52355574Y-65982376D01*
X52365337Y-65973585D01*
X52484214Y-65841558D01*
X52491938Y-65830927D01*
X52580765Y-65677074D01*
X52586111Y-65665066D01*
X52641011Y-65496102D01*
X52643741Y-65483261D01*
X52657656Y-65350862D01*
X52658000Y-65344302D01*
X52658000Y-65322115D01*
X52653525Y-65306876D01*
X52652135Y-65305671D01*
X52644452Y-65304000D01*
X52022115Y-65304000D01*
X52006876Y-65308475D01*
X52005671Y-65309865D01*
X52004000Y-65317548D01*
X52004000Y-66156182D01*
X51496000Y-66156182D01*
X51496000Y-64777885D01*
X52004000Y-64777885D01*
X52008475Y-64793124D01*
X52009865Y-64794329D01*
X52017548Y-64796000D01*
X52639885Y-64796000D01*
X52655124Y-64791525D01*
X52656329Y-64790135D01*
X52658000Y-64782452D01*
X52658000Y-64755698D01*
X52657656Y-64749138D01*
X52643741Y-64616739D01*
X52641011Y-64603898D01*
X52586111Y-64434934D01*
X52580765Y-64422926D01*
X52491938Y-64269073D01*
X52484214Y-64258442D01*
X52365337Y-64126415D01*
X52355574Y-64117624D01*
X52211843Y-64013198D01*
X52200471Y-64006632D01*
X52038161Y-63934367D01*
X52025675Y-63930310D01*
X52021722Y-63929470D01*
X52007659Y-63930543D01*
X52004000Y-63940497D01*
X52004000Y-64777885D01*
X51496000Y-64777885D01*
X51496000Y-63943818D01*
X51492027Y-63930287D01*
X51481532Y-63928778D01*
X51474325Y-63930310D01*
X51461839Y-63934367D01*
X51299529Y-64006632D01*
X51288157Y-64013198D01*
X51199485Y-64077622D01*
X51132617Y-64101481D01*
X51063466Y-64085400D01*
X51051380Y-64077634D01*
X50956752Y-64008882D01*
X50950724Y-64006198D01*
X50950722Y-64006197D01*
X50788319Y-63933891D01*
X50788318Y-63933891D01*
X50782288Y-63931206D01*
X50688888Y-63911353D01*
X50601944Y-63892872D01*
X50601939Y-63892872D01*
X50595487Y-63891500D01*
X50404513Y-63891500D01*
X50398061Y-63892872D01*
X50398056Y-63892872D01*
X50311112Y-63911353D01*
X50217712Y-63931206D01*
X50211682Y-63933891D01*
X50211681Y-63933891D01*
X50049278Y-64006197D01*
X50049276Y-64006198D01*
X50043248Y-64008882D01*
X50037907Y-64012762D01*
X50037906Y-64012763D01*
X49949061Y-64077313D01*
X49882193Y-64101172D01*
X49813042Y-64085091D01*
X49800939Y-64077313D01*
X49712094Y-64012763D01*
X49712093Y-64012762D01*
X49706752Y-64008882D01*
X49700724Y-64006198D01*
X49700722Y-64006197D01*
X49538319Y-63933891D01*
X49538318Y-63933891D01*
X49532288Y-63931206D01*
X49438888Y-63911353D01*
X49351944Y-63892872D01*
X49351939Y-63892872D01*
X49345487Y-63891500D01*
X49154513Y-63891500D01*
X49148061Y-63892872D01*
X49148056Y-63892872D01*
X49061112Y-63911353D01*
X48967712Y-63931206D01*
X48961682Y-63933891D01*
X48961681Y-63933891D01*
X48799278Y-64006197D01*
X48799276Y-64006198D01*
X48793248Y-64008882D01*
X48787908Y-64012762D01*
X48787906Y-64012763D01*
X48769350Y-64026245D01*
X48702482Y-64050103D01*
X48630018Y-64032085D01*
X48620375Y-64026245D01*
X48493699Y-63949528D01*
X48486452Y-63947257D01*
X48486450Y-63947256D01*
X48420164Y-63926483D01*
X48330062Y-63898247D01*
X48256635Y-63891500D01*
X48253737Y-63891500D01*
X47999335Y-63891501D01*
X47743366Y-63891501D01*
X47740508Y-63891764D01*
X47740499Y-63891764D01*
X47704996Y-63895026D01*
X47669938Y-63898247D01*
X47663560Y-63900246D01*
X47663559Y-63900246D01*
X47513550Y-63947256D01*
X47513548Y-63947257D01*
X47506301Y-63949528D01*
X47359619Y-64038361D01*
X47238361Y-64159619D01*
X47149528Y-64306301D01*
X47098247Y-64469938D01*
X47091500Y-64543365D01*
X37194928Y-64543365D01*
X37043683Y-64246532D01*
X37040387Y-64240823D01*
X36843721Y-63937984D01*
X36839854Y-63932662D01*
X36666322Y-63718366D01*
X36654067Y-63709900D01*
X36642976Y-63716234D01*
X34372022Y-65987188D01*
X34364408Y-66001132D01*
X33641922Y-66001132D01*
X31357890Y-63717100D01*
X31344814Y-63709960D01*
X31334446Y-63717418D01*
X31160146Y-63932662D01*
X31156279Y-63937984D01*
X30959613Y-64240823D01*
X30956317Y-64246532D01*
X30792380Y-64568275D01*
X30789701Y-64574292D01*
X30751631Y-64673469D01*
X30708545Y-64729897D01*
X30641792Y-64754074D01*
X30572565Y-64738323D01*
X30522843Y-64687645D01*
X30508000Y-64628315D01*
X30508000Y-63345933D01*
X31709900Y-63345933D01*
X31716234Y-63357024D01*
X33987188Y-65627978D01*
X34001132Y-65635592D01*
X34002965Y-65635461D01*
X34009580Y-65631210D01*
X36282900Y-63357890D01*
X36289429Y-63345933D01*
X63709900Y-63345933D01*
X63716234Y-63357024D01*
X65987188Y-65627978D01*
X66001132Y-65635592D01*
X66002965Y-65635461D01*
X66009580Y-65631210D01*
X68282900Y-63357890D01*
X68290040Y-63344814D01*
X68282582Y-63334446D01*
X68067338Y-63160146D01*
X68062016Y-63156279D01*
X67759177Y-62959613D01*
X67753468Y-62956317D01*
X67431725Y-62792380D01*
X67425714Y-62789704D01*
X67088605Y-62660300D01*
X67082328Y-62658260D01*
X66733537Y-62564802D01*
X66727099Y-62563433D01*
X66370440Y-62506945D01*
X66363896Y-62506257D01*
X66003301Y-62487359D01*
X65996699Y-62487359D01*
X65636104Y-62506257D01*
X65629560Y-62506945D01*
X65272901Y-62563433D01*
X65266463Y-62564802D01*
X64917672Y-62658260D01*
X64911395Y-62660300D01*
X64574286Y-62789704D01*
X64568275Y-62792380D01*
X64246532Y-62956317D01*
X64240823Y-62959613D01*
X63937984Y-63156279D01*
X63932662Y-63160146D01*
X63718366Y-63333678D01*
X63709900Y-63345933D01*
X36289429Y-63345933D01*
X36290040Y-63344814D01*
X36282582Y-63334446D01*
X36067338Y-63160146D01*
X36062016Y-63156279D01*
X35759177Y-62959613D01*
X35753468Y-62956317D01*
X35431725Y-62792380D01*
X35425714Y-62789704D01*
X35088605Y-62660300D01*
X35082328Y-62658260D01*
X34733537Y-62564802D01*
X34727099Y-62563433D01*
X34370440Y-62506945D01*
X34363896Y-62506257D01*
X34003301Y-62487359D01*
X33996699Y-62487359D01*
X33636104Y-62506257D01*
X33629560Y-62506945D01*
X33272901Y-62563433D01*
X33266463Y-62564802D01*
X32917672Y-62658260D01*
X32911395Y-62660300D01*
X32574286Y-62789704D01*
X32568275Y-62792380D01*
X32246532Y-62956317D01*
X32240823Y-62959613D01*
X31937984Y-63156279D01*
X31932662Y-63160146D01*
X31718366Y-63333678D01*
X31709900Y-63345933D01*
X30508000Y-63345933D01*
X30508000Y-56486552D01*
X30806956Y-56486552D01*
X30822685Y-56673865D01*
X30874497Y-56854555D01*
X30877312Y-56860032D01*
X30877313Y-56860035D01*
X30957603Y-57016263D01*
X30960418Y-57021740D01*
X30964241Y-57026564D01*
X30964244Y-57026568D01*
X30990625Y-57059852D01*
X31077177Y-57169052D01*
X31220324Y-57290880D01*
X31225702Y-57293886D01*
X31225704Y-57293887D01*
X31302367Y-57336732D01*
X31384409Y-57382584D01*
X31563180Y-57440670D01*
X31749830Y-57462927D01*
X31755965Y-57462455D01*
X31755967Y-57462455D01*
X31931105Y-57448979D01*
X31931109Y-57448978D01*
X31937247Y-57448506D01*
X32022378Y-57424737D01*
X32112350Y-57399616D01*
X32112353Y-57399615D01*
X32118294Y-57397956D01*
X32123798Y-57395176D01*
X32123800Y-57395175D01*
X32280574Y-57315983D01*
X32280576Y-57315982D01*
X32286075Y-57313204D01*
X32434199Y-57197477D01*
X32438225Y-57192813D01*
X32552994Y-57059852D01*
X32552995Y-57059850D01*
X32557023Y-57055184D01*
X32649870Y-56891744D01*
X32709203Y-56713382D01*
X32732762Y-56526892D01*
X32733138Y-56500000D01*
X32714795Y-56312926D01*
X32660465Y-56132977D01*
X32572218Y-55967008D01*
X32453415Y-55821340D01*
X32399603Y-55776823D01*
X32313329Y-55705450D01*
X32313324Y-55705447D01*
X32308580Y-55701522D01*
X32303161Y-55698592D01*
X32303158Y-55698590D01*
X32233671Y-55661019D01*
X32143231Y-55612119D01*
X31963666Y-55556534D01*
X31957541Y-55555890D01*
X31957540Y-55555890D01*
X31782852Y-55537529D01*
X31782851Y-55537529D01*
X31776724Y-55536885D01*
X31699673Y-55543897D01*
X31595665Y-55553363D01*
X31595662Y-55553364D01*
X31589526Y-55553922D01*
X31583620Y-55555660D01*
X31583616Y-55555661D01*
X31450278Y-55594905D01*
X31409202Y-55606994D01*
X31242621Y-55694080D01*
X31096128Y-55811864D01*
X31092170Y-55816582D01*
X31092167Y-55816584D01*
X31004797Y-55920708D01*
X30975302Y-55955859D01*
X30972338Y-55961251D01*
X30972335Y-55961255D01*
X30966176Y-55972459D01*
X30884746Y-56120580D01*
X30827909Y-56299752D01*
X30806956Y-56486552D01*
X30508000Y-56486552D01*
X30508000Y-53486552D01*
X30806956Y-53486552D01*
X30807472Y-53492696D01*
X30821395Y-53658500D01*
X30822685Y-53673865D01*
X30874497Y-53854555D01*
X30877312Y-53860032D01*
X30877313Y-53860035D01*
X30957603Y-54016263D01*
X30960418Y-54021740D01*
X30964241Y-54026564D01*
X30964244Y-54026568D01*
X30990625Y-54059852D01*
X31077177Y-54169052D01*
X31220324Y-54290880D01*
X31225702Y-54293886D01*
X31225704Y-54293887D01*
X31302367Y-54336732D01*
X31384409Y-54382584D01*
X31563180Y-54440670D01*
X31749830Y-54462927D01*
X31755965Y-54462455D01*
X31755967Y-54462455D01*
X31931105Y-54448979D01*
X31931109Y-54448978D01*
X31937247Y-54448506D01*
X32022378Y-54424737D01*
X32112350Y-54399616D01*
X32112353Y-54399615D01*
X32118294Y-54397956D01*
X32123798Y-54395176D01*
X32123800Y-54395175D01*
X32280574Y-54315983D01*
X32280576Y-54315982D01*
X32286075Y-54313204D01*
X32366973Y-54250000D01*
X39250000Y-54250000D01*
X43500000Y-54250000D01*
X43500000Y-53241951D01*
X43520002Y-53173830D01*
X43573658Y-53127337D01*
X43643932Y-53117233D01*
X43708512Y-53146727D01*
X43719636Y-53157641D01*
X43734213Y-53173830D01*
X43738747Y-53178866D01*
X43825576Y-53241951D01*
X43858839Y-53266118D01*
X43893248Y-53291118D01*
X43899276Y-53293802D01*
X43899278Y-53293803D01*
X44014642Y-53345166D01*
X44067712Y-53368794D01*
X44161112Y-53388647D01*
X44248056Y-53407128D01*
X44248061Y-53407128D01*
X44254513Y-53408500D01*
X44445487Y-53408500D01*
X44451939Y-53407128D01*
X44451944Y-53407128D01*
X44538888Y-53388647D01*
X44632288Y-53368794D01*
X44685358Y-53345166D01*
X44800722Y-53293803D01*
X44800724Y-53293802D01*
X44806752Y-53291118D01*
X44837466Y-53268803D01*
X44918144Y-53210187D01*
X44985012Y-53186328D01*
X45054163Y-53202409D01*
X45066265Y-53210186D01*
X45143248Y-53266118D01*
X45149276Y-53268802D01*
X45149278Y-53268803D01*
X45248381Y-53312926D01*
X45317712Y-53343794D01*
X45411113Y-53363647D01*
X45498056Y-53382128D01*
X45498061Y-53382128D01*
X45504513Y-53383500D01*
X45695487Y-53383500D01*
X45701939Y-53382128D01*
X45701944Y-53382128D01*
X45788887Y-53363647D01*
X45882288Y-53343794D01*
X45951619Y-53312926D01*
X46050722Y-53268803D01*
X46050724Y-53268802D01*
X46056752Y-53266118D01*
X46211253Y-53153866D01*
X46241224Y-53120580D01*
X46334621Y-53016852D01*
X46334622Y-53016851D01*
X46339040Y-53011944D01*
X46434527Y-52846556D01*
X46493542Y-52664928D01*
X46499093Y-52612119D01*
X46512814Y-52481565D01*
X46513504Y-52475000D01*
X46507190Y-52414928D01*
X46494232Y-52291635D01*
X46494232Y-52291633D01*
X46493542Y-52285072D01*
X46474023Y-52225000D01*
X56036496Y-52225000D01*
X56037186Y-52231565D01*
X56043500Y-52291635D01*
X56056458Y-52414928D01*
X56115473Y-52596556D01*
X56118776Y-52602278D01*
X56118777Y-52602279D01*
X56151159Y-52658365D01*
X56210960Y-52761944D01*
X56338747Y-52903866D01*
X56493248Y-53016118D01*
X56499276Y-53018802D01*
X56499278Y-53018803D01*
X56540024Y-53036944D01*
X56667712Y-53093794D01*
X56761112Y-53113647D01*
X56848056Y-53132128D01*
X56848061Y-53132128D01*
X56854513Y-53133500D01*
X57045487Y-53133500D01*
X57051939Y-53132128D01*
X57051944Y-53132128D01*
X57138887Y-53113647D01*
X57232288Y-53093794D01*
X57359976Y-53036944D01*
X57400722Y-53018803D01*
X57400724Y-53018802D01*
X57406752Y-53016118D01*
X57561253Y-52903866D01*
X57689040Y-52761944D01*
X57748841Y-52658365D01*
X57781223Y-52602279D01*
X57781224Y-52602278D01*
X57784527Y-52596556D01*
X57843542Y-52414928D01*
X57856501Y-52291635D01*
X57862814Y-52231565D01*
X57863504Y-52225000D01*
X57850127Y-52097721D01*
X57844232Y-52041635D01*
X57844232Y-52041633D01*
X57843542Y-52035072D01*
X57784527Y-51853444D01*
X57751439Y-51796134D01*
X57696225Y-51700500D01*
X57679487Y-51631505D01*
X57696225Y-51574500D01*
X57781223Y-51427279D01*
X57781224Y-51427278D01*
X57784527Y-51421556D01*
X57843542Y-51239928D01*
X57863504Y-51050000D01*
X57843542Y-50860072D01*
X57805621Y-50743365D01*
X63891500Y-50743365D01*
X63891501Y-51256634D01*
X63891764Y-51259492D01*
X63891764Y-51259501D01*
X63895026Y-51295004D01*
X63898247Y-51330062D01*
X63900246Y-51336440D01*
X63900246Y-51336441D01*
X63926920Y-51421556D01*
X63949528Y-51493699D01*
X64038361Y-51640381D01*
X64159619Y-51761639D01*
X64306301Y-51850472D01*
X64313548Y-51852743D01*
X64313550Y-51852744D01*
X64379836Y-51873517D01*
X64469938Y-51901753D01*
X64543365Y-51908500D01*
X64546263Y-51908500D01*
X65051314Y-51908499D01*
X65556634Y-51908499D01*
X65559492Y-51908236D01*
X65559501Y-51908236D01*
X65595004Y-51904974D01*
X65630062Y-51901753D01*
X65636447Y-51899752D01*
X65786450Y-51852744D01*
X65786452Y-51852743D01*
X65793699Y-51850472D01*
X65940381Y-51761639D01*
X66061639Y-51640381D01*
X66150472Y-51493699D01*
X66201753Y-51330062D01*
X66208500Y-51256635D01*
X66208499Y-50743366D01*
X66208234Y-50740474D01*
X66202364Y-50676592D01*
X66201753Y-50669938D01*
X66150472Y-50506301D01*
X66067915Y-50369982D01*
X66049736Y-50301352D01*
X66073755Y-50230650D01*
X66087237Y-50212094D01*
X66087238Y-50212092D01*
X66091118Y-50206752D01*
X66101297Y-50183891D01*
X66166109Y-50038319D01*
X66166109Y-50038318D01*
X66168794Y-50032288D01*
X66208500Y-49845487D01*
X66208500Y-49654513D01*
X66168794Y-49467712D01*
X66091118Y-49293248D01*
X66022687Y-49199061D01*
X65998828Y-49132193D01*
X66014909Y-49063042D01*
X66022687Y-49050939D01*
X66087237Y-48962094D01*
X66087238Y-48962093D01*
X66091118Y-48956752D01*
X66168794Y-48782288D01*
X66208500Y-48595487D01*
X66208500Y-48404513D01*
X66168794Y-48217712D01*
X66091118Y-48043248D01*
X66022377Y-47948634D01*
X65998520Y-47881770D01*
X66014600Y-47812618D01*
X66022378Y-47800515D01*
X66086802Y-47711843D01*
X66093368Y-47700471D01*
X66165633Y-47538161D01*
X66169690Y-47525675D01*
X66170530Y-47521722D01*
X66169457Y-47507659D01*
X66159503Y-47504000D01*
X63943818Y-47504000D01*
X63930287Y-47507973D01*
X63928778Y-47518468D01*
X63930310Y-47525675D01*
X63934367Y-47538161D01*
X64006632Y-47700471D01*
X64013198Y-47711843D01*
X64077622Y-47800515D01*
X64101481Y-47867383D01*
X64085400Y-47936534D01*
X64077634Y-47948620D01*
X64008882Y-48043248D01*
X63931206Y-48217712D01*
X63891500Y-48404513D01*
X63891500Y-48595487D01*
X63931206Y-48782288D01*
X64008882Y-48956752D01*
X64012762Y-48962093D01*
X64012763Y-48962094D01*
X64077313Y-49050939D01*
X64101172Y-49117807D01*
X64085091Y-49186958D01*
X64077313Y-49199061D01*
X64008882Y-49293248D01*
X63931206Y-49467712D01*
X63891500Y-49654513D01*
X63891500Y-49845487D01*
X63931206Y-50032288D01*
X63933891Y-50038318D01*
X63933891Y-50038319D01*
X63998704Y-50183891D01*
X64008882Y-50206752D01*
X64012762Y-50212092D01*
X64012763Y-50212094D01*
X64026245Y-50230650D01*
X64050103Y-50297518D01*
X64032085Y-50369982D01*
X63949528Y-50506301D01*
X63898247Y-50669938D01*
X63891500Y-50743365D01*
X57805621Y-50743365D01*
X57784527Y-50678444D01*
X57689040Y-50513056D01*
X57561253Y-50371134D01*
X57406752Y-50258882D01*
X57400724Y-50256198D01*
X57400722Y-50256197D01*
X57238319Y-50183891D01*
X57238318Y-50183891D01*
X57232288Y-50181206D01*
X57138887Y-50161353D01*
X57051944Y-50142872D01*
X57051939Y-50142872D01*
X57045487Y-50141500D01*
X56854513Y-50141500D01*
X56848061Y-50142872D01*
X56848056Y-50142872D01*
X56761112Y-50161353D01*
X56667712Y-50181206D01*
X56661682Y-50183891D01*
X56661681Y-50183891D01*
X56499278Y-50256197D01*
X56499276Y-50256198D01*
X56493248Y-50258882D01*
X56338747Y-50371134D01*
X56210960Y-50513056D01*
X56115473Y-50678444D01*
X56056458Y-50860072D01*
X56036496Y-51050000D01*
X56056458Y-51239928D01*
X56115473Y-51421556D01*
X56118776Y-51427278D01*
X56118777Y-51427279D01*
X56203775Y-51574500D01*
X56220513Y-51643495D01*
X56203775Y-51700500D01*
X56148561Y-51796134D01*
X56115473Y-51853444D01*
X56056458Y-52035072D01*
X56055768Y-52041633D01*
X56055768Y-52041635D01*
X56049873Y-52097721D01*
X56036496Y-52225000D01*
X46474023Y-52225000D01*
X46434527Y-52103444D01*
X46398842Y-52041635D01*
X46339585Y-51939000D01*
X46322847Y-51870005D01*
X46346067Y-51802913D01*
X46401874Y-51759026D01*
X46448704Y-51750000D01*
X48000000Y-51750000D01*
X48000000Y-50400000D01*
X43626000Y-50400000D01*
X43557879Y-50379998D01*
X43511386Y-50326342D01*
X43500000Y-50274000D01*
X43500000Y-47250000D01*
X39250000Y-47250000D01*
X39250000Y-54250000D01*
X32366973Y-54250000D01*
X32434199Y-54197477D01*
X32438225Y-54192813D01*
X32552994Y-54059852D01*
X32552995Y-54059850D01*
X32557023Y-54055184D01*
X32649870Y-53891744D01*
X32709203Y-53713382D01*
X32732762Y-53526892D01*
X32733138Y-53500000D01*
X32714795Y-53312926D01*
X32709022Y-53293803D01*
X32667944Y-53157749D01*
X32660465Y-53132977D01*
X32572218Y-52967008D01*
X32453415Y-52821340D01*
X32367180Y-52750000D01*
X34186496Y-52750000D01*
X34187186Y-52756565D01*
X34202152Y-52898955D01*
X34206458Y-52939928D01*
X34265473Y-53121556D01*
X34268776Y-53127278D01*
X34268777Y-53127279D01*
X34281292Y-53148955D01*
X34360960Y-53286944D01*
X34488747Y-53428866D01*
X34568145Y-53486552D01*
X34623668Y-53526892D01*
X34643248Y-53541118D01*
X34649276Y-53543802D01*
X34649278Y-53543803D01*
X34811681Y-53616109D01*
X34817712Y-53618794D01*
X34911113Y-53638647D01*
X34998056Y-53657128D01*
X34998061Y-53657128D01*
X35004513Y-53658500D01*
X35195487Y-53658500D01*
X35201939Y-53657128D01*
X35201944Y-53657128D01*
X35288888Y-53638647D01*
X35382288Y-53618794D01*
X35388319Y-53616109D01*
X35550722Y-53543803D01*
X35550724Y-53543802D01*
X35556752Y-53541118D01*
X35576333Y-53526892D01*
X35631855Y-53486552D01*
X35711253Y-53428866D01*
X35839040Y-53286944D01*
X35918708Y-53148955D01*
X35931223Y-53127279D01*
X35931224Y-53127278D01*
X35934527Y-53121556D01*
X35993542Y-52939928D01*
X35997849Y-52898955D01*
X36012814Y-52756565D01*
X36013504Y-52750000D01*
X36003873Y-52658365D01*
X35994232Y-52566635D01*
X35994232Y-52566633D01*
X35993542Y-52560072D01*
X35934527Y-52378444D01*
X35839040Y-52213056D01*
X35711253Y-52071134D01*
X35556752Y-51958882D01*
X35550724Y-51956198D01*
X35550722Y-51956197D01*
X35388319Y-51883891D01*
X35388318Y-51883891D01*
X35382288Y-51881206D01*
X35281247Y-51859729D01*
X35201944Y-51842872D01*
X35201939Y-51842872D01*
X35195487Y-51841500D01*
X35004513Y-51841500D01*
X34998061Y-51842872D01*
X34998056Y-51842872D01*
X34918753Y-51859729D01*
X34817712Y-51881206D01*
X34811682Y-51883891D01*
X34811681Y-51883891D01*
X34649278Y-51956197D01*
X34649276Y-51956198D01*
X34643248Y-51958882D01*
X34488747Y-52071134D01*
X34360960Y-52213056D01*
X34265473Y-52378444D01*
X34206458Y-52560072D01*
X34205768Y-52566633D01*
X34205768Y-52566635D01*
X34196127Y-52658365D01*
X34186496Y-52750000D01*
X32367180Y-52750000D01*
X32359244Y-52743435D01*
X32313329Y-52705450D01*
X32313324Y-52705447D01*
X32308580Y-52701522D01*
X32303161Y-52698592D01*
X32303158Y-52698590D01*
X32228762Y-52658365D01*
X32143231Y-52612119D01*
X31963666Y-52556534D01*
X31957541Y-52555890D01*
X31957540Y-52555890D01*
X31782852Y-52537529D01*
X31782851Y-52537529D01*
X31776724Y-52536885D01*
X31699673Y-52543897D01*
X31595665Y-52553363D01*
X31595662Y-52553364D01*
X31589526Y-52553922D01*
X31583620Y-52555660D01*
X31583616Y-52555661D01*
X31466022Y-52590271D01*
X31409202Y-52606994D01*
X31242621Y-52694080D01*
X31096128Y-52811864D01*
X31092170Y-52816582D01*
X31092167Y-52816584D01*
X31023050Y-52898955D01*
X30975302Y-52955859D01*
X30972338Y-52961251D01*
X30972335Y-52961255D01*
X30944469Y-53011944D01*
X30884746Y-53120580D01*
X30882885Y-53126447D01*
X30882884Y-53126449D01*
X30875745Y-53148955D01*
X30827909Y-53299752D01*
X30806956Y-53486552D01*
X30508000Y-53486552D01*
X30508000Y-46978278D01*
X63929470Y-46978278D01*
X63930543Y-46992341D01*
X63940497Y-46996000D01*
X64777885Y-46996000D01*
X64793124Y-46991525D01*
X64794329Y-46990135D01*
X64796000Y-46982452D01*
X64796000Y-46977885D01*
X65304000Y-46977885D01*
X65308475Y-46993124D01*
X65309865Y-46994329D01*
X65317548Y-46996000D01*
X66156182Y-46996000D01*
X66169713Y-46992027D01*
X66171222Y-46981532D01*
X66169690Y-46974325D01*
X66165633Y-46961839D01*
X66093368Y-46799529D01*
X66086802Y-46788157D01*
X65982376Y-46644426D01*
X65973585Y-46634663D01*
X65841558Y-46515786D01*
X65830927Y-46508062D01*
X65677074Y-46419235D01*
X65665066Y-46413889D01*
X65496102Y-46358989D01*
X65483261Y-46356259D01*
X65350862Y-46342344D01*
X65344302Y-46342000D01*
X65322115Y-46342000D01*
X65306876Y-46346475D01*
X65305671Y-46347865D01*
X65304000Y-46355548D01*
X65304000Y-46977885D01*
X64796000Y-46977885D01*
X64796000Y-46360115D01*
X64791525Y-46344876D01*
X64790135Y-46343671D01*
X64782452Y-46342000D01*
X64755698Y-46342000D01*
X64749138Y-46342344D01*
X64616739Y-46356259D01*
X64603898Y-46358989D01*
X64434934Y-46413889D01*
X64422926Y-46419235D01*
X64269073Y-46508062D01*
X64258442Y-46515786D01*
X64126415Y-46634663D01*
X64117624Y-46644426D01*
X64013198Y-46788157D01*
X64006632Y-46799529D01*
X63934367Y-46961839D01*
X63930310Y-46974325D01*
X63929470Y-46978278D01*
X30508000Y-46978278D01*
X30508000Y-40834754D01*
X30528002Y-40766633D01*
X30581658Y-40720140D01*
X30651932Y-40710036D01*
X30708061Y-40732819D01*
X30733248Y-40751118D01*
X30739276Y-40753802D01*
X30739278Y-40753803D01*
X30865661Y-40810072D01*
X30907712Y-40828794D01*
X31001113Y-40848647D01*
X31088056Y-40867128D01*
X31088061Y-40867128D01*
X31094513Y-40868500D01*
X31285487Y-40868500D01*
X31291939Y-40867128D01*
X31291944Y-40867128D01*
X31378887Y-40848647D01*
X31472288Y-40828794D01*
X31514339Y-40810072D01*
X31640722Y-40753803D01*
X31640724Y-40753802D01*
X31646752Y-40751118D01*
X31801253Y-40638866D01*
X31869563Y-40563000D01*
X31924621Y-40501852D01*
X31924622Y-40501851D01*
X31929040Y-40496944D01*
X32024527Y-40331556D01*
X32083542Y-40149928D01*
X32103504Y-39960000D01*
X32087086Y-39803794D01*
X32084232Y-39776635D01*
X32084232Y-39776633D01*
X32083542Y-39770072D01*
X32024527Y-39588444D01*
X31929040Y-39423056D01*
X31872001Y-39359707D01*
X31805675Y-39286045D01*
X31805674Y-39286044D01*
X31801253Y-39281134D01*
X31701807Y-39208882D01*
X31652094Y-39172763D01*
X31652093Y-39172762D01*
X31646752Y-39168882D01*
X31640724Y-39166198D01*
X31640722Y-39166197D01*
X31478319Y-39093891D01*
X31478318Y-39093891D01*
X31472288Y-39091206D01*
X31378888Y-39071353D01*
X31291944Y-39052872D01*
X31291939Y-39052872D01*
X31285487Y-39051500D01*
X31094513Y-39051500D01*
X31088061Y-39052872D01*
X31088056Y-39052872D01*
X31001112Y-39071353D01*
X30907712Y-39091206D01*
X30901682Y-39093891D01*
X30901681Y-39093891D01*
X30739278Y-39166197D01*
X30739276Y-39166198D01*
X30733248Y-39168882D01*
X30727905Y-39172764D01*
X30708062Y-39187181D01*
X30641195Y-39211040D01*
X30572043Y-39194961D01*
X30522562Y-39144048D01*
X30508000Y-39085246D01*
X30508000Y-39000000D01*
X55086496Y-39000000D01*
X55106458Y-39189928D01*
X55165473Y-39371556D01*
X55260960Y-39536944D01*
X55388747Y-39678866D01*
X55487843Y-39750864D01*
X55500000Y-39759696D01*
X55543248Y-39791118D01*
X55549276Y-39793802D01*
X55549278Y-39793803D01*
X55600560Y-39816635D01*
X55717712Y-39868794D01*
X55811112Y-39888647D01*
X55898056Y-39907128D01*
X55898061Y-39907128D01*
X55904513Y-39908500D01*
X56095487Y-39908500D01*
X56101939Y-39907128D01*
X56101944Y-39907128D01*
X56188888Y-39888647D01*
X56282288Y-39868794D01*
X56448752Y-39794680D01*
X56519118Y-39785246D01*
X56551247Y-39794680D01*
X56717712Y-39868794D01*
X56811112Y-39888647D01*
X56898056Y-39907128D01*
X56898061Y-39907128D01*
X56904513Y-39908500D01*
X57095487Y-39908500D01*
X57101939Y-39907128D01*
X57101944Y-39907128D01*
X57188888Y-39888647D01*
X57282288Y-39868794D01*
X57448752Y-39794680D01*
X57519118Y-39785246D01*
X57551247Y-39794680D01*
X57717712Y-39868794D01*
X57811112Y-39888647D01*
X57898056Y-39907128D01*
X57898061Y-39907128D01*
X57904513Y-39908500D01*
X58095487Y-39908500D01*
X58101939Y-39907128D01*
X58101944Y-39907128D01*
X58188888Y-39888647D01*
X58282288Y-39868794D01*
X58448752Y-39794680D01*
X58519118Y-39785246D01*
X58551247Y-39794680D01*
X58717712Y-39868794D01*
X58811112Y-39888647D01*
X58898056Y-39907128D01*
X58898061Y-39907128D01*
X58904513Y-39908500D01*
X59095487Y-39908500D01*
X59101939Y-39907128D01*
X59101944Y-39907128D01*
X59188888Y-39888647D01*
X59282288Y-39868794D01*
X59448752Y-39794680D01*
X59519118Y-39785246D01*
X59551247Y-39794680D01*
X59717712Y-39868794D01*
X59811112Y-39888647D01*
X59898056Y-39907128D01*
X59898061Y-39907128D01*
X59904513Y-39908500D01*
X59963428Y-39908500D01*
X60031549Y-39928502D01*
X60078042Y-39982158D01*
X60088738Y-40021329D01*
X60106458Y-40189928D01*
X60165473Y-40371556D01*
X60168776Y-40377278D01*
X60168777Y-40377279D01*
X60203257Y-40437000D01*
X60219995Y-40505995D01*
X60203257Y-40563000D01*
X60165473Y-40628444D01*
X60106458Y-40810072D01*
X60086496Y-41000000D01*
X60106458Y-41189928D01*
X60165473Y-41371556D01*
X60168776Y-41377278D01*
X60168777Y-41377279D01*
X60203257Y-41437000D01*
X60219995Y-41505995D01*
X60203257Y-41563000D01*
X60165473Y-41628444D01*
X60106458Y-41810072D01*
X60086496Y-42000000D01*
X60106458Y-42189928D01*
X60165473Y-42371556D01*
X60260960Y-42536944D01*
X60388747Y-42678866D01*
X60487843Y-42750864D01*
X60500000Y-42759696D01*
X60543248Y-42791118D01*
X60549276Y-42793802D01*
X60549278Y-42793803D01*
X60551248Y-42794680D01*
X60717712Y-42868794D01*
X60811112Y-42888647D01*
X60898056Y-42907128D01*
X60898061Y-42907128D01*
X60904513Y-42908500D01*
X61095487Y-42908500D01*
X61101939Y-42907128D01*
X61101944Y-42907128D01*
X61188888Y-42888647D01*
X61282288Y-42868794D01*
X61448752Y-42794680D01*
X61519118Y-42785246D01*
X61551247Y-42794680D01*
X61717712Y-42868794D01*
X61811112Y-42888647D01*
X61898056Y-42907128D01*
X61898061Y-42907128D01*
X61904513Y-42908500D01*
X62095487Y-42908500D01*
X62101939Y-42907128D01*
X62101944Y-42907128D01*
X62188888Y-42888647D01*
X62282288Y-42868794D01*
X62448752Y-42794680D01*
X62519118Y-42785246D01*
X62551247Y-42794680D01*
X62717712Y-42868794D01*
X62811112Y-42888647D01*
X62898056Y-42907128D01*
X62898061Y-42907128D01*
X62904513Y-42908500D01*
X63095487Y-42908500D01*
X63101939Y-42907128D01*
X63101944Y-42907128D01*
X63188888Y-42888647D01*
X63282288Y-42868794D01*
X63448752Y-42794680D01*
X63519118Y-42785246D01*
X63551247Y-42794680D01*
X63717712Y-42868794D01*
X63811112Y-42888647D01*
X63898056Y-42907128D01*
X63898061Y-42907128D01*
X63904513Y-42908500D01*
X64095487Y-42908500D01*
X64101939Y-42907128D01*
X64101944Y-42907128D01*
X64188888Y-42888647D01*
X64282288Y-42868794D01*
X64448752Y-42794680D01*
X64519118Y-42785246D01*
X64551247Y-42794680D01*
X64717712Y-42868794D01*
X64811112Y-42888647D01*
X64898056Y-42907128D01*
X64898061Y-42907128D01*
X64904513Y-42908500D01*
X65095487Y-42908500D01*
X65101939Y-42907128D01*
X65101944Y-42907128D01*
X65188888Y-42888647D01*
X65282288Y-42868794D01*
X65448752Y-42794680D01*
X65519118Y-42785246D01*
X65551247Y-42794680D01*
X65717712Y-42868794D01*
X65811112Y-42888647D01*
X65898056Y-42907128D01*
X65898061Y-42907128D01*
X65904513Y-42908500D01*
X66095487Y-42908500D01*
X66101939Y-42907128D01*
X66101944Y-42907128D01*
X66188888Y-42888647D01*
X66282288Y-42868794D01*
X66448752Y-42794680D01*
X66519118Y-42785246D01*
X66551247Y-42794680D01*
X66717712Y-42868794D01*
X66811112Y-42888647D01*
X66898056Y-42907128D01*
X66898061Y-42907128D01*
X66904513Y-42908500D01*
X67095487Y-42908500D01*
X67101939Y-42907128D01*
X67101944Y-42907128D01*
X67188887Y-42888647D01*
X67282288Y-42868794D01*
X67448752Y-42794680D01*
X67519118Y-42785246D01*
X67551247Y-42794680D01*
X67717712Y-42868794D01*
X67811112Y-42888647D01*
X67898056Y-42907128D01*
X67898061Y-42907128D01*
X67904513Y-42908500D01*
X68095487Y-42908500D01*
X68101939Y-42907128D01*
X68101944Y-42907128D01*
X68188887Y-42888647D01*
X68282288Y-42868794D01*
X68448752Y-42794680D01*
X68450722Y-42793803D01*
X68450724Y-42793802D01*
X68456752Y-42791118D01*
X68500001Y-42759696D01*
X68512157Y-42750864D01*
X68611253Y-42678866D01*
X68739040Y-42536944D01*
X68834527Y-42371556D01*
X68893542Y-42189928D01*
X68913504Y-42000000D01*
X68893542Y-41810072D01*
X68834527Y-41628444D01*
X68796743Y-41563000D01*
X68780005Y-41494005D01*
X68796743Y-41437000D01*
X68831223Y-41377279D01*
X68831224Y-41377278D01*
X68834527Y-41371556D01*
X68893542Y-41189928D01*
X68913504Y-41000000D01*
X68893542Y-40810072D01*
X68834527Y-40628444D01*
X68796743Y-40563000D01*
X68780005Y-40494005D01*
X68796743Y-40437000D01*
X68831223Y-40377279D01*
X68831224Y-40377278D01*
X68834527Y-40371556D01*
X68893542Y-40189928D01*
X68913504Y-40000000D01*
X68893542Y-39810072D01*
X68834527Y-39628444D01*
X68739040Y-39463056D01*
X68708173Y-39428774D01*
X68615675Y-39326045D01*
X68615674Y-39326044D01*
X68611253Y-39321134D01*
X68512157Y-39249136D01*
X68462094Y-39212763D01*
X68462093Y-39212762D01*
X68456752Y-39208882D01*
X68450724Y-39206198D01*
X68450722Y-39206197D01*
X68288319Y-39133891D01*
X68288318Y-39133891D01*
X68282288Y-39131206D01*
X68188887Y-39111353D01*
X68101944Y-39092872D01*
X68101939Y-39092872D01*
X68095487Y-39091500D01*
X67904513Y-39091500D01*
X67898061Y-39092872D01*
X67898056Y-39092872D01*
X67811113Y-39111353D01*
X67717712Y-39131206D01*
X67551248Y-39205320D01*
X67480882Y-39214754D01*
X67448753Y-39205320D01*
X67282288Y-39131206D01*
X67188887Y-39111353D01*
X67101944Y-39092872D01*
X67101939Y-39092872D01*
X67095487Y-39091500D01*
X66904513Y-39091500D01*
X66898061Y-39092872D01*
X66898056Y-39092872D01*
X66811113Y-39111353D01*
X66717712Y-39131206D01*
X66551248Y-39205320D01*
X66480882Y-39214754D01*
X66448753Y-39205320D01*
X66282288Y-39131206D01*
X66188887Y-39111353D01*
X66101944Y-39092872D01*
X66101939Y-39092872D01*
X66095487Y-39091500D01*
X65904513Y-39091500D01*
X65898061Y-39092872D01*
X65898056Y-39092872D01*
X65811113Y-39111353D01*
X65717712Y-39131206D01*
X65551248Y-39205320D01*
X65480882Y-39214754D01*
X65448753Y-39205320D01*
X65282288Y-39131206D01*
X65188887Y-39111353D01*
X65101944Y-39092872D01*
X65101939Y-39092872D01*
X65095487Y-39091500D01*
X64904513Y-39091500D01*
X64898061Y-39092872D01*
X64898056Y-39092872D01*
X64811113Y-39111353D01*
X64717712Y-39131206D01*
X64551248Y-39205320D01*
X64480882Y-39214754D01*
X64448753Y-39205320D01*
X64282288Y-39131206D01*
X64188887Y-39111353D01*
X64101944Y-39092872D01*
X64101939Y-39092872D01*
X64095487Y-39091500D01*
X63904513Y-39091500D01*
X63898061Y-39092872D01*
X63898056Y-39092872D01*
X63811113Y-39111353D01*
X63717712Y-39131206D01*
X63551248Y-39205320D01*
X63480882Y-39214754D01*
X63448753Y-39205320D01*
X63282288Y-39131206D01*
X63188887Y-39111353D01*
X63101944Y-39092872D01*
X63101939Y-39092872D01*
X63095487Y-39091500D01*
X63036572Y-39091500D01*
X62968451Y-39071498D01*
X62921958Y-39017842D01*
X62911262Y-38978670D01*
X62894232Y-38816635D01*
X62894232Y-38816633D01*
X62893542Y-38810072D01*
X62834527Y-38628444D01*
X62796743Y-38563000D01*
X62780005Y-38494005D01*
X62796743Y-38437000D01*
X62831223Y-38377279D01*
X62831224Y-38377278D01*
X62834527Y-38371556D01*
X62893542Y-38189928D01*
X62913504Y-38000000D01*
X62893542Y-37810072D01*
X62834527Y-37628444D01*
X62739040Y-37463056D01*
X62611253Y-37321134D01*
X62512157Y-37249136D01*
X62462094Y-37212763D01*
X62462093Y-37212762D01*
X62456752Y-37208882D01*
X62450724Y-37206198D01*
X62450722Y-37206197D01*
X62288319Y-37133891D01*
X62288318Y-37133891D01*
X62282288Y-37131206D01*
X62188887Y-37111353D01*
X62101944Y-37092872D01*
X62101939Y-37092872D01*
X62095487Y-37091500D01*
X61904513Y-37091500D01*
X61898061Y-37092872D01*
X61898056Y-37092872D01*
X61811113Y-37111353D01*
X61717712Y-37131206D01*
X61551248Y-37205320D01*
X61480882Y-37214754D01*
X61448753Y-37205320D01*
X61282288Y-37131206D01*
X61188887Y-37111353D01*
X61101944Y-37092872D01*
X61101939Y-37092872D01*
X61095487Y-37091500D01*
X60904513Y-37091500D01*
X60898061Y-37092872D01*
X60898056Y-37092872D01*
X60811113Y-37111353D01*
X60717712Y-37131206D01*
X60551248Y-37205320D01*
X60480882Y-37214754D01*
X60448753Y-37205320D01*
X60282288Y-37131206D01*
X60188887Y-37111353D01*
X60101944Y-37092872D01*
X60101939Y-37092872D01*
X60095487Y-37091500D01*
X59904513Y-37091500D01*
X59898061Y-37092872D01*
X59898056Y-37092872D01*
X59811113Y-37111353D01*
X59717712Y-37131206D01*
X59551248Y-37205320D01*
X59480882Y-37214754D01*
X59448753Y-37205320D01*
X59282288Y-37131206D01*
X59188887Y-37111353D01*
X59101944Y-37092872D01*
X59101939Y-37092872D01*
X59095487Y-37091500D01*
X58904513Y-37091500D01*
X58898061Y-37092872D01*
X58898056Y-37092872D01*
X58811113Y-37111353D01*
X58717712Y-37131206D01*
X58551248Y-37205320D01*
X58480882Y-37214754D01*
X58448753Y-37205320D01*
X58282288Y-37131206D01*
X58188887Y-37111353D01*
X58101944Y-37092872D01*
X58101939Y-37092872D01*
X58095487Y-37091500D01*
X57904513Y-37091500D01*
X57898061Y-37092872D01*
X57898056Y-37092872D01*
X57811113Y-37111353D01*
X57717712Y-37131206D01*
X57551248Y-37205320D01*
X57480882Y-37214754D01*
X57448753Y-37205320D01*
X57282288Y-37131206D01*
X57188887Y-37111353D01*
X57101944Y-37092872D01*
X57101939Y-37092872D01*
X57095487Y-37091500D01*
X56904513Y-37091500D01*
X56898061Y-37092872D01*
X56898056Y-37092872D01*
X56811113Y-37111353D01*
X56717712Y-37131206D01*
X56551248Y-37205320D01*
X56480882Y-37214754D01*
X56448753Y-37205320D01*
X56282288Y-37131206D01*
X56188887Y-37111353D01*
X56101944Y-37092872D01*
X56101939Y-37092872D01*
X56095487Y-37091500D01*
X55904513Y-37091500D01*
X55898061Y-37092872D01*
X55898056Y-37092872D01*
X55811113Y-37111353D01*
X55717712Y-37131206D01*
X55711682Y-37133891D01*
X55711681Y-37133891D01*
X55549278Y-37206197D01*
X55549276Y-37206198D01*
X55543248Y-37208882D01*
X55537907Y-37212762D01*
X55537906Y-37212763D01*
X55487843Y-37249136D01*
X55388747Y-37321134D01*
X55260960Y-37463056D01*
X55165473Y-37628444D01*
X55106458Y-37810072D01*
X55086496Y-38000000D01*
X55106458Y-38189928D01*
X55165473Y-38371556D01*
X55168776Y-38377278D01*
X55168777Y-38377279D01*
X55203257Y-38437000D01*
X55219995Y-38505995D01*
X55203257Y-38563000D01*
X55165473Y-38628444D01*
X55106458Y-38810072D01*
X55086496Y-39000000D01*
X30508000Y-39000000D01*
X30508000Y-36655186D01*
X31709960Y-36655186D01*
X31717418Y-36665554D01*
X31932662Y-36839854D01*
X31937984Y-36843721D01*
X32240823Y-37040387D01*
X32246532Y-37043683D01*
X32568275Y-37207620D01*
X32574286Y-37210296D01*
X32911395Y-37339700D01*
X32917672Y-37341740D01*
X33266463Y-37435198D01*
X33272901Y-37436567D01*
X33629560Y-37493055D01*
X33636104Y-37493743D01*
X33996699Y-37512641D01*
X34003301Y-37512641D01*
X34363896Y-37493743D01*
X34370440Y-37493055D01*
X34727099Y-37436567D01*
X34733537Y-37435198D01*
X35082328Y-37341740D01*
X35088605Y-37339700D01*
X35425714Y-37210296D01*
X35431725Y-37207620D01*
X35753468Y-37043683D01*
X35759177Y-37040387D01*
X36062016Y-36843721D01*
X36067338Y-36839854D01*
X36281634Y-36666322D01*
X36290100Y-36654067D01*
X36283766Y-36642976D01*
X36014149Y-36373359D01*
X42991386Y-36373359D01*
X43000099Y-36384879D01*
X43088586Y-36449760D01*
X43096505Y-36454708D01*
X43312877Y-36568547D01*
X43321451Y-36572275D01*
X43552282Y-36652885D01*
X43561291Y-36655299D01*
X43801518Y-36700908D01*
X43810775Y-36701962D01*
X44055107Y-36711563D01*
X44064420Y-36711237D01*
X44307478Y-36684618D01*
X44316655Y-36682917D01*
X44553107Y-36620665D01*
X44561926Y-36617628D01*
X44786584Y-36521107D01*
X44794856Y-36516800D01*
X45002777Y-36388135D01*
X45004620Y-36386796D01*
X45012038Y-36375541D01*
X45005974Y-36365184D01*
X44012812Y-35372022D01*
X43998868Y-35364408D01*
X43997035Y-35364539D01*
X43990420Y-35368790D01*
X42998044Y-36361166D01*
X42991386Y-36373359D01*
X36014149Y-36373359D01*
X34012812Y-34372022D01*
X33998868Y-34364408D01*
X33997035Y-34364539D01*
X33990420Y-34368790D01*
X31717100Y-36642110D01*
X31709960Y-36655186D01*
X30508000Y-36655186D01*
X30508000Y-35371685D01*
X30528002Y-35303564D01*
X30581658Y-35257071D01*
X30651932Y-35246967D01*
X30716512Y-35276461D01*
X30751631Y-35326531D01*
X30789701Y-35425708D01*
X30792380Y-35431725D01*
X30956317Y-35753468D01*
X30959613Y-35759177D01*
X31156279Y-36062016D01*
X31160146Y-36067338D01*
X31333678Y-36281634D01*
X31345933Y-36290100D01*
X31357024Y-36283766D01*
X33639658Y-34001132D01*
X34364408Y-34001132D01*
X34364539Y-34002965D01*
X34368790Y-34009580D01*
X36642110Y-36282900D01*
X36655186Y-36290040D01*
X36665554Y-36282582D01*
X36839854Y-36067338D01*
X36843721Y-36062016D01*
X37040387Y-35759177D01*
X37043683Y-35753468D01*
X37207620Y-35431725D01*
X37210296Y-35425714D01*
X37339700Y-35088605D01*
X37341740Y-35082328D01*
X37435198Y-34733537D01*
X37436567Y-34727099D01*
X37488373Y-34400000D01*
X39386496Y-34400000D01*
X39406458Y-34589928D01*
X39465473Y-34771556D01*
X39560960Y-34936944D01*
X39565378Y-34941851D01*
X39565379Y-34941852D01*
X39626362Y-35009580D01*
X39688747Y-35078866D01*
X39843248Y-35191118D01*
X39849276Y-35193802D01*
X39849278Y-35193803D01*
X40011681Y-35266109D01*
X40017712Y-35268794D01*
X40111112Y-35288647D01*
X40198056Y-35307128D01*
X40198061Y-35307128D01*
X40204513Y-35308500D01*
X40395487Y-35308500D01*
X40401939Y-35307128D01*
X40401944Y-35307128D01*
X40488888Y-35288647D01*
X40582288Y-35268794D01*
X40588319Y-35266109D01*
X40750722Y-35193803D01*
X40750724Y-35193802D01*
X40756752Y-35191118D01*
X40911253Y-35078866D01*
X40973638Y-35009580D01*
X41018429Y-34959835D01*
X42288022Y-34959835D01*
X42299754Y-35204064D01*
X42300891Y-35213324D01*
X42348593Y-35453143D01*
X42351082Y-35462118D01*
X42433708Y-35692250D01*
X42437505Y-35700778D01*
X42553234Y-35916160D01*
X42558245Y-35924027D01*
X42615173Y-36000263D01*
X42626431Y-36008712D01*
X42638850Y-36001940D01*
X43627978Y-35012812D01*
X43634356Y-35001132D01*
X44364408Y-35001132D01*
X44364539Y-35002965D01*
X44368790Y-35009580D01*
X45363732Y-36004522D01*
X45376112Y-36011282D01*
X45384453Y-36005038D01*
X45502700Y-35821202D01*
X45507147Y-35813011D01*
X45550618Y-35716510D01*
X45596834Y-35662616D01*
X45664850Y-35642263D01*
X45733073Y-35661913D01*
X45779842Y-35715328D01*
X45791500Y-35768261D01*
X45791500Y-36248134D01*
X45798255Y-36310316D01*
X45849385Y-36446705D01*
X45936739Y-36563261D01*
X46053295Y-36650615D01*
X46189684Y-36701745D01*
X46251866Y-36708500D01*
X48748134Y-36708500D01*
X48810316Y-36701745D01*
X48934512Y-36655186D01*
X63709960Y-36655186D01*
X63717418Y-36665554D01*
X63932662Y-36839854D01*
X63937984Y-36843721D01*
X64240823Y-37040387D01*
X64246532Y-37043683D01*
X64568275Y-37207620D01*
X64574286Y-37210296D01*
X64911395Y-37339700D01*
X64917672Y-37341740D01*
X65266463Y-37435198D01*
X65272901Y-37436567D01*
X65629560Y-37493055D01*
X65636104Y-37493743D01*
X65996699Y-37512641D01*
X66003301Y-37512641D01*
X66363896Y-37493743D01*
X66370440Y-37493055D01*
X66727099Y-37436567D01*
X66733537Y-37435198D01*
X67082328Y-37341740D01*
X67088605Y-37339700D01*
X67425714Y-37210296D01*
X67431725Y-37207620D01*
X67753468Y-37043683D01*
X67759177Y-37040387D01*
X68062016Y-36843721D01*
X68067338Y-36839854D01*
X68281634Y-36666322D01*
X68290100Y-36654067D01*
X68283766Y-36642976D01*
X66012812Y-34372022D01*
X65998868Y-34364408D01*
X65997035Y-34364539D01*
X65990420Y-34368790D01*
X63717100Y-36642110D01*
X63709960Y-36655186D01*
X48934512Y-36655186D01*
X48946705Y-36650615D01*
X49063261Y-36563261D01*
X49150615Y-36446705D01*
X49201745Y-36310316D01*
X49208500Y-36248134D01*
X49208500Y-34003301D01*
X62487359Y-34003301D01*
X62506257Y-34363896D01*
X62506945Y-34370440D01*
X62563433Y-34727099D01*
X62564802Y-34733537D01*
X62658260Y-35082328D01*
X62660300Y-35088605D01*
X62789704Y-35425714D01*
X62792380Y-35431725D01*
X62956317Y-35753468D01*
X62959613Y-35759177D01*
X63156279Y-36062016D01*
X63160146Y-36067338D01*
X63333678Y-36281634D01*
X63345933Y-36290100D01*
X63357024Y-36283766D01*
X65627978Y-34012812D01*
X65635592Y-33998868D01*
X65635461Y-33997035D01*
X65631210Y-33990420D01*
X63357890Y-31717100D01*
X63344814Y-31709960D01*
X63334446Y-31717418D01*
X63160146Y-31932662D01*
X63156279Y-31937984D01*
X62959613Y-32240823D01*
X62956317Y-32246532D01*
X62792380Y-32568275D01*
X62789704Y-32574286D01*
X62660300Y-32911395D01*
X62658260Y-32917672D01*
X62564802Y-33266463D01*
X62563433Y-33272901D01*
X62506945Y-33629560D01*
X62506257Y-33636104D01*
X62487359Y-33996699D01*
X62487359Y-34003301D01*
X49208500Y-34003301D01*
X49208500Y-33751866D01*
X49201745Y-33689684D01*
X49150615Y-33553295D01*
X49063261Y-33436739D01*
X48946705Y-33349385D01*
X48810316Y-33298255D01*
X48748134Y-33291500D01*
X46251866Y-33291500D01*
X46189684Y-33298255D01*
X46053295Y-33349385D01*
X45936739Y-33436739D01*
X45849385Y-33553295D01*
X45798255Y-33689684D01*
X45791500Y-33751866D01*
X45791500Y-34222433D01*
X45771498Y-34290554D01*
X45717842Y-34337047D01*
X45647568Y-34347151D01*
X45582988Y-34317657D01*
X45550099Y-34270983D01*
X45549644Y-34271200D01*
X45548371Y-34268531D01*
X45548066Y-34268098D01*
X45547631Y-34266980D01*
X45543619Y-34258567D01*
X45422284Y-34046276D01*
X45417074Y-34038553D01*
X45385787Y-33998865D01*
X45373863Y-33990395D01*
X45362328Y-33996882D01*
X44372022Y-34987188D01*
X44364408Y-35001132D01*
X43634356Y-35001132D01*
X43635592Y-34998868D01*
X43635461Y-34997035D01*
X43631210Y-34990420D01*
X42636828Y-33996038D01*
X42623520Y-33988771D01*
X42613481Y-33995893D01*
X42608581Y-34001784D01*
X42603168Y-34009373D01*
X42476322Y-34218409D01*
X42472084Y-34226726D01*
X42377529Y-34452214D01*
X42374572Y-34461052D01*
X42314384Y-34698042D01*
X42312763Y-34707232D01*
X42288267Y-34950510D01*
X42288022Y-34959835D01*
X41018429Y-34959835D01*
X41034621Y-34941852D01*
X41034622Y-34941851D01*
X41039040Y-34936944D01*
X41134527Y-34771556D01*
X41193542Y-34589928D01*
X41213504Y-34400000D01*
X41207949Y-34347151D01*
X41194232Y-34216635D01*
X41194232Y-34216633D01*
X41193542Y-34210072D01*
X41134527Y-34028444D01*
X41039040Y-33863056D01*
X40911253Y-33721134D01*
X40778822Y-33624917D01*
X42989330Y-33624917D01*
X42993903Y-33634693D01*
X43987188Y-34627978D01*
X44001132Y-34635592D01*
X44002965Y-34635461D01*
X44009580Y-34631210D01*
X45002488Y-33638302D01*
X45008872Y-33626612D01*
X44999460Y-33614502D01*
X44873144Y-33526873D01*
X44865116Y-33522145D01*
X44645810Y-33413995D01*
X44637177Y-33410507D01*
X44404288Y-33335958D01*
X44395238Y-33333785D01*
X44153891Y-33294480D01*
X44144602Y-33293668D01*
X43900114Y-33290467D01*
X43890803Y-33291037D01*
X43648522Y-33324010D01*
X43639403Y-33325948D01*
X43404668Y-33394367D01*
X43395915Y-33397639D01*
X43173869Y-33500004D01*
X43165714Y-33504524D01*
X42998468Y-33614175D01*
X42989330Y-33624917D01*
X40778822Y-33624917D01*
X40762094Y-33612763D01*
X40762093Y-33612762D01*
X40756752Y-33608882D01*
X40750724Y-33606198D01*
X40750722Y-33606197D01*
X40588319Y-33533891D01*
X40588318Y-33533891D01*
X40582288Y-33531206D01*
X40488888Y-33511353D01*
X40401944Y-33492872D01*
X40401939Y-33492872D01*
X40395487Y-33491500D01*
X40204513Y-33491500D01*
X40198061Y-33492872D01*
X40198056Y-33492872D01*
X40111112Y-33511353D01*
X40017712Y-33531206D01*
X40011682Y-33533891D01*
X40011681Y-33533891D01*
X39849278Y-33606197D01*
X39849276Y-33606198D01*
X39843248Y-33608882D01*
X39837907Y-33612762D01*
X39837906Y-33612763D01*
X39821178Y-33624917D01*
X39688747Y-33721134D01*
X39560960Y-33863056D01*
X39465473Y-34028444D01*
X39406458Y-34210072D01*
X39405768Y-34216633D01*
X39405768Y-34216635D01*
X39392051Y-34347151D01*
X39386496Y-34400000D01*
X37488373Y-34400000D01*
X37493055Y-34370440D01*
X37493743Y-34363896D01*
X37512641Y-34003301D01*
X37512641Y-33996699D01*
X37493743Y-33636104D01*
X37493055Y-33629560D01*
X37436567Y-33272901D01*
X37435198Y-33266463D01*
X37341740Y-32917672D01*
X37339700Y-32911395D01*
X37210296Y-32574286D01*
X37207620Y-32568275D01*
X37043683Y-32246532D01*
X37040387Y-32240823D01*
X36843721Y-31937984D01*
X36839854Y-31932662D01*
X36666322Y-31718366D01*
X36654067Y-31709900D01*
X36642976Y-31716234D01*
X34372022Y-33987188D01*
X34364408Y-34001132D01*
X33639658Y-34001132D01*
X36282900Y-31357890D01*
X36290040Y-31344814D01*
X36282582Y-31334446D01*
X36067338Y-31160146D01*
X36062016Y-31156279D01*
X35759177Y-30959613D01*
X35753468Y-30956317D01*
X35431725Y-30792380D01*
X35425708Y-30789701D01*
X35326531Y-30751631D01*
X35270103Y-30708545D01*
X35245926Y-30641792D01*
X35261677Y-30572565D01*
X35312355Y-30522843D01*
X35371685Y-30508000D01*
X64628315Y-30508000D01*
X64696436Y-30528002D01*
G37*
%TD.AperFunction*%
%TA.AperFunction,Conductor*%
G36*
X67144290Y-66801182D02*
G01*
X67189353Y-66830143D01*
X68351837Y-67992627D01*
X68385863Y-68054939D01*
X68380798Y-68125754D01*
X68351837Y-68170817D01*
X68170817Y-68351837D01*
X68108505Y-68385863D01*
X68037690Y-68380798D01*
X67992627Y-68351837D01*
X66830143Y-67189353D01*
X66796117Y-67127041D01*
X66801182Y-67056226D01*
X66830143Y-67011163D01*
X67011163Y-66830143D01*
X67073475Y-66796117D01*
X67144290Y-66801182D01*
G37*
%TD.AperFunction*%
%TA.AperFunction,Conductor*%
G36*
X32943774Y-66801182D02*
G01*
X32988837Y-66830143D01*
X33169857Y-67011163D01*
X33203883Y-67073475D01*
X33198818Y-67144290D01*
X33169857Y-67189353D01*
X32007373Y-68351837D01*
X31945061Y-68385863D01*
X31874246Y-68380798D01*
X31829183Y-68351837D01*
X31648163Y-68170817D01*
X31614137Y-68108505D01*
X31619202Y-68037690D01*
X31648163Y-67992627D01*
X32810647Y-66830143D01*
X32872959Y-66796117D01*
X32943774Y-66801182D01*
G37*
%TD.AperFunction*%
%TA.AperFunction,Conductor*%
G36*
X31962310Y-31619202D02*
G01*
X32007373Y-31648163D01*
X33169857Y-32810647D01*
X33203883Y-32872959D01*
X33198818Y-32943774D01*
X33169857Y-32988837D01*
X32988837Y-33169857D01*
X32926525Y-33203883D01*
X32855710Y-33198818D01*
X32810647Y-33169857D01*
X31648163Y-32007373D01*
X31614137Y-31945061D01*
X31619202Y-31874246D01*
X31648163Y-31829183D01*
X31829183Y-31648163D01*
X31891495Y-31614137D01*
X31962310Y-31619202D01*
G37*
%TD.AperFunction*%
%TA.AperFunction,Conductor*%
G36*
X68125754Y-31619202D02*
G01*
X68170817Y-31648163D01*
X68351837Y-31829183D01*
X68385863Y-31891495D01*
X68380798Y-31962310D01*
X68351837Y-32007373D01*
X67189353Y-33169857D01*
X67127041Y-33203883D01*
X67056226Y-33198818D01*
X67011163Y-33169857D01*
X66830143Y-32988837D01*
X66796117Y-32926525D01*
X66801182Y-32855710D01*
X66830143Y-32810647D01*
X67992627Y-31648163D01*
X68054939Y-31614137D01*
X68125754Y-31619202D01*
G37*
%TD.AperFunction*%
%TD*%
M02*
